%TF.GenerationSoftware,KiCad,Pcbnew,7.0.5-7.0.5~ubuntu22.04.1*%
%TF.CreationDate,2023-07-02T16:02:55+02:00*%
%TF.ProjectId,keyboard,6b657962-6f61-4726-942e-6b696361645f,v1.0*%
%TF.SameCoordinates,Original*%
%TF.FileFunction,Drillmap*%
%TF.FilePolarity,Positive*%
%FSLAX45Y45*%
G04 Gerber Fmt 4.5, Leading zero omitted, Abs format (unit mm)*
G04 Created by KiCad (PCBNEW 7.0.5-7.0.5~ubuntu22.04.1) date 2023-07-02 16:02:55*
%MOMM*%
%LPD*%
G01*
G04 APERTURE LIST*
%ADD10C,0.100000*%
%ADD11C,0.200000*%
%ADD12C,0.055000*%
%ADD13C,0.130000*%
%ADD14C,0.175000*%
%ADD15C,0.400000*%
G04 APERTURE END LIST*
D10*
X11430000Y-3429000D02*
X19050000Y-3429000D01*
X19050000Y-14808200D01*
X11430000Y-14808200D01*
X11430000Y-3429000D01*
D11*
D12*
X12969660Y-3885740D02*
X13024660Y-3940740D01*
X13024660Y-3885740D02*
X12969660Y-3940740D01*
X13354660Y-3885740D02*
X13409660Y-3940740D01*
X13409660Y-3885740D02*
X13354660Y-3940740D01*
D13*
X12226520Y-3619080D02*
G75*
G03*
X12226520Y-3619080I-65000J0D01*
G01*
X12226520Y-4319080D02*
G75*
G03*
X12226520Y-4319080I-65000J0D01*
G01*
D14*
X11877040Y-6140580D02*
X11877040Y-6315580D01*
X11789540Y-6228080D02*
X11964540Y-6228080D01*
X11877040Y-8045580D02*
X11877040Y-8220580D01*
X11789540Y-8133080D02*
X11964540Y-8133080D01*
X11877040Y-9955660D02*
X11877040Y-10130660D01*
X11789540Y-10043160D02*
X11964540Y-10043160D01*
X11877040Y-11860660D02*
X11877040Y-12035660D01*
X11789540Y-11948160D02*
X11964540Y-11948160D01*
X12827000Y-13765660D02*
X12827000Y-13940660D01*
X12739500Y-13853160D02*
X12914500Y-13853160D01*
X12893040Y-6140580D02*
X12893040Y-6315580D01*
X12805540Y-6228080D02*
X12980540Y-6228080D01*
X12893040Y-8045580D02*
X12893040Y-8220580D01*
X12805540Y-8133080D02*
X12980540Y-8133080D01*
X12893040Y-9955660D02*
X12893040Y-10130660D01*
X12805540Y-10043160D02*
X12980540Y-10043160D01*
X12893040Y-11860660D02*
X12893040Y-12035660D01*
X12805540Y-11948160D02*
X12980540Y-11948160D01*
X13782040Y-6140580D02*
X13782040Y-6315580D01*
X13694540Y-6228080D02*
X13869540Y-6228080D01*
X13782040Y-8045580D02*
X13782040Y-8220580D01*
X13694540Y-8133080D02*
X13869540Y-8133080D01*
X13782040Y-9955660D02*
X13782040Y-10130660D01*
X13694540Y-10043160D02*
X13869540Y-10043160D01*
X13782040Y-11860660D02*
X13782040Y-12035660D01*
X13694540Y-11948160D02*
X13869540Y-11948160D01*
X13843000Y-13765660D02*
X13843000Y-13940660D01*
X13755500Y-13853160D02*
X13930500Y-13853160D01*
X14798040Y-6140580D02*
X14798040Y-6315580D01*
X14710540Y-6228080D02*
X14885540Y-6228080D01*
X14798040Y-8045580D02*
X14798040Y-8220580D01*
X14710540Y-8133080D02*
X14885540Y-8133080D01*
X14798040Y-9955660D02*
X14798040Y-10130660D01*
X14710540Y-10043160D02*
X14885540Y-10043160D01*
X14798040Y-11860660D02*
X14798040Y-12035660D01*
X14710540Y-11948160D02*
X14885540Y-11948160D01*
X15687040Y-6140580D02*
X15687040Y-6315580D01*
X15599540Y-6228080D02*
X15774540Y-6228080D01*
X15687040Y-8045580D02*
X15687040Y-8220580D01*
X15599540Y-8133080D02*
X15774540Y-8133080D01*
X15687040Y-9955660D02*
X15687040Y-10130660D01*
X15599540Y-10043160D02*
X15774540Y-10043160D01*
X15687040Y-11860660D02*
X15687040Y-12035660D01*
X15599540Y-11948160D02*
X15774540Y-11948160D01*
X15687040Y-13765660D02*
X15687040Y-13940660D01*
X15599540Y-13853160D02*
X15774540Y-13853160D01*
X16703040Y-6140580D02*
X16703040Y-6315580D01*
X16615540Y-6228080D02*
X16790540Y-6228080D01*
X16703040Y-8045580D02*
X16703040Y-8220580D01*
X16615540Y-8133080D02*
X16790540Y-8133080D01*
X16703040Y-9955660D02*
X16703040Y-10130660D01*
X16615540Y-10043160D02*
X16790540Y-10043160D01*
X16703040Y-11860660D02*
X16703040Y-12035660D01*
X16615540Y-11948160D02*
X16790540Y-11948160D01*
X16703040Y-13765660D02*
X16703040Y-13940660D01*
X16615540Y-13853160D02*
X16790540Y-13853160D01*
X17592040Y-6140580D02*
X17592040Y-6315580D01*
X17504540Y-6228080D02*
X17679540Y-6228080D01*
X17592040Y-9000620D02*
X17592040Y-9175620D01*
X17504540Y-9088120D02*
X17679540Y-9088120D01*
X17592040Y-12810620D02*
X17592040Y-12985620D01*
X17504540Y-12898120D02*
X17679540Y-12898120D01*
X18608040Y-6140580D02*
X18608040Y-6315580D01*
X18520540Y-6228080D02*
X18695540Y-6228080D01*
X18608040Y-9000620D02*
X18608040Y-9175620D01*
X18520540Y-9088120D02*
X18695540Y-9088120D01*
X18608040Y-12810620D02*
X18608040Y-12985620D01*
X18520540Y-12898120D02*
X18695540Y-12898120D01*
D15*
X12526463Y-6369503D02*
X12526463Y-6086657D01*
X12243617Y-6086657D01*
X12243617Y-6369503D01*
X12526463Y-6369503D01*
X12526463Y-8274503D02*
X12526463Y-7991657D01*
X12243617Y-7991657D01*
X12243617Y-8274503D01*
X12526463Y-8274503D01*
X12526463Y-10184583D02*
X12526463Y-9901737D01*
X12243617Y-9901737D01*
X12243617Y-10184583D01*
X12526463Y-10184583D01*
X12526463Y-12089583D02*
X12526463Y-11806737D01*
X12243617Y-11806737D01*
X12243617Y-12089583D01*
X12526463Y-12089583D01*
X13476423Y-13994583D02*
X13476423Y-13711737D01*
X13193577Y-13711737D01*
X13193577Y-13994583D01*
X13476423Y-13994583D01*
X14431463Y-6369503D02*
X14431463Y-6086657D01*
X14148617Y-6086657D01*
X14148617Y-6369503D01*
X14431463Y-6369503D01*
X14431463Y-8274503D02*
X14431463Y-7991657D01*
X14148617Y-7991657D01*
X14148617Y-8274503D01*
X14431463Y-8274503D01*
X14431463Y-10184583D02*
X14431463Y-9901737D01*
X14148617Y-9901737D01*
X14148617Y-10184583D01*
X14431463Y-10184583D01*
X14431463Y-12089583D02*
X14431463Y-11806737D01*
X14148617Y-11806737D01*
X14148617Y-12089583D01*
X14431463Y-12089583D01*
X16336463Y-6369503D02*
X16336463Y-6086657D01*
X16053617Y-6086657D01*
X16053617Y-6369503D01*
X16336463Y-6369503D01*
X16336463Y-8274503D02*
X16336463Y-7991657D01*
X16053617Y-7991657D01*
X16053617Y-8274503D01*
X16336463Y-8274503D01*
X16336463Y-10184583D02*
X16336463Y-9901737D01*
X16053617Y-9901737D01*
X16053617Y-10184583D01*
X16336463Y-10184583D01*
X16336463Y-12089583D02*
X16336463Y-11806737D01*
X16053617Y-11806737D01*
X16053617Y-12089583D01*
X16336463Y-12089583D01*
X16336463Y-13994583D02*
X16336463Y-13711737D01*
X16053617Y-13711737D01*
X16053617Y-13994583D01*
X16336463Y-13994583D01*
X18241463Y-6369503D02*
X18241463Y-6086657D01*
X17958617Y-6086657D01*
X17958617Y-6369503D01*
X18241463Y-6369503D01*
X18241463Y-9229543D02*
X18241463Y-8946697D01*
X17958617Y-8946697D01*
X17958617Y-9229543D01*
X18241463Y-9229543D01*
X18241463Y-13039543D02*
X18241463Y-12756697D01*
X17958617Y-12756697D01*
X17958617Y-13039543D01*
X18241463Y-13039543D01*
D11*
X11685777Y-15124684D02*
X11685777Y-14924684D01*
X11685777Y-14924684D02*
X11733396Y-14924684D01*
X11733396Y-14924684D02*
X11761967Y-14934208D01*
X11761967Y-14934208D02*
X11781015Y-14953255D01*
X11781015Y-14953255D02*
X11790539Y-14972303D01*
X11790539Y-14972303D02*
X11800062Y-15010398D01*
X11800062Y-15010398D02*
X11800062Y-15038969D01*
X11800062Y-15038969D02*
X11790539Y-15077065D01*
X11790539Y-15077065D02*
X11781015Y-15096112D01*
X11781015Y-15096112D02*
X11761967Y-15115160D01*
X11761967Y-15115160D02*
X11733396Y-15124684D01*
X11733396Y-15124684D02*
X11685777Y-15124684D01*
X11885777Y-15124684D02*
X11885777Y-14991350D01*
X11885777Y-15029446D02*
X11895301Y-15010398D01*
X11895301Y-15010398D02*
X11904824Y-15000874D01*
X11904824Y-15000874D02*
X11923872Y-14991350D01*
X11923872Y-14991350D02*
X11942920Y-14991350D01*
X12009586Y-15124684D02*
X12009586Y-14991350D01*
X12009586Y-14924684D02*
X12000062Y-14934208D01*
X12000062Y-14934208D02*
X12009586Y-14943731D01*
X12009586Y-14943731D02*
X12019110Y-14934208D01*
X12019110Y-14934208D02*
X12009586Y-14924684D01*
X12009586Y-14924684D02*
X12009586Y-14943731D01*
X12133396Y-15124684D02*
X12114348Y-15115160D01*
X12114348Y-15115160D02*
X12104824Y-15096112D01*
X12104824Y-15096112D02*
X12104824Y-14924684D01*
X12238158Y-15124684D02*
X12219110Y-15115160D01*
X12219110Y-15115160D02*
X12209586Y-15096112D01*
X12209586Y-15096112D02*
X12209586Y-14924684D01*
X12466729Y-15124684D02*
X12466729Y-14924684D01*
X12466729Y-14924684D02*
X12533396Y-15067541D01*
X12533396Y-15067541D02*
X12600062Y-14924684D01*
X12600062Y-14924684D02*
X12600062Y-15124684D01*
X12781015Y-15124684D02*
X12781015Y-15019922D01*
X12781015Y-15019922D02*
X12771491Y-15000874D01*
X12771491Y-15000874D02*
X12752443Y-14991350D01*
X12752443Y-14991350D02*
X12714348Y-14991350D01*
X12714348Y-14991350D02*
X12695301Y-15000874D01*
X12781015Y-15115160D02*
X12761967Y-15124684D01*
X12761967Y-15124684D02*
X12714348Y-15124684D01*
X12714348Y-15124684D02*
X12695301Y-15115160D01*
X12695301Y-15115160D02*
X12685777Y-15096112D01*
X12685777Y-15096112D02*
X12685777Y-15077065D01*
X12685777Y-15077065D02*
X12695301Y-15058017D01*
X12695301Y-15058017D02*
X12714348Y-15048493D01*
X12714348Y-15048493D02*
X12761967Y-15048493D01*
X12761967Y-15048493D02*
X12781015Y-15038969D01*
X12876253Y-14991350D02*
X12876253Y-15191350D01*
X12876253Y-15000874D02*
X12895301Y-14991350D01*
X12895301Y-14991350D02*
X12933396Y-14991350D01*
X12933396Y-14991350D02*
X12952443Y-15000874D01*
X12952443Y-15000874D02*
X12961967Y-15010398D01*
X12961967Y-15010398D02*
X12971491Y-15029446D01*
X12971491Y-15029446D02*
X12971491Y-15086588D01*
X12971491Y-15086588D02*
X12961967Y-15105636D01*
X12961967Y-15105636D02*
X12952443Y-15115160D01*
X12952443Y-15115160D02*
X12933396Y-15124684D01*
X12933396Y-15124684D02*
X12895301Y-15124684D01*
X12895301Y-15124684D02*
X12876253Y-15115160D01*
X13057205Y-15105636D02*
X13066729Y-15115160D01*
X13066729Y-15115160D02*
X13057205Y-15124684D01*
X13057205Y-15124684D02*
X13047682Y-15115160D01*
X13047682Y-15115160D02*
X13057205Y-15105636D01*
X13057205Y-15105636D02*
X13057205Y-15124684D01*
X13057205Y-15000874D02*
X13066729Y-15010398D01*
X13066729Y-15010398D02*
X13057205Y-15019922D01*
X13057205Y-15019922D02*
X13047682Y-15010398D01*
X13047682Y-15010398D02*
X13057205Y-15000874D01*
X13057205Y-15000874D02*
X13057205Y-15019922D01*
D12*
X11370000Y-15425700D02*
X11425000Y-15480700D01*
X11425000Y-15425700D02*
X11370000Y-15480700D01*
D11*
X11723872Y-15344684D02*
X11742920Y-15344684D01*
X11742920Y-15344684D02*
X11761967Y-15354208D01*
X11761967Y-15354208D02*
X11771491Y-15363731D01*
X11771491Y-15363731D02*
X11781015Y-15382779D01*
X11781015Y-15382779D02*
X11790539Y-15420874D01*
X11790539Y-15420874D02*
X11790539Y-15468493D01*
X11790539Y-15468493D02*
X11781015Y-15506588D01*
X11781015Y-15506588D02*
X11771491Y-15525636D01*
X11771491Y-15525636D02*
X11761967Y-15535160D01*
X11761967Y-15535160D02*
X11742920Y-15544684D01*
X11742920Y-15544684D02*
X11723872Y-15544684D01*
X11723872Y-15544684D02*
X11704824Y-15535160D01*
X11704824Y-15535160D02*
X11695301Y-15525636D01*
X11695301Y-15525636D02*
X11685777Y-15506588D01*
X11685777Y-15506588D02*
X11676253Y-15468493D01*
X11676253Y-15468493D02*
X11676253Y-15420874D01*
X11676253Y-15420874D02*
X11685777Y-15382779D01*
X11685777Y-15382779D02*
X11695301Y-15363731D01*
X11695301Y-15363731D02*
X11704824Y-15354208D01*
X11704824Y-15354208D02*
X11723872Y-15344684D01*
X11876253Y-15525636D02*
X11885777Y-15535160D01*
X11885777Y-15535160D02*
X11876253Y-15544684D01*
X11876253Y-15544684D02*
X11866729Y-15535160D01*
X11866729Y-15535160D02*
X11876253Y-15525636D01*
X11876253Y-15525636D02*
X11876253Y-15544684D01*
X12066729Y-15344684D02*
X11971491Y-15344684D01*
X11971491Y-15344684D02*
X11961967Y-15439922D01*
X11961967Y-15439922D02*
X11971491Y-15430398D01*
X11971491Y-15430398D02*
X11990539Y-15420874D01*
X11990539Y-15420874D02*
X12038158Y-15420874D01*
X12038158Y-15420874D02*
X12057205Y-15430398D01*
X12057205Y-15430398D02*
X12066729Y-15439922D01*
X12066729Y-15439922D02*
X12076253Y-15458969D01*
X12076253Y-15458969D02*
X12076253Y-15506588D01*
X12076253Y-15506588D02*
X12066729Y-15525636D01*
X12066729Y-15525636D02*
X12057205Y-15535160D01*
X12057205Y-15535160D02*
X12038158Y-15544684D01*
X12038158Y-15544684D02*
X11990539Y-15544684D01*
X11990539Y-15544684D02*
X11971491Y-15535160D01*
X11971491Y-15535160D02*
X11961967Y-15525636D01*
X12257205Y-15344684D02*
X12161967Y-15344684D01*
X12161967Y-15344684D02*
X12152443Y-15439922D01*
X12152443Y-15439922D02*
X12161967Y-15430398D01*
X12161967Y-15430398D02*
X12181015Y-15420874D01*
X12181015Y-15420874D02*
X12228634Y-15420874D01*
X12228634Y-15420874D02*
X12247682Y-15430398D01*
X12247682Y-15430398D02*
X12257205Y-15439922D01*
X12257205Y-15439922D02*
X12266729Y-15458969D01*
X12266729Y-15458969D02*
X12266729Y-15506588D01*
X12266729Y-15506588D02*
X12257205Y-15525636D01*
X12257205Y-15525636D02*
X12247682Y-15535160D01*
X12247682Y-15535160D02*
X12228634Y-15544684D01*
X12228634Y-15544684D02*
X12181015Y-15544684D01*
X12181015Y-15544684D02*
X12161967Y-15535160D01*
X12161967Y-15535160D02*
X12152443Y-15525636D01*
X12390539Y-15344684D02*
X12409586Y-15344684D01*
X12409586Y-15344684D02*
X12428634Y-15354208D01*
X12428634Y-15354208D02*
X12438158Y-15363731D01*
X12438158Y-15363731D02*
X12447682Y-15382779D01*
X12447682Y-15382779D02*
X12457205Y-15420874D01*
X12457205Y-15420874D02*
X12457205Y-15468493D01*
X12457205Y-15468493D02*
X12447682Y-15506588D01*
X12447682Y-15506588D02*
X12438158Y-15525636D01*
X12438158Y-15525636D02*
X12428634Y-15535160D01*
X12428634Y-15535160D02*
X12409586Y-15544684D01*
X12409586Y-15544684D02*
X12390539Y-15544684D01*
X12390539Y-15544684D02*
X12371491Y-15535160D01*
X12371491Y-15535160D02*
X12361967Y-15525636D01*
X12361967Y-15525636D02*
X12352443Y-15506588D01*
X12352443Y-15506588D02*
X12342920Y-15468493D01*
X12342920Y-15468493D02*
X12342920Y-15420874D01*
X12342920Y-15420874D02*
X12352443Y-15382779D01*
X12352443Y-15382779D02*
X12361967Y-15363731D01*
X12361967Y-15363731D02*
X12371491Y-15354208D01*
X12371491Y-15354208D02*
X12390539Y-15344684D01*
X12542920Y-15544684D02*
X12542920Y-15411350D01*
X12542920Y-15430398D02*
X12552443Y-15420874D01*
X12552443Y-15420874D02*
X12571491Y-15411350D01*
X12571491Y-15411350D02*
X12600063Y-15411350D01*
X12600063Y-15411350D02*
X12619110Y-15420874D01*
X12619110Y-15420874D02*
X12628634Y-15439922D01*
X12628634Y-15439922D02*
X12628634Y-15544684D01*
X12628634Y-15439922D02*
X12638158Y-15420874D01*
X12638158Y-15420874D02*
X12657205Y-15411350D01*
X12657205Y-15411350D02*
X12685777Y-15411350D01*
X12685777Y-15411350D02*
X12704824Y-15420874D01*
X12704824Y-15420874D02*
X12714348Y-15439922D01*
X12714348Y-15439922D02*
X12714348Y-15544684D01*
X12809586Y-15544684D02*
X12809586Y-15411350D01*
X12809586Y-15430398D02*
X12819110Y-15420874D01*
X12819110Y-15420874D02*
X12838158Y-15411350D01*
X12838158Y-15411350D02*
X12866729Y-15411350D01*
X12866729Y-15411350D02*
X12885777Y-15420874D01*
X12885777Y-15420874D02*
X12895301Y-15439922D01*
X12895301Y-15439922D02*
X12895301Y-15544684D01*
X12895301Y-15439922D02*
X12904824Y-15420874D01*
X12904824Y-15420874D02*
X12923872Y-15411350D01*
X12923872Y-15411350D02*
X12952443Y-15411350D01*
X12952443Y-15411350D02*
X12971491Y-15420874D01*
X12971491Y-15420874D02*
X12981015Y-15439922D01*
X12981015Y-15439922D02*
X12981015Y-15544684D01*
X13371491Y-15335160D02*
X13200063Y-15592303D01*
X13628634Y-15344684D02*
X13647682Y-15344684D01*
X13647682Y-15344684D02*
X13666729Y-15354208D01*
X13666729Y-15354208D02*
X13676253Y-15363731D01*
X13676253Y-15363731D02*
X13685777Y-15382779D01*
X13685777Y-15382779D02*
X13695301Y-15420874D01*
X13695301Y-15420874D02*
X13695301Y-15468493D01*
X13695301Y-15468493D02*
X13685777Y-15506588D01*
X13685777Y-15506588D02*
X13676253Y-15525636D01*
X13676253Y-15525636D02*
X13666729Y-15535160D01*
X13666729Y-15535160D02*
X13647682Y-15544684D01*
X13647682Y-15544684D02*
X13628634Y-15544684D01*
X13628634Y-15544684D02*
X13609586Y-15535160D01*
X13609586Y-15535160D02*
X13600063Y-15525636D01*
X13600063Y-15525636D02*
X13590539Y-15506588D01*
X13590539Y-15506588D02*
X13581015Y-15468493D01*
X13581015Y-15468493D02*
X13581015Y-15420874D01*
X13581015Y-15420874D02*
X13590539Y-15382779D01*
X13590539Y-15382779D02*
X13600063Y-15363731D01*
X13600063Y-15363731D02*
X13609586Y-15354208D01*
X13609586Y-15354208D02*
X13628634Y-15344684D01*
X13781015Y-15525636D02*
X13790539Y-15535160D01*
X13790539Y-15535160D02*
X13781015Y-15544684D01*
X13781015Y-15544684D02*
X13771491Y-15535160D01*
X13771491Y-15535160D02*
X13781015Y-15525636D01*
X13781015Y-15525636D02*
X13781015Y-15544684D01*
X13914348Y-15344684D02*
X13933396Y-15344684D01*
X13933396Y-15344684D02*
X13952444Y-15354208D01*
X13952444Y-15354208D02*
X13961967Y-15363731D01*
X13961967Y-15363731D02*
X13971491Y-15382779D01*
X13971491Y-15382779D02*
X13981015Y-15420874D01*
X13981015Y-15420874D02*
X13981015Y-15468493D01*
X13981015Y-15468493D02*
X13971491Y-15506588D01*
X13971491Y-15506588D02*
X13961967Y-15525636D01*
X13961967Y-15525636D02*
X13952444Y-15535160D01*
X13952444Y-15535160D02*
X13933396Y-15544684D01*
X13933396Y-15544684D02*
X13914348Y-15544684D01*
X13914348Y-15544684D02*
X13895301Y-15535160D01*
X13895301Y-15535160D02*
X13885777Y-15525636D01*
X13885777Y-15525636D02*
X13876253Y-15506588D01*
X13876253Y-15506588D02*
X13866729Y-15468493D01*
X13866729Y-15468493D02*
X13866729Y-15420874D01*
X13866729Y-15420874D02*
X13876253Y-15382779D01*
X13876253Y-15382779D02*
X13885777Y-15363731D01*
X13885777Y-15363731D02*
X13895301Y-15354208D01*
X13895301Y-15354208D02*
X13914348Y-15344684D01*
X14057206Y-15363731D02*
X14066729Y-15354208D01*
X14066729Y-15354208D02*
X14085777Y-15344684D01*
X14085777Y-15344684D02*
X14133396Y-15344684D01*
X14133396Y-15344684D02*
X14152444Y-15354208D01*
X14152444Y-15354208D02*
X14161967Y-15363731D01*
X14161967Y-15363731D02*
X14171491Y-15382779D01*
X14171491Y-15382779D02*
X14171491Y-15401827D01*
X14171491Y-15401827D02*
X14161967Y-15430398D01*
X14161967Y-15430398D02*
X14047682Y-15544684D01*
X14047682Y-15544684D02*
X14171491Y-15544684D01*
X14361967Y-15544684D02*
X14247682Y-15544684D01*
X14304825Y-15544684D02*
X14304825Y-15344684D01*
X14304825Y-15344684D02*
X14285777Y-15373255D01*
X14285777Y-15373255D02*
X14266729Y-15392303D01*
X14266729Y-15392303D02*
X14247682Y-15401827D01*
X14428634Y-15344684D02*
X14561967Y-15344684D01*
X14561967Y-15344684D02*
X14476253Y-15544684D01*
X14628634Y-15344684D02*
X14628634Y-15382779D01*
X14704825Y-15344684D02*
X14704825Y-15382779D01*
X15000063Y-15620874D02*
X14990539Y-15611350D01*
X14990539Y-15611350D02*
X14971491Y-15582779D01*
X14971491Y-15582779D02*
X14961968Y-15563731D01*
X14961968Y-15563731D02*
X14952444Y-15535160D01*
X14952444Y-15535160D02*
X14942920Y-15487541D01*
X14942920Y-15487541D02*
X14942920Y-15449446D01*
X14942920Y-15449446D02*
X14952444Y-15401827D01*
X14952444Y-15401827D02*
X14961968Y-15373255D01*
X14961968Y-15373255D02*
X14971491Y-15354208D01*
X14971491Y-15354208D02*
X14990539Y-15325636D01*
X14990539Y-15325636D02*
X15000063Y-15316112D01*
X15066729Y-15363731D02*
X15076253Y-15354208D01*
X15076253Y-15354208D02*
X15095301Y-15344684D01*
X15095301Y-15344684D02*
X15142920Y-15344684D01*
X15142920Y-15344684D02*
X15161968Y-15354208D01*
X15161968Y-15354208D02*
X15171491Y-15363731D01*
X15171491Y-15363731D02*
X15181015Y-15382779D01*
X15181015Y-15382779D02*
X15181015Y-15401827D01*
X15181015Y-15401827D02*
X15171491Y-15430398D01*
X15171491Y-15430398D02*
X15057206Y-15544684D01*
X15057206Y-15544684D02*
X15181015Y-15544684D01*
X15419110Y-15544684D02*
X15419110Y-15344684D01*
X15504825Y-15544684D02*
X15504825Y-15439922D01*
X15504825Y-15439922D02*
X15495301Y-15420874D01*
X15495301Y-15420874D02*
X15476253Y-15411350D01*
X15476253Y-15411350D02*
X15447682Y-15411350D01*
X15447682Y-15411350D02*
X15428634Y-15420874D01*
X15428634Y-15420874D02*
X15419110Y-15430398D01*
X15628634Y-15544684D02*
X15609587Y-15535160D01*
X15609587Y-15535160D02*
X15600063Y-15525636D01*
X15600063Y-15525636D02*
X15590539Y-15506588D01*
X15590539Y-15506588D02*
X15590539Y-15449446D01*
X15590539Y-15449446D02*
X15600063Y-15430398D01*
X15600063Y-15430398D02*
X15609587Y-15420874D01*
X15609587Y-15420874D02*
X15628634Y-15411350D01*
X15628634Y-15411350D02*
X15657206Y-15411350D01*
X15657206Y-15411350D02*
X15676253Y-15420874D01*
X15676253Y-15420874D02*
X15685777Y-15430398D01*
X15685777Y-15430398D02*
X15695301Y-15449446D01*
X15695301Y-15449446D02*
X15695301Y-15506588D01*
X15695301Y-15506588D02*
X15685777Y-15525636D01*
X15685777Y-15525636D02*
X15676253Y-15535160D01*
X15676253Y-15535160D02*
X15657206Y-15544684D01*
X15657206Y-15544684D02*
X15628634Y-15544684D01*
X15809587Y-15544684D02*
X15790539Y-15535160D01*
X15790539Y-15535160D02*
X15781015Y-15516112D01*
X15781015Y-15516112D02*
X15781015Y-15344684D01*
X15961968Y-15535160D02*
X15942920Y-15544684D01*
X15942920Y-15544684D02*
X15904825Y-15544684D01*
X15904825Y-15544684D02*
X15885777Y-15535160D01*
X15885777Y-15535160D02*
X15876253Y-15516112D01*
X15876253Y-15516112D02*
X15876253Y-15439922D01*
X15876253Y-15439922D02*
X15885777Y-15420874D01*
X15885777Y-15420874D02*
X15904825Y-15411350D01*
X15904825Y-15411350D02*
X15942920Y-15411350D01*
X15942920Y-15411350D02*
X15961968Y-15420874D01*
X15961968Y-15420874D02*
X15971491Y-15439922D01*
X15971491Y-15439922D02*
X15971491Y-15458969D01*
X15971491Y-15458969D02*
X15876253Y-15478017D01*
X16047682Y-15535160D02*
X16066730Y-15544684D01*
X16066730Y-15544684D02*
X16104825Y-15544684D01*
X16104825Y-15544684D02*
X16123872Y-15535160D01*
X16123872Y-15535160D02*
X16133396Y-15516112D01*
X16133396Y-15516112D02*
X16133396Y-15506588D01*
X16133396Y-15506588D02*
X16123872Y-15487541D01*
X16123872Y-15487541D02*
X16104825Y-15478017D01*
X16104825Y-15478017D02*
X16076253Y-15478017D01*
X16076253Y-15478017D02*
X16057206Y-15468493D01*
X16057206Y-15468493D02*
X16047682Y-15449446D01*
X16047682Y-15449446D02*
X16047682Y-15439922D01*
X16047682Y-15439922D02*
X16057206Y-15420874D01*
X16057206Y-15420874D02*
X16076253Y-15411350D01*
X16076253Y-15411350D02*
X16104825Y-15411350D01*
X16104825Y-15411350D02*
X16123872Y-15420874D01*
X16200063Y-15620874D02*
X16209587Y-15611350D01*
X16209587Y-15611350D02*
X16228634Y-15582779D01*
X16228634Y-15582779D02*
X16238158Y-15563731D01*
X16238158Y-15563731D02*
X16247682Y-15535160D01*
X16247682Y-15535160D02*
X16257206Y-15487541D01*
X16257206Y-15487541D02*
X16257206Y-15449446D01*
X16257206Y-15449446D02*
X16247682Y-15401827D01*
X16247682Y-15401827D02*
X16238158Y-15373255D01*
X16238158Y-15373255D02*
X16228634Y-15354208D01*
X16228634Y-15354208D02*
X16209587Y-15325636D01*
X16209587Y-15325636D02*
X16200063Y-15316112D01*
X16561968Y-15620874D02*
X16552444Y-15611350D01*
X16552444Y-15611350D02*
X16533396Y-15582779D01*
X16533396Y-15582779D02*
X16523872Y-15563731D01*
X16523872Y-15563731D02*
X16514349Y-15535160D01*
X16514349Y-15535160D02*
X16504825Y-15487541D01*
X16504825Y-15487541D02*
X16504825Y-15449446D01*
X16504825Y-15449446D02*
X16514349Y-15401827D01*
X16514349Y-15401827D02*
X16523872Y-15373255D01*
X16523872Y-15373255D02*
X16533396Y-15354208D01*
X16533396Y-15354208D02*
X16552444Y-15325636D01*
X16552444Y-15325636D02*
X16561968Y-15316112D01*
X16638158Y-15411350D02*
X16638158Y-15544684D01*
X16638158Y-15430398D02*
X16647682Y-15420874D01*
X16647682Y-15420874D02*
X16666730Y-15411350D01*
X16666730Y-15411350D02*
X16695301Y-15411350D01*
X16695301Y-15411350D02*
X16714349Y-15420874D01*
X16714349Y-15420874D02*
X16723872Y-15439922D01*
X16723872Y-15439922D02*
X16723872Y-15544684D01*
X16847682Y-15544684D02*
X16828634Y-15535160D01*
X16828634Y-15535160D02*
X16819111Y-15525636D01*
X16819111Y-15525636D02*
X16809587Y-15506588D01*
X16809587Y-15506588D02*
X16809587Y-15449446D01*
X16809587Y-15449446D02*
X16819111Y-15430398D01*
X16819111Y-15430398D02*
X16828634Y-15420874D01*
X16828634Y-15420874D02*
X16847682Y-15411350D01*
X16847682Y-15411350D02*
X16876254Y-15411350D01*
X16876254Y-15411350D02*
X16895301Y-15420874D01*
X16895301Y-15420874D02*
X16904825Y-15430398D01*
X16904825Y-15430398D02*
X16914349Y-15449446D01*
X16914349Y-15449446D02*
X16914349Y-15506588D01*
X16914349Y-15506588D02*
X16904825Y-15525636D01*
X16904825Y-15525636D02*
X16895301Y-15535160D01*
X16895301Y-15535160D02*
X16876254Y-15544684D01*
X16876254Y-15544684D02*
X16847682Y-15544684D01*
X16971492Y-15411350D02*
X17047682Y-15411350D01*
X17000063Y-15344684D02*
X17000063Y-15516112D01*
X17000063Y-15516112D02*
X17009587Y-15535160D01*
X17009587Y-15535160D02*
X17028634Y-15544684D01*
X17028634Y-15544684D02*
X17047682Y-15544684D01*
X17266730Y-15411350D02*
X17266730Y-15611350D01*
X17266730Y-15420874D02*
X17285777Y-15411350D01*
X17285777Y-15411350D02*
X17323873Y-15411350D01*
X17323873Y-15411350D02*
X17342920Y-15420874D01*
X17342920Y-15420874D02*
X17352444Y-15430398D01*
X17352444Y-15430398D02*
X17361968Y-15449446D01*
X17361968Y-15449446D02*
X17361968Y-15506588D01*
X17361968Y-15506588D02*
X17352444Y-15525636D01*
X17352444Y-15525636D02*
X17342920Y-15535160D01*
X17342920Y-15535160D02*
X17323873Y-15544684D01*
X17323873Y-15544684D02*
X17285777Y-15544684D01*
X17285777Y-15544684D02*
X17266730Y-15535160D01*
X17476254Y-15544684D02*
X17457206Y-15535160D01*
X17457206Y-15535160D02*
X17447682Y-15516112D01*
X17447682Y-15516112D02*
X17447682Y-15344684D01*
X17638158Y-15544684D02*
X17638158Y-15439922D01*
X17638158Y-15439922D02*
X17628635Y-15420874D01*
X17628635Y-15420874D02*
X17609587Y-15411350D01*
X17609587Y-15411350D02*
X17571492Y-15411350D01*
X17571492Y-15411350D02*
X17552444Y-15420874D01*
X17638158Y-15535160D02*
X17619111Y-15544684D01*
X17619111Y-15544684D02*
X17571492Y-15544684D01*
X17571492Y-15544684D02*
X17552444Y-15535160D01*
X17552444Y-15535160D02*
X17542920Y-15516112D01*
X17542920Y-15516112D02*
X17542920Y-15497065D01*
X17542920Y-15497065D02*
X17552444Y-15478017D01*
X17552444Y-15478017D02*
X17571492Y-15468493D01*
X17571492Y-15468493D02*
X17619111Y-15468493D01*
X17619111Y-15468493D02*
X17638158Y-15458969D01*
X17704825Y-15411350D02*
X17781015Y-15411350D01*
X17733396Y-15344684D02*
X17733396Y-15516112D01*
X17733396Y-15516112D02*
X17742920Y-15535160D01*
X17742920Y-15535160D02*
X17761968Y-15544684D01*
X17761968Y-15544684D02*
X17781015Y-15544684D01*
X17923873Y-15535160D02*
X17904825Y-15544684D01*
X17904825Y-15544684D02*
X17866730Y-15544684D01*
X17866730Y-15544684D02*
X17847682Y-15535160D01*
X17847682Y-15535160D02*
X17838158Y-15516112D01*
X17838158Y-15516112D02*
X17838158Y-15439922D01*
X17838158Y-15439922D02*
X17847682Y-15420874D01*
X17847682Y-15420874D02*
X17866730Y-15411350D01*
X17866730Y-15411350D02*
X17904825Y-15411350D01*
X17904825Y-15411350D02*
X17923873Y-15420874D01*
X17923873Y-15420874D02*
X17933396Y-15439922D01*
X17933396Y-15439922D02*
X17933396Y-15458969D01*
X17933396Y-15458969D02*
X17838158Y-15478017D01*
X18104825Y-15544684D02*
X18104825Y-15344684D01*
X18104825Y-15535160D02*
X18085777Y-15544684D01*
X18085777Y-15544684D02*
X18047682Y-15544684D01*
X18047682Y-15544684D02*
X18028635Y-15535160D01*
X18028635Y-15535160D02*
X18019111Y-15525636D01*
X18019111Y-15525636D02*
X18009587Y-15506588D01*
X18009587Y-15506588D02*
X18009587Y-15449446D01*
X18009587Y-15449446D02*
X18019111Y-15430398D01*
X18019111Y-15430398D02*
X18028635Y-15420874D01*
X18028635Y-15420874D02*
X18047682Y-15411350D01*
X18047682Y-15411350D02*
X18085777Y-15411350D01*
X18085777Y-15411350D02*
X18104825Y-15420874D01*
X18181016Y-15620874D02*
X18190539Y-15611350D01*
X18190539Y-15611350D02*
X18209587Y-15582779D01*
X18209587Y-15582779D02*
X18219111Y-15563731D01*
X18219111Y-15563731D02*
X18228635Y-15535160D01*
X18228635Y-15535160D02*
X18238158Y-15487541D01*
X18238158Y-15487541D02*
X18238158Y-15449446D01*
X18238158Y-15449446D02*
X18228635Y-15401827D01*
X18228635Y-15401827D02*
X18219111Y-15373255D01*
X18219111Y-15373255D02*
X18209587Y-15354208D01*
X18209587Y-15354208D02*
X18190539Y-15325636D01*
X18190539Y-15325636D02*
X18181016Y-15316112D01*
D13*
X11425000Y-15717200D02*
G75*
G03*
X11425000Y-15717200I-65000J0D01*
G01*
D11*
X11790539Y-15808684D02*
X11676253Y-15808684D01*
X11733396Y-15808684D02*
X11733396Y-15608684D01*
X11733396Y-15608684D02*
X11714348Y-15637255D01*
X11714348Y-15637255D02*
X11695301Y-15656303D01*
X11695301Y-15656303D02*
X11676253Y-15665827D01*
X11876253Y-15789636D02*
X11885777Y-15799160D01*
X11885777Y-15799160D02*
X11876253Y-15808684D01*
X11876253Y-15808684D02*
X11866729Y-15799160D01*
X11866729Y-15799160D02*
X11876253Y-15789636D01*
X11876253Y-15789636D02*
X11876253Y-15808684D01*
X11952443Y-15608684D02*
X12076253Y-15608684D01*
X12076253Y-15608684D02*
X12009586Y-15684874D01*
X12009586Y-15684874D02*
X12038158Y-15684874D01*
X12038158Y-15684874D02*
X12057205Y-15694398D01*
X12057205Y-15694398D02*
X12066729Y-15703922D01*
X12066729Y-15703922D02*
X12076253Y-15722969D01*
X12076253Y-15722969D02*
X12076253Y-15770588D01*
X12076253Y-15770588D02*
X12066729Y-15789636D01*
X12066729Y-15789636D02*
X12057205Y-15799160D01*
X12057205Y-15799160D02*
X12038158Y-15808684D01*
X12038158Y-15808684D02*
X11981015Y-15808684D01*
X11981015Y-15808684D02*
X11961967Y-15799160D01*
X11961967Y-15799160D02*
X11952443Y-15789636D01*
X12200062Y-15608684D02*
X12219110Y-15608684D01*
X12219110Y-15608684D02*
X12238158Y-15618208D01*
X12238158Y-15618208D02*
X12247682Y-15627731D01*
X12247682Y-15627731D02*
X12257205Y-15646779D01*
X12257205Y-15646779D02*
X12266729Y-15684874D01*
X12266729Y-15684874D02*
X12266729Y-15732493D01*
X12266729Y-15732493D02*
X12257205Y-15770588D01*
X12257205Y-15770588D02*
X12247682Y-15789636D01*
X12247682Y-15789636D02*
X12238158Y-15799160D01*
X12238158Y-15799160D02*
X12219110Y-15808684D01*
X12219110Y-15808684D02*
X12200062Y-15808684D01*
X12200062Y-15808684D02*
X12181015Y-15799160D01*
X12181015Y-15799160D02*
X12171491Y-15789636D01*
X12171491Y-15789636D02*
X12161967Y-15770588D01*
X12161967Y-15770588D02*
X12152443Y-15732493D01*
X12152443Y-15732493D02*
X12152443Y-15684874D01*
X12152443Y-15684874D02*
X12161967Y-15646779D01*
X12161967Y-15646779D02*
X12171491Y-15627731D01*
X12171491Y-15627731D02*
X12181015Y-15618208D01*
X12181015Y-15618208D02*
X12200062Y-15608684D01*
X12390539Y-15608684D02*
X12409586Y-15608684D01*
X12409586Y-15608684D02*
X12428634Y-15618208D01*
X12428634Y-15618208D02*
X12438158Y-15627731D01*
X12438158Y-15627731D02*
X12447682Y-15646779D01*
X12447682Y-15646779D02*
X12457205Y-15684874D01*
X12457205Y-15684874D02*
X12457205Y-15732493D01*
X12457205Y-15732493D02*
X12447682Y-15770588D01*
X12447682Y-15770588D02*
X12438158Y-15789636D01*
X12438158Y-15789636D02*
X12428634Y-15799160D01*
X12428634Y-15799160D02*
X12409586Y-15808684D01*
X12409586Y-15808684D02*
X12390539Y-15808684D01*
X12390539Y-15808684D02*
X12371491Y-15799160D01*
X12371491Y-15799160D02*
X12361967Y-15789636D01*
X12361967Y-15789636D02*
X12352443Y-15770588D01*
X12352443Y-15770588D02*
X12342920Y-15732493D01*
X12342920Y-15732493D02*
X12342920Y-15684874D01*
X12342920Y-15684874D02*
X12352443Y-15646779D01*
X12352443Y-15646779D02*
X12361967Y-15627731D01*
X12361967Y-15627731D02*
X12371491Y-15618208D01*
X12371491Y-15618208D02*
X12390539Y-15608684D01*
X12542920Y-15808684D02*
X12542920Y-15675350D01*
X12542920Y-15694398D02*
X12552443Y-15684874D01*
X12552443Y-15684874D02*
X12571491Y-15675350D01*
X12571491Y-15675350D02*
X12600063Y-15675350D01*
X12600063Y-15675350D02*
X12619110Y-15684874D01*
X12619110Y-15684874D02*
X12628634Y-15703922D01*
X12628634Y-15703922D02*
X12628634Y-15808684D01*
X12628634Y-15703922D02*
X12638158Y-15684874D01*
X12638158Y-15684874D02*
X12657205Y-15675350D01*
X12657205Y-15675350D02*
X12685777Y-15675350D01*
X12685777Y-15675350D02*
X12704824Y-15684874D01*
X12704824Y-15684874D02*
X12714348Y-15703922D01*
X12714348Y-15703922D02*
X12714348Y-15808684D01*
X12809586Y-15808684D02*
X12809586Y-15675350D01*
X12809586Y-15694398D02*
X12819110Y-15684874D01*
X12819110Y-15684874D02*
X12838158Y-15675350D01*
X12838158Y-15675350D02*
X12866729Y-15675350D01*
X12866729Y-15675350D02*
X12885777Y-15684874D01*
X12885777Y-15684874D02*
X12895301Y-15703922D01*
X12895301Y-15703922D02*
X12895301Y-15808684D01*
X12895301Y-15703922D02*
X12904824Y-15684874D01*
X12904824Y-15684874D02*
X12923872Y-15675350D01*
X12923872Y-15675350D02*
X12952443Y-15675350D01*
X12952443Y-15675350D02*
X12971491Y-15684874D01*
X12971491Y-15684874D02*
X12981015Y-15703922D01*
X12981015Y-15703922D02*
X12981015Y-15808684D01*
X13371491Y-15599160D02*
X13200063Y-15856303D01*
X13628634Y-15608684D02*
X13647682Y-15608684D01*
X13647682Y-15608684D02*
X13666729Y-15618208D01*
X13666729Y-15618208D02*
X13676253Y-15627731D01*
X13676253Y-15627731D02*
X13685777Y-15646779D01*
X13685777Y-15646779D02*
X13695301Y-15684874D01*
X13695301Y-15684874D02*
X13695301Y-15732493D01*
X13695301Y-15732493D02*
X13685777Y-15770588D01*
X13685777Y-15770588D02*
X13676253Y-15789636D01*
X13676253Y-15789636D02*
X13666729Y-15799160D01*
X13666729Y-15799160D02*
X13647682Y-15808684D01*
X13647682Y-15808684D02*
X13628634Y-15808684D01*
X13628634Y-15808684D02*
X13609586Y-15799160D01*
X13609586Y-15799160D02*
X13600063Y-15789636D01*
X13600063Y-15789636D02*
X13590539Y-15770588D01*
X13590539Y-15770588D02*
X13581015Y-15732493D01*
X13581015Y-15732493D02*
X13581015Y-15684874D01*
X13581015Y-15684874D02*
X13590539Y-15646779D01*
X13590539Y-15646779D02*
X13600063Y-15627731D01*
X13600063Y-15627731D02*
X13609586Y-15618208D01*
X13609586Y-15618208D02*
X13628634Y-15608684D01*
X13781015Y-15789636D02*
X13790539Y-15799160D01*
X13790539Y-15799160D02*
X13781015Y-15808684D01*
X13781015Y-15808684D02*
X13771491Y-15799160D01*
X13771491Y-15799160D02*
X13781015Y-15789636D01*
X13781015Y-15789636D02*
X13781015Y-15808684D01*
X13914348Y-15608684D02*
X13933396Y-15608684D01*
X13933396Y-15608684D02*
X13952444Y-15618208D01*
X13952444Y-15618208D02*
X13961967Y-15627731D01*
X13961967Y-15627731D02*
X13971491Y-15646779D01*
X13971491Y-15646779D02*
X13981015Y-15684874D01*
X13981015Y-15684874D02*
X13981015Y-15732493D01*
X13981015Y-15732493D02*
X13971491Y-15770588D01*
X13971491Y-15770588D02*
X13961967Y-15789636D01*
X13961967Y-15789636D02*
X13952444Y-15799160D01*
X13952444Y-15799160D02*
X13933396Y-15808684D01*
X13933396Y-15808684D02*
X13914348Y-15808684D01*
X13914348Y-15808684D02*
X13895301Y-15799160D01*
X13895301Y-15799160D02*
X13885777Y-15789636D01*
X13885777Y-15789636D02*
X13876253Y-15770588D01*
X13876253Y-15770588D02*
X13866729Y-15732493D01*
X13866729Y-15732493D02*
X13866729Y-15684874D01*
X13866729Y-15684874D02*
X13876253Y-15646779D01*
X13876253Y-15646779D02*
X13885777Y-15627731D01*
X13885777Y-15627731D02*
X13895301Y-15618208D01*
X13895301Y-15618208D02*
X13914348Y-15608684D01*
X14161967Y-15608684D02*
X14066729Y-15608684D01*
X14066729Y-15608684D02*
X14057206Y-15703922D01*
X14057206Y-15703922D02*
X14066729Y-15694398D01*
X14066729Y-15694398D02*
X14085777Y-15684874D01*
X14085777Y-15684874D02*
X14133396Y-15684874D01*
X14133396Y-15684874D02*
X14152444Y-15694398D01*
X14152444Y-15694398D02*
X14161967Y-15703922D01*
X14161967Y-15703922D02*
X14171491Y-15722969D01*
X14171491Y-15722969D02*
X14171491Y-15770588D01*
X14171491Y-15770588D02*
X14161967Y-15789636D01*
X14161967Y-15789636D02*
X14152444Y-15799160D01*
X14152444Y-15799160D02*
X14133396Y-15808684D01*
X14133396Y-15808684D02*
X14085777Y-15808684D01*
X14085777Y-15808684D02*
X14066729Y-15799160D01*
X14066729Y-15799160D02*
X14057206Y-15789636D01*
X14361967Y-15808684D02*
X14247682Y-15808684D01*
X14304825Y-15808684D02*
X14304825Y-15608684D01*
X14304825Y-15608684D02*
X14285777Y-15637255D01*
X14285777Y-15637255D02*
X14266729Y-15656303D01*
X14266729Y-15656303D02*
X14247682Y-15665827D01*
X14438158Y-15627731D02*
X14447682Y-15618208D01*
X14447682Y-15618208D02*
X14466729Y-15608684D01*
X14466729Y-15608684D02*
X14514348Y-15608684D01*
X14514348Y-15608684D02*
X14533396Y-15618208D01*
X14533396Y-15618208D02*
X14542920Y-15627731D01*
X14542920Y-15627731D02*
X14552444Y-15646779D01*
X14552444Y-15646779D02*
X14552444Y-15665827D01*
X14552444Y-15665827D02*
X14542920Y-15694398D01*
X14542920Y-15694398D02*
X14428634Y-15808684D01*
X14428634Y-15808684D02*
X14552444Y-15808684D01*
X14628634Y-15608684D02*
X14628634Y-15646779D01*
X14704825Y-15608684D02*
X14704825Y-15646779D01*
X15000063Y-15884874D02*
X14990539Y-15875350D01*
X14990539Y-15875350D02*
X14971491Y-15846779D01*
X14971491Y-15846779D02*
X14961968Y-15827731D01*
X14961968Y-15827731D02*
X14952444Y-15799160D01*
X14952444Y-15799160D02*
X14942920Y-15751541D01*
X14942920Y-15751541D02*
X14942920Y-15713446D01*
X14942920Y-15713446D02*
X14952444Y-15665827D01*
X14952444Y-15665827D02*
X14961968Y-15637255D01*
X14961968Y-15637255D02*
X14971491Y-15618208D01*
X14971491Y-15618208D02*
X14990539Y-15589636D01*
X14990539Y-15589636D02*
X15000063Y-15580112D01*
X15066729Y-15627731D02*
X15076253Y-15618208D01*
X15076253Y-15618208D02*
X15095301Y-15608684D01*
X15095301Y-15608684D02*
X15142920Y-15608684D01*
X15142920Y-15608684D02*
X15161968Y-15618208D01*
X15161968Y-15618208D02*
X15171491Y-15627731D01*
X15171491Y-15627731D02*
X15181015Y-15646779D01*
X15181015Y-15646779D02*
X15181015Y-15665827D01*
X15181015Y-15665827D02*
X15171491Y-15694398D01*
X15171491Y-15694398D02*
X15057206Y-15808684D01*
X15057206Y-15808684D02*
X15181015Y-15808684D01*
X15419110Y-15808684D02*
X15419110Y-15608684D01*
X15504825Y-15808684D02*
X15504825Y-15703922D01*
X15504825Y-15703922D02*
X15495301Y-15684874D01*
X15495301Y-15684874D02*
X15476253Y-15675350D01*
X15476253Y-15675350D02*
X15447682Y-15675350D01*
X15447682Y-15675350D02*
X15428634Y-15684874D01*
X15428634Y-15684874D02*
X15419110Y-15694398D01*
X15628634Y-15808684D02*
X15609587Y-15799160D01*
X15609587Y-15799160D02*
X15600063Y-15789636D01*
X15600063Y-15789636D02*
X15590539Y-15770588D01*
X15590539Y-15770588D02*
X15590539Y-15713446D01*
X15590539Y-15713446D02*
X15600063Y-15694398D01*
X15600063Y-15694398D02*
X15609587Y-15684874D01*
X15609587Y-15684874D02*
X15628634Y-15675350D01*
X15628634Y-15675350D02*
X15657206Y-15675350D01*
X15657206Y-15675350D02*
X15676253Y-15684874D01*
X15676253Y-15684874D02*
X15685777Y-15694398D01*
X15685777Y-15694398D02*
X15695301Y-15713446D01*
X15695301Y-15713446D02*
X15695301Y-15770588D01*
X15695301Y-15770588D02*
X15685777Y-15789636D01*
X15685777Y-15789636D02*
X15676253Y-15799160D01*
X15676253Y-15799160D02*
X15657206Y-15808684D01*
X15657206Y-15808684D02*
X15628634Y-15808684D01*
X15809587Y-15808684D02*
X15790539Y-15799160D01*
X15790539Y-15799160D02*
X15781015Y-15780112D01*
X15781015Y-15780112D02*
X15781015Y-15608684D01*
X15961968Y-15799160D02*
X15942920Y-15808684D01*
X15942920Y-15808684D02*
X15904825Y-15808684D01*
X15904825Y-15808684D02*
X15885777Y-15799160D01*
X15885777Y-15799160D02*
X15876253Y-15780112D01*
X15876253Y-15780112D02*
X15876253Y-15703922D01*
X15876253Y-15703922D02*
X15885777Y-15684874D01*
X15885777Y-15684874D02*
X15904825Y-15675350D01*
X15904825Y-15675350D02*
X15942920Y-15675350D01*
X15942920Y-15675350D02*
X15961968Y-15684874D01*
X15961968Y-15684874D02*
X15971491Y-15703922D01*
X15971491Y-15703922D02*
X15971491Y-15722969D01*
X15971491Y-15722969D02*
X15876253Y-15742017D01*
X16047682Y-15799160D02*
X16066730Y-15808684D01*
X16066730Y-15808684D02*
X16104825Y-15808684D01*
X16104825Y-15808684D02*
X16123872Y-15799160D01*
X16123872Y-15799160D02*
X16133396Y-15780112D01*
X16133396Y-15780112D02*
X16133396Y-15770588D01*
X16133396Y-15770588D02*
X16123872Y-15751541D01*
X16123872Y-15751541D02*
X16104825Y-15742017D01*
X16104825Y-15742017D02*
X16076253Y-15742017D01*
X16076253Y-15742017D02*
X16057206Y-15732493D01*
X16057206Y-15732493D02*
X16047682Y-15713446D01*
X16047682Y-15713446D02*
X16047682Y-15703922D01*
X16047682Y-15703922D02*
X16057206Y-15684874D01*
X16057206Y-15684874D02*
X16076253Y-15675350D01*
X16076253Y-15675350D02*
X16104825Y-15675350D01*
X16104825Y-15675350D02*
X16123872Y-15684874D01*
X16200063Y-15884874D02*
X16209587Y-15875350D01*
X16209587Y-15875350D02*
X16228634Y-15846779D01*
X16228634Y-15846779D02*
X16238158Y-15827731D01*
X16238158Y-15827731D02*
X16247682Y-15799160D01*
X16247682Y-15799160D02*
X16257206Y-15751541D01*
X16257206Y-15751541D02*
X16257206Y-15713446D01*
X16257206Y-15713446D02*
X16247682Y-15665827D01*
X16247682Y-15665827D02*
X16238158Y-15637255D01*
X16238158Y-15637255D02*
X16228634Y-15618208D01*
X16228634Y-15618208D02*
X16209587Y-15589636D01*
X16209587Y-15589636D02*
X16200063Y-15580112D01*
X16561968Y-15884874D02*
X16552444Y-15875350D01*
X16552444Y-15875350D02*
X16533396Y-15846779D01*
X16533396Y-15846779D02*
X16523872Y-15827731D01*
X16523872Y-15827731D02*
X16514349Y-15799160D01*
X16514349Y-15799160D02*
X16504825Y-15751541D01*
X16504825Y-15751541D02*
X16504825Y-15713446D01*
X16504825Y-15713446D02*
X16514349Y-15665827D01*
X16514349Y-15665827D02*
X16523872Y-15637255D01*
X16523872Y-15637255D02*
X16533396Y-15618208D01*
X16533396Y-15618208D02*
X16552444Y-15589636D01*
X16552444Y-15589636D02*
X16561968Y-15580112D01*
X16638158Y-15675350D02*
X16638158Y-15808684D01*
X16638158Y-15694398D02*
X16647682Y-15684874D01*
X16647682Y-15684874D02*
X16666730Y-15675350D01*
X16666730Y-15675350D02*
X16695301Y-15675350D01*
X16695301Y-15675350D02*
X16714349Y-15684874D01*
X16714349Y-15684874D02*
X16723872Y-15703922D01*
X16723872Y-15703922D02*
X16723872Y-15808684D01*
X16847682Y-15808684D02*
X16828634Y-15799160D01*
X16828634Y-15799160D02*
X16819111Y-15789636D01*
X16819111Y-15789636D02*
X16809587Y-15770588D01*
X16809587Y-15770588D02*
X16809587Y-15713446D01*
X16809587Y-15713446D02*
X16819111Y-15694398D01*
X16819111Y-15694398D02*
X16828634Y-15684874D01*
X16828634Y-15684874D02*
X16847682Y-15675350D01*
X16847682Y-15675350D02*
X16876254Y-15675350D01*
X16876254Y-15675350D02*
X16895301Y-15684874D01*
X16895301Y-15684874D02*
X16904825Y-15694398D01*
X16904825Y-15694398D02*
X16914349Y-15713446D01*
X16914349Y-15713446D02*
X16914349Y-15770588D01*
X16914349Y-15770588D02*
X16904825Y-15789636D01*
X16904825Y-15789636D02*
X16895301Y-15799160D01*
X16895301Y-15799160D02*
X16876254Y-15808684D01*
X16876254Y-15808684D02*
X16847682Y-15808684D01*
X16971492Y-15675350D02*
X17047682Y-15675350D01*
X17000063Y-15608684D02*
X17000063Y-15780112D01*
X17000063Y-15780112D02*
X17009587Y-15799160D01*
X17009587Y-15799160D02*
X17028634Y-15808684D01*
X17028634Y-15808684D02*
X17047682Y-15808684D01*
X17266730Y-15675350D02*
X17266730Y-15875350D01*
X17266730Y-15684874D02*
X17285777Y-15675350D01*
X17285777Y-15675350D02*
X17323873Y-15675350D01*
X17323873Y-15675350D02*
X17342920Y-15684874D01*
X17342920Y-15684874D02*
X17352444Y-15694398D01*
X17352444Y-15694398D02*
X17361968Y-15713446D01*
X17361968Y-15713446D02*
X17361968Y-15770588D01*
X17361968Y-15770588D02*
X17352444Y-15789636D01*
X17352444Y-15789636D02*
X17342920Y-15799160D01*
X17342920Y-15799160D02*
X17323873Y-15808684D01*
X17323873Y-15808684D02*
X17285777Y-15808684D01*
X17285777Y-15808684D02*
X17266730Y-15799160D01*
X17476254Y-15808684D02*
X17457206Y-15799160D01*
X17457206Y-15799160D02*
X17447682Y-15780112D01*
X17447682Y-15780112D02*
X17447682Y-15608684D01*
X17638158Y-15808684D02*
X17638158Y-15703922D01*
X17638158Y-15703922D02*
X17628635Y-15684874D01*
X17628635Y-15684874D02*
X17609587Y-15675350D01*
X17609587Y-15675350D02*
X17571492Y-15675350D01*
X17571492Y-15675350D02*
X17552444Y-15684874D01*
X17638158Y-15799160D02*
X17619111Y-15808684D01*
X17619111Y-15808684D02*
X17571492Y-15808684D01*
X17571492Y-15808684D02*
X17552444Y-15799160D01*
X17552444Y-15799160D02*
X17542920Y-15780112D01*
X17542920Y-15780112D02*
X17542920Y-15761065D01*
X17542920Y-15761065D02*
X17552444Y-15742017D01*
X17552444Y-15742017D02*
X17571492Y-15732493D01*
X17571492Y-15732493D02*
X17619111Y-15732493D01*
X17619111Y-15732493D02*
X17638158Y-15722969D01*
X17704825Y-15675350D02*
X17781015Y-15675350D01*
X17733396Y-15608684D02*
X17733396Y-15780112D01*
X17733396Y-15780112D02*
X17742920Y-15799160D01*
X17742920Y-15799160D02*
X17761968Y-15808684D01*
X17761968Y-15808684D02*
X17781015Y-15808684D01*
X17923873Y-15799160D02*
X17904825Y-15808684D01*
X17904825Y-15808684D02*
X17866730Y-15808684D01*
X17866730Y-15808684D02*
X17847682Y-15799160D01*
X17847682Y-15799160D02*
X17838158Y-15780112D01*
X17838158Y-15780112D02*
X17838158Y-15703922D01*
X17838158Y-15703922D02*
X17847682Y-15684874D01*
X17847682Y-15684874D02*
X17866730Y-15675350D01*
X17866730Y-15675350D02*
X17904825Y-15675350D01*
X17904825Y-15675350D02*
X17923873Y-15684874D01*
X17923873Y-15684874D02*
X17933396Y-15703922D01*
X17933396Y-15703922D02*
X17933396Y-15722969D01*
X17933396Y-15722969D02*
X17838158Y-15742017D01*
X18104825Y-15808684D02*
X18104825Y-15608684D01*
X18104825Y-15799160D02*
X18085777Y-15808684D01*
X18085777Y-15808684D02*
X18047682Y-15808684D01*
X18047682Y-15808684D02*
X18028635Y-15799160D01*
X18028635Y-15799160D02*
X18019111Y-15789636D01*
X18019111Y-15789636D02*
X18009587Y-15770588D01*
X18009587Y-15770588D02*
X18009587Y-15713446D01*
X18009587Y-15713446D02*
X18019111Y-15694398D01*
X18019111Y-15694398D02*
X18028635Y-15684874D01*
X18028635Y-15684874D02*
X18047682Y-15675350D01*
X18047682Y-15675350D02*
X18085777Y-15675350D01*
X18085777Y-15675350D02*
X18104825Y-15684874D01*
X18181016Y-15884874D02*
X18190539Y-15875350D01*
X18190539Y-15875350D02*
X18209587Y-15846779D01*
X18209587Y-15846779D02*
X18219111Y-15827731D01*
X18219111Y-15827731D02*
X18228635Y-15799160D01*
X18228635Y-15799160D02*
X18238158Y-15751541D01*
X18238158Y-15751541D02*
X18238158Y-15713446D01*
X18238158Y-15713446D02*
X18228635Y-15665827D01*
X18228635Y-15665827D02*
X18219111Y-15637255D01*
X18219111Y-15637255D02*
X18209587Y-15618208D01*
X18209587Y-15618208D02*
X18190539Y-15589636D01*
X18190539Y-15589636D02*
X18181016Y-15580112D01*
D14*
X11337500Y-15893700D02*
X11337500Y-16068700D01*
X11250000Y-15981200D02*
X11425000Y-15981200D01*
D11*
X11790539Y-16072684D02*
X11676253Y-16072684D01*
X11733396Y-16072684D02*
X11733396Y-15872684D01*
X11733396Y-15872684D02*
X11714348Y-15901255D01*
X11714348Y-15901255D02*
X11695301Y-15920303D01*
X11695301Y-15920303D02*
X11676253Y-15929827D01*
X11876253Y-16053636D02*
X11885777Y-16063160D01*
X11885777Y-16063160D02*
X11876253Y-16072684D01*
X11876253Y-16072684D02*
X11866729Y-16063160D01*
X11866729Y-16063160D02*
X11876253Y-16053636D01*
X11876253Y-16053636D02*
X11876253Y-16072684D01*
X11952443Y-15872684D02*
X12085777Y-15872684D01*
X12085777Y-15872684D02*
X12000062Y-16072684D01*
X12257205Y-15872684D02*
X12161967Y-15872684D01*
X12161967Y-15872684D02*
X12152443Y-15967922D01*
X12152443Y-15967922D02*
X12161967Y-15958398D01*
X12161967Y-15958398D02*
X12181015Y-15948874D01*
X12181015Y-15948874D02*
X12228634Y-15948874D01*
X12228634Y-15948874D02*
X12247682Y-15958398D01*
X12247682Y-15958398D02*
X12257205Y-15967922D01*
X12257205Y-15967922D02*
X12266729Y-15986969D01*
X12266729Y-15986969D02*
X12266729Y-16034588D01*
X12266729Y-16034588D02*
X12257205Y-16053636D01*
X12257205Y-16053636D02*
X12247682Y-16063160D01*
X12247682Y-16063160D02*
X12228634Y-16072684D01*
X12228634Y-16072684D02*
X12181015Y-16072684D01*
X12181015Y-16072684D02*
X12161967Y-16063160D01*
X12161967Y-16063160D02*
X12152443Y-16053636D01*
X12390539Y-15872684D02*
X12409586Y-15872684D01*
X12409586Y-15872684D02*
X12428634Y-15882208D01*
X12428634Y-15882208D02*
X12438158Y-15891731D01*
X12438158Y-15891731D02*
X12447682Y-15910779D01*
X12447682Y-15910779D02*
X12457205Y-15948874D01*
X12457205Y-15948874D02*
X12457205Y-15996493D01*
X12457205Y-15996493D02*
X12447682Y-16034588D01*
X12447682Y-16034588D02*
X12438158Y-16053636D01*
X12438158Y-16053636D02*
X12428634Y-16063160D01*
X12428634Y-16063160D02*
X12409586Y-16072684D01*
X12409586Y-16072684D02*
X12390539Y-16072684D01*
X12390539Y-16072684D02*
X12371491Y-16063160D01*
X12371491Y-16063160D02*
X12361967Y-16053636D01*
X12361967Y-16053636D02*
X12352443Y-16034588D01*
X12352443Y-16034588D02*
X12342920Y-15996493D01*
X12342920Y-15996493D02*
X12342920Y-15948874D01*
X12342920Y-15948874D02*
X12352443Y-15910779D01*
X12352443Y-15910779D02*
X12361967Y-15891731D01*
X12361967Y-15891731D02*
X12371491Y-15882208D01*
X12371491Y-15882208D02*
X12390539Y-15872684D01*
X12542920Y-16072684D02*
X12542920Y-15939350D01*
X12542920Y-15958398D02*
X12552443Y-15948874D01*
X12552443Y-15948874D02*
X12571491Y-15939350D01*
X12571491Y-15939350D02*
X12600063Y-15939350D01*
X12600063Y-15939350D02*
X12619110Y-15948874D01*
X12619110Y-15948874D02*
X12628634Y-15967922D01*
X12628634Y-15967922D02*
X12628634Y-16072684D01*
X12628634Y-15967922D02*
X12638158Y-15948874D01*
X12638158Y-15948874D02*
X12657205Y-15939350D01*
X12657205Y-15939350D02*
X12685777Y-15939350D01*
X12685777Y-15939350D02*
X12704824Y-15948874D01*
X12704824Y-15948874D02*
X12714348Y-15967922D01*
X12714348Y-15967922D02*
X12714348Y-16072684D01*
X12809586Y-16072684D02*
X12809586Y-15939350D01*
X12809586Y-15958398D02*
X12819110Y-15948874D01*
X12819110Y-15948874D02*
X12838158Y-15939350D01*
X12838158Y-15939350D02*
X12866729Y-15939350D01*
X12866729Y-15939350D02*
X12885777Y-15948874D01*
X12885777Y-15948874D02*
X12895301Y-15967922D01*
X12895301Y-15967922D02*
X12895301Y-16072684D01*
X12895301Y-15967922D02*
X12904824Y-15948874D01*
X12904824Y-15948874D02*
X12923872Y-15939350D01*
X12923872Y-15939350D02*
X12952443Y-15939350D01*
X12952443Y-15939350D02*
X12971491Y-15948874D01*
X12971491Y-15948874D02*
X12981015Y-15967922D01*
X12981015Y-15967922D02*
X12981015Y-16072684D01*
X13371491Y-15863160D02*
X13200063Y-16120303D01*
X13628634Y-15872684D02*
X13647682Y-15872684D01*
X13647682Y-15872684D02*
X13666729Y-15882208D01*
X13666729Y-15882208D02*
X13676253Y-15891731D01*
X13676253Y-15891731D02*
X13685777Y-15910779D01*
X13685777Y-15910779D02*
X13695301Y-15948874D01*
X13695301Y-15948874D02*
X13695301Y-15996493D01*
X13695301Y-15996493D02*
X13685777Y-16034588D01*
X13685777Y-16034588D02*
X13676253Y-16053636D01*
X13676253Y-16053636D02*
X13666729Y-16063160D01*
X13666729Y-16063160D02*
X13647682Y-16072684D01*
X13647682Y-16072684D02*
X13628634Y-16072684D01*
X13628634Y-16072684D02*
X13609586Y-16063160D01*
X13609586Y-16063160D02*
X13600063Y-16053636D01*
X13600063Y-16053636D02*
X13590539Y-16034588D01*
X13590539Y-16034588D02*
X13581015Y-15996493D01*
X13581015Y-15996493D02*
X13581015Y-15948874D01*
X13581015Y-15948874D02*
X13590539Y-15910779D01*
X13590539Y-15910779D02*
X13600063Y-15891731D01*
X13600063Y-15891731D02*
X13609586Y-15882208D01*
X13609586Y-15882208D02*
X13628634Y-15872684D01*
X13781015Y-16053636D02*
X13790539Y-16063160D01*
X13790539Y-16063160D02*
X13781015Y-16072684D01*
X13781015Y-16072684D02*
X13771491Y-16063160D01*
X13771491Y-16063160D02*
X13781015Y-16053636D01*
X13781015Y-16053636D02*
X13781015Y-16072684D01*
X13914348Y-15872684D02*
X13933396Y-15872684D01*
X13933396Y-15872684D02*
X13952444Y-15882208D01*
X13952444Y-15882208D02*
X13961967Y-15891731D01*
X13961967Y-15891731D02*
X13971491Y-15910779D01*
X13971491Y-15910779D02*
X13981015Y-15948874D01*
X13981015Y-15948874D02*
X13981015Y-15996493D01*
X13981015Y-15996493D02*
X13971491Y-16034588D01*
X13971491Y-16034588D02*
X13961967Y-16053636D01*
X13961967Y-16053636D02*
X13952444Y-16063160D01*
X13952444Y-16063160D02*
X13933396Y-16072684D01*
X13933396Y-16072684D02*
X13914348Y-16072684D01*
X13914348Y-16072684D02*
X13895301Y-16063160D01*
X13895301Y-16063160D02*
X13885777Y-16053636D01*
X13885777Y-16053636D02*
X13876253Y-16034588D01*
X13876253Y-16034588D02*
X13866729Y-15996493D01*
X13866729Y-15996493D02*
X13866729Y-15948874D01*
X13866729Y-15948874D02*
X13876253Y-15910779D01*
X13876253Y-15910779D02*
X13885777Y-15891731D01*
X13885777Y-15891731D02*
X13895301Y-15882208D01*
X13895301Y-15882208D02*
X13914348Y-15872684D01*
X14152444Y-15872684D02*
X14114348Y-15872684D01*
X14114348Y-15872684D02*
X14095301Y-15882208D01*
X14095301Y-15882208D02*
X14085777Y-15891731D01*
X14085777Y-15891731D02*
X14066729Y-15920303D01*
X14066729Y-15920303D02*
X14057206Y-15958398D01*
X14057206Y-15958398D02*
X14057206Y-16034588D01*
X14057206Y-16034588D02*
X14066729Y-16053636D01*
X14066729Y-16053636D02*
X14076253Y-16063160D01*
X14076253Y-16063160D02*
X14095301Y-16072684D01*
X14095301Y-16072684D02*
X14133396Y-16072684D01*
X14133396Y-16072684D02*
X14152444Y-16063160D01*
X14152444Y-16063160D02*
X14161967Y-16053636D01*
X14161967Y-16053636D02*
X14171491Y-16034588D01*
X14171491Y-16034588D02*
X14171491Y-15986969D01*
X14171491Y-15986969D02*
X14161967Y-15967922D01*
X14161967Y-15967922D02*
X14152444Y-15958398D01*
X14152444Y-15958398D02*
X14133396Y-15948874D01*
X14133396Y-15948874D02*
X14095301Y-15948874D01*
X14095301Y-15948874D02*
X14076253Y-15958398D01*
X14076253Y-15958398D02*
X14066729Y-15967922D01*
X14066729Y-15967922D02*
X14057206Y-15986969D01*
X14285777Y-15958398D02*
X14266729Y-15948874D01*
X14266729Y-15948874D02*
X14257206Y-15939350D01*
X14257206Y-15939350D02*
X14247682Y-15920303D01*
X14247682Y-15920303D02*
X14247682Y-15910779D01*
X14247682Y-15910779D02*
X14257206Y-15891731D01*
X14257206Y-15891731D02*
X14266729Y-15882208D01*
X14266729Y-15882208D02*
X14285777Y-15872684D01*
X14285777Y-15872684D02*
X14323872Y-15872684D01*
X14323872Y-15872684D02*
X14342920Y-15882208D01*
X14342920Y-15882208D02*
X14352444Y-15891731D01*
X14352444Y-15891731D02*
X14361967Y-15910779D01*
X14361967Y-15910779D02*
X14361967Y-15920303D01*
X14361967Y-15920303D02*
X14352444Y-15939350D01*
X14352444Y-15939350D02*
X14342920Y-15948874D01*
X14342920Y-15948874D02*
X14323872Y-15958398D01*
X14323872Y-15958398D02*
X14285777Y-15958398D01*
X14285777Y-15958398D02*
X14266729Y-15967922D01*
X14266729Y-15967922D02*
X14257206Y-15977446D01*
X14257206Y-15977446D02*
X14247682Y-15996493D01*
X14247682Y-15996493D02*
X14247682Y-16034588D01*
X14247682Y-16034588D02*
X14257206Y-16053636D01*
X14257206Y-16053636D02*
X14266729Y-16063160D01*
X14266729Y-16063160D02*
X14285777Y-16072684D01*
X14285777Y-16072684D02*
X14323872Y-16072684D01*
X14323872Y-16072684D02*
X14342920Y-16063160D01*
X14342920Y-16063160D02*
X14352444Y-16053636D01*
X14352444Y-16053636D02*
X14361967Y-16034588D01*
X14361967Y-16034588D02*
X14361967Y-15996493D01*
X14361967Y-15996493D02*
X14352444Y-15977446D01*
X14352444Y-15977446D02*
X14342920Y-15967922D01*
X14342920Y-15967922D02*
X14323872Y-15958398D01*
X14457206Y-16072684D02*
X14495301Y-16072684D01*
X14495301Y-16072684D02*
X14514348Y-16063160D01*
X14514348Y-16063160D02*
X14523872Y-16053636D01*
X14523872Y-16053636D02*
X14542920Y-16025065D01*
X14542920Y-16025065D02*
X14552444Y-15986969D01*
X14552444Y-15986969D02*
X14552444Y-15910779D01*
X14552444Y-15910779D02*
X14542920Y-15891731D01*
X14542920Y-15891731D02*
X14533396Y-15882208D01*
X14533396Y-15882208D02*
X14514348Y-15872684D01*
X14514348Y-15872684D02*
X14476253Y-15872684D01*
X14476253Y-15872684D02*
X14457206Y-15882208D01*
X14457206Y-15882208D02*
X14447682Y-15891731D01*
X14447682Y-15891731D02*
X14438158Y-15910779D01*
X14438158Y-15910779D02*
X14438158Y-15958398D01*
X14438158Y-15958398D02*
X14447682Y-15977446D01*
X14447682Y-15977446D02*
X14457206Y-15986969D01*
X14457206Y-15986969D02*
X14476253Y-15996493D01*
X14476253Y-15996493D02*
X14514348Y-15996493D01*
X14514348Y-15996493D02*
X14533396Y-15986969D01*
X14533396Y-15986969D02*
X14542920Y-15977446D01*
X14542920Y-15977446D02*
X14552444Y-15958398D01*
X14628634Y-15872684D02*
X14628634Y-15910779D01*
X14704825Y-15872684D02*
X14704825Y-15910779D01*
X15000063Y-16148874D02*
X14990539Y-16139350D01*
X14990539Y-16139350D02*
X14971491Y-16110779D01*
X14971491Y-16110779D02*
X14961968Y-16091731D01*
X14961968Y-16091731D02*
X14952444Y-16063160D01*
X14952444Y-16063160D02*
X14942920Y-16015541D01*
X14942920Y-16015541D02*
X14942920Y-15977446D01*
X14942920Y-15977446D02*
X14952444Y-15929827D01*
X14952444Y-15929827D02*
X14961968Y-15901255D01*
X14961968Y-15901255D02*
X14971491Y-15882208D01*
X14971491Y-15882208D02*
X14990539Y-15853636D01*
X14990539Y-15853636D02*
X15000063Y-15844112D01*
X15057206Y-15872684D02*
X15181015Y-15872684D01*
X15181015Y-15872684D02*
X15114348Y-15948874D01*
X15114348Y-15948874D02*
X15142920Y-15948874D01*
X15142920Y-15948874D02*
X15161968Y-15958398D01*
X15161968Y-15958398D02*
X15171491Y-15967922D01*
X15171491Y-15967922D02*
X15181015Y-15986969D01*
X15181015Y-15986969D02*
X15181015Y-16034588D01*
X15181015Y-16034588D02*
X15171491Y-16053636D01*
X15171491Y-16053636D02*
X15161968Y-16063160D01*
X15161968Y-16063160D02*
X15142920Y-16072684D01*
X15142920Y-16072684D02*
X15085777Y-16072684D01*
X15085777Y-16072684D02*
X15066729Y-16063160D01*
X15066729Y-16063160D02*
X15057206Y-16053636D01*
X15352444Y-15939350D02*
X15352444Y-16072684D01*
X15304825Y-15863160D02*
X15257206Y-16006017D01*
X15257206Y-16006017D02*
X15381015Y-16006017D01*
X15609587Y-16072684D02*
X15609587Y-15872684D01*
X15695301Y-16072684D02*
X15695301Y-15967922D01*
X15695301Y-15967922D02*
X15685777Y-15948874D01*
X15685777Y-15948874D02*
X15666730Y-15939350D01*
X15666730Y-15939350D02*
X15638158Y-15939350D01*
X15638158Y-15939350D02*
X15619110Y-15948874D01*
X15619110Y-15948874D02*
X15609587Y-15958398D01*
X15819110Y-16072684D02*
X15800063Y-16063160D01*
X15800063Y-16063160D02*
X15790539Y-16053636D01*
X15790539Y-16053636D02*
X15781015Y-16034588D01*
X15781015Y-16034588D02*
X15781015Y-15977446D01*
X15781015Y-15977446D02*
X15790539Y-15958398D01*
X15790539Y-15958398D02*
X15800063Y-15948874D01*
X15800063Y-15948874D02*
X15819110Y-15939350D01*
X15819110Y-15939350D02*
X15847682Y-15939350D01*
X15847682Y-15939350D02*
X15866730Y-15948874D01*
X15866730Y-15948874D02*
X15876253Y-15958398D01*
X15876253Y-15958398D02*
X15885777Y-15977446D01*
X15885777Y-15977446D02*
X15885777Y-16034588D01*
X15885777Y-16034588D02*
X15876253Y-16053636D01*
X15876253Y-16053636D02*
X15866730Y-16063160D01*
X15866730Y-16063160D02*
X15847682Y-16072684D01*
X15847682Y-16072684D02*
X15819110Y-16072684D01*
X16000063Y-16072684D02*
X15981015Y-16063160D01*
X15981015Y-16063160D02*
X15971491Y-16044112D01*
X15971491Y-16044112D02*
X15971491Y-15872684D01*
X16152444Y-16063160D02*
X16133396Y-16072684D01*
X16133396Y-16072684D02*
X16095301Y-16072684D01*
X16095301Y-16072684D02*
X16076253Y-16063160D01*
X16076253Y-16063160D02*
X16066730Y-16044112D01*
X16066730Y-16044112D02*
X16066730Y-15967922D01*
X16066730Y-15967922D02*
X16076253Y-15948874D01*
X16076253Y-15948874D02*
X16095301Y-15939350D01*
X16095301Y-15939350D02*
X16133396Y-15939350D01*
X16133396Y-15939350D02*
X16152444Y-15948874D01*
X16152444Y-15948874D02*
X16161968Y-15967922D01*
X16161968Y-15967922D02*
X16161968Y-15986969D01*
X16161968Y-15986969D02*
X16066730Y-16006017D01*
X16238158Y-16063160D02*
X16257206Y-16072684D01*
X16257206Y-16072684D02*
X16295301Y-16072684D01*
X16295301Y-16072684D02*
X16314349Y-16063160D01*
X16314349Y-16063160D02*
X16323872Y-16044112D01*
X16323872Y-16044112D02*
X16323872Y-16034588D01*
X16323872Y-16034588D02*
X16314349Y-16015541D01*
X16314349Y-16015541D02*
X16295301Y-16006017D01*
X16295301Y-16006017D02*
X16266730Y-16006017D01*
X16266730Y-16006017D02*
X16247682Y-15996493D01*
X16247682Y-15996493D02*
X16238158Y-15977446D01*
X16238158Y-15977446D02*
X16238158Y-15967922D01*
X16238158Y-15967922D02*
X16247682Y-15948874D01*
X16247682Y-15948874D02*
X16266730Y-15939350D01*
X16266730Y-15939350D02*
X16295301Y-15939350D01*
X16295301Y-15939350D02*
X16314349Y-15948874D01*
X16390539Y-16148874D02*
X16400063Y-16139350D01*
X16400063Y-16139350D02*
X16419111Y-16110779D01*
X16419111Y-16110779D02*
X16428634Y-16091731D01*
X16428634Y-16091731D02*
X16438158Y-16063160D01*
X16438158Y-16063160D02*
X16447682Y-16015541D01*
X16447682Y-16015541D02*
X16447682Y-15977446D01*
X16447682Y-15977446D02*
X16438158Y-15929827D01*
X16438158Y-15929827D02*
X16428634Y-15901255D01*
X16428634Y-15901255D02*
X16419111Y-15882208D01*
X16419111Y-15882208D02*
X16400063Y-15853636D01*
X16400063Y-15853636D02*
X16390539Y-15844112D01*
X16752444Y-16148874D02*
X16742920Y-16139350D01*
X16742920Y-16139350D02*
X16723872Y-16110779D01*
X16723872Y-16110779D02*
X16714349Y-16091731D01*
X16714349Y-16091731D02*
X16704825Y-16063160D01*
X16704825Y-16063160D02*
X16695301Y-16015541D01*
X16695301Y-16015541D02*
X16695301Y-15977446D01*
X16695301Y-15977446D02*
X16704825Y-15929827D01*
X16704825Y-15929827D02*
X16714349Y-15901255D01*
X16714349Y-15901255D02*
X16723872Y-15882208D01*
X16723872Y-15882208D02*
X16742920Y-15853636D01*
X16742920Y-15853636D02*
X16752444Y-15844112D01*
X16828634Y-15939350D02*
X16828634Y-16072684D01*
X16828634Y-15958398D02*
X16838158Y-15948874D01*
X16838158Y-15948874D02*
X16857206Y-15939350D01*
X16857206Y-15939350D02*
X16885777Y-15939350D01*
X16885777Y-15939350D02*
X16904825Y-15948874D01*
X16904825Y-15948874D02*
X16914349Y-15967922D01*
X16914349Y-15967922D02*
X16914349Y-16072684D01*
X17038158Y-16072684D02*
X17019111Y-16063160D01*
X17019111Y-16063160D02*
X17009587Y-16053636D01*
X17009587Y-16053636D02*
X17000063Y-16034588D01*
X17000063Y-16034588D02*
X17000063Y-15977446D01*
X17000063Y-15977446D02*
X17009587Y-15958398D01*
X17009587Y-15958398D02*
X17019111Y-15948874D01*
X17019111Y-15948874D02*
X17038158Y-15939350D01*
X17038158Y-15939350D02*
X17066730Y-15939350D01*
X17066730Y-15939350D02*
X17085777Y-15948874D01*
X17085777Y-15948874D02*
X17095301Y-15958398D01*
X17095301Y-15958398D02*
X17104825Y-15977446D01*
X17104825Y-15977446D02*
X17104825Y-16034588D01*
X17104825Y-16034588D02*
X17095301Y-16053636D01*
X17095301Y-16053636D02*
X17085777Y-16063160D01*
X17085777Y-16063160D02*
X17066730Y-16072684D01*
X17066730Y-16072684D02*
X17038158Y-16072684D01*
X17161968Y-15939350D02*
X17238158Y-15939350D01*
X17190539Y-15872684D02*
X17190539Y-16044112D01*
X17190539Y-16044112D02*
X17200063Y-16063160D01*
X17200063Y-16063160D02*
X17219111Y-16072684D01*
X17219111Y-16072684D02*
X17238158Y-16072684D01*
X17457206Y-15939350D02*
X17457206Y-16139350D01*
X17457206Y-15948874D02*
X17476254Y-15939350D01*
X17476254Y-15939350D02*
X17514349Y-15939350D01*
X17514349Y-15939350D02*
X17533396Y-15948874D01*
X17533396Y-15948874D02*
X17542920Y-15958398D01*
X17542920Y-15958398D02*
X17552444Y-15977446D01*
X17552444Y-15977446D02*
X17552444Y-16034588D01*
X17552444Y-16034588D02*
X17542920Y-16053636D01*
X17542920Y-16053636D02*
X17533396Y-16063160D01*
X17533396Y-16063160D02*
X17514349Y-16072684D01*
X17514349Y-16072684D02*
X17476254Y-16072684D01*
X17476254Y-16072684D02*
X17457206Y-16063160D01*
X17666730Y-16072684D02*
X17647682Y-16063160D01*
X17647682Y-16063160D02*
X17638158Y-16044112D01*
X17638158Y-16044112D02*
X17638158Y-15872684D01*
X17828635Y-16072684D02*
X17828635Y-15967922D01*
X17828635Y-15967922D02*
X17819111Y-15948874D01*
X17819111Y-15948874D02*
X17800063Y-15939350D01*
X17800063Y-15939350D02*
X17761968Y-15939350D01*
X17761968Y-15939350D02*
X17742920Y-15948874D01*
X17828635Y-16063160D02*
X17809587Y-16072684D01*
X17809587Y-16072684D02*
X17761968Y-16072684D01*
X17761968Y-16072684D02*
X17742920Y-16063160D01*
X17742920Y-16063160D02*
X17733396Y-16044112D01*
X17733396Y-16044112D02*
X17733396Y-16025065D01*
X17733396Y-16025065D02*
X17742920Y-16006017D01*
X17742920Y-16006017D02*
X17761968Y-15996493D01*
X17761968Y-15996493D02*
X17809587Y-15996493D01*
X17809587Y-15996493D02*
X17828635Y-15986969D01*
X17895301Y-15939350D02*
X17971492Y-15939350D01*
X17923873Y-15872684D02*
X17923873Y-16044112D01*
X17923873Y-16044112D02*
X17933396Y-16063160D01*
X17933396Y-16063160D02*
X17952444Y-16072684D01*
X17952444Y-16072684D02*
X17971492Y-16072684D01*
X18114349Y-16063160D02*
X18095301Y-16072684D01*
X18095301Y-16072684D02*
X18057206Y-16072684D01*
X18057206Y-16072684D02*
X18038158Y-16063160D01*
X18038158Y-16063160D02*
X18028635Y-16044112D01*
X18028635Y-16044112D02*
X18028635Y-15967922D01*
X18028635Y-15967922D02*
X18038158Y-15948874D01*
X18038158Y-15948874D02*
X18057206Y-15939350D01*
X18057206Y-15939350D02*
X18095301Y-15939350D01*
X18095301Y-15939350D02*
X18114349Y-15948874D01*
X18114349Y-15948874D02*
X18123873Y-15967922D01*
X18123873Y-15967922D02*
X18123873Y-15986969D01*
X18123873Y-15986969D02*
X18028635Y-16006017D01*
X18295301Y-16072684D02*
X18295301Y-15872684D01*
X18295301Y-16063160D02*
X18276254Y-16072684D01*
X18276254Y-16072684D02*
X18238158Y-16072684D01*
X18238158Y-16072684D02*
X18219111Y-16063160D01*
X18219111Y-16063160D02*
X18209587Y-16053636D01*
X18209587Y-16053636D02*
X18200063Y-16034588D01*
X18200063Y-16034588D02*
X18200063Y-15977446D01*
X18200063Y-15977446D02*
X18209587Y-15958398D01*
X18209587Y-15958398D02*
X18219111Y-15948874D01*
X18219111Y-15948874D02*
X18238158Y-15939350D01*
X18238158Y-15939350D02*
X18276254Y-15939350D01*
X18276254Y-15939350D02*
X18295301Y-15948874D01*
X18371492Y-16148874D02*
X18381016Y-16139350D01*
X18381016Y-16139350D02*
X18400063Y-16110779D01*
X18400063Y-16110779D02*
X18409587Y-16091731D01*
X18409587Y-16091731D02*
X18419111Y-16063160D01*
X18419111Y-16063160D02*
X18428635Y-16015541D01*
X18428635Y-16015541D02*
X18428635Y-15977446D01*
X18428635Y-15977446D02*
X18419111Y-15929827D01*
X18419111Y-15929827D02*
X18409587Y-15901255D01*
X18409587Y-15901255D02*
X18400063Y-15882208D01*
X18400063Y-15882208D02*
X18381016Y-15853636D01*
X18381016Y-15853636D02*
X18371492Y-15844112D01*
X11395711Y-16346911D02*
X11395711Y-16205489D01*
X11254289Y-16205489D01*
X11254289Y-16346911D01*
X11395711Y-16346911D01*
X11771491Y-16234350D02*
X11771491Y-16367684D01*
X11723872Y-16158160D02*
X11676253Y-16301017D01*
X11676253Y-16301017D02*
X11800062Y-16301017D01*
X11876253Y-16348636D02*
X11885777Y-16358160D01*
X11885777Y-16358160D02*
X11876253Y-16367684D01*
X11876253Y-16367684D02*
X11866729Y-16358160D01*
X11866729Y-16358160D02*
X11876253Y-16348636D01*
X11876253Y-16348636D02*
X11876253Y-16367684D01*
X12009586Y-16167684D02*
X12028634Y-16167684D01*
X12028634Y-16167684D02*
X12047682Y-16177208D01*
X12047682Y-16177208D02*
X12057205Y-16186731D01*
X12057205Y-16186731D02*
X12066729Y-16205779D01*
X12066729Y-16205779D02*
X12076253Y-16243874D01*
X12076253Y-16243874D02*
X12076253Y-16291493D01*
X12076253Y-16291493D02*
X12066729Y-16329588D01*
X12066729Y-16329588D02*
X12057205Y-16348636D01*
X12057205Y-16348636D02*
X12047682Y-16358160D01*
X12047682Y-16358160D02*
X12028634Y-16367684D01*
X12028634Y-16367684D02*
X12009586Y-16367684D01*
X12009586Y-16367684D02*
X11990539Y-16358160D01*
X11990539Y-16358160D02*
X11981015Y-16348636D01*
X11981015Y-16348636D02*
X11971491Y-16329588D01*
X11971491Y-16329588D02*
X11961967Y-16291493D01*
X11961967Y-16291493D02*
X11961967Y-16243874D01*
X11961967Y-16243874D02*
X11971491Y-16205779D01*
X11971491Y-16205779D02*
X11981015Y-16186731D01*
X11981015Y-16186731D02*
X11990539Y-16177208D01*
X11990539Y-16177208D02*
X12009586Y-16167684D01*
X12200062Y-16167684D02*
X12219110Y-16167684D01*
X12219110Y-16167684D02*
X12238158Y-16177208D01*
X12238158Y-16177208D02*
X12247682Y-16186731D01*
X12247682Y-16186731D02*
X12257205Y-16205779D01*
X12257205Y-16205779D02*
X12266729Y-16243874D01*
X12266729Y-16243874D02*
X12266729Y-16291493D01*
X12266729Y-16291493D02*
X12257205Y-16329588D01*
X12257205Y-16329588D02*
X12247682Y-16348636D01*
X12247682Y-16348636D02*
X12238158Y-16358160D01*
X12238158Y-16358160D02*
X12219110Y-16367684D01*
X12219110Y-16367684D02*
X12200062Y-16367684D01*
X12200062Y-16367684D02*
X12181015Y-16358160D01*
X12181015Y-16358160D02*
X12171491Y-16348636D01*
X12171491Y-16348636D02*
X12161967Y-16329588D01*
X12161967Y-16329588D02*
X12152443Y-16291493D01*
X12152443Y-16291493D02*
X12152443Y-16243874D01*
X12152443Y-16243874D02*
X12161967Y-16205779D01*
X12161967Y-16205779D02*
X12171491Y-16186731D01*
X12171491Y-16186731D02*
X12181015Y-16177208D01*
X12181015Y-16177208D02*
X12200062Y-16167684D01*
X12390539Y-16167684D02*
X12409586Y-16167684D01*
X12409586Y-16167684D02*
X12428634Y-16177208D01*
X12428634Y-16177208D02*
X12438158Y-16186731D01*
X12438158Y-16186731D02*
X12447682Y-16205779D01*
X12447682Y-16205779D02*
X12457205Y-16243874D01*
X12457205Y-16243874D02*
X12457205Y-16291493D01*
X12457205Y-16291493D02*
X12447682Y-16329588D01*
X12447682Y-16329588D02*
X12438158Y-16348636D01*
X12438158Y-16348636D02*
X12428634Y-16358160D01*
X12428634Y-16358160D02*
X12409586Y-16367684D01*
X12409586Y-16367684D02*
X12390539Y-16367684D01*
X12390539Y-16367684D02*
X12371491Y-16358160D01*
X12371491Y-16358160D02*
X12361967Y-16348636D01*
X12361967Y-16348636D02*
X12352443Y-16329588D01*
X12352443Y-16329588D02*
X12342920Y-16291493D01*
X12342920Y-16291493D02*
X12342920Y-16243874D01*
X12342920Y-16243874D02*
X12352443Y-16205779D01*
X12352443Y-16205779D02*
X12361967Y-16186731D01*
X12361967Y-16186731D02*
X12371491Y-16177208D01*
X12371491Y-16177208D02*
X12390539Y-16167684D01*
X12542920Y-16367684D02*
X12542920Y-16234350D01*
X12542920Y-16253398D02*
X12552443Y-16243874D01*
X12552443Y-16243874D02*
X12571491Y-16234350D01*
X12571491Y-16234350D02*
X12600063Y-16234350D01*
X12600063Y-16234350D02*
X12619110Y-16243874D01*
X12619110Y-16243874D02*
X12628634Y-16262922D01*
X12628634Y-16262922D02*
X12628634Y-16367684D01*
X12628634Y-16262922D02*
X12638158Y-16243874D01*
X12638158Y-16243874D02*
X12657205Y-16234350D01*
X12657205Y-16234350D02*
X12685777Y-16234350D01*
X12685777Y-16234350D02*
X12704824Y-16243874D01*
X12704824Y-16243874D02*
X12714348Y-16262922D01*
X12714348Y-16262922D02*
X12714348Y-16367684D01*
X12809586Y-16367684D02*
X12809586Y-16234350D01*
X12809586Y-16253398D02*
X12819110Y-16243874D01*
X12819110Y-16243874D02*
X12838158Y-16234350D01*
X12838158Y-16234350D02*
X12866729Y-16234350D01*
X12866729Y-16234350D02*
X12885777Y-16243874D01*
X12885777Y-16243874D02*
X12895301Y-16262922D01*
X12895301Y-16262922D02*
X12895301Y-16367684D01*
X12895301Y-16262922D02*
X12904824Y-16243874D01*
X12904824Y-16243874D02*
X12923872Y-16234350D01*
X12923872Y-16234350D02*
X12952443Y-16234350D01*
X12952443Y-16234350D02*
X12971491Y-16243874D01*
X12971491Y-16243874D02*
X12981015Y-16262922D01*
X12981015Y-16262922D02*
X12981015Y-16367684D01*
X13371491Y-16158160D02*
X13200063Y-16415303D01*
X13628634Y-16167684D02*
X13647682Y-16167684D01*
X13647682Y-16167684D02*
X13666729Y-16177208D01*
X13666729Y-16177208D02*
X13676253Y-16186731D01*
X13676253Y-16186731D02*
X13685777Y-16205779D01*
X13685777Y-16205779D02*
X13695301Y-16243874D01*
X13695301Y-16243874D02*
X13695301Y-16291493D01*
X13695301Y-16291493D02*
X13685777Y-16329588D01*
X13685777Y-16329588D02*
X13676253Y-16348636D01*
X13676253Y-16348636D02*
X13666729Y-16358160D01*
X13666729Y-16358160D02*
X13647682Y-16367684D01*
X13647682Y-16367684D02*
X13628634Y-16367684D01*
X13628634Y-16367684D02*
X13609586Y-16358160D01*
X13609586Y-16358160D02*
X13600063Y-16348636D01*
X13600063Y-16348636D02*
X13590539Y-16329588D01*
X13590539Y-16329588D02*
X13581015Y-16291493D01*
X13581015Y-16291493D02*
X13581015Y-16243874D01*
X13581015Y-16243874D02*
X13590539Y-16205779D01*
X13590539Y-16205779D02*
X13600063Y-16186731D01*
X13600063Y-16186731D02*
X13609586Y-16177208D01*
X13609586Y-16177208D02*
X13628634Y-16167684D01*
X13781015Y-16348636D02*
X13790539Y-16358160D01*
X13790539Y-16358160D02*
X13781015Y-16367684D01*
X13781015Y-16367684D02*
X13771491Y-16358160D01*
X13771491Y-16358160D02*
X13781015Y-16348636D01*
X13781015Y-16348636D02*
X13781015Y-16367684D01*
X13981015Y-16367684D02*
X13866729Y-16367684D01*
X13923872Y-16367684D02*
X13923872Y-16167684D01*
X13923872Y-16167684D02*
X13904825Y-16196255D01*
X13904825Y-16196255D02*
X13885777Y-16215303D01*
X13885777Y-16215303D02*
X13866729Y-16224827D01*
X14161967Y-16167684D02*
X14066729Y-16167684D01*
X14066729Y-16167684D02*
X14057206Y-16262922D01*
X14057206Y-16262922D02*
X14066729Y-16253398D01*
X14066729Y-16253398D02*
X14085777Y-16243874D01*
X14085777Y-16243874D02*
X14133396Y-16243874D01*
X14133396Y-16243874D02*
X14152444Y-16253398D01*
X14152444Y-16253398D02*
X14161967Y-16262922D01*
X14161967Y-16262922D02*
X14171491Y-16281969D01*
X14171491Y-16281969D02*
X14171491Y-16329588D01*
X14171491Y-16329588D02*
X14161967Y-16348636D01*
X14161967Y-16348636D02*
X14152444Y-16358160D01*
X14152444Y-16358160D02*
X14133396Y-16367684D01*
X14133396Y-16367684D02*
X14085777Y-16367684D01*
X14085777Y-16367684D02*
X14066729Y-16358160D01*
X14066729Y-16358160D02*
X14057206Y-16348636D01*
X14238158Y-16167684D02*
X14371491Y-16167684D01*
X14371491Y-16167684D02*
X14285777Y-16367684D01*
X14542920Y-16167684D02*
X14447682Y-16167684D01*
X14447682Y-16167684D02*
X14438158Y-16262922D01*
X14438158Y-16262922D02*
X14447682Y-16253398D01*
X14447682Y-16253398D02*
X14466729Y-16243874D01*
X14466729Y-16243874D02*
X14514348Y-16243874D01*
X14514348Y-16243874D02*
X14533396Y-16253398D01*
X14533396Y-16253398D02*
X14542920Y-16262922D01*
X14542920Y-16262922D02*
X14552444Y-16281969D01*
X14552444Y-16281969D02*
X14552444Y-16329588D01*
X14552444Y-16329588D02*
X14542920Y-16348636D01*
X14542920Y-16348636D02*
X14533396Y-16358160D01*
X14533396Y-16358160D02*
X14514348Y-16367684D01*
X14514348Y-16367684D02*
X14466729Y-16367684D01*
X14466729Y-16367684D02*
X14447682Y-16358160D01*
X14447682Y-16358160D02*
X14438158Y-16348636D01*
X14628634Y-16167684D02*
X14628634Y-16205779D01*
X14704825Y-16167684D02*
X14704825Y-16205779D01*
X15000063Y-16443874D02*
X14990539Y-16434350D01*
X14990539Y-16434350D02*
X14971491Y-16405779D01*
X14971491Y-16405779D02*
X14961968Y-16386731D01*
X14961968Y-16386731D02*
X14952444Y-16358160D01*
X14952444Y-16358160D02*
X14942920Y-16310541D01*
X14942920Y-16310541D02*
X14942920Y-16272446D01*
X14942920Y-16272446D02*
X14952444Y-16224827D01*
X14952444Y-16224827D02*
X14961968Y-16196255D01*
X14961968Y-16196255D02*
X14971491Y-16177208D01*
X14971491Y-16177208D02*
X14990539Y-16148636D01*
X14990539Y-16148636D02*
X15000063Y-16139112D01*
X15181015Y-16367684D02*
X15066729Y-16367684D01*
X15123872Y-16367684D02*
X15123872Y-16167684D01*
X15123872Y-16167684D02*
X15104825Y-16196255D01*
X15104825Y-16196255D02*
X15085777Y-16215303D01*
X15085777Y-16215303D02*
X15066729Y-16224827D01*
X15247682Y-16167684D02*
X15381015Y-16167684D01*
X15381015Y-16167684D02*
X15295301Y-16367684D01*
X15609587Y-16367684D02*
X15609587Y-16167684D01*
X15695301Y-16367684D02*
X15695301Y-16262922D01*
X15695301Y-16262922D02*
X15685777Y-16243874D01*
X15685777Y-16243874D02*
X15666730Y-16234350D01*
X15666730Y-16234350D02*
X15638158Y-16234350D01*
X15638158Y-16234350D02*
X15619110Y-16243874D01*
X15619110Y-16243874D02*
X15609587Y-16253398D01*
X15819110Y-16367684D02*
X15800063Y-16358160D01*
X15800063Y-16358160D02*
X15790539Y-16348636D01*
X15790539Y-16348636D02*
X15781015Y-16329588D01*
X15781015Y-16329588D02*
X15781015Y-16272446D01*
X15781015Y-16272446D02*
X15790539Y-16253398D01*
X15790539Y-16253398D02*
X15800063Y-16243874D01*
X15800063Y-16243874D02*
X15819110Y-16234350D01*
X15819110Y-16234350D02*
X15847682Y-16234350D01*
X15847682Y-16234350D02*
X15866730Y-16243874D01*
X15866730Y-16243874D02*
X15876253Y-16253398D01*
X15876253Y-16253398D02*
X15885777Y-16272446D01*
X15885777Y-16272446D02*
X15885777Y-16329588D01*
X15885777Y-16329588D02*
X15876253Y-16348636D01*
X15876253Y-16348636D02*
X15866730Y-16358160D01*
X15866730Y-16358160D02*
X15847682Y-16367684D01*
X15847682Y-16367684D02*
X15819110Y-16367684D01*
X16000063Y-16367684D02*
X15981015Y-16358160D01*
X15981015Y-16358160D02*
X15971491Y-16339112D01*
X15971491Y-16339112D02*
X15971491Y-16167684D01*
X16152444Y-16358160D02*
X16133396Y-16367684D01*
X16133396Y-16367684D02*
X16095301Y-16367684D01*
X16095301Y-16367684D02*
X16076253Y-16358160D01*
X16076253Y-16358160D02*
X16066730Y-16339112D01*
X16066730Y-16339112D02*
X16066730Y-16262922D01*
X16066730Y-16262922D02*
X16076253Y-16243874D01*
X16076253Y-16243874D02*
X16095301Y-16234350D01*
X16095301Y-16234350D02*
X16133396Y-16234350D01*
X16133396Y-16234350D02*
X16152444Y-16243874D01*
X16152444Y-16243874D02*
X16161968Y-16262922D01*
X16161968Y-16262922D02*
X16161968Y-16281969D01*
X16161968Y-16281969D02*
X16066730Y-16301017D01*
X16238158Y-16358160D02*
X16257206Y-16367684D01*
X16257206Y-16367684D02*
X16295301Y-16367684D01*
X16295301Y-16367684D02*
X16314349Y-16358160D01*
X16314349Y-16358160D02*
X16323872Y-16339112D01*
X16323872Y-16339112D02*
X16323872Y-16329588D01*
X16323872Y-16329588D02*
X16314349Y-16310541D01*
X16314349Y-16310541D02*
X16295301Y-16301017D01*
X16295301Y-16301017D02*
X16266730Y-16301017D01*
X16266730Y-16301017D02*
X16247682Y-16291493D01*
X16247682Y-16291493D02*
X16238158Y-16272446D01*
X16238158Y-16272446D02*
X16238158Y-16262922D01*
X16238158Y-16262922D02*
X16247682Y-16243874D01*
X16247682Y-16243874D02*
X16266730Y-16234350D01*
X16266730Y-16234350D02*
X16295301Y-16234350D01*
X16295301Y-16234350D02*
X16314349Y-16243874D01*
X16390539Y-16443874D02*
X16400063Y-16434350D01*
X16400063Y-16434350D02*
X16419111Y-16405779D01*
X16419111Y-16405779D02*
X16428634Y-16386731D01*
X16428634Y-16386731D02*
X16438158Y-16358160D01*
X16438158Y-16358160D02*
X16447682Y-16310541D01*
X16447682Y-16310541D02*
X16447682Y-16272446D01*
X16447682Y-16272446D02*
X16438158Y-16224827D01*
X16438158Y-16224827D02*
X16428634Y-16196255D01*
X16428634Y-16196255D02*
X16419111Y-16177208D01*
X16419111Y-16177208D02*
X16400063Y-16148636D01*
X16400063Y-16148636D02*
X16390539Y-16139112D01*
X16752444Y-16443874D02*
X16742920Y-16434350D01*
X16742920Y-16434350D02*
X16723872Y-16405779D01*
X16723872Y-16405779D02*
X16714349Y-16386731D01*
X16714349Y-16386731D02*
X16704825Y-16358160D01*
X16704825Y-16358160D02*
X16695301Y-16310541D01*
X16695301Y-16310541D02*
X16695301Y-16272446D01*
X16695301Y-16272446D02*
X16704825Y-16224827D01*
X16704825Y-16224827D02*
X16714349Y-16196255D01*
X16714349Y-16196255D02*
X16723872Y-16177208D01*
X16723872Y-16177208D02*
X16742920Y-16148636D01*
X16742920Y-16148636D02*
X16752444Y-16139112D01*
X16828634Y-16234350D02*
X16828634Y-16367684D01*
X16828634Y-16253398D02*
X16838158Y-16243874D01*
X16838158Y-16243874D02*
X16857206Y-16234350D01*
X16857206Y-16234350D02*
X16885777Y-16234350D01*
X16885777Y-16234350D02*
X16904825Y-16243874D01*
X16904825Y-16243874D02*
X16914349Y-16262922D01*
X16914349Y-16262922D02*
X16914349Y-16367684D01*
X17038158Y-16367684D02*
X17019111Y-16358160D01*
X17019111Y-16358160D02*
X17009587Y-16348636D01*
X17009587Y-16348636D02*
X17000063Y-16329588D01*
X17000063Y-16329588D02*
X17000063Y-16272446D01*
X17000063Y-16272446D02*
X17009587Y-16253398D01*
X17009587Y-16253398D02*
X17019111Y-16243874D01*
X17019111Y-16243874D02*
X17038158Y-16234350D01*
X17038158Y-16234350D02*
X17066730Y-16234350D01*
X17066730Y-16234350D02*
X17085777Y-16243874D01*
X17085777Y-16243874D02*
X17095301Y-16253398D01*
X17095301Y-16253398D02*
X17104825Y-16272446D01*
X17104825Y-16272446D02*
X17104825Y-16329588D01*
X17104825Y-16329588D02*
X17095301Y-16348636D01*
X17095301Y-16348636D02*
X17085777Y-16358160D01*
X17085777Y-16358160D02*
X17066730Y-16367684D01*
X17066730Y-16367684D02*
X17038158Y-16367684D01*
X17161968Y-16234350D02*
X17238158Y-16234350D01*
X17190539Y-16167684D02*
X17190539Y-16339112D01*
X17190539Y-16339112D02*
X17200063Y-16358160D01*
X17200063Y-16358160D02*
X17219111Y-16367684D01*
X17219111Y-16367684D02*
X17238158Y-16367684D01*
X17457206Y-16234350D02*
X17457206Y-16434350D01*
X17457206Y-16243874D02*
X17476254Y-16234350D01*
X17476254Y-16234350D02*
X17514349Y-16234350D01*
X17514349Y-16234350D02*
X17533396Y-16243874D01*
X17533396Y-16243874D02*
X17542920Y-16253398D01*
X17542920Y-16253398D02*
X17552444Y-16272446D01*
X17552444Y-16272446D02*
X17552444Y-16329588D01*
X17552444Y-16329588D02*
X17542920Y-16348636D01*
X17542920Y-16348636D02*
X17533396Y-16358160D01*
X17533396Y-16358160D02*
X17514349Y-16367684D01*
X17514349Y-16367684D02*
X17476254Y-16367684D01*
X17476254Y-16367684D02*
X17457206Y-16358160D01*
X17666730Y-16367684D02*
X17647682Y-16358160D01*
X17647682Y-16358160D02*
X17638158Y-16339112D01*
X17638158Y-16339112D02*
X17638158Y-16167684D01*
X17828635Y-16367684D02*
X17828635Y-16262922D01*
X17828635Y-16262922D02*
X17819111Y-16243874D01*
X17819111Y-16243874D02*
X17800063Y-16234350D01*
X17800063Y-16234350D02*
X17761968Y-16234350D01*
X17761968Y-16234350D02*
X17742920Y-16243874D01*
X17828635Y-16358160D02*
X17809587Y-16367684D01*
X17809587Y-16367684D02*
X17761968Y-16367684D01*
X17761968Y-16367684D02*
X17742920Y-16358160D01*
X17742920Y-16358160D02*
X17733396Y-16339112D01*
X17733396Y-16339112D02*
X17733396Y-16320065D01*
X17733396Y-16320065D02*
X17742920Y-16301017D01*
X17742920Y-16301017D02*
X17761968Y-16291493D01*
X17761968Y-16291493D02*
X17809587Y-16291493D01*
X17809587Y-16291493D02*
X17828635Y-16281969D01*
X17895301Y-16234350D02*
X17971492Y-16234350D01*
X17923873Y-16167684D02*
X17923873Y-16339112D01*
X17923873Y-16339112D02*
X17933396Y-16358160D01*
X17933396Y-16358160D02*
X17952444Y-16367684D01*
X17952444Y-16367684D02*
X17971492Y-16367684D01*
X18114349Y-16358160D02*
X18095301Y-16367684D01*
X18095301Y-16367684D02*
X18057206Y-16367684D01*
X18057206Y-16367684D02*
X18038158Y-16358160D01*
X18038158Y-16358160D02*
X18028635Y-16339112D01*
X18028635Y-16339112D02*
X18028635Y-16262922D01*
X18028635Y-16262922D02*
X18038158Y-16243874D01*
X18038158Y-16243874D02*
X18057206Y-16234350D01*
X18057206Y-16234350D02*
X18095301Y-16234350D01*
X18095301Y-16234350D02*
X18114349Y-16243874D01*
X18114349Y-16243874D02*
X18123873Y-16262922D01*
X18123873Y-16262922D02*
X18123873Y-16281969D01*
X18123873Y-16281969D02*
X18028635Y-16301017D01*
X18295301Y-16367684D02*
X18295301Y-16167684D01*
X18295301Y-16358160D02*
X18276254Y-16367684D01*
X18276254Y-16367684D02*
X18238158Y-16367684D01*
X18238158Y-16367684D02*
X18219111Y-16358160D01*
X18219111Y-16358160D02*
X18209587Y-16348636D01*
X18209587Y-16348636D02*
X18200063Y-16329588D01*
X18200063Y-16329588D02*
X18200063Y-16272446D01*
X18200063Y-16272446D02*
X18209587Y-16253398D01*
X18209587Y-16253398D02*
X18219111Y-16243874D01*
X18219111Y-16243874D02*
X18238158Y-16234350D01*
X18238158Y-16234350D02*
X18276254Y-16234350D01*
X18276254Y-16234350D02*
X18295301Y-16243874D01*
X18371492Y-16443874D02*
X18381016Y-16434350D01*
X18381016Y-16434350D02*
X18400063Y-16405779D01*
X18400063Y-16405779D02*
X18409587Y-16386731D01*
X18409587Y-16386731D02*
X18419111Y-16358160D01*
X18419111Y-16358160D02*
X18428635Y-16310541D01*
X18428635Y-16310541D02*
X18428635Y-16272446D01*
X18428635Y-16272446D02*
X18419111Y-16224827D01*
X18419111Y-16224827D02*
X18409587Y-16196255D01*
X18409587Y-16196255D02*
X18400063Y-16177208D01*
X18400063Y-16177208D02*
X18381016Y-16148636D01*
X18381016Y-16148636D02*
X18371492Y-16139112D01*
M02*
