G04 #@! TF.GenerationSoftware,KiCad,Pcbnew,7.0.5-7.0.5~ubuntu22.04.1*
G04 #@! TF.CreationDate,2023-07-02T16:03:02+02:00*
G04 #@! TF.ProjectId,keyboard,6b657962-6f61-4726-942e-6b696361645f,v1.0*
G04 #@! TF.SameCoordinates,Original*
G04 #@! TF.FileFunction,Soldermask,Bot*
G04 #@! TF.FilePolarity,Negative*
%FSLAX46Y46*%
G04 Gerber Fmt 4.6, Leading zero omitted, Abs format (unit mm)*
G04 Created by KiCad (PCBNEW 7.0.5-7.0.5~ubuntu22.04.1) date 2023-07-02 16:03:02*
%MOMM*%
%LPD*%
G01*
G04 APERTURE LIST*
G04 Aperture macros list*
%AMRoundRect*
0 Rectangle with rounded corners*
0 $1 Rounding radius*
0 $2 $3 $4 $5 $6 $7 $8 $9 X,Y pos of 4 corners*
0 Add a 4 corners polygon primitive as box body*
4,1,4,$2,$3,$4,$5,$6,$7,$8,$9,$2,$3,0*
0 Add four circle primitives for the rounded corners*
1,1,$1+$1,$2,$3*
1,1,$1+$1,$4,$5*
1,1,$1+$1,$6,$7*
1,1,$1+$1,$8,$9*
0 Add four rect primitives between the rounded corners*
20,1,$1+$1,$2,$3,$4,$5,0*
20,1,$1+$1,$4,$5,$6,$7,0*
20,1,$1+$1,$6,$7,$8,$9,0*
20,1,$1+$1,$8,$9,$2,$3,0*%
G04 Aperture macros list end*
%ADD10C,5.600000*%
%ADD11C,1.750000*%
%ADD12C,4.000000*%
%ADD13C,2.500000*%
%ADD14R,1.300000X1.300000*%
%ADD15C,1.300000*%
%ADD16C,3.000000*%
%ADD17C,0.550000*%
%ADD18O,1.050000X1.900000*%
%ADD19R,1.300000X1.900000*%
%ADD20RoundRect,0.112500X-0.187500X-0.112500X0.187500X-0.112500X0.187500X0.112500X-0.187500X0.112500X0*%
%ADD21RoundRect,0.250000X0.262500X0.450000X-0.262500X0.450000X-0.262500X-0.450000X0.262500X-0.450000X0*%
%ADD22RoundRect,0.250000X-0.475000X0.250000X-0.475000X-0.250000X0.475000X-0.250000X0.475000X0.250000X0*%
%ADD23RoundRect,0.250000X0.475000X-0.250000X0.475000X0.250000X-0.475000X0.250000X-0.475000X-0.250000X0*%
%ADD24RoundRect,0.075000X0.662500X0.075000X-0.662500X0.075000X-0.662500X-0.075000X0.662500X-0.075000X0*%
%ADD25RoundRect,0.075000X0.075000X0.662500X-0.075000X0.662500X-0.075000X-0.662500X0.075000X-0.662500X0*%
%ADD26RoundRect,0.250000X0.650000X-0.325000X0.650000X0.325000X-0.650000X0.325000X-0.650000X-0.325000X0*%
%ADD27R,1.500000X2.000000*%
%ADD28R,3.800000X2.000000*%
%ADD29RoundRect,0.250000X0.450000X-0.262500X0.450000X0.262500X-0.450000X0.262500X-0.450000X-0.262500X0*%
%ADD30RoundRect,0.250000X-0.262500X-0.450000X0.262500X-0.450000X0.262500X0.450000X-0.262500X0.450000X0*%
%ADD31RoundRect,0.150000X0.150000X-0.850000X0.150000X0.850000X-0.150000X0.850000X-0.150000X-0.850000X0*%
%ADD32RoundRect,0.250000X0.250000X0.475000X-0.250000X0.475000X-0.250000X-0.475000X0.250000X-0.475000X0*%
%ADD33RoundRect,0.250000X-0.450000X0.262500X-0.450000X-0.262500X0.450000X-0.262500X0.450000X0.262500X0*%
%ADD34RoundRect,0.243750X-0.243750X-0.456250X0.243750X-0.456250X0.243750X0.456250X-0.243750X0.456250X0*%
%ADD35RoundRect,0.250000X-0.250000X-0.475000X0.250000X-0.475000X0.250000X0.475000X-0.250000X0.475000X0*%
%ADD36R,1.700000X1.700000*%
%ADD37O,1.700000X1.700000*%
%ADD38R,1.900000X2.400000*%
G04 APERTURE END LIST*
D10*
X185420000Y-51000000D03*
D11*
X118770400Y-100431600D03*
D12*
X123850400Y-100431600D03*
D11*
X128930400Y-100431600D03*
D13*
X120040400Y-97891600D03*
X126390400Y-95351600D03*
D11*
X118770400Y-62280800D03*
D12*
X123850400Y-62280800D03*
D11*
X128930400Y-62280800D03*
D13*
X120040400Y-59740800D03*
X126390400Y-57200800D03*
D11*
X156870400Y-138531600D03*
D12*
X161950400Y-138531600D03*
D11*
X167030400Y-138531600D03*
D13*
X158140400Y-135991600D03*
X164490400Y-133451600D03*
D11*
X156870400Y-81330800D03*
D12*
X161950400Y-81330800D03*
D11*
X167030400Y-81330800D03*
D13*
X158140400Y-78790800D03*
X164490400Y-76250800D03*
D11*
X118770400Y-81330800D03*
D12*
X123850400Y-81330800D03*
D11*
X128930400Y-81330800D03*
D13*
X120040400Y-78790800D03*
X126390400Y-76250800D03*
D11*
X128270000Y-138531600D03*
D12*
X133350000Y-138531600D03*
D11*
X138430000Y-138531600D03*
D13*
X129540000Y-135991600D03*
X135890000Y-133451600D03*
D11*
X156870400Y-100431600D03*
D12*
X161950400Y-100431600D03*
D11*
X167030400Y-100431600D03*
D13*
X158140400Y-97891600D03*
X164490400Y-95351600D03*
D14*
X166000000Y-43025000D03*
D15*
X163500000Y-43025000D03*
X161500000Y-43025000D03*
X159000000Y-43025000D03*
D16*
X155930000Y-40625000D03*
X169070000Y-40625000D03*
D10*
X185420000Y-143000000D03*
D11*
X156870400Y-119481600D03*
D12*
X161950400Y-119481600D03*
D11*
X167030400Y-119481600D03*
D13*
X158140400Y-116941600D03*
X164490400Y-114401600D03*
D11*
X137820400Y-81330800D03*
D12*
X142900400Y-81330800D03*
D11*
X147980400Y-81330800D03*
D13*
X139090400Y-78790800D03*
X145440400Y-76250800D03*
D11*
X175920400Y-62280800D03*
D12*
X181000400Y-62280800D03*
D11*
X186080400Y-62280800D03*
D13*
X177190400Y-59740800D03*
X183540400Y-57200800D03*
D11*
X175920400Y-128981200D03*
D12*
X181000400Y-128981200D03*
D11*
X186080400Y-128981200D03*
D13*
X177190400Y-126441200D03*
X183540400Y-123901200D03*
D17*
X133821600Y-39132400D03*
X129971600Y-39132400D03*
D18*
X134721600Y-36982400D03*
X129071600Y-36982400D03*
D11*
X137820400Y-100431600D03*
D12*
X142900400Y-100431600D03*
D11*
X147980400Y-100431600D03*
D13*
X139090400Y-97891600D03*
X145440400Y-95351600D03*
D11*
X156870400Y-62280800D03*
D12*
X161950400Y-62280800D03*
D11*
X167030400Y-62280800D03*
D13*
X158140400Y-59740800D03*
X164490400Y-57200800D03*
D10*
X119380000Y-51000000D03*
D14*
X183500000Y-43025000D03*
D15*
X181000000Y-43025000D03*
X179000000Y-43025000D03*
X176500000Y-43025000D03*
D16*
X173430000Y-40625000D03*
X186570000Y-40625000D03*
D15*
X121615200Y-36190800D03*
X121615200Y-43190800D03*
D14*
X148500000Y-43000000D03*
D15*
X146000000Y-43000000D03*
X144000000Y-43000000D03*
X141500000Y-43000000D03*
D16*
X138430000Y-40600000D03*
X151570000Y-40600000D03*
D11*
X118770400Y-119481600D03*
D12*
X123850400Y-119481600D03*
D11*
X128930400Y-119481600D03*
D13*
X120040400Y-116941600D03*
X126390400Y-114401600D03*
D11*
X137820400Y-119481600D03*
D12*
X142900400Y-119481600D03*
D11*
X147980400Y-119481600D03*
D13*
X139090400Y-116941600D03*
X145440400Y-114401600D03*
D11*
X175920400Y-90881200D03*
D12*
X181000400Y-90881200D03*
D11*
X186080400Y-90881200D03*
D13*
X177190400Y-88341200D03*
X183540400Y-85801200D03*
D11*
X137820400Y-62280800D03*
D12*
X142900400Y-62280800D03*
D11*
X147980400Y-62280800D03*
D13*
X139090400Y-59740800D03*
X145440400Y-57200800D03*
D10*
X119380000Y-142240000D03*
D19*
X182543000Y-103683000D03*
X188043000Y-103683000D03*
X188043000Y-106883000D03*
X182543000Y-106883000D03*
D20*
X140936000Y-57200800D03*
X143036000Y-57200800D03*
D21*
X185467000Y-110744000D03*
X183642000Y-110744000D03*
D22*
X142087600Y-52050000D03*
X142087600Y-53950000D03*
D20*
X140936000Y-76250800D03*
X143036000Y-76250800D03*
X121632000Y-57200800D03*
X123732000Y-57200800D03*
X121886000Y-114427000D03*
X123986000Y-114427000D03*
D23*
X182880000Y-119441000D03*
X182880000Y-117541000D03*
D20*
X121886000Y-95377000D03*
X123986000Y-95377000D03*
D24*
X179295500Y-103930000D03*
X179295500Y-104430000D03*
X179295500Y-104930000D03*
X179295500Y-105430000D03*
X179295500Y-105930000D03*
X179295500Y-106430000D03*
X179295500Y-106930000D03*
X179295500Y-107430000D03*
X179295500Y-107930000D03*
X179295500Y-108430000D03*
X179295500Y-108930000D03*
X179295500Y-109430000D03*
D25*
X177883000Y-110842500D03*
X177383000Y-110842500D03*
X176883000Y-110842500D03*
X176383000Y-110842500D03*
X175883000Y-110842500D03*
X175383000Y-110842500D03*
X174883000Y-110842500D03*
X174383000Y-110842500D03*
X173883000Y-110842500D03*
X173383000Y-110842500D03*
X172883000Y-110842500D03*
X172383000Y-110842500D03*
D24*
X170970500Y-109430000D03*
X170970500Y-108930000D03*
X170970500Y-108430000D03*
X170970500Y-107930000D03*
X170970500Y-107430000D03*
X170970500Y-106930000D03*
X170970500Y-106430000D03*
X170970500Y-105930000D03*
X170970500Y-105430000D03*
X170970500Y-104930000D03*
X170970500Y-104430000D03*
X170970500Y-103930000D03*
D25*
X172383000Y-102517500D03*
X172883000Y-102517500D03*
X173383000Y-102517500D03*
X173883000Y-102517500D03*
X174383000Y-102517500D03*
X174883000Y-102517500D03*
X175383000Y-102517500D03*
X175883000Y-102517500D03*
X176383000Y-102517500D03*
X176883000Y-102517500D03*
X177383000Y-102517500D03*
X177883000Y-102517500D03*
D26*
X177800000Y-53340000D03*
X177800000Y-50390000D03*
X164363278Y-53174275D03*
X164363278Y-50224275D03*
D27*
X173191200Y-58166400D03*
X170891200Y-58166400D03*
D28*
X170891200Y-51866400D03*
D27*
X168591200Y-58166400D03*
D29*
X172770800Y-96912500D03*
X172770800Y-95087500D03*
D22*
X168275000Y-90050000D03*
X168275000Y-91950000D03*
D30*
X165087500Y-109000000D03*
X166912500Y-109000000D03*
D31*
X157607000Y-56348000D03*
X156337000Y-56348000D03*
X155067000Y-56348000D03*
X153797000Y-56348000D03*
X152527000Y-56348000D03*
X151257000Y-56348000D03*
X149987000Y-56348000D03*
X148717000Y-56348000D03*
X148717000Y-51348000D03*
X149987000Y-51348000D03*
X151257000Y-51348000D03*
X152527000Y-51348000D03*
X153797000Y-51348000D03*
X155067000Y-51348000D03*
X156337000Y-51348000D03*
X157607000Y-51348000D03*
D32*
X184465000Y-100330000D03*
X182565000Y-100330000D03*
D20*
X121886000Y-76250800D03*
X123986000Y-76250800D03*
D33*
X145338800Y-52087500D03*
X145338800Y-53912500D03*
D20*
X179036000Y-85801200D03*
X181136000Y-85801200D03*
X140936000Y-95377000D03*
X143036000Y-95377000D03*
D23*
X186055000Y-119441000D03*
X186055000Y-117541000D03*
D33*
X170815000Y-114935000D03*
X170815000Y-116760000D03*
D34*
X126125000Y-47000000D03*
X128000000Y-47000000D03*
D20*
X179163000Y-57200800D03*
X181263000Y-57200800D03*
D35*
X175900000Y-115189000D03*
X177800000Y-115189000D03*
D22*
X161163000Y-90050000D03*
X161163000Y-91950000D03*
X138781100Y-52050000D03*
X138781100Y-53950000D03*
D33*
X173355000Y-114935000D03*
X173355000Y-116760000D03*
D20*
X140936000Y-114427000D03*
X143036000Y-114427000D03*
D21*
X166912500Y-103000000D03*
X165087500Y-103000000D03*
D36*
X179730400Y-79136400D03*
D37*
X179730400Y-76596400D03*
X179730400Y-74056400D03*
X179730400Y-71516400D03*
D20*
X131411000Y-133477000D03*
X133511000Y-133477000D03*
D21*
X152958800Y-45669200D03*
X151133800Y-45669200D03*
D20*
X159986000Y-76250800D03*
X162086000Y-76250800D03*
D36*
X179059130Y-142193079D03*
D37*
X176519130Y-142193079D03*
X173979130Y-142193079D03*
X171439130Y-142193079D03*
D22*
X164846000Y-90050000D03*
X164846000Y-91950000D03*
D20*
X159986000Y-114427000D03*
X162086000Y-114427000D03*
D38*
X186454000Y-113919000D03*
X182354000Y-113919000D03*
D21*
X166912500Y-106000000D03*
X165087500Y-106000000D03*
D30*
X131175000Y-47000000D03*
X133000000Y-47000000D03*
D20*
X160113000Y-133477000D03*
X162213000Y-133477000D03*
X179036000Y-123952000D03*
X181136000Y-123952000D03*
D32*
X157066755Y-45670538D03*
X155166755Y-45670538D03*
D22*
X157861000Y-90050000D03*
X157861000Y-91950000D03*
D20*
X159986000Y-95377000D03*
X162086000Y-95377000D03*
D22*
X150749000Y-90050000D03*
X150749000Y-91950000D03*
D29*
X170180000Y-96912500D03*
X170180000Y-95087500D03*
D20*
X160113000Y-57200800D03*
X162213000Y-57200800D03*
D22*
X154432000Y-90050000D03*
X154432000Y-91950000D03*
D35*
X186161600Y-100330000D03*
X188061600Y-100330000D03*
M02*
