G04 #@! TF.GenerationSoftware,KiCad,Pcbnew,(6.0.6)*
G04 #@! TF.CreationDate,2022-09-12T00:25:57+02:00*
G04 #@! TF.ProjectId,keyboard,6b657962-6f61-4726-942e-6b696361645f,v1.0*
G04 #@! TF.SameCoordinates,Original*
G04 #@! TF.FileFunction,Soldermask,Bot*
G04 #@! TF.FilePolarity,Negative*
%FSLAX46Y46*%
G04 Gerber Fmt 4.6, Leading zero omitted, Abs format (unit mm)*
G04 Created by KiCad (PCBNEW (6.0.6)) date 2022-09-12 00:25:57*
%MOMM*%
%LPD*%
G01*
G04 APERTURE LIST*
G04 Aperture macros list*
%AMRoundRect*
0 Rectangle with rounded corners*
0 $1 Rounding radius*
0 $2 $3 $4 $5 $6 $7 $8 $9 X,Y pos of 4 corners*
0 Add a 4 corners polygon primitive as box body*
4,1,4,$2,$3,$4,$5,$6,$7,$8,$9,$2,$3,0*
0 Add four circle primitives for the rounded corners*
1,1,$1+$1,$2,$3*
1,1,$1+$1,$4,$5*
1,1,$1+$1,$6,$7*
1,1,$1+$1,$8,$9*
0 Add four rect primitives between the rounded corners*
20,1,$1+$1,$2,$3,$4,$5,0*
20,1,$1+$1,$4,$5,$6,$7,0*
20,1,$1+$1,$6,$7,$8,$9,0*
20,1,$1+$1,$8,$9,$2,$3,0*%
%AMFreePoly0*
4,1,22,0.550000,-0.750000,0.000000,-0.750000,0.000000,-0.745033,-0.079941,-0.743568,-0.215256,-0.701293,-0.333266,-0.622738,-0.424486,-0.514219,-0.481581,-0.384460,-0.499164,-0.250000,-0.500000,-0.250000,-0.500000,0.250000,-0.499164,0.250000,-0.499963,0.256109,-0.478152,0.396186,-0.417904,0.524511,-0.324060,0.630769,-0.204165,0.706417,-0.067858,0.745374,0.000000,0.744959,0.000000,0.750000,
0.550000,0.750000,0.550000,-0.750000,0.550000,-0.750000,$1*%
%AMFreePoly1*
4,1,20,0.000000,0.744959,0.073905,0.744508,0.209726,0.703889,0.328688,0.626782,0.421226,0.519385,0.479903,0.390333,0.500000,0.250000,0.500000,-0.250000,0.499851,-0.262216,0.476331,-0.402017,0.414519,-0.529596,0.319384,-0.634700,0.198574,-0.708877,0.061801,-0.746166,0.000000,-0.745033,0.000000,-0.750000,-0.550000,-0.750000,-0.550000,0.750000,0.000000,0.750000,0.000000,0.744959,
0.000000,0.744959,$1*%
G04 Aperture macros list end*
%ADD10C,4.000000*%
%ADD11C,1.750000*%
%ADD12C,2.500000*%
%ADD13R,1.800000X1.800000*%
%ADD14C,1.800000*%
%ADD15C,3.200000*%
%ADD16R,1.300000X1.300000*%
%ADD17C,1.300000*%
%ADD18C,3.000000*%
%ADD19C,0.550000*%
%ADD20O,1.050000X1.900000*%
%ADD21R,0.600000X0.450000*%
%ADD22RoundRect,0.250000X0.262500X0.450000X-0.262500X0.450000X-0.262500X-0.450000X0.262500X-0.450000X0*%
%ADD23RoundRect,0.250000X0.475000X-0.250000X0.475000X0.250000X-0.475000X0.250000X-0.475000X-0.250000X0*%
%ADD24RoundRect,0.250000X0.450000X-0.262500X0.450000X0.262500X-0.450000X0.262500X-0.450000X-0.262500X0*%
%ADD25RoundRect,0.075000X0.662500X0.075000X-0.662500X0.075000X-0.662500X-0.075000X0.662500X-0.075000X0*%
%ADD26RoundRect,0.075000X0.075000X0.662500X-0.075000X0.662500X-0.075000X-0.662500X0.075000X-0.662500X0*%
%ADD27RoundRect,0.250000X0.650000X-0.325000X0.650000X0.325000X-0.650000X0.325000X-0.650000X-0.325000X0*%
%ADD28RoundRect,0.250000X-0.325000X-0.650000X0.325000X-0.650000X0.325000X0.650000X-0.325000X0.650000X0*%
%ADD29R,1.500000X2.000000*%
%ADD30R,3.800000X2.000000*%
%ADD31R,1.300000X1.900000*%
%ADD32RoundRect,0.250000X-0.475000X0.250000X-0.475000X-0.250000X0.475000X-0.250000X0.475000X0.250000X0*%
%ADD33RoundRect,0.250000X-0.262500X-0.450000X0.262500X-0.450000X0.262500X0.450000X-0.262500X0.450000X0*%
%ADD34RoundRect,0.150000X0.150000X-0.850000X0.150000X0.850000X-0.150000X0.850000X-0.150000X-0.850000X0*%
%ADD35RoundRect,0.250000X0.250000X0.475000X-0.250000X0.475000X-0.250000X-0.475000X0.250000X-0.475000X0*%
%ADD36FreePoly0,0.000000*%
%ADD37R,1.000000X1.500000*%
%ADD38FreePoly1,0.000000*%
%ADD39RoundRect,0.250000X-0.450000X0.262500X-0.450000X-0.262500X0.450000X-0.262500X0.450000X0.262500X0*%
%ADD40RoundRect,0.250000X-0.250000X-0.475000X0.250000X-0.475000X0.250000X0.475000X-0.250000X0.475000X0*%
%ADD41FreePoly0,180.000000*%
%ADD42FreePoly1,180.000000*%
%ADD43R,1.700000X1.700000*%
%ADD44O,1.700000X1.700000*%
%ADD45R,1.900000X2.400000*%
G04 APERTURE END LIST*
D10*
X123850400Y-100431600D03*
D11*
X128930400Y-100431600D03*
X118770400Y-100431600D03*
D12*
X120040400Y-97891600D03*
X126390400Y-95351600D03*
D13*
X141376400Y-48000000D03*
D14*
X143916400Y-48000000D03*
D11*
X118770400Y-62280800D03*
D10*
X123850400Y-62280800D03*
D11*
X128930400Y-62280800D03*
D12*
X120040400Y-59740800D03*
X126390400Y-57200800D03*
D11*
X156870400Y-138531600D03*
X167030400Y-138531600D03*
D10*
X161950400Y-138531600D03*
D12*
X158140400Y-135991600D03*
X164490400Y-133451600D03*
D15*
X186000000Y-51000000D03*
D13*
X171043600Y-48000000D03*
D14*
X173583600Y-48000000D03*
D11*
X156870400Y-81330800D03*
X167030400Y-81330800D03*
D10*
X161950400Y-81330800D03*
D12*
X158140400Y-78790800D03*
X164490400Y-76250800D03*
D15*
X119000000Y-51500000D03*
X186000000Y-143000000D03*
D11*
X118770400Y-81330800D03*
X128930400Y-81330800D03*
D10*
X123850400Y-81330800D03*
D12*
X120040400Y-78790800D03*
X126390400Y-76250800D03*
D15*
X119000000Y-143000000D03*
D10*
X133350000Y-138531600D03*
D11*
X138430000Y-138531600D03*
X128270000Y-138531600D03*
D12*
X129540000Y-135991600D03*
X135890000Y-133451600D03*
D11*
X167030400Y-100431600D03*
X156870400Y-100431600D03*
D10*
X161950400Y-100431600D03*
D12*
X158140400Y-97891600D03*
X164490400Y-95351600D03*
D16*
X174904400Y-42468800D03*
D17*
X177404400Y-42468800D03*
X179404400Y-42468800D03*
X181904400Y-42468800D03*
D18*
X171834400Y-40068800D03*
X184974400Y-40068800D03*
D11*
X156870400Y-119481600D03*
X167030400Y-119481600D03*
D10*
X161950400Y-119481600D03*
D12*
X158140400Y-116941600D03*
X164490400Y-114401600D03*
D10*
X142900400Y-81330800D03*
D11*
X147980400Y-81330800D03*
X137820400Y-81330800D03*
D12*
X139090400Y-78790800D03*
X145440400Y-76250800D03*
D11*
X186080400Y-62280800D03*
X175920400Y-62280800D03*
D10*
X181000400Y-62280800D03*
D12*
X177190400Y-59740800D03*
X183540400Y-57200800D03*
D11*
X175920400Y-128981200D03*
X186080400Y-128981200D03*
D10*
X181000400Y-128981200D03*
D12*
X177190400Y-126441200D03*
X183540400Y-123901200D03*
D19*
X133821600Y-39132400D03*
X129971600Y-39132400D03*
D20*
X129071600Y-36982400D03*
X134721600Y-36982400D03*
D11*
X137820400Y-100431600D03*
X147980400Y-100431600D03*
D10*
X142900400Y-100431600D03*
D12*
X139090400Y-97891600D03*
X145440400Y-95351600D03*
D10*
X161950400Y-62280800D03*
D11*
X167030400Y-62280800D03*
X156870400Y-62280800D03*
D12*
X158140400Y-59740800D03*
X164490400Y-57200800D03*
D16*
X141534000Y-42415400D03*
D17*
X144034000Y-42415400D03*
X146034000Y-42415400D03*
X148534000Y-42415400D03*
D18*
X138464000Y-40015400D03*
X151604000Y-40015400D03*
D17*
X121615200Y-36190800D03*
X121615200Y-43190800D03*
D16*
X158247200Y-42415400D03*
D17*
X160747200Y-42415400D03*
X162747200Y-42415400D03*
X165247200Y-42415400D03*
D18*
X155177200Y-40015400D03*
X168317200Y-40015400D03*
D10*
X123850400Y-119481600D03*
D11*
X128930400Y-119481600D03*
X118770400Y-119481600D03*
D12*
X120040400Y-116941600D03*
X126390400Y-114401600D03*
D11*
X137820400Y-119481600D03*
X147980400Y-119481600D03*
D10*
X142900400Y-119481600D03*
D12*
X139090400Y-116941600D03*
X145440400Y-114401600D03*
D11*
X186080400Y-90881200D03*
X175920400Y-90881200D03*
D10*
X181000400Y-90881200D03*
D12*
X177190400Y-88341200D03*
X183540400Y-85801200D03*
D11*
X137820400Y-62280800D03*
X147980400Y-62280800D03*
D10*
X142900400Y-62280800D03*
D12*
X139090400Y-59740800D03*
X145440400Y-57200800D03*
D13*
X156662200Y-48000000D03*
D14*
X159202200Y-48000000D03*
D21*
X140936000Y-57200800D03*
X143036000Y-57200800D03*
D22*
X185467000Y-110744000D03*
X183642000Y-110744000D03*
D23*
X142087600Y-53950000D03*
X142087600Y-52050000D03*
D21*
X140936000Y-76250800D03*
X143036000Y-76250800D03*
D24*
X162102800Y-49832900D03*
X162102800Y-48007900D03*
D21*
X121632000Y-57200800D03*
X123732000Y-57200800D03*
X121886000Y-114427000D03*
X123986000Y-114427000D03*
D24*
X179374800Y-140716000D03*
X179374800Y-138891000D03*
D23*
X182880000Y-119441000D03*
X182880000Y-117541000D03*
D21*
X121886000Y-95377000D03*
X123986000Y-95377000D03*
D25*
X179295500Y-103930000D03*
X179295500Y-104430000D03*
X179295500Y-104930000D03*
X179295500Y-105430000D03*
X179295500Y-105930000D03*
X179295500Y-106430000D03*
X179295500Y-106930000D03*
X179295500Y-107430000D03*
X179295500Y-107930000D03*
X179295500Y-108430000D03*
X179295500Y-108930000D03*
X179295500Y-109430000D03*
D26*
X177883000Y-110842500D03*
X177383000Y-110842500D03*
X176883000Y-110842500D03*
X176383000Y-110842500D03*
X175883000Y-110842500D03*
X175383000Y-110842500D03*
X174883000Y-110842500D03*
X174383000Y-110842500D03*
X173883000Y-110842500D03*
X173383000Y-110842500D03*
X172883000Y-110842500D03*
X172383000Y-110842500D03*
D25*
X170970500Y-109430000D03*
X170970500Y-108930000D03*
X170970500Y-108430000D03*
X170970500Y-107930000D03*
X170970500Y-107430000D03*
X170970500Y-106930000D03*
X170970500Y-106430000D03*
X170970500Y-105930000D03*
X170970500Y-105430000D03*
X170970500Y-104930000D03*
X170970500Y-104430000D03*
X170970500Y-103930000D03*
D26*
X172383000Y-102517500D03*
X172883000Y-102517500D03*
X173383000Y-102517500D03*
X173883000Y-102517500D03*
X174383000Y-102517500D03*
X174883000Y-102517500D03*
X175383000Y-102517500D03*
X175883000Y-102517500D03*
X176383000Y-102517500D03*
X176883000Y-102517500D03*
X177383000Y-102517500D03*
X177883000Y-102517500D03*
D27*
X180797200Y-50598600D03*
X180797200Y-47648600D03*
D28*
X163726600Y-45872400D03*
X166676600Y-45872400D03*
D29*
X173191200Y-58166400D03*
D30*
X170891200Y-51866400D03*
D29*
X170891200Y-58166400D03*
X168591200Y-58166400D03*
D24*
X172770800Y-96912500D03*
X172770800Y-95087500D03*
D31*
X182543000Y-103683000D03*
X188043000Y-103683000D03*
X188043000Y-106883000D03*
X182543000Y-106883000D03*
D32*
X168275000Y-90050000D03*
X168275000Y-91950000D03*
D33*
X165087500Y-109000000D03*
X166912500Y-109000000D03*
D34*
X157607000Y-56348000D03*
X156337000Y-56348000D03*
X155067000Y-56348000D03*
X153797000Y-56348000D03*
X152527000Y-56348000D03*
X151257000Y-56348000D03*
X149987000Y-56348000D03*
X148717000Y-56348000D03*
X148717000Y-51348000D03*
X149987000Y-51348000D03*
X151257000Y-51348000D03*
X152527000Y-51348000D03*
X153797000Y-51348000D03*
X155067000Y-51348000D03*
X156337000Y-51348000D03*
X157607000Y-51348000D03*
D35*
X184465000Y-100330000D03*
X182565000Y-100330000D03*
D21*
X121886000Y-76250800D03*
X123986000Y-76250800D03*
D24*
X145338800Y-53912500D03*
X145338800Y-52087500D03*
D21*
X179036000Y-85801200D03*
X181136000Y-85801200D03*
X140936000Y-95377000D03*
X143036000Y-95377000D03*
D36*
X172715400Y-144106400D03*
D37*
X174015400Y-144106400D03*
D38*
X175315400Y-144106400D03*
D23*
X186055000Y-119441000D03*
X186055000Y-117541000D03*
D39*
X170815000Y-114935000D03*
X170815000Y-116760000D03*
D21*
X179163000Y-57200800D03*
X181263000Y-57200800D03*
D24*
X173990000Y-140815700D03*
X173990000Y-138990700D03*
X176479200Y-49831000D03*
X176479200Y-48006000D03*
D40*
X175900000Y-115189000D03*
X177800000Y-115189000D03*
D32*
X161163000Y-90050000D03*
X161163000Y-91950000D03*
D41*
X180700200Y-144111200D03*
D37*
X179400200Y-144111200D03*
D42*
X178100200Y-144111200D03*
D23*
X138781100Y-53950000D03*
X138781100Y-52050000D03*
D39*
X173355000Y-114935000D03*
X173355000Y-116760000D03*
D21*
X140936000Y-114427000D03*
X143036000Y-114427000D03*
D22*
X166912500Y-103000000D03*
X165087500Y-103000000D03*
D43*
X179730400Y-79136400D03*
D44*
X179730400Y-76596400D03*
X179730400Y-74056400D03*
X179730400Y-71516400D03*
D21*
X131411000Y-133477000D03*
X133511000Y-133477000D03*
D22*
X152958800Y-45669200D03*
X151133800Y-45669200D03*
D21*
X159986000Y-76250800D03*
X162086000Y-76250800D03*
D32*
X164846000Y-90050000D03*
X164846000Y-91950000D03*
D21*
X159986000Y-114427000D03*
X162086000Y-114427000D03*
D45*
X186454000Y-113919000D03*
X182354000Y-113919000D03*
D22*
X166912500Y-106000000D03*
X165087500Y-106000000D03*
D21*
X160113000Y-133477000D03*
X162213000Y-133477000D03*
X179036000Y-123952000D03*
X181136000Y-123952000D03*
D32*
X135128000Y-52050000D03*
X135128000Y-53950000D03*
X157861000Y-90050000D03*
X157861000Y-91950000D03*
D21*
X159986000Y-95377000D03*
X162086000Y-95377000D03*
D32*
X150749000Y-90050000D03*
X150749000Y-91950000D03*
D24*
X170180000Y-96912500D03*
X170180000Y-95087500D03*
D21*
X160113000Y-57200800D03*
X162213000Y-57200800D03*
D24*
X146862800Y-49782100D03*
X146862800Y-47957100D03*
D32*
X154432000Y-90050000D03*
X154432000Y-91950000D03*
D40*
X186161600Y-100330000D03*
X188061600Y-100330000D03*
M02*
