G04 #@! TF.GenerationSoftware,KiCad,Pcbnew,(6.0.6)*
G04 #@! TF.CreationDate,2022-09-12T00:25:57+02:00*
G04 #@! TF.ProjectId,keyboard,6b657962-6f61-4726-942e-6b696361645f,v1.0*
G04 #@! TF.SameCoordinates,Original*
G04 #@! TF.FileFunction,Legend,Top*
G04 #@! TF.FilePolarity,Positive*
%FSLAX46Y46*%
G04 Gerber Fmt 4.6, Leading zero omitted, Abs format (unit mm)*
G04 Created by KiCad (PCBNEW (6.0.6)) date 2022-09-12 00:25:57*
%MOMM*%
%LPD*%
G01*
G04 APERTURE LIST*
%ADD10C,0.150000*%
%ADD11C,0.254000*%
%ADD12C,0.120000*%
%ADD13C,0.200000*%
%ADD14C,0.100000*%
%ADD15C,4.000000*%
%ADD16C,1.750000*%
%ADD17C,2.500000*%
%ADD18R,1.800000X1.800000*%
%ADD19C,1.800000*%
%ADD20C,3.200000*%
%ADD21R,1.300000X1.300000*%
%ADD22C,1.300000*%
%ADD23C,3.000000*%
%ADD24C,0.550000*%
%ADD25R,0.400000X1.400000*%
%ADD26O,1.050000X1.900000*%
%ADD27R,1.150000X1.450000*%
%ADD28R,1.750000X1.900000*%
%ADD29R,2.500000X1.200000*%
%ADD30R,1.700000X1.700000*%
%ADD31O,1.700000X1.700000*%
G04 APERTURE END LIST*
D10*
X139593580Y-49169485D02*
X138593580Y-49169485D01*
X138593580Y-48931390D01*
X138641200Y-48788533D01*
X138736438Y-48693295D01*
X138831676Y-48645676D01*
X139022152Y-48598057D01*
X139165009Y-48598057D01*
X139355485Y-48645676D01*
X139450723Y-48693295D01*
X139545961Y-48788533D01*
X139593580Y-48931390D01*
X139593580Y-49169485D01*
X139593580Y-47645676D02*
X139593580Y-48217104D01*
X139593580Y-47931390D02*
X138593580Y-47931390D01*
X138736438Y-48026628D01*
X138831676Y-48121866D01*
X138879295Y-48217104D01*
X138593580Y-46740914D02*
X138593580Y-47217104D01*
X139069771Y-47264723D01*
X139022152Y-47217104D01*
X138974533Y-47121866D01*
X138974533Y-46883771D01*
X139022152Y-46788533D01*
X139069771Y-46740914D01*
X139165009Y-46693295D01*
X139403104Y-46693295D01*
X139498342Y-46740914D01*
X139545961Y-46788533D01*
X139593580Y-46883771D01*
X139593580Y-47121866D01*
X139545961Y-47217104D01*
X139498342Y-47264723D01*
X169413180Y-49220285D02*
X168413180Y-49220285D01*
X168413180Y-48982190D01*
X168460800Y-48839333D01*
X168556038Y-48744095D01*
X168651276Y-48696476D01*
X168841752Y-48648857D01*
X168984609Y-48648857D01*
X169175085Y-48696476D01*
X169270323Y-48744095D01*
X169365561Y-48839333D01*
X169413180Y-48982190D01*
X169413180Y-49220285D01*
X168508419Y-48267904D02*
X168460800Y-48220285D01*
X168413180Y-48125047D01*
X168413180Y-47886952D01*
X168460800Y-47791714D01*
X168508419Y-47744095D01*
X168603657Y-47696476D01*
X168698895Y-47696476D01*
X168841752Y-47744095D01*
X169413180Y-48315523D01*
X169413180Y-47696476D01*
X168413180Y-47077428D02*
X168413180Y-46982190D01*
X168460800Y-46886952D01*
X168508419Y-46839333D01*
X168603657Y-46791714D01*
X168794133Y-46744095D01*
X169032228Y-46744095D01*
X169222704Y-46791714D01*
X169317942Y-46839333D01*
X169365561Y-46886952D01*
X169413180Y-46982190D01*
X169413180Y-47077428D01*
X169365561Y-47172666D01*
X169317942Y-47220285D01*
X169222704Y-47267904D01*
X169032228Y-47315523D01*
X168794133Y-47315523D01*
X168603657Y-47267904D01*
X168508419Y-47220285D01*
X168460800Y-47172666D01*
X168413180Y-47077428D01*
X178971066Y-34871180D02*
X178971066Y-35585466D01*
X178923447Y-35728323D01*
X178828209Y-35823561D01*
X178685352Y-35871180D01*
X178590114Y-35871180D01*
X179923447Y-34871180D02*
X179447257Y-34871180D01*
X179399638Y-35347371D01*
X179447257Y-35299752D01*
X179542495Y-35252133D01*
X179780590Y-35252133D01*
X179875828Y-35299752D01*
X179923447Y-35347371D01*
X179971066Y-35442609D01*
X179971066Y-35680704D01*
X179923447Y-35775942D01*
X179875828Y-35823561D01*
X179780590Y-35871180D01*
X179542495Y-35871180D01*
X179447257Y-35823561D01*
X179399638Y-35775942D01*
X131563266Y-40934780D02*
X131563266Y-41649066D01*
X131515647Y-41791923D01*
X131420409Y-41887161D01*
X131277552Y-41934780D01*
X131182314Y-41934780D01*
X132468028Y-41268114D02*
X132468028Y-41934780D01*
X132229933Y-40887161D02*
X131991838Y-41601447D01*
X132610885Y-41601447D01*
X145600666Y-34817780D02*
X145600666Y-35532066D01*
X145553047Y-35674923D01*
X145457809Y-35770161D01*
X145314952Y-35817780D01*
X145219714Y-35817780D01*
X146505428Y-34817780D02*
X146314952Y-34817780D01*
X146219714Y-34865400D01*
X146172095Y-34913019D01*
X146076857Y-35055876D01*
X146029238Y-35246352D01*
X146029238Y-35627304D01*
X146076857Y-35722542D01*
X146124476Y-35770161D01*
X146219714Y-35817780D01*
X146410190Y-35817780D01*
X146505428Y-35770161D01*
X146553047Y-35722542D01*
X146600666Y-35627304D01*
X146600666Y-35389209D01*
X146553047Y-35293971D01*
X146505428Y-35246352D01*
X146410190Y-35198733D01*
X146219714Y-35198733D01*
X146124476Y-35246352D01*
X146076857Y-35293971D01*
X146029238Y-35389209D01*
D11*
X123274666Y-48174123D02*
X123274666Y-49081266D01*
X123214190Y-49262695D01*
X123093238Y-49383647D01*
X122911809Y-49444123D01*
X122790857Y-49444123D01*
X124060857Y-48718409D02*
X123939904Y-48657933D01*
X123879428Y-48597457D01*
X123818952Y-48476504D01*
X123818952Y-48416028D01*
X123879428Y-48295076D01*
X123939904Y-48234600D01*
X124060857Y-48174123D01*
X124302761Y-48174123D01*
X124423714Y-48234600D01*
X124484190Y-48295076D01*
X124544666Y-48416028D01*
X124544666Y-48476504D01*
X124484190Y-48597457D01*
X124423714Y-48657933D01*
X124302761Y-48718409D01*
X124060857Y-48718409D01*
X123939904Y-48778885D01*
X123879428Y-48839361D01*
X123818952Y-48960314D01*
X123818952Y-49202219D01*
X123879428Y-49323171D01*
X123939904Y-49383647D01*
X124060857Y-49444123D01*
X124302761Y-49444123D01*
X124423714Y-49383647D01*
X124484190Y-49323171D01*
X124544666Y-49202219D01*
X124544666Y-48960314D01*
X124484190Y-48839361D01*
X124423714Y-48778885D01*
X124302761Y-48718409D01*
D10*
X162313866Y-34817780D02*
X162313866Y-35532066D01*
X162266247Y-35674923D01*
X162171009Y-35770161D01*
X162028152Y-35817780D01*
X161932914Y-35817780D01*
X162694819Y-34817780D02*
X163361485Y-34817780D01*
X162932914Y-35817780D01*
X154985980Y-49220285D02*
X153985980Y-49220285D01*
X153985980Y-48982190D01*
X154033600Y-48839333D01*
X154128838Y-48744095D01*
X154224076Y-48696476D01*
X154414552Y-48648857D01*
X154557409Y-48648857D01*
X154747885Y-48696476D01*
X154843123Y-48744095D01*
X154938361Y-48839333D01*
X154985980Y-48982190D01*
X154985980Y-49220285D01*
X154985980Y-47696476D02*
X154985980Y-48267904D01*
X154985980Y-47982190D02*
X153985980Y-47982190D01*
X154128838Y-48077428D01*
X154224076Y-48172666D01*
X154271695Y-48267904D01*
X154985980Y-47220285D02*
X154985980Y-47029809D01*
X154938361Y-46934571D01*
X154890742Y-46886952D01*
X154747885Y-46791714D01*
X154557409Y-46744095D01*
X154176457Y-46744095D01*
X154081219Y-46791714D01*
X154033600Y-46839333D01*
X153985980Y-46934571D01*
X153985980Y-47125047D01*
X154033600Y-47220285D01*
X154081219Y-47267904D01*
X154176457Y-47315523D01*
X154414552Y-47315523D01*
X154509790Y-47267904D01*
X154557409Y-47220285D01*
X154605028Y-47125047D01*
X154605028Y-46934571D01*
X154557409Y-46839333D01*
X154509790Y-46791714D01*
X154414552Y-46744095D01*
D12*
X130950400Y-107531600D02*
X130950400Y-93331600D01*
X130950400Y-93331600D02*
X116750400Y-93331600D01*
X116750400Y-93331600D02*
X116750400Y-107531600D01*
X116750400Y-107531600D02*
X130950400Y-107531600D01*
X140086400Y-46455000D02*
X140086400Y-49545000D01*
X140086400Y-49544830D02*
G75*
G03*
X145636400Y-47999538I2560000J1544830D01*
G01*
X145636400Y-48000462D02*
G75*
G03*
X140086400Y-46455170I-2990000J462D01*
G01*
X145146400Y-48000000D02*
G75*
G03*
X145146400Y-48000000I-2500000J0D01*
G01*
X130950400Y-55180800D02*
X116750400Y-55180800D01*
X130950400Y-69380800D02*
X130950400Y-55180800D01*
X116750400Y-69380800D02*
X130950400Y-69380800D01*
X116750400Y-55180800D02*
X116750400Y-69380800D01*
X154850400Y-145631600D02*
X169050400Y-145631600D01*
X154850400Y-131431600D02*
X154850400Y-145631600D01*
X169050400Y-131431600D02*
X154850400Y-131431600D01*
X169050400Y-145631600D02*
X169050400Y-131431600D01*
X169753600Y-46455000D02*
X169753600Y-49545000D01*
X169753600Y-49544830D02*
G75*
G03*
X175303600Y-47999538I2560000J1544830D01*
G01*
X175303600Y-48000462D02*
G75*
G03*
X169753600Y-46455170I-2990000J462D01*
G01*
X174813600Y-48000000D02*
G75*
G03*
X174813600Y-48000000I-2500000J0D01*
G01*
X169050400Y-74230800D02*
X154850400Y-74230800D01*
X154850400Y-88430800D02*
X169050400Y-88430800D01*
X154850400Y-74230800D02*
X154850400Y-88430800D01*
X169050400Y-88430800D02*
X169050400Y-74230800D01*
X116750400Y-74230800D02*
X116750400Y-88430800D01*
X116750400Y-88430800D02*
X130950400Y-88430800D01*
X130950400Y-88430800D02*
X130950400Y-74230800D01*
X130950400Y-74230800D02*
X116750400Y-74230800D01*
X140450000Y-145631600D02*
X140450000Y-131431600D01*
X126250000Y-145631600D02*
X140450000Y-145631600D01*
X126250000Y-131431600D02*
X126250000Y-145631600D01*
X140450000Y-131431600D02*
X126250000Y-131431600D01*
X169050400Y-107531600D02*
X169050400Y-93331600D01*
X154850400Y-93331600D02*
X154850400Y-107531600D01*
X154850400Y-107531600D02*
X169050400Y-107531600D01*
X169050400Y-93331600D02*
X154850400Y-93331600D01*
X171704400Y-37568800D02*
X176654400Y-37568800D01*
X185104400Y-37568800D02*
X185104400Y-38023800D01*
X171704400Y-37568800D02*
X171704400Y-38023800D01*
X185104400Y-43568800D02*
X171704400Y-43568800D01*
X185104400Y-37568800D02*
X180154400Y-37568800D01*
X169050400Y-126581600D02*
X169050400Y-112381600D01*
X169050400Y-112381600D02*
X154850400Y-112381600D01*
X154850400Y-126581600D02*
X169050400Y-126581600D01*
X154850400Y-112381600D02*
X154850400Y-126581600D01*
X150000400Y-88430800D02*
X150000400Y-74230800D01*
X135800400Y-74230800D02*
X135800400Y-88430800D01*
X135800400Y-88430800D02*
X150000400Y-88430800D01*
X150000400Y-74230800D02*
X135800400Y-74230800D01*
X188100400Y-55180800D02*
X173900400Y-55180800D01*
X173900400Y-69380800D02*
X188100400Y-69380800D01*
X173900400Y-55180800D02*
X173900400Y-69380800D01*
X188100400Y-69380800D02*
X188100400Y-55180800D01*
X173900400Y-121881200D02*
X173900400Y-136081200D01*
X188100400Y-121881200D02*
X173900400Y-121881200D01*
X173900400Y-136081200D02*
X188100400Y-136081200D01*
X188100400Y-136081200D02*
X188100400Y-121881200D01*
X128086600Y-35592400D02*
X128086600Y-35802400D01*
X133656600Y-40592400D02*
X133656600Y-40202400D01*
X135765859Y-38302399D02*
X135765859Y-40032399D01*
X128034749Y-40027214D02*
X128684749Y-40027214D01*
X128034749Y-38297214D02*
X128034749Y-40027214D01*
X133656600Y-40592400D02*
X133206600Y-40592400D01*
X135706600Y-35592400D02*
X135706600Y-35802400D01*
X135765859Y-40032399D02*
X135105859Y-40032399D01*
X135800400Y-93331600D02*
X135800400Y-107531600D01*
X150000400Y-107531600D02*
X150000400Y-93331600D01*
X150000400Y-93331600D02*
X135800400Y-93331600D01*
X135800400Y-107531600D02*
X150000400Y-107531600D01*
X154850400Y-69380800D02*
X169050400Y-69380800D01*
X169050400Y-69380800D02*
X169050400Y-55180800D01*
X169050400Y-55180800D02*
X154850400Y-55180800D01*
X154850400Y-55180800D02*
X154850400Y-69380800D01*
X138334000Y-37515400D02*
X143284000Y-37515400D01*
X151734000Y-37515400D02*
X151734000Y-37970400D01*
X151734000Y-37515400D02*
X146784000Y-37515400D01*
X151734000Y-43515400D02*
X138334000Y-43515400D01*
X138334000Y-37515400D02*
X138334000Y-37970400D01*
D13*
X126515200Y-37790800D02*
X126515200Y-37790800D01*
D14*
X124665200Y-46790800D02*
X118615200Y-46790800D01*
X124665200Y-46590800D02*
X124665200Y-46790800D01*
X118565200Y-34590800D02*
X118565200Y-44590800D01*
X124665200Y-36590800D02*
X124615200Y-34590800D01*
D13*
X126515200Y-37990800D02*
X126515200Y-37990800D01*
D14*
X124615200Y-34590800D02*
X118615200Y-34590800D01*
X118615200Y-34590800D02*
X118565200Y-34590800D01*
D13*
X126515200Y-37990800D02*
G75*
G03*
X126515200Y-37790800I0J100000D01*
G01*
X126515200Y-37790800D02*
G75*
G03*
X126515200Y-37990800I0J-100000D01*
G01*
D12*
X168447200Y-37515400D02*
X168447200Y-37970400D01*
X168447200Y-37515400D02*
X163497200Y-37515400D01*
X168447200Y-43515400D02*
X155047200Y-43515400D01*
X155047200Y-37515400D02*
X159997200Y-37515400D01*
X155047200Y-37515400D02*
X155047200Y-37970400D01*
X116750400Y-112381600D02*
X116750400Y-126581600D01*
X130950400Y-112381600D02*
X116750400Y-112381600D01*
X116750400Y-126581600D02*
X130950400Y-126581600D01*
X130950400Y-126581600D02*
X130950400Y-112381600D01*
X135800400Y-112381600D02*
X135800400Y-126581600D01*
X150000400Y-112381600D02*
X135800400Y-112381600D01*
X150000400Y-126581600D02*
X150000400Y-112381600D01*
X135800400Y-126581600D02*
X150000400Y-126581600D01*
X173900400Y-83781200D02*
X173900400Y-97981200D01*
X188100400Y-83781200D02*
X173900400Y-83781200D01*
X188100400Y-97981200D02*
X188100400Y-83781200D01*
X173900400Y-97981200D02*
X188100400Y-97981200D01*
X135800400Y-55180800D02*
X135800400Y-69380800D01*
X150000400Y-55180800D02*
X135800400Y-55180800D01*
X135800400Y-69380800D02*
X150000400Y-69380800D01*
X150000400Y-69380800D02*
X150000400Y-55180800D01*
X155372200Y-46455000D02*
X155372200Y-49545000D01*
X155372200Y-49544830D02*
G75*
G03*
X160922200Y-47999538I2560000J1544830D01*
G01*
X160922200Y-48000462D02*
G75*
G03*
X155372200Y-46455170I-2990000J462D01*
G01*
X160432200Y-48000000D02*
G75*
G03*
X160432200Y-48000000I-2500000J0D01*
G01*
%LPC*%
D15*
X123850400Y-100431600D03*
D16*
X128930400Y-100431600D03*
X118770400Y-100431600D03*
D17*
X120040400Y-97891600D03*
X126390400Y-95351600D03*
D18*
X141376400Y-48000000D03*
D19*
X143916400Y-48000000D03*
D16*
X118770400Y-62280800D03*
D15*
X123850400Y-62280800D03*
D16*
X128930400Y-62280800D03*
D17*
X120040400Y-59740800D03*
X126390400Y-57200800D03*
D16*
X156870400Y-138531600D03*
X167030400Y-138531600D03*
D15*
X161950400Y-138531600D03*
D17*
X158140400Y-135991600D03*
X164490400Y-133451600D03*
D20*
X186000000Y-51000000D03*
D18*
X171043600Y-48000000D03*
D19*
X173583600Y-48000000D03*
D16*
X156870400Y-81330800D03*
X167030400Y-81330800D03*
D15*
X161950400Y-81330800D03*
D17*
X158140400Y-78790800D03*
X164490400Y-76250800D03*
D20*
X119000000Y-51500000D03*
X186000000Y-143000000D03*
D16*
X118770400Y-81330800D03*
X128930400Y-81330800D03*
D15*
X123850400Y-81330800D03*
D17*
X120040400Y-78790800D03*
X126390400Y-76250800D03*
D20*
X119000000Y-143000000D03*
D15*
X133350000Y-138531600D03*
D16*
X138430000Y-138531600D03*
X128270000Y-138531600D03*
D17*
X129540000Y-135991600D03*
X135890000Y-133451600D03*
D16*
X167030400Y-100431600D03*
X156870400Y-100431600D03*
D15*
X161950400Y-100431600D03*
D17*
X158140400Y-97891600D03*
X164490400Y-95351600D03*
D21*
X174904400Y-42468800D03*
D22*
X177404400Y-42468800D03*
X179404400Y-42468800D03*
X181904400Y-42468800D03*
D23*
X171834400Y-40068800D03*
X184974400Y-40068800D03*
D16*
X156870400Y-119481600D03*
X167030400Y-119481600D03*
D15*
X161950400Y-119481600D03*
D17*
X158140400Y-116941600D03*
X164490400Y-114401600D03*
D15*
X142900400Y-81330800D03*
D16*
X147980400Y-81330800D03*
X137820400Y-81330800D03*
D17*
X139090400Y-78790800D03*
X145440400Y-76250800D03*
D16*
X186080400Y-62280800D03*
X175920400Y-62280800D03*
D15*
X181000400Y-62280800D03*
D17*
X177190400Y-59740800D03*
X183540400Y-57200800D03*
D16*
X175920400Y-128981200D03*
X186080400Y-128981200D03*
D15*
X181000400Y-128981200D03*
D17*
X177190400Y-126441200D03*
X183540400Y-123901200D03*
D24*
X133821600Y-39132400D03*
X129971600Y-39132400D03*
D25*
X133196600Y-39632400D03*
X132546600Y-39632400D03*
X131896600Y-39632400D03*
X131246600Y-39632400D03*
X130596600Y-39632400D03*
D26*
X129071600Y-36982400D03*
D27*
X128696600Y-39212400D03*
X135096600Y-39212400D03*
D28*
X130771600Y-36982400D03*
D26*
X134721600Y-36982400D03*
D28*
X133021600Y-36982400D03*
D16*
X137820400Y-100431600D03*
X147980400Y-100431600D03*
D15*
X142900400Y-100431600D03*
D17*
X139090400Y-97891600D03*
X145440400Y-95351600D03*
D15*
X161950400Y-62280800D03*
D16*
X167030400Y-62280800D03*
X156870400Y-62280800D03*
D17*
X158140400Y-59740800D03*
X164490400Y-57200800D03*
D21*
X141534000Y-42415400D03*
D22*
X144034000Y-42415400D03*
X146034000Y-42415400D03*
X148534000Y-42415400D03*
D23*
X138464000Y-40015400D03*
X151604000Y-40015400D03*
D22*
X121615200Y-36190800D03*
X121615200Y-43190800D03*
D29*
X124865200Y-44890800D03*
X124865200Y-40890800D03*
X124865200Y-37890800D03*
X118365200Y-45890800D03*
D21*
X158247200Y-42415400D03*
D22*
X160747200Y-42415400D03*
X162747200Y-42415400D03*
X165247200Y-42415400D03*
D23*
X155177200Y-40015400D03*
X168317200Y-40015400D03*
D15*
X123850400Y-119481600D03*
D16*
X128930400Y-119481600D03*
X118770400Y-119481600D03*
D17*
X120040400Y-116941600D03*
X126390400Y-114401600D03*
D16*
X137820400Y-119481600D03*
X147980400Y-119481600D03*
D15*
X142900400Y-119481600D03*
D17*
X139090400Y-116941600D03*
X145440400Y-114401600D03*
D16*
X186080400Y-90881200D03*
X175920400Y-90881200D03*
D15*
X181000400Y-90881200D03*
D17*
X177190400Y-88341200D03*
X183540400Y-85801200D03*
D16*
X137820400Y-62280800D03*
X147980400Y-62280800D03*
D15*
X142900400Y-62280800D03*
D17*
X139090400Y-59740800D03*
X145440400Y-57200800D03*
D18*
X156662200Y-48000000D03*
D19*
X159202200Y-48000000D03*
D30*
X179730400Y-79136400D03*
D31*
X179730400Y-76596400D03*
X179730400Y-74056400D03*
X179730400Y-71516400D03*
M02*
