G04 #@! TF.GenerationSoftware,KiCad,Pcbnew,(6.0.6)*
G04 #@! TF.CreationDate,2022-09-12T00:25:57+02:00*
G04 #@! TF.ProjectId,keyboard,6b657962-6f61-4726-942e-6b696361645f,v1.0*
G04 #@! TF.SameCoordinates,Original*
G04 #@! TF.FileFunction,Legend,Bot*
G04 #@! TF.FilePolarity,Positive*
%FSLAX46Y46*%
G04 Gerber Fmt 4.6, Leading zero omitted, Abs format (unit mm)*
G04 Created by KiCad (PCBNEW (6.0.6)) date 2022-09-12 00:25:57*
%MOMM*%
%LPD*%
G01*
G04 APERTURE LIST*
G04 Aperture macros list*
%AMRoundRect*
0 Rectangle with rounded corners*
0 $1 Rounding radius*
0 $2 $3 $4 $5 $6 $7 $8 $9 X,Y pos of 4 corners*
0 Add a 4 corners polygon primitive as box body*
4,1,4,$2,$3,$4,$5,$6,$7,$8,$9,$2,$3,0*
0 Add four circle primitives for the rounded corners*
1,1,$1+$1,$2,$3*
1,1,$1+$1,$4,$5*
1,1,$1+$1,$6,$7*
1,1,$1+$1,$8,$9*
0 Add four rect primitives between the rounded corners*
20,1,$1+$1,$2,$3,$4,$5,0*
20,1,$1+$1,$4,$5,$6,$7,0*
20,1,$1+$1,$6,$7,$8,$9,0*
20,1,$1+$1,$8,$9,$2,$3,0*%
%AMFreePoly0*
4,1,22,0.550000,-0.750000,0.000000,-0.750000,0.000000,-0.745033,-0.079941,-0.743568,-0.215256,-0.701293,-0.333266,-0.622738,-0.424486,-0.514219,-0.481581,-0.384460,-0.499164,-0.250000,-0.500000,-0.250000,-0.500000,0.250000,-0.499164,0.250000,-0.499963,0.256109,-0.478152,0.396186,-0.417904,0.524511,-0.324060,0.630769,-0.204165,0.706417,-0.067858,0.745374,0.000000,0.744959,0.000000,0.750000,
0.550000,0.750000,0.550000,-0.750000,0.550000,-0.750000,$1*%
%AMFreePoly1*
4,1,20,0.000000,0.744959,0.073905,0.744508,0.209726,0.703889,0.328688,0.626782,0.421226,0.519385,0.479903,0.390333,0.500000,0.250000,0.500000,-0.250000,0.499851,-0.262216,0.476331,-0.402017,0.414519,-0.529596,0.319384,-0.634700,0.198574,-0.708877,0.061801,-0.746166,0.000000,-0.745033,0.000000,-0.750000,-0.550000,-0.750000,-0.550000,0.750000,0.000000,0.750000,0.000000,0.744959,
0.000000,0.744959,$1*%
G04 Aperture macros list end*
%ADD10C,0.150000*%
%ADD11C,0.120000*%
%ADD12C,4.000000*%
%ADD13C,1.750000*%
%ADD14C,2.500000*%
%ADD15R,1.800000X1.800000*%
%ADD16C,1.800000*%
%ADD17C,3.200000*%
%ADD18R,1.300000X1.300000*%
%ADD19C,1.300000*%
%ADD20C,3.000000*%
%ADD21C,0.550000*%
%ADD22O,1.050000X1.900000*%
%ADD23R,0.600000X0.450000*%
%ADD24RoundRect,0.250000X0.262500X0.450000X-0.262500X0.450000X-0.262500X-0.450000X0.262500X-0.450000X0*%
%ADD25RoundRect,0.250000X0.475000X-0.250000X0.475000X0.250000X-0.475000X0.250000X-0.475000X-0.250000X0*%
%ADD26RoundRect,0.250000X0.450000X-0.262500X0.450000X0.262500X-0.450000X0.262500X-0.450000X-0.262500X0*%
%ADD27RoundRect,0.075000X0.662500X0.075000X-0.662500X0.075000X-0.662500X-0.075000X0.662500X-0.075000X0*%
%ADD28RoundRect,0.075000X0.075000X0.662500X-0.075000X0.662500X-0.075000X-0.662500X0.075000X-0.662500X0*%
%ADD29RoundRect,0.250000X0.650000X-0.325000X0.650000X0.325000X-0.650000X0.325000X-0.650000X-0.325000X0*%
%ADD30RoundRect,0.250000X-0.325000X-0.650000X0.325000X-0.650000X0.325000X0.650000X-0.325000X0.650000X0*%
%ADD31R,1.500000X2.000000*%
%ADD32R,3.800000X2.000000*%
%ADD33R,1.300000X1.900000*%
%ADD34RoundRect,0.250000X-0.475000X0.250000X-0.475000X-0.250000X0.475000X-0.250000X0.475000X0.250000X0*%
%ADD35RoundRect,0.250000X-0.262500X-0.450000X0.262500X-0.450000X0.262500X0.450000X-0.262500X0.450000X0*%
%ADD36RoundRect,0.150000X0.150000X-0.850000X0.150000X0.850000X-0.150000X0.850000X-0.150000X-0.850000X0*%
%ADD37RoundRect,0.250000X0.250000X0.475000X-0.250000X0.475000X-0.250000X-0.475000X0.250000X-0.475000X0*%
%ADD38FreePoly0,0.000000*%
%ADD39R,1.000000X1.500000*%
%ADD40FreePoly1,0.000000*%
%ADD41RoundRect,0.250000X-0.450000X0.262500X-0.450000X-0.262500X0.450000X-0.262500X0.450000X0.262500X0*%
%ADD42RoundRect,0.250000X-0.250000X-0.475000X0.250000X-0.475000X0.250000X0.475000X-0.250000X0.475000X0*%
%ADD43FreePoly0,180.000000*%
%ADD44FreePoly1,180.000000*%
%ADD45R,1.700000X1.700000*%
%ADD46O,1.700000X1.700000*%
%ADD47R,1.900000X2.400000*%
G04 APERTURE END LIST*
D10*
X125761523Y-103782761D02*
X125618666Y-103830380D01*
X125380571Y-103830380D01*
X125285333Y-103782761D01*
X125237714Y-103735142D01*
X125190095Y-103639904D01*
X125190095Y-103544666D01*
X125237714Y-103449428D01*
X125285333Y-103401809D01*
X125380571Y-103354190D01*
X125571047Y-103306571D01*
X125666285Y-103258952D01*
X125713904Y-103211333D01*
X125761523Y-103116095D01*
X125761523Y-103020857D01*
X125713904Y-102925619D01*
X125666285Y-102878000D01*
X125571047Y-102830380D01*
X125332952Y-102830380D01*
X125190095Y-102878000D01*
X124856761Y-102830380D02*
X124618666Y-103830380D01*
X124428190Y-103116095D01*
X124237714Y-103830380D01*
X123999619Y-102830380D01*
X123094857Y-103830380D02*
X123666285Y-103830380D01*
X123380571Y-103830380D02*
X123380571Y-102830380D01*
X123475809Y-102973238D01*
X123571047Y-103068476D01*
X123666285Y-103116095D01*
X122761523Y-102830380D02*
X122142476Y-102830380D01*
X122475809Y-103211333D01*
X122332952Y-103211333D01*
X122237714Y-103258952D01*
X122190095Y-103306571D01*
X122142476Y-103401809D01*
X122142476Y-103639904D01*
X122190095Y-103735142D01*
X122237714Y-103782761D01*
X122332952Y-103830380D01*
X122618666Y-103830380D01*
X122713904Y-103782761D01*
X122761523Y-103735142D01*
X124980533Y-65885961D02*
X124837676Y-65933580D01*
X124599580Y-65933580D01*
X124504342Y-65885961D01*
X124456723Y-65838342D01*
X124409104Y-65743104D01*
X124409104Y-65647866D01*
X124456723Y-65552628D01*
X124504342Y-65505009D01*
X124599580Y-65457390D01*
X124790057Y-65409771D01*
X124885295Y-65362152D01*
X124932914Y-65314533D01*
X124980533Y-65219295D01*
X124980533Y-65124057D01*
X124932914Y-65028819D01*
X124885295Y-64981200D01*
X124790057Y-64933580D01*
X124551961Y-64933580D01*
X124409104Y-64981200D01*
X124075771Y-64933580D02*
X123837676Y-65933580D01*
X123647200Y-65219295D01*
X123456723Y-65933580D01*
X123218628Y-64933580D01*
X122313866Y-65933580D02*
X122885295Y-65933580D01*
X122599580Y-65933580D02*
X122599580Y-64933580D01*
X122694819Y-65076438D01*
X122790057Y-65171676D01*
X122885295Y-65219295D01*
X163232933Y-142085961D02*
X163090076Y-142133580D01*
X162851980Y-142133580D01*
X162756742Y-142085961D01*
X162709123Y-142038342D01*
X162661504Y-141943104D01*
X162661504Y-141847866D01*
X162709123Y-141752628D01*
X162756742Y-141705009D01*
X162851980Y-141657390D01*
X163042457Y-141609771D01*
X163137695Y-141562152D01*
X163185314Y-141514533D01*
X163232933Y-141419295D01*
X163232933Y-141324057D01*
X163185314Y-141228819D01*
X163137695Y-141181200D01*
X163042457Y-141133580D01*
X162804361Y-141133580D01*
X162661504Y-141181200D01*
X162328171Y-141133580D02*
X162090076Y-142133580D01*
X161899600Y-141419295D01*
X161709123Y-142133580D01*
X161471028Y-141133580D01*
X160947219Y-141562152D02*
X161042457Y-141514533D01*
X161090076Y-141466914D01*
X161137695Y-141371676D01*
X161137695Y-141324057D01*
X161090076Y-141228819D01*
X161042457Y-141181200D01*
X160947219Y-141133580D01*
X160756742Y-141133580D01*
X160661504Y-141181200D01*
X160613885Y-141228819D01*
X160566266Y-141324057D01*
X160566266Y-141371676D01*
X160613885Y-141466914D01*
X160661504Y-141514533D01*
X160756742Y-141562152D01*
X160947219Y-141562152D01*
X161042457Y-141609771D01*
X161090076Y-141657390D01*
X161137695Y-141752628D01*
X161137695Y-141943104D01*
X161090076Y-142038342D01*
X161042457Y-142085961D01*
X160947219Y-142133580D01*
X160756742Y-142133580D01*
X160661504Y-142085961D01*
X160613885Y-142038342D01*
X160566266Y-141943104D01*
X160566266Y-141752628D01*
X160613885Y-141657390D01*
X160661504Y-141609771D01*
X160756742Y-141562152D01*
X163283733Y-84631161D02*
X163140876Y-84678780D01*
X162902780Y-84678780D01*
X162807542Y-84631161D01*
X162759923Y-84583542D01*
X162712304Y-84488304D01*
X162712304Y-84393066D01*
X162759923Y-84297828D01*
X162807542Y-84250209D01*
X162902780Y-84202590D01*
X163093257Y-84154971D01*
X163188495Y-84107352D01*
X163236114Y-84059733D01*
X163283733Y-83964495D01*
X163283733Y-83869257D01*
X163236114Y-83774019D01*
X163188495Y-83726400D01*
X163093257Y-83678780D01*
X162855161Y-83678780D01*
X162712304Y-83726400D01*
X162378971Y-83678780D02*
X162140876Y-84678780D01*
X161950400Y-83964495D01*
X161759923Y-84678780D01*
X161521828Y-83678780D01*
X160712304Y-83678780D02*
X160902780Y-83678780D01*
X160998019Y-83726400D01*
X161045638Y-83774019D01*
X161140876Y-83916876D01*
X161188495Y-84107352D01*
X161188495Y-84488304D01*
X161140876Y-84583542D01*
X161093257Y-84631161D01*
X160998019Y-84678780D01*
X160807542Y-84678780D01*
X160712304Y-84631161D01*
X160664685Y-84583542D01*
X160617066Y-84488304D01*
X160617066Y-84250209D01*
X160664685Y-84154971D01*
X160712304Y-84107352D01*
X160807542Y-84059733D01*
X160998019Y-84059733D01*
X161093257Y-84107352D01*
X161140876Y-84154971D01*
X161188495Y-84250209D01*
X125710723Y-84732761D02*
X125567866Y-84780380D01*
X125329771Y-84780380D01*
X125234533Y-84732761D01*
X125186914Y-84685142D01*
X125139295Y-84589904D01*
X125139295Y-84494666D01*
X125186914Y-84399428D01*
X125234533Y-84351809D01*
X125329771Y-84304190D01*
X125520247Y-84256571D01*
X125615485Y-84208952D01*
X125663104Y-84161333D01*
X125710723Y-84066095D01*
X125710723Y-83970857D01*
X125663104Y-83875619D01*
X125615485Y-83828000D01*
X125520247Y-83780380D01*
X125282152Y-83780380D01*
X125139295Y-83828000D01*
X124805961Y-83780380D02*
X124567866Y-84780380D01*
X124377390Y-84066095D01*
X124186914Y-84780380D01*
X123948819Y-83780380D01*
X123044057Y-84780380D02*
X123615485Y-84780380D01*
X123329771Y-84780380D02*
X123329771Y-83780380D01*
X123425009Y-83923238D01*
X123520247Y-84018476D01*
X123615485Y-84066095D01*
X122139295Y-83780380D02*
X122615485Y-83780380D01*
X122663104Y-84256571D01*
X122615485Y-84208952D01*
X122520247Y-84161333D01*
X122282152Y-84161333D01*
X122186914Y-84208952D01*
X122139295Y-84256571D01*
X122091676Y-84351809D01*
X122091676Y-84589904D01*
X122139295Y-84685142D01*
X122186914Y-84732761D01*
X122282152Y-84780380D01*
X122520247Y-84780380D01*
X122615485Y-84732761D01*
X122663104Y-84685142D01*
X134683333Y-142085961D02*
X134540476Y-142133580D01*
X134302380Y-142133580D01*
X134207142Y-142085961D01*
X134159523Y-142038342D01*
X134111904Y-141943104D01*
X134111904Y-141847866D01*
X134159523Y-141752628D01*
X134207142Y-141705009D01*
X134302380Y-141657390D01*
X134492857Y-141609771D01*
X134588095Y-141562152D01*
X134635714Y-141514533D01*
X134683333Y-141419295D01*
X134683333Y-141324057D01*
X134635714Y-141228819D01*
X134588095Y-141181200D01*
X134492857Y-141133580D01*
X134254761Y-141133580D01*
X134111904Y-141181200D01*
X133778571Y-141133580D02*
X133540476Y-142133580D01*
X133350000Y-141419295D01*
X133159523Y-142133580D01*
X132921428Y-141133580D01*
X132111904Y-141466914D02*
X132111904Y-142133580D01*
X132350000Y-141085961D02*
X132588095Y-141800247D01*
X131969047Y-141800247D01*
X162572533Y-103833561D02*
X162429676Y-103881180D01*
X162191580Y-103881180D01*
X162096342Y-103833561D01*
X162048723Y-103785942D01*
X162001104Y-103690704D01*
X162001104Y-103595466D01*
X162048723Y-103500228D01*
X162096342Y-103452609D01*
X162191580Y-103404990D01*
X162382057Y-103357371D01*
X162477295Y-103309752D01*
X162524914Y-103262133D01*
X162572533Y-103166895D01*
X162572533Y-103071657D01*
X162524914Y-102976419D01*
X162477295Y-102928800D01*
X162382057Y-102881180D01*
X162143961Y-102881180D01*
X162001104Y-102928800D01*
X161667771Y-102881180D02*
X161429676Y-103881180D01*
X161239200Y-103166895D01*
X161048723Y-103881180D01*
X160810628Y-102881180D01*
X160524914Y-102881180D02*
X159905866Y-102881180D01*
X160239200Y-103262133D01*
X160096342Y-103262133D01*
X160001104Y-103309752D01*
X159953485Y-103357371D01*
X159905866Y-103452609D01*
X159905866Y-103690704D01*
X159953485Y-103785942D01*
X160001104Y-103833561D01*
X160096342Y-103881180D01*
X160382057Y-103881180D01*
X160477295Y-103833561D01*
X160524914Y-103785942D01*
X163861523Y-122985161D02*
X163718666Y-123032780D01*
X163480571Y-123032780D01*
X163385333Y-122985161D01*
X163337714Y-122937542D01*
X163290095Y-122842304D01*
X163290095Y-122747066D01*
X163337714Y-122651828D01*
X163385333Y-122604209D01*
X163480571Y-122556590D01*
X163671047Y-122508971D01*
X163766285Y-122461352D01*
X163813904Y-122413733D01*
X163861523Y-122318495D01*
X163861523Y-122223257D01*
X163813904Y-122128019D01*
X163766285Y-122080400D01*
X163671047Y-122032780D01*
X163432952Y-122032780D01*
X163290095Y-122080400D01*
X162956761Y-122032780D02*
X162718666Y-123032780D01*
X162528190Y-122318495D01*
X162337714Y-123032780D01*
X162099619Y-122032780D01*
X161194857Y-123032780D02*
X161766285Y-123032780D01*
X161480571Y-123032780D02*
X161480571Y-122032780D01*
X161575809Y-122175638D01*
X161671047Y-122270876D01*
X161766285Y-122318495D01*
X160337714Y-122366114D02*
X160337714Y-123032780D01*
X160575809Y-121985161D02*
X160813904Y-122699447D01*
X160194857Y-122699447D01*
X144335333Y-84631161D02*
X144192476Y-84678780D01*
X143954380Y-84678780D01*
X143859142Y-84631161D01*
X143811523Y-84583542D01*
X143763904Y-84488304D01*
X143763904Y-84393066D01*
X143811523Y-84297828D01*
X143859142Y-84250209D01*
X143954380Y-84202590D01*
X144144857Y-84154971D01*
X144240095Y-84107352D01*
X144287714Y-84059733D01*
X144335333Y-83964495D01*
X144335333Y-83869257D01*
X144287714Y-83774019D01*
X144240095Y-83726400D01*
X144144857Y-83678780D01*
X143906761Y-83678780D01*
X143763904Y-83726400D01*
X143430571Y-83678780D02*
X143192476Y-84678780D01*
X143002000Y-83964495D01*
X142811523Y-84678780D01*
X142573428Y-83678780D01*
X142240095Y-83774019D02*
X142192476Y-83726400D01*
X142097238Y-83678780D01*
X141859142Y-83678780D01*
X141763904Y-83726400D01*
X141716285Y-83774019D01*
X141668666Y-83869257D01*
X141668666Y-83964495D01*
X141716285Y-84107352D01*
X142287714Y-84678780D01*
X141668666Y-84678780D01*
X182809923Y-66038361D02*
X182667066Y-66085980D01*
X182428971Y-66085980D01*
X182333733Y-66038361D01*
X182286114Y-65990742D01*
X182238495Y-65895504D01*
X182238495Y-65800266D01*
X182286114Y-65705028D01*
X182333733Y-65657409D01*
X182428971Y-65609790D01*
X182619447Y-65562171D01*
X182714685Y-65514552D01*
X182762304Y-65466933D01*
X182809923Y-65371695D01*
X182809923Y-65276457D01*
X182762304Y-65181219D01*
X182714685Y-65133600D01*
X182619447Y-65085980D01*
X182381352Y-65085980D01*
X182238495Y-65133600D01*
X181905161Y-65085980D02*
X181667066Y-66085980D01*
X181476590Y-65371695D01*
X181286114Y-66085980D01*
X181048019Y-65085980D01*
X180143257Y-66085980D02*
X180714685Y-66085980D01*
X180428971Y-66085980D02*
X180428971Y-65085980D01*
X180524209Y-65228838D01*
X180619447Y-65324076D01*
X180714685Y-65371695D01*
X179762304Y-65181219D02*
X179714685Y-65133600D01*
X179619447Y-65085980D01*
X179381352Y-65085980D01*
X179286114Y-65133600D01*
X179238495Y-65181219D01*
X179190876Y-65276457D01*
X179190876Y-65371695D01*
X179238495Y-65514552D01*
X179809923Y-66085980D01*
X179190876Y-66085980D01*
X182860723Y-132484761D02*
X182717866Y-132532380D01*
X182479771Y-132532380D01*
X182384533Y-132484761D01*
X182336914Y-132437142D01*
X182289295Y-132341904D01*
X182289295Y-132246666D01*
X182336914Y-132151428D01*
X182384533Y-132103809D01*
X182479771Y-132056190D01*
X182670247Y-132008571D01*
X182765485Y-131960952D01*
X182813104Y-131913333D01*
X182860723Y-131818095D01*
X182860723Y-131722857D01*
X182813104Y-131627619D01*
X182765485Y-131580000D01*
X182670247Y-131532380D01*
X182432152Y-131532380D01*
X182289295Y-131580000D01*
X181955961Y-131532380D02*
X181717866Y-132532380D01*
X181527390Y-131818095D01*
X181336914Y-132532380D01*
X181098819Y-131532380D01*
X180194057Y-132532380D02*
X180765485Y-132532380D01*
X180479771Y-132532380D02*
X180479771Y-131532380D01*
X180575009Y-131675238D01*
X180670247Y-131770476D01*
X180765485Y-131818095D01*
X179860723Y-131532380D02*
X179194057Y-131532380D01*
X179622628Y-132532380D01*
X144760723Y-103782761D02*
X144617866Y-103830380D01*
X144379771Y-103830380D01*
X144284533Y-103782761D01*
X144236914Y-103735142D01*
X144189295Y-103639904D01*
X144189295Y-103544666D01*
X144236914Y-103449428D01*
X144284533Y-103401809D01*
X144379771Y-103354190D01*
X144570247Y-103306571D01*
X144665485Y-103258952D01*
X144713104Y-103211333D01*
X144760723Y-103116095D01*
X144760723Y-103020857D01*
X144713104Y-102925619D01*
X144665485Y-102878000D01*
X144570247Y-102830380D01*
X144332152Y-102830380D01*
X144189295Y-102878000D01*
X143855961Y-102830380D02*
X143617866Y-103830380D01*
X143427390Y-103116095D01*
X143236914Y-103830380D01*
X142998819Y-102830380D01*
X142094057Y-103830380D02*
X142665485Y-103830380D01*
X142379771Y-103830380D02*
X142379771Y-102830380D01*
X142475009Y-102973238D01*
X142570247Y-103068476D01*
X142665485Y-103116095D01*
X141236914Y-102830380D02*
X141427390Y-102830380D01*
X141522628Y-102878000D01*
X141570247Y-102925619D01*
X141665485Y-103068476D01*
X141713104Y-103258952D01*
X141713104Y-103639904D01*
X141665485Y-103735142D01*
X141617866Y-103782761D01*
X141522628Y-103830380D01*
X141332152Y-103830380D01*
X141236914Y-103782761D01*
X141189295Y-103735142D01*
X141141676Y-103639904D01*
X141141676Y-103401809D01*
X141189295Y-103306571D01*
X141236914Y-103258952D01*
X141332152Y-103211333D01*
X141522628Y-103211333D01*
X141617866Y-103258952D01*
X141665485Y-103306571D01*
X141713104Y-103401809D01*
X163232933Y-66038361D02*
X163090076Y-66085980D01*
X162851980Y-66085980D01*
X162756742Y-66038361D01*
X162709123Y-65990742D01*
X162661504Y-65895504D01*
X162661504Y-65800266D01*
X162709123Y-65705028D01*
X162756742Y-65657409D01*
X162851980Y-65609790D01*
X163042457Y-65562171D01*
X163137695Y-65514552D01*
X163185314Y-65466933D01*
X163232933Y-65371695D01*
X163232933Y-65276457D01*
X163185314Y-65181219D01*
X163137695Y-65133600D01*
X163042457Y-65085980D01*
X162804361Y-65085980D01*
X162661504Y-65133600D01*
X162328171Y-65085980D02*
X162090076Y-66085980D01*
X161899600Y-65371695D01*
X161709123Y-66085980D01*
X161471028Y-65085980D01*
X161042457Y-66085980D02*
X160851980Y-66085980D01*
X160756742Y-66038361D01*
X160709123Y-65990742D01*
X160613885Y-65847885D01*
X160566266Y-65657409D01*
X160566266Y-65276457D01*
X160613885Y-65181219D01*
X160661504Y-65133600D01*
X160756742Y-65085980D01*
X160947219Y-65085980D01*
X161042457Y-65133600D01*
X161090076Y-65181219D01*
X161137695Y-65276457D01*
X161137695Y-65514552D01*
X161090076Y-65609790D01*
X161042457Y-65657409D01*
X160947219Y-65705028D01*
X160756742Y-65705028D01*
X160661504Y-65657409D01*
X160613885Y-65609790D01*
X160566266Y-65514552D01*
X125183733Y-123035961D02*
X125040876Y-123083580D01*
X124802780Y-123083580D01*
X124707542Y-123035961D01*
X124659923Y-122988342D01*
X124612304Y-122893104D01*
X124612304Y-122797866D01*
X124659923Y-122702628D01*
X124707542Y-122655009D01*
X124802780Y-122607390D01*
X124993257Y-122559771D01*
X125088495Y-122512152D01*
X125136114Y-122464533D01*
X125183733Y-122369295D01*
X125183733Y-122274057D01*
X125136114Y-122178819D01*
X125088495Y-122131200D01*
X124993257Y-122083580D01*
X124755161Y-122083580D01*
X124612304Y-122131200D01*
X124278971Y-122083580D02*
X124040876Y-123083580D01*
X123850400Y-122369295D01*
X123659923Y-123083580D01*
X123421828Y-122083580D01*
X123136114Y-122083580D02*
X122469447Y-122083580D01*
X122898019Y-123083580D01*
X144760723Y-123035961D02*
X144617866Y-123083580D01*
X144379771Y-123083580D01*
X144284533Y-123035961D01*
X144236914Y-122988342D01*
X144189295Y-122893104D01*
X144189295Y-122797866D01*
X144236914Y-122702628D01*
X144284533Y-122655009D01*
X144379771Y-122607390D01*
X144570247Y-122559771D01*
X144665485Y-122512152D01*
X144713104Y-122464533D01*
X144760723Y-122369295D01*
X144760723Y-122274057D01*
X144713104Y-122178819D01*
X144665485Y-122131200D01*
X144570247Y-122083580D01*
X144332152Y-122083580D01*
X144189295Y-122131200D01*
X143855961Y-122083580D02*
X143617866Y-123083580D01*
X143427390Y-122369295D01*
X143236914Y-123083580D01*
X142998819Y-122083580D01*
X142094057Y-123083580D02*
X142665485Y-123083580D01*
X142379771Y-123083580D02*
X142379771Y-122083580D01*
X142475009Y-122226438D01*
X142570247Y-122321676D01*
X142665485Y-122369295D01*
X141141676Y-123083580D02*
X141713104Y-123083580D01*
X141427390Y-123083580D02*
X141427390Y-122083580D01*
X141522628Y-122226438D01*
X141617866Y-122321676D01*
X141713104Y-122369295D01*
X182759123Y-94435561D02*
X182616266Y-94483180D01*
X182378171Y-94483180D01*
X182282933Y-94435561D01*
X182235314Y-94387942D01*
X182187695Y-94292704D01*
X182187695Y-94197466D01*
X182235314Y-94102228D01*
X182282933Y-94054609D01*
X182378171Y-94006990D01*
X182568647Y-93959371D01*
X182663885Y-93911752D01*
X182711504Y-93864133D01*
X182759123Y-93768895D01*
X182759123Y-93673657D01*
X182711504Y-93578419D01*
X182663885Y-93530800D01*
X182568647Y-93483180D01*
X182330552Y-93483180D01*
X182187695Y-93530800D01*
X181854361Y-93483180D02*
X181616266Y-94483180D01*
X181425790Y-93768895D01*
X181235314Y-94483180D01*
X180997219Y-93483180D01*
X180092457Y-94483180D02*
X180663885Y-94483180D01*
X180378171Y-94483180D02*
X180378171Y-93483180D01*
X180473409Y-93626038D01*
X180568647Y-93721276D01*
X180663885Y-93768895D01*
X179473409Y-93483180D02*
X179378171Y-93483180D01*
X179282933Y-93530800D01*
X179235314Y-93578419D01*
X179187695Y-93673657D01*
X179140076Y-93864133D01*
X179140076Y-94102228D01*
X179187695Y-94292704D01*
X179235314Y-94387942D01*
X179282933Y-94435561D01*
X179378171Y-94483180D01*
X179473409Y-94483180D01*
X179568647Y-94435561D01*
X179616266Y-94387942D01*
X179663885Y-94292704D01*
X179711504Y-94102228D01*
X179711504Y-93864133D01*
X179663885Y-93673657D01*
X179616266Y-93578419D01*
X179568647Y-93530800D01*
X179473409Y-93483180D01*
X144233733Y-65733561D02*
X144090876Y-65781180D01*
X143852780Y-65781180D01*
X143757542Y-65733561D01*
X143709923Y-65685942D01*
X143662304Y-65590704D01*
X143662304Y-65495466D01*
X143709923Y-65400228D01*
X143757542Y-65352609D01*
X143852780Y-65304990D01*
X144043257Y-65257371D01*
X144138495Y-65209752D01*
X144186114Y-65162133D01*
X144233733Y-65066895D01*
X144233733Y-64971657D01*
X144186114Y-64876419D01*
X144138495Y-64828800D01*
X144043257Y-64781180D01*
X143805161Y-64781180D01*
X143662304Y-64828800D01*
X143328971Y-64781180D02*
X143090876Y-65781180D01*
X142900400Y-65066895D01*
X142709923Y-65781180D01*
X142471828Y-64781180D01*
X141614685Y-64781180D02*
X142090876Y-64781180D01*
X142138495Y-65257371D01*
X142090876Y-65209752D01*
X141995638Y-65162133D01*
X141757542Y-65162133D01*
X141662304Y-65209752D01*
X141614685Y-65257371D01*
X141567066Y-65352609D01*
X141567066Y-65590704D01*
X141614685Y-65685942D01*
X141662304Y-65733561D01*
X141757542Y-65781180D01*
X141995638Y-65781180D01*
X142090876Y-65733561D01*
X142138495Y-65685942D01*
X142724095Y-59503180D02*
X142724095Y-58503180D01*
X142486000Y-58503180D01*
X142343142Y-58550800D01*
X142247904Y-58646038D01*
X142200285Y-58741276D01*
X142152666Y-58931752D01*
X142152666Y-59074609D01*
X142200285Y-59265085D01*
X142247904Y-59360323D01*
X142343142Y-59455561D01*
X142486000Y-59503180D01*
X142724095Y-59503180D01*
X141247904Y-58503180D02*
X141724095Y-58503180D01*
X141771714Y-58979371D01*
X141724095Y-58931752D01*
X141628857Y-58884133D01*
X141390761Y-58884133D01*
X141295523Y-58931752D01*
X141247904Y-58979371D01*
X141200285Y-59074609D01*
X141200285Y-59312704D01*
X141247904Y-59407942D01*
X141295523Y-59455561D01*
X141390761Y-59503180D01*
X141628857Y-59503180D01*
X141724095Y-59455561D01*
X141771714Y-59407942D01*
X184721166Y-109546380D02*
X185054500Y-109070190D01*
X185292595Y-109546380D02*
X185292595Y-108546380D01*
X184911642Y-108546380D01*
X184816404Y-108594000D01*
X184768785Y-108641619D01*
X184721166Y-108736857D01*
X184721166Y-108879714D01*
X184768785Y-108974952D01*
X184816404Y-109022571D01*
X184911642Y-109070190D01*
X185292595Y-109070190D01*
X184387833Y-108546380D02*
X183768785Y-108546380D01*
X184102119Y-108927333D01*
X183959261Y-108927333D01*
X183864023Y-108974952D01*
X183816404Y-109022571D01*
X183768785Y-109117809D01*
X183768785Y-109355904D01*
X183816404Y-109451142D01*
X183864023Y-109498761D01*
X183959261Y-109546380D01*
X184244976Y-109546380D01*
X184340214Y-109498761D01*
X184387833Y-109451142D01*
X144124742Y-52357142D02*
X144172361Y-52309523D01*
X144219980Y-52166666D01*
X144219980Y-52071428D01*
X144172361Y-51928571D01*
X144077123Y-51833333D01*
X143981885Y-51785714D01*
X143791409Y-51738095D01*
X143648552Y-51738095D01*
X143458076Y-51785714D01*
X143362838Y-51833333D01*
X143267600Y-51928571D01*
X143219980Y-52071428D01*
X143219980Y-52166666D01*
X143267600Y-52309523D01*
X143315219Y-52357142D01*
X144219980Y-53309523D02*
X144219980Y-52738095D01*
X144219980Y-53023809D02*
X143219980Y-53023809D01*
X143362838Y-52928571D01*
X143458076Y-52833333D01*
X143505695Y-52738095D01*
X143553314Y-54166666D02*
X144219980Y-54166666D01*
X143172361Y-53928571D02*
X143886647Y-53690476D01*
X143886647Y-54309523D01*
X142724095Y-78553180D02*
X142724095Y-77553180D01*
X142486000Y-77553180D01*
X142343142Y-77600800D01*
X142247904Y-77696038D01*
X142200285Y-77791276D01*
X142152666Y-77981752D01*
X142152666Y-78124609D01*
X142200285Y-78315085D01*
X142247904Y-78410323D01*
X142343142Y-78505561D01*
X142486000Y-78553180D01*
X142724095Y-78553180D01*
X141771714Y-77648419D02*
X141724095Y-77600800D01*
X141628857Y-77553180D01*
X141390761Y-77553180D01*
X141295523Y-77600800D01*
X141247904Y-77648419D01*
X141200285Y-77743657D01*
X141200285Y-77838895D01*
X141247904Y-77981752D01*
X141819333Y-78553180D01*
X141200285Y-78553180D01*
X164205180Y-48277542D02*
X163728990Y-47944209D01*
X164205180Y-47706114D02*
X163205180Y-47706114D01*
X163205180Y-48087066D01*
X163252800Y-48182304D01*
X163300419Y-48229923D01*
X163395657Y-48277542D01*
X163538514Y-48277542D01*
X163633752Y-48229923D01*
X163681371Y-48182304D01*
X163728990Y-48087066D01*
X163728990Y-47706114D01*
X164205180Y-49229923D02*
X164205180Y-48658495D01*
X164205180Y-48944209D02*
X163205180Y-48944209D01*
X163348038Y-48848971D01*
X163443276Y-48753733D01*
X163490895Y-48658495D01*
X163538514Y-50087066D02*
X164205180Y-50087066D01*
X163157561Y-49848971D02*
X163871847Y-49610876D01*
X163871847Y-50229923D01*
X123420095Y-59503180D02*
X123420095Y-58503180D01*
X123182000Y-58503180D01*
X123039142Y-58550800D01*
X122943904Y-58646038D01*
X122896285Y-58741276D01*
X122848666Y-58931752D01*
X122848666Y-59074609D01*
X122896285Y-59265085D01*
X122943904Y-59360323D01*
X123039142Y-59455561D01*
X123182000Y-59503180D01*
X123420095Y-59503180D01*
X121896285Y-59503180D02*
X122467714Y-59503180D01*
X122182000Y-59503180D02*
X122182000Y-58503180D01*
X122277238Y-58646038D01*
X122372476Y-58741276D01*
X122467714Y-58788895D01*
X123674095Y-116729380D02*
X123674095Y-115729380D01*
X123436000Y-115729380D01*
X123293142Y-115777000D01*
X123197904Y-115872238D01*
X123150285Y-115967476D01*
X123102666Y-116157952D01*
X123102666Y-116300809D01*
X123150285Y-116491285D01*
X123197904Y-116586523D01*
X123293142Y-116681761D01*
X123436000Y-116729380D01*
X123674095Y-116729380D01*
X122769333Y-115729380D02*
X122102666Y-115729380D01*
X122531238Y-116729380D01*
X181477180Y-139636833D02*
X181000990Y-139303500D01*
X181477180Y-139065404D02*
X180477180Y-139065404D01*
X180477180Y-139446357D01*
X180524800Y-139541595D01*
X180572419Y-139589214D01*
X180667657Y-139636833D01*
X180810514Y-139636833D01*
X180905752Y-139589214D01*
X180953371Y-139541595D01*
X181000990Y-139446357D01*
X181000990Y-139065404D01*
X181477180Y-140589214D02*
X181477180Y-140017785D01*
X181477180Y-140303500D02*
X180477180Y-140303500D01*
X180620038Y-140208261D01*
X180715276Y-140113023D01*
X180762895Y-140017785D01*
X184917142Y-118324333D02*
X184964761Y-118276714D01*
X185012380Y-118133857D01*
X185012380Y-118038619D01*
X184964761Y-117895761D01*
X184869523Y-117800523D01*
X184774285Y-117752904D01*
X184583809Y-117705285D01*
X184440952Y-117705285D01*
X184250476Y-117752904D01*
X184155238Y-117800523D01*
X184060000Y-117895761D01*
X184012380Y-118038619D01*
X184012380Y-118133857D01*
X184060000Y-118276714D01*
X184107619Y-118324333D01*
X185012380Y-119276714D02*
X185012380Y-118705285D01*
X185012380Y-118991000D02*
X184012380Y-118991000D01*
X184155238Y-118895761D01*
X184250476Y-118800523D01*
X184298095Y-118705285D01*
X124150285Y-97679380D02*
X124150285Y-96679380D01*
X123912190Y-96679380D01*
X123769333Y-96727000D01*
X123674095Y-96822238D01*
X123626476Y-96917476D01*
X123578857Y-97107952D01*
X123578857Y-97250809D01*
X123626476Y-97441285D01*
X123674095Y-97536523D01*
X123769333Y-97631761D01*
X123912190Y-97679380D01*
X124150285Y-97679380D01*
X122626476Y-97679380D02*
X123197904Y-97679380D01*
X122912190Y-97679380D02*
X122912190Y-96679380D01*
X123007428Y-96822238D01*
X123102666Y-96917476D01*
X123197904Y-96965095D01*
X122293142Y-96679380D02*
X121674095Y-96679380D01*
X122007428Y-97060333D01*
X121864571Y-97060333D01*
X121769333Y-97107952D01*
X121721714Y-97155571D01*
X121674095Y-97250809D01*
X121674095Y-97488904D01*
X121721714Y-97584142D01*
X121769333Y-97631761D01*
X121864571Y-97679380D01*
X122150285Y-97679380D01*
X122245523Y-97631761D01*
X122293142Y-97584142D01*
X175894904Y-100282380D02*
X175894904Y-101091904D01*
X175847285Y-101187142D01*
X175799666Y-101234761D01*
X175704428Y-101282380D01*
X175513952Y-101282380D01*
X175418714Y-101234761D01*
X175371095Y-101187142D01*
X175323476Y-101091904D01*
X175323476Y-100282380D01*
X174323476Y-101282380D02*
X174894904Y-101282380D01*
X174609190Y-101282380D02*
X174609190Y-100282380D01*
X174704428Y-100425238D01*
X174799666Y-100520476D01*
X174894904Y-100568095D01*
X181541657Y-46280342D02*
X181589276Y-46327961D01*
X181732133Y-46375580D01*
X181827371Y-46375580D01*
X181970228Y-46327961D01*
X182065466Y-46232723D01*
X182113085Y-46137485D01*
X182160704Y-45947009D01*
X182160704Y-45804152D01*
X182113085Y-45613676D01*
X182065466Y-45518438D01*
X181970228Y-45423200D01*
X181827371Y-45375580D01*
X181732133Y-45375580D01*
X181589276Y-45423200D01*
X181541657Y-45470819D01*
X180589276Y-46375580D02*
X181160704Y-46375580D01*
X180874990Y-46375580D02*
X180874990Y-45375580D01*
X180970228Y-45518438D01*
X181065466Y-45613676D01*
X181160704Y-45661295D01*
X180208323Y-45470819D02*
X180160704Y-45423200D01*
X180065466Y-45375580D01*
X179827371Y-45375580D01*
X179732133Y-45423200D01*
X179684514Y-45470819D01*
X179636895Y-45566057D01*
X179636895Y-45661295D01*
X179684514Y-45804152D01*
X180255942Y-46375580D01*
X179636895Y-46375580D01*
X166911257Y-48159942D02*
X166958876Y-48207561D01*
X167101733Y-48255180D01*
X167196971Y-48255180D01*
X167339828Y-48207561D01*
X167435066Y-48112323D01*
X167482685Y-48017085D01*
X167530304Y-47826609D01*
X167530304Y-47683752D01*
X167482685Y-47493276D01*
X167435066Y-47398038D01*
X167339828Y-47302800D01*
X167196971Y-47255180D01*
X167101733Y-47255180D01*
X166958876Y-47302800D01*
X166911257Y-47350419D01*
X165958876Y-48255180D02*
X166530304Y-48255180D01*
X166244590Y-48255180D02*
X166244590Y-47255180D01*
X166339828Y-47398038D01*
X166435066Y-47493276D01*
X166530304Y-47540895D01*
X165625542Y-47255180D02*
X165006495Y-47255180D01*
X165339828Y-47636133D01*
X165196971Y-47636133D01*
X165101733Y-47683752D01*
X165054114Y-47731371D01*
X165006495Y-47826609D01*
X165006495Y-48064704D01*
X165054114Y-48159942D01*
X165101733Y-48207561D01*
X165196971Y-48255180D01*
X165482685Y-48255180D01*
X165577923Y-48207561D01*
X165625542Y-48159942D01*
X180097180Y-52476095D02*
X180906704Y-52476095D01*
X181001942Y-52523714D01*
X181049561Y-52571333D01*
X181097180Y-52666571D01*
X181097180Y-52857047D01*
X181049561Y-52952285D01*
X181001942Y-52999904D01*
X180906704Y-53047523D01*
X180097180Y-53047523D01*
X180192419Y-53476095D02*
X180144800Y-53523714D01*
X180097180Y-53618952D01*
X180097180Y-53857047D01*
X180144800Y-53952285D01*
X180192419Y-53999904D01*
X180287657Y-54047523D01*
X180382895Y-54047523D01*
X180525752Y-53999904D01*
X181097180Y-53428476D01*
X181097180Y-54047523D01*
X172912066Y-98892680D02*
X173245400Y-98416490D01*
X173483495Y-98892680D02*
X173483495Y-97892680D01*
X173102542Y-97892680D01*
X173007304Y-97940300D01*
X172959685Y-97987919D01*
X172912066Y-98083157D01*
X172912066Y-98226014D01*
X172959685Y-98321252D01*
X173007304Y-98368871D01*
X173102542Y-98416490D01*
X173483495Y-98416490D01*
X172578733Y-97892680D02*
X171912066Y-97892680D01*
X172340638Y-98892680D01*
X189198190Y-108815190D02*
X189198190Y-109291380D01*
X189531523Y-108291380D02*
X189198190Y-108815190D01*
X188864857Y-108291380D01*
X188579142Y-108386619D02*
X188531523Y-108339000D01*
X188436285Y-108291380D01*
X188198190Y-108291380D01*
X188102952Y-108339000D01*
X188055333Y-108386619D01*
X188007714Y-108481857D01*
X188007714Y-108577095D01*
X188055333Y-108719952D01*
X188626761Y-109291380D01*
X188007714Y-109291380D01*
X166952142Y-90833333D02*
X166999761Y-90785714D01*
X167047380Y-90642857D01*
X167047380Y-90547619D01*
X166999761Y-90404761D01*
X166904523Y-90309523D01*
X166809285Y-90261904D01*
X166618809Y-90214285D01*
X166475952Y-90214285D01*
X166285476Y-90261904D01*
X166190238Y-90309523D01*
X166095000Y-90404761D01*
X166047380Y-90547619D01*
X166047380Y-90642857D01*
X166095000Y-90785714D01*
X166142619Y-90833333D01*
X166047380Y-91690476D02*
X166047380Y-91500000D01*
X166095000Y-91404761D01*
X166142619Y-91357142D01*
X166285476Y-91261904D01*
X166475952Y-91214285D01*
X166856904Y-91214285D01*
X166952142Y-91261904D01*
X166999761Y-91309523D01*
X167047380Y-91404761D01*
X167047380Y-91595238D01*
X166999761Y-91690476D01*
X166952142Y-91738095D01*
X166856904Y-91785714D01*
X166618809Y-91785714D01*
X166523571Y-91738095D01*
X166475952Y-91690476D01*
X166428333Y-91595238D01*
X166428333Y-91404761D01*
X166475952Y-91309523D01*
X166523571Y-91261904D01*
X166618809Y-91214285D01*
X163988580Y-108782533D02*
X163512390Y-108449200D01*
X163988580Y-108211104D02*
X162988580Y-108211104D01*
X162988580Y-108592057D01*
X163036200Y-108687295D01*
X163083819Y-108734914D01*
X163179057Y-108782533D01*
X163321914Y-108782533D01*
X163417152Y-108734914D01*
X163464771Y-108687295D01*
X163512390Y-108592057D01*
X163512390Y-108211104D01*
X162988580Y-109639676D02*
X162988580Y-109449200D01*
X163036200Y-109353961D01*
X163083819Y-109306342D01*
X163226676Y-109211104D01*
X163417152Y-109163485D01*
X163798104Y-109163485D01*
X163893342Y-109211104D01*
X163940961Y-109258723D01*
X163988580Y-109353961D01*
X163988580Y-109544438D01*
X163940961Y-109639676D01*
X163893342Y-109687295D01*
X163798104Y-109734914D01*
X163560009Y-109734914D01*
X163464771Y-109687295D01*
X163417152Y-109639676D01*
X163369533Y-109544438D01*
X163369533Y-109353961D01*
X163417152Y-109258723D01*
X163464771Y-109211104D01*
X163560009Y-109163485D01*
X147026380Y-55930895D02*
X147835904Y-55930895D01*
X147931142Y-55978514D01*
X147978761Y-56026133D01*
X148026380Y-56121371D01*
X148026380Y-56311847D01*
X147978761Y-56407085D01*
X147931142Y-56454704D01*
X147835904Y-56502323D01*
X147026380Y-56502323D01*
X147026380Y-56883276D02*
X147026380Y-57502323D01*
X147407333Y-57168990D01*
X147407333Y-57311847D01*
X147454952Y-57407085D01*
X147502571Y-57454704D01*
X147597809Y-57502323D01*
X147835904Y-57502323D01*
X147931142Y-57454704D01*
X147978761Y-57407085D01*
X148026380Y-57311847D01*
X148026380Y-57026133D01*
X147978761Y-56930895D01*
X147931142Y-56883276D01*
X183681666Y-99007142D02*
X183729285Y-99054761D01*
X183872142Y-99102380D01*
X183967380Y-99102380D01*
X184110238Y-99054761D01*
X184205476Y-98959523D01*
X184253095Y-98864285D01*
X184300714Y-98673809D01*
X184300714Y-98530952D01*
X184253095Y-98340476D01*
X184205476Y-98245238D01*
X184110238Y-98150000D01*
X183967380Y-98102380D01*
X183872142Y-98102380D01*
X183729285Y-98150000D01*
X183681666Y-98197619D01*
X182824523Y-98435714D02*
X182824523Y-99102380D01*
X183062619Y-98054761D02*
X183300714Y-98769047D01*
X182681666Y-98769047D01*
X124150285Y-78553180D02*
X124150285Y-77553180D01*
X123912190Y-77553180D01*
X123769333Y-77600800D01*
X123674095Y-77696038D01*
X123626476Y-77791276D01*
X123578857Y-77981752D01*
X123578857Y-78124609D01*
X123626476Y-78315085D01*
X123674095Y-78410323D01*
X123769333Y-78505561D01*
X123912190Y-78553180D01*
X124150285Y-78553180D01*
X122626476Y-78553180D02*
X123197904Y-78553180D01*
X122912190Y-78553180D02*
X122912190Y-77553180D01*
X123007428Y-77696038D01*
X123102666Y-77791276D01*
X123197904Y-77838895D01*
X121769333Y-77553180D02*
X121959809Y-77553180D01*
X122055047Y-77600800D01*
X122102666Y-77648419D01*
X122197904Y-77791276D01*
X122245523Y-77981752D01*
X122245523Y-78362704D01*
X122197904Y-78457942D01*
X122150285Y-78505561D01*
X122055047Y-78553180D01*
X121864571Y-78553180D01*
X121769333Y-78505561D01*
X121721714Y-78457942D01*
X121674095Y-78362704D01*
X121674095Y-78124609D01*
X121721714Y-78029371D01*
X121769333Y-77981752D01*
X121864571Y-77934133D01*
X122055047Y-77934133D01*
X122150285Y-77981752D01*
X122197904Y-78029371D01*
X122245523Y-78124609D01*
X147441180Y-52357142D02*
X146964990Y-52023809D01*
X147441180Y-51785714D02*
X146441180Y-51785714D01*
X146441180Y-52166666D01*
X146488800Y-52261904D01*
X146536419Y-52309523D01*
X146631657Y-52357142D01*
X146774514Y-52357142D01*
X146869752Y-52309523D01*
X146917371Y-52261904D01*
X146964990Y-52166666D01*
X146964990Y-51785714D01*
X147441180Y-53309523D02*
X147441180Y-52738095D01*
X147441180Y-53023809D02*
X146441180Y-53023809D01*
X146584038Y-52928571D01*
X146679276Y-52833333D01*
X146726895Y-52738095D01*
X147441180Y-54261904D02*
X147441180Y-53690476D01*
X147441180Y-53976190D02*
X146441180Y-53976190D01*
X146584038Y-53880952D01*
X146679276Y-53785714D01*
X146726895Y-53690476D01*
X181351085Y-88082380D02*
X181351085Y-87082380D01*
X181112990Y-87082380D01*
X180970133Y-87130000D01*
X180874895Y-87225238D01*
X180827276Y-87320476D01*
X180779657Y-87510952D01*
X180779657Y-87653809D01*
X180827276Y-87844285D01*
X180874895Y-87939523D01*
X180970133Y-88034761D01*
X181112990Y-88082380D01*
X181351085Y-88082380D01*
X179827276Y-88082380D02*
X180398704Y-88082380D01*
X180112990Y-88082380D02*
X180112990Y-87082380D01*
X180208228Y-87225238D01*
X180303466Y-87320476D01*
X180398704Y-87368095D01*
X179208228Y-87082380D02*
X179112990Y-87082380D01*
X179017752Y-87130000D01*
X178970133Y-87177619D01*
X178922514Y-87272857D01*
X178874895Y-87463333D01*
X178874895Y-87701428D01*
X178922514Y-87891904D01*
X178970133Y-87987142D01*
X179017752Y-88034761D01*
X179112990Y-88082380D01*
X179208228Y-88082380D01*
X179303466Y-88034761D01*
X179351085Y-87987142D01*
X179398704Y-87891904D01*
X179446323Y-87701428D01*
X179446323Y-87463333D01*
X179398704Y-87272857D01*
X179351085Y-87177619D01*
X179303466Y-87130000D01*
X179208228Y-87082380D01*
X143200285Y-97679380D02*
X143200285Y-96679380D01*
X142962190Y-96679380D01*
X142819333Y-96727000D01*
X142724095Y-96822238D01*
X142676476Y-96917476D01*
X142628857Y-97107952D01*
X142628857Y-97250809D01*
X142676476Y-97441285D01*
X142724095Y-97536523D01*
X142819333Y-97631761D01*
X142962190Y-97679380D01*
X143200285Y-97679380D01*
X141676476Y-97679380D02*
X142247904Y-97679380D01*
X141962190Y-97679380D02*
X141962190Y-96679380D01*
X142057428Y-96822238D01*
X142152666Y-96917476D01*
X142247904Y-96965095D01*
X141343142Y-96679380D02*
X140676476Y-96679380D01*
X141105047Y-97679380D01*
X174348733Y-145358780D02*
X174348733Y-146073066D01*
X174396352Y-146215923D01*
X174491590Y-146311161D01*
X174634447Y-146358780D01*
X174729685Y-146358780D01*
X173920161Y-145454019D02*
X173872542Y-145406400D01*
X173777304Y-145358780D01*
X173539209Y-145358780D01*
X173443971Y-145406400D01*
X173396352Y-145454019D01*
X173348733Y-145549257D01*
X173348733Y-145644495D01*
X173396352Y-145787352D01*
X173967780Y-146358780D01*
X173348733Y-146358780D01*
X188092142Y-118324333D02*
X188139761Y-118276714D01*
X188187380Y-118133857D01*
X188187380Y-118038619D01*
X188139761Y-117895761D01*
X188044523Y-117800523D01*
X187949285Y-117752904D01*
X187758809Y-117705285D01*
X187615952Y-117705285D01*
X187425476Y-117752904D01*
X187330238Y-117800523D01*
X187235000Y-117895761D01*
X187187380Y-118038619D01*
X187187380Y-118133857D01*
X187235000Y-118276714D01*
X187282619Y-118324333D01*
X187282619Y-118705285D02*
X187235000Y-118752904D01*
X187187380Y-118848142D01*
X187187380Y-119086238D01*
X187235000Y-119181476D01*
X187282619Y-119229095D01*
X187377857Y-119276714D01*
X187473095Y-119276714D01*
X187615952Y-119229095D01*
X188187380Y-118657666D01*
X188187380Y-119276714D01*
X171007066Y-118714780D02*
X171340400Y-118238590D01*
X171578495Y-118714780D02*
X171578495Y-117714780D01*
X171197542Y-117714780D01*
X171102304Y-117762400D01*
X171054685Y-117810019D01*
X171007066Y-117905257D01*
X171007066Y-118048114D01*
X171054685Y-118143352D01*
X171102304Y-118190971D01*
X171197542Y-118238590D01*
X171578495Y-118238590D01*
X170435638Y-118143352D02*
X170530876Y-118095733D01*
X170578495Y-118048114D01*
X170626114Y-117952876D01*
X170626114Y-117905257D01*
X170578495Y-117810019D01*
X170530876Y-117762400D01*
X170435638Y-117714780D01*
X170245161Y-117714780D01*
X170149923Y-117762400D01*
X170102304Y-117810019D01*
X170054685Y-117905257D01*
X170054685Y-117952876D01*
X170102304Y-118048114D01*
X170149923Y-118095733D01*
X170245161Y-118143352D01*
X170435638Y-118143352D01*
X170530876Y-118190971D01*
X170578495Y-118238590D01*
X170626114Y-118333828D01*
X170626114Y-118524304D01*
X170578495Y-118619542D01*
X170530876Y-118667161D01*
X170435638Y-118714780D01*
X170245161Y-118714780D01*
X170149923Y-118667161D01*
X170102304Y-118619542D01*
X170054685Y-118524304D01*
X170054685Y-118333828D01*
X170102304Y-118238590D01*
X170149923Y-118190971D01*
X170245161Y-118143352D01*
X181427285Y-59503180D02*
X181427285Y-58503180D01*
X181189190Y-58503180D01*
X181046333Y-58550800D01*
X180951095Y-58646038D01*
X180903476Y-58741276D01*
X180855857Y-58931752D01*
X180855857Y-59074609D01*
X180903476Y-59265085D01*
X180951095Y-59360323D01*
X181046333Y-59455561D01*
X181189190Y-59503180D01*
X181427285Y-59503180D01*
X179903476Y-59503180D02*
X180474904Y-59503180D01*
X180189190Y-59503180D02*
X180189190Y-58503180D01*
X180284428Y-58646038D01*
X180379666Y-58741276D01*
X180474904Y-58788895D01*
X179522523Y-58598419D02*
X179474904Y-58550800D01*
X179379666Y-58503180D01*
X179141571Y-58503180D01*
X179046333Y-58550800D01*
X178998714Y-58598419D01*
X178951095Y-58693657D01*
X178951095Y-58788895D01*
X178998714Y-58931752D01*
X179570142Y-59503180D01*
X178951095Y-59503180D01*
X176092380Y-139736533D02*
X175616190Y-139403200D01*
X176092380Y-139165104D02*
X175092380Y-139165104D01*
X175092380Y-139546057D01*
X175140000Y-139641295D01*
X175187619Y-139688914D01*
X175282857Y-139736533D01*
X175425714Y-139736533D01*
X175520952Y-139688914D01*
X175568571Y-139641295D01*
X175616190Y-139546057D01*
X175616190Y-139165104D01*
X175187619Y-140117485D02*
X175140000Y-140165104D01*
X175092380Y-140260342D01*
X175092380Y-140498438D01*
X175140000Y-140593676D01*
X175187619Y-140641295D01*
X175282857Y-140688914D01*
X175378095Y-140688914D01*
X175520952Y-140641295D01*
X176092380Y-140069866D01*
X176092380Y-140688914D01*
X178581580Y-48275642D02*
X178105390Y-47942309D01*
X178581580Y-47704214D02*
X177581580Y-47704214D01*
X177581580Y-48085166D01*
X177629200Y-48180404D01*
X177676819Y-48228023D01*
X177772057Y-48275642D01*
X177914914Y-48275642D01*
X178010152Y-48228023D01*
X178057771Y-48180404D01*
X178105390Y-48085166D01*
X178105390Y-47704214D01*
X178581580Y-49228023D02*
X178581580Y-48656595D01*
X178581580Y-48942309D02*
X177581580Y-48942309D01*
X177724438Y-48847071D01*
X177819676Y-48751833D01*
X177867295Y-48656595D01*
X177581580Y-49561357D02*
X177581580Y-50180404D01*
X177962533Y-49847071D01*
X177962533Y-49989928D01*
X178010152Y-50085166D01*
X178057771Y-50132785D01*
X178153009Y-50180404D01*
X178391104Y-50180404D01*
X178486342Y-50132785D01*
X178533961Y-50085166D01*
X178581580Y-49989928D01*
X178581580Y-49704214D01*
X178533961Y-49608976D01*
X178486342Y-49561357D01*
X177016666Y-117226142D02*
X177064285Y-117273761D01*
X177207142Y-117321380D01*
X177302380Y-117321380D01*
X177445238Y-117273761D01*
X177540476Y-117178523D01*
X177588095Y-117083285D01*
X177635714Y-116892809D01*
X177635714Y-116749952D01*
X177588095Y-116559476D01*
X177540476Y-116464238D01*
X177445238Y-116369000D01*
X177302380Y-116321380D01*
X177207142Y-116321380D01*
X177064285Y-116369000D01*
X177016666Y-116416619D01*
X176111904Y-116321380D02*
X176588095Y-116321380D01*
X176635714Y-116797571D01*
X176588095Y-116749952D01*
X176492857Y-116702333D01*
X176254761Y-116702333D01*
X176159523Y-116749952D01*
X176111904Y-116797571D01*
X176064285Y-116892809D01*
X176064285Y-117130904D01*
X176111904Y-117226142D01*
X176159523Y-117273761D01*
X176254761Y-117321380D01*
X176492857Y-117321380D01*
X176588095Y-117273761D01*
X176635714Y-117226142D01*
X159840142Y-90833333D02*
X159887761Y-90785714D01*
X159935380Y-90642857D01*
X159935380Y-90547619D01*
X159887761Y-90404761D01*
X159792523Y-90309523D01*
X159697285Y-90261904D01*
X159506809Y-90214285D01*
X159363952Y-90214285D01*
X159173476Y-90261904D01*
X159078238Y-90309523D01*
X158983000Y-90404761D01*
X158935380Y-90547619D01*
X158935380Y-90642857D01*
X158983000Y-90785714D01*
X159030619Y-90833333D01*
X159363952Y-91404761D02*
X159316333Y-91309523D01*
X159268714Y-91261904D01*
X159173476Y-91214285D01*
X159125857Y-91214285D01*
X159030619Y-91261904D01*
X158983000Y-91309523D01*
X158935380Y-91404761D01*
X158935380Y-91595238D01*
X158983000Y-91690476D01*
X159030619Y-91738095D01*
X159125857Y-91785714D01*
X159173476Y-91785714D01*
X159268714Y-91738095D01*
X159316333Y-91690476D01*
X159363952Y-91595238D01*
X159363952Y-91404761D01*
X159411571Y-91309523D01*
X159459190Y-91261904D01*
X159554428Y-91214285D01*
X159744904Y-91214285D01*
X159840142Y-91261904D01*
X159887761Y-91309523D01*
X159935380Y-91404761D01*
X159935380Y-91595238D01*
X159887761Y-91690476D01*
X159840142Y-91738095D01*
X159744904Y-91785714D01*
X159554428Y-91785714D01*
X159459190Y-91738095D01*
X159411571Y-91690476D01*
X159363952Y-91595238D01*
X179708133Y-145451580D02*
X179708133Y-146165866D01*
X179755752Y-146308723D01*
X179850990Y-146403961D01*
X179993847Y-146451580D01*
X180089085Y-146451580D01*
X178708133Y-146451580D02*
X179279561Y-146451580D01*
X178993847Y-146451580D02*
X178993847Y-145451580D01*
X179089085Y-145594438D01*
X179184323Y-145689676D01*
X179279561Y-145737295D01*
X140818242Y-52357142D02*
X140865861Y-52309523D01*
X140913480Y-52166666D01*
X140913480Y-52071428D01*
X140865861Y-51928571D01*
X140770623Y-51833333D01*
X140675385Y-51785714D01*
X140484909Y-51738095D01*
X140342052Y-51738095D01*
X140151576Y-51785714D01*
X140056338Y-51833333D01*
X139961100Y-51928571D01*
X139913480Y-52071428D01*
X139913480Y-52166666D01*
X139961100Y-52309523D01*
X140008719Y-52357142D01*
X140913480Y-53309523D02*
X140913480Y-52738095D01*
X140913480Y-53023809D02*
X139913480Y-53023809D01*
X140056338Y-52928571D01*
X140151576Y-52833333D01*
X140199195Y-52738095D01*
X139913480Y-54214285D02*
X139913480Y-53738095D01*
X140389671Y-53690476D01*
X140342052Y-53738095D01*
X140294433Y-53833333D01*
X140294433Y-54071428D01*
X140342052Y-54166666D01*
X140389671Y-54214285D01*
X140484909Y-54261904D01*
X140723004Y-54261904D01*
X140818242Y-54214285D01*
X140865861Y-54166666D01*
X140913480Y-54071428D01*
X140913480Y-53833333D01*
X140865861Y-53738095D01*
X140818242Y-53690476D01*
X173521666Y-118689380D02*
X173855000Y-118213190D01*
X174093095Y-118689380D02*
X174093095Y-117689380D01*
X173712142Y-117689380D01*
X173616904Y-117737000D01*
X173569285Y-117784619D01*
X173521666Y-117879857D01*
X173521666Y-118022714D01*
X173569285Y-118117952D01*
X173616904Y-118165571D01*
X173712142Y-118213190D01*
X174093095Y-118213190D01*
X173045476Y-118689380D02*
X172855000Y-118689380D01*
X172759761Y-118641761D01*
X172712142Y-118594142D01*
X172616904Y-118451285D01*
X172569285Y-118260809D01*
X172569285Y-117879857D01*
X172616904Y-117784619D01*
X172664523Y-117737000D01*
X172759761Y-117689380D01*
X172950238Y-117689380D01*
X173045476Y-117737000D01*
X173093095Y-117784619D01*
X173140714Y-117879857D01*
X173140714Y-118117952D01*
X173093095Y-118213190D01*
X173045476Y-118260809D01*
X172950238Y-118308428D01*
X172759761Y-118308428D01*
X172664523Y-118260809D01*
X172616904Y-118213190D01*
X172569285Y-118117952D01*
X143200285Y-116729380D02*
X143200285Y-115729380D01*
X142962190Y-115729380D01*
X142819333Y-115777000D01*
X142724095Y-115872238D01*
X142676476Y-115967476D01*
X142628857Y-116157952D01*
X142628857Y-116300809D01*
X142676476Y-116491285D01*
X142724095Y-116586523D01*
X142819333Y-116681761D01*
X142962190Y-116729380D01*
X143200285Y-116729380D01*
X141676476Y-116729380D02*
X142247904Y-116729380D01*
X141962190Y-116729380D02*
X141962190Y-115729380D01*
X142057428Y-115872238D01*
X142152666Y-115967476D01*
X142247904Y-116015095D01*
X140724095Y-116729380D02*
X141295523Y-116729380D01*
X141009809Y-116729380D02*
X141009809Y-115729380D01*
X141105047Y-115872238D01*
X141200285Y-115967476D01*
X141295523Y-116015095D01*
X164039380Y-102833333D02*
X163563190Y-102500000D01*
X164039380Y-102261904D02*
X163039380Y-102261904D01*
X163039380Y-102642857D01*
X163087000Y-102738095D01*
X163134619Y-102785714D01*
X163229857Y-102833333D01*
X163372714Y-102833333D01*
X163467952Y-102785714D01*
X163515571Y-102738095D01*
X163563190Y-102642857D01*
X163563190Y-102261904D01*
X163039380Y-103738095D02*
X163039380Y-103261904D01*
X163515571Y-103214285D01*
X163467952Y-103261904D01*
X163420333Y-103357142D01*
X163420333Y-103595238D01*
X163467952Y-103690476D01*
X163515571Y-103738095D01*
X163610809Y-103785714D01*
X163848904Y-103785714D01*
X163944142Y-103738095D01*
X163991761Y-103690476D01*
X164039380Y-103595238D01*
X164039380Y-103357142D01*
X163991761Y-103261904D01*
X163944142Y-103214285D01*
X177023780Y-75130066D02*
X177738066Y-75130066D01*
X177880923Y-75082447D01*
X177976161Y-74987209D01*
X178023780Y-74844352D01*
X178023780Y-74749114D01*
X177023780Y-75511019D02*
X177023780Y-76130066D01*
X177404733Y-75796733D01*
X177404733Y-75939590D01*
X177452352Y-76034828D01*
X177499971Y-76082447D01*
X177595209Y-76130066D01*
X177833304Y-76130066D01*
X177928542Y-76082447D01*
X177976161Y-76034828D01*
X178023780Y-75939590D01*
X178023780Y-75653876D01*
X177976161Y-75558638D01*
X177928542Y-75511019D01*
X133199095Y-135779380D02*
X133199095Y-134779380D01*
X132961000Y-134779380D01*
X132818142Y-134827000D01*
X132722904Y-134922238D01*
X132675285Y-135017476D01*
X132627666Y-135207952D01*
X132627666Y-135350809D01*
X132675285Y-135541285D01*
X132722904Y-135636523D01*
X132818142Y-135731761D01*
X132961000Y-135779380D01*
X133199095Y-135779380D01*
X131770523Y-135112714D02*
X131770523Y-135779380D01*
X132008619Y-134731761D02*
X132246714Y-135446047D01*
X131627666Y-135446047D01*
X152689157Y-44471580D02*
X153022490Y-43995390D01*
X153260585Y-44471580D02*
X153260585Y-43471580D01*
X152879633Y-43471580D01*
X152784395Y-43519200D01*
X152736776Y-43566819D01*
X152689157Y-43662057D01*
X152689157Y-43804914D01*
X152736776Y-43900152D01*
X152784395Y-43947771D01*
X152879633Y-43995390D01*
X153260585Y-43995390D01*
X151736776Y-44471580D02*
X152308204Y-44471580D01*
X152022490Y-44471580D02*
X152022490Y-43471580D01*
X152117728Y-43614438D01*
X152212966Y-43709676D01*
X152308204Y-43757295D01*
X151355823Y-43566819D02*
X151308204Y-43519200D01*
X151212966Y-43471580D01*
X150974871Y-43471580D01*
X150879633Y-43519200D01*
X150832014Y-43566819D01*
X150784395Y-43662057D01*
X150784395Y-43757295D01*
X150832014Y-43900152D01*
X151403442Y-44471580D01*
X150784395Y-44471580D01*
X161774095Y-78553180D02*
X161774095Y-77553180D01*
X161536000Y-77553180D01*
X161393142Y-77600800D01*
X161297904Y-77696038D01*
X161250285Y-77791276D01*
X161202666Y-77981752D01*
X161202666Y-78124609D01*
X161250285Y-78315085D01*
X161297904Y-78410323D01*
X161393142Y-78505561D01*
X161536000Y-78553180D01*
X161774095Y-78553180D01*
X160345523Y-77553180D02*
X160536000Y-77553180D01*
X160631238Y-77600800D01*
X160678857Y-77648419D01*
X160774095Y-77791276D01*
X160821714Y-77981752D01*
X160821714Y-78362704D01*
X160774095Y-78457942D01*
X160726476Y-78505561D01*
X160631238Y-78553180D01*
X160440761Y-78553180D01*
X160345523Y-78505561D01*
X160297904Y-78457942D01*
X160250285Y-78362704D01*
X160250285Y-78124609D01*
X160297904Y-78029371D01*
X160345523Y-77981752D01*
X160440761Y-77934133D01*
X160631238Y-77934133D01*
X160726476Y-77981752D01*
X160774095Y-78029371D01*
X160821714Y-78124609D01*
X163523142Y-90833333D02*
X163570761Y-90785714D01*
X163618380Y-90642857D01*
X163618380Y-90547619D01*
X163570761Y-90404761D01*
X163475523Y-90309523D01*
X163380285Y-90261904D01*
X163189809Y-90214285D01*
X163046952Y-90214285D01*
X162856476Y-90261904D01*
X162761238Y-90309523D01*
X162666000Y-90404761D01*
X162618380Y-90547619D01*
X162618380Y-90642857D01*
X162666000Y-90785714D01*
X162713619Y-90833333D01*
X162618380Y-91166666D02*
X162618380Y-91833333D01*
X163618380Y-91404761D01*
X162250285Y-116729380D02*
X162250285Y-115729380D01*
X162012190Y-115729380D01*
X161869333Y-115777000D01*
X161774095Y-115872238D01*
X161726476Y-115967476D01*
X161678857Y-116157952D01*
X161678857Y-116300809D01*
X161726476Y-116491285D01*
X161774095Y-116586523D01*
X161869333Y-116681761D01*
X162012190Y-116729380D01*
X162250285Y-116729380D01*
X160726476Y-116729380D02*
X161297904Y-116729380D01*
X161012190Y-116729380D02*
X161012190Y-115729380D01*
X161107428Y-115872238D01*
X161202666Y-115967476D01*
X161297904Y-116015095D01*
X159869333Y-116062714D02*
X159869333Y-116729380D01*
X160107428Y-115681761D02*
X160345523Y-116396047D01*
X159726476Y-116396047D01*
X188571190Y-113569809D02*
X189047380Y-113569809D01*
X188047380Y-113236476D02*
X188571190Y-113569809D01*
X188047380Y-113903142D01*
X189047380Y-114760285D02*
X189047380Y-114188857D01*
X189047380Y-114474571D02*
X188047380Y-114474571D01*
X188190238Y-114379333D01*
X188285476Y-114284095D01*
X188333095Y-114188857D01*
X164039380Y-105833333D02*
X163563190Y-105500000D01*
X164039380Y-105261904D02*
X163039380Y-105261904D01*
X163039380Y-105642857D01*
X163087000Y-105738095D01*
X163134619Y-105785714D01*
X163229857Y-105833333D01*
X163372714Y-105833333D01*
X163467952Y-105785714D01*
X163515571Y-105738095D01*
X163563190Y-105642857D01*
X163563190Y-105261904D01*
X163372714Y-106690476D02*
X164039380Y-106690476D01*
X162991761Y-106452380D02*
X163706047Y-106214285D01*
X163706047Y-106833333D01*
X161901095Y-135779380D02*
X161901095Y-134779380D01*
X161663000Y-134779380D01*
X161520142Y-134827000D01*
X161424904Y-134922238D01*
X161377285Y-135017476D01*
X161329666Y-135207952D01*
X161329666Y-135350809D01*
X161377285Y-135541285D01*
X161424904Y-135636523D01*
X161520142Y-135731761D01*
X161663000Y-135779380D01*
X161901095Y-135779380D01*
X160758238Y-135207952D02*
X160853476Y-135160333D01*
X160901095Y-135112714D01*
X160948714Y-135017476D01*
X160948714Y-134969857D01*
X160901095Y-134874619D01*
X160853476Y-134827000D01*
X160758238Y-134779380D01*
X160567761Y-134779380D01*
X160472523Y-134827000D01*
X160424904Y-134874619D01*
X160377285Y-134969857D01*
X160377285Y-135017476D01*
X160424904Y-135112714D01*
X160472523Y-135160333D01*
X160567761Y-135207952D01*
X160758238Y-135207952D01*
X160853476Y-135255571D01*
X160901095Y-135303190D01*
X160948714Y-135398428D01*
X160948714Y-135588904D01*
X160901095Y-135684142D01*
X160853476Y-135731761D01*
X160758238Y-135779380D01*
X160567761Y-135779380D01*
X160472523Y-135731761D01*
X160424904Y-135684142D01*
X160377285Y-135588904D01*
X160377285Y-135398428D01*
X160424904Y-135303190D01*
X160472523Y-135255571D01*
X160567761Y-135207952D01*
X181300285Y-126254380D02*
X181300285Y-125254380D01*
X181062190Y-125254380D01*
X180919333Y-125302000D01*
X180824095Y-125397238D01*
X180776476Y-125492476D01*
X180728857Y-125682952D01*
X180728857Y-125825809D01*
X180776476Y-126016285D01*
X180824095Y-126111523D01*
X180919333Y-126206761D01*
X181062190Y-126254380D01*
X181300285Y-126254380D01*
X179776476Y-126254380D02*
X180347904Y-126254380D01*
X180062190Y-126254380D02*
X180062190Y-125254380D01*
X180157428Y-125397238D01*
X180252666Y-125492476D01*
X180347904Y-125540095D01*
X179205047Y-125682952D02*
X179300285Y-125635333D01*
X179347904Y-125587714D01*
X179395523Y-125492476D01*
X179395523Y-125444857D01*
X179347904Y-125349619D01*
X179300285Y-125302000D01*
X179205047Y-125254380D01*
X179014571Y-125254380D01*
X178919333Y-125302000D01*
X178871714Y-125349619D01*
X178824095Y-125444857D01*
X178824095Y-125492476D01*
X178871714Y-125587714D01*
X178919333Y-125635333D01*
X179014571Y-125682952D01*
X179205047Y-125682952D01*
X179300285Y-125730571D01*
X179347904Y-125778190D01*
X179395523Y-125873428D01*
X179395523Y-126063904D01*
X179347904Y-126159142D01*
X179300285Y-126206761D01*
X179205047Y-126254380D01*
X179014571Y-126254380D01*
X178919333Y-126206761D01*
X178871714Y-126159142D01*
X178824095Y-126063904D01*
X178824095Y-125873428D01*
X178871714Y-125778190D01*
X178919333Y-125730571D01*
X179014571Y-125682952D01*
X137263142Y-52306342D02*
X137310761Y-52258723D01*
X137358380Y-52115866D01*
X137358380Y-52020628D01*
X137310761Y-51877771D01*
X137215523Y-51782533D01*
X137120285Y-51734914D01*
X136929809Y-51687295D01*
X136786952Y-51687295D01*
X136596476Y-51734914D01*
X136501238Y-51782533D01*
X136406000Y-51877771D01*
X136358380Y-52020628D01*
X136358380Y-52115866D01*
X136406000Y-52258723D01*
X136453619Y-52306342D01*
X137358380Y-53258723D02*
X137358380Y-52687295D01*
X137358380Y-52973009D02*
X136358380Y-52973009D01*
X136501238Y-52877771D01*
X136596476Y-52782533D01*
X136644095Y-52687295D01*
X136358380Y-54115866D02*
X136358380Y-53925390D01*
X136406000Y-53830152D01*
X136453619Y-53782533D01*
X136596476Y-53687295D01*
X136786952Y-53639676D01*
X137167904Y-53639676D01*
X137263142Y-53687295D01*
X137310761Y-53734914D01*
X137358380Y-53830152D01*
X137358380Y-54020628D01*
X137310761Y-54115866D01*
X137263142Y-54163485D01*
X137167904Y-54211104D01*
X136929809Y-54211104D01*
X136834571Y-54163485D01*
X136786952Y-54115866D01*
X136739333Y-54020628D01*
X136739333Y-53830152D01*
X136786952Y-53734914D01*
X136834571Y-53687295D01*
X136929809Y-53639676D01*
X156538142Y-90833333D02*
X156585761Y-90785714D01*
X156633380Y-90642857D01*
X156633380Y-90547619D01*
X156585761Y-90404761D01*
X156490523Y-90309523D01*
X156395285Y-90261904D01*
X156204809Y-90214285D01*
X156061952Y-90214285D01*
X155871476Y-90261904D01*
X155776238Y-90309523D01*
X155681000Y-90404761D01*
X155633380Y-90547619D01*
X155633380Y-90642857D01*
X155681000Y-90785714D01*
X155728619Y-90833333D01*
X156633380Y-91309523D02*
X156633380Y-91500000D01*
X156585761Y-91595238D01*
X156538142Y-91642857D01*
X156395285Y-91738095D01*
X156204809Y-91785714D01*
X155823857Y-91785714D01*
X155728619Y-91738095D01*
X155681000Y-91690476D01*
X155633380Y-91595238D01*
X155633380Y-91404761D01*
X155681000Y-91309523D01*
X155728619Y-91261904D01*
X155823857Y-91214285D01*
X156061952Y-91214285D01*
X156157190Y-91261904D01*
X156204809Y-91309523D01*
X156252428Y-91404761D01*
X156252428Y-91595238D01*
X156204809Y-91690476D01*
X156157190Y-91738095D01*
X156061952Y-91785714D01*
X161774095Y-97679380D02*
X161774095Y-96679380D01*
X161536000Y-96679380D01*
X161393142Y-96727000D01*
X161297904Y-96822238D01*
X161250285Y-96917476D01*
X161202666Y-97107952D01*
X161202666Y-97250809D01*
X161250285Y-97441285D01*
X161297904Y-97536523D01*
X161393142Y-97631761D01*
X161536000Y-97679380D01*
X161774095Y-97679380D01*
X160869333Y-96679380D02*
X160250285Y-96679380D01*
X160583619Y-97060333D01*
X160440761Y-97060333D01*
X160345523Y-97107952D01*
X160297904Y-97155571D01*
X160250285Y-97250809D01*
X160250285Y-97488904D01*
X160297904Y-97584142D01*
X160345523Y-97631761D01*
X160440761Y-97679380D01*
X160726476Y-97679380D01*
X160821714Y-97631761D01*
X160869333Y-97584142D01*
X149426142Y-90357142D02*
X149473761Y-90309523D01*
X149521380Y-90166666D01*
X149521380Y-90071428D01*
X149473761Y-89928571D01*
X149378523Y-89833333D01*
X149283285Y-89785714D01*
X149092809Y-89738095D01*
X148949952Y-89738095D01*
X148759476Y-89785714D01*
X148664238Y-89833333D01*
X148569000Y-89928571D01*
X148521380Y-90071428D01*
X148521380Y-90166666D01*
X148569000Y-90309523D01*
X148616619Y-90357142D01*
X149521380Y-91309523D02*
X149521380Y-90738095D01*
X149521380Y-91023809D02*
X148521380Y-91023809D01*
X148664238Y-90928571D01*
X148759476Y-90833333D01*
X148807095Y-90738095D01*
X149521380Y-92261904D02*
X149521380Y-91690476D01*
X149521380Y-91976190D02*
X148521380Y-91976190D01*
X148664238Y-91880952D01*
X148759476Y-91785714D01*
X148807095Y-91690476D01*
X170949857Y-98892680D02*
X171283190Y-98416490D01*
X171521285Y-98892680D02*
X171521285Y-97892680D01*
X171140333Y-97892680D01*
X171045095Y-97940300D01*
X170997476Y-97987919D01*
X170949857Y-98083157D01*
X170949857Y-98226014D01*
X170997476Y-98321252D01*
X171045095Y-98368871D01*
X171140333Y-98416490D01*
X171521285Y-98416490D01*
X169997476Y-98892680D02*
X170568904Y-98892680D01*
X170283190Y-98892680D02*
X170283190Y-97892680D01*
X170378428Y-98035538D01*
X170473666Y-98130776D01*
X170568904Y-98178395D01*
X169378428Y-97892680D02*
X169283190Y-97892680D01*
X169187952Y-97940300D01*
X169140333Y-97987919D01*
X169092714Y-98083157D01*
X169045095Y-98273633D01*
X169045095Y-98511728D01*
X169092714Y-98702204D01*
X169140333Y-98797442D01*
X169187952Y-98845061D01*
X169283190Y-98892680D01*
X169378428Y-98892680D01*
X169473666Y-98845061D01*
X169521285Y-98797442D01*
X169568904Y-98702204D01*
X169616523Y-98511728D01*
X169616523Y-98273633D01*
X169568904Y-98083157D01*
X169521285Y-97987919D01*
X169473666Y-97940300D01*
X169378428Y-97892680D01*
X161901095Y-59503180D02*
X161901095Y-58503180D01*
X161663000Y-58503180D01*
X161520142Y-58550800D01*
X161424904Y-58646038D01*
X161377285Y-58741276D01*
X161329666Y-58931752D01*
X161329666Y-59074609D01*
X161377285Y-59265085D01*
X161424904Y-59360323D01*
X161520142Y-59455561D01*
X161663000Y-59503180D01*
X161901095Y-59503180D01*
X160853476Y-59503180D02*
X160663000Y-59503180D01*
X160567761Y-59455561D01*
X160520142Y-59407942D01*
X160424904Y-59265085D01*
X160377285Y-59074609D01*
X160377285Y-58693657D01*
X160424904Y-58598419D01*
X160472523Y-58550800D01*
X160567761Y-58503180D01*
X160758238Y-58503180D01*
X160853476Y-58550800D01*
X160901095Y-58598419D01*
X160948714Y-58693657D01*
X160948714Y-58931752D01*
X160901095Y-59026990D01*
X160853476Y-59074609D01*
X160758238Y-59122228D01*
X160567761Y-59122228D01*
X160472523Y-59074609D01*
X160424904Y-59026990D01*
X160377285Y-58931752D01*
X148965180Y-48226742D02*
X148488990Y-47893409D01*
X148965180Y-47655314D02*
X147965180Y-47655314D01*
X147965180Y-48036266D01*
X148012800Y-48131504D01*
X148060419Y-48179123D01*
X148155657Y-48226742D01*
X148298514Y-48226742D01*
X148393752Y-48179123D01*
X148441371Y-48131504D01*
X148488990Y-48036266D01*
X148488990Y-47655314D01*
X148965180Y-49179123D02*
X148965180Y-48607695D01*
X148965180Y-48893409D02*
X147965180Y-48893409D01*
X148108038Y-48798171D01*
X148203276Y-48702933D01*
X148250895Y-48607695D01*
X147965180Y-50083885D02*
X147965180Y-49607695D01*
X148441371Y-49560076D01*
X148393752Y-49607695D01*
X148346133Y-49702933D01*
X148346133Y-49941028D01*
X148393752Y-50036266D01*
X148441371Y-50083885D01*
X148536609Y-50131504D01*
X148774704Y-50131504D01*
X148869942Y-50083885D01*
X148917561Y-50036266D01*
X148965180Y-49941028D01*
X148965180Y-49702933D01*
X148917561Y-49607695D01*
X148869942Y-49560076D01*
X153109142Y-90357142D02*
X153156761Y-90309523D01*
X153204380Y-90166666D01*
X153204380Y-90071428D01*
X153156761Y-89928571D01*
X153061523Y-89833333D01*
X152966285Y-89785714D01*
X152775809Y-89738095D01*
X152632952Y-89738095D01*
X152442476Y-89785714D01*
X152347238Y-89833333D01*
X152252000Y-89928571D01*
X152204380Y-90071428D01*
X152204380Y-90166666D01*
X152252000Y-90309523D01*
X152299619Y-90357142D01*
X153204380Y-91309523D02*
X153204380Y-90738095D01*
X153204380Y-91023809D02*
X152204380Y-91023809D01*
X152347238Y-90928571D01*
X152442476Y-90833333D01*
X152490095Y-90738095D01*
X152204380Y-91928571D02*
X152204380Y-92023809D01*
X152252000Y-92119047D01*
X152299619Y-92166666D01*
X152394857Y-92214285D01*
X152585333Y-92261904D01*
X152823428Y-92261904D01*
X153013904Y-92214285D01*
X153109142Y-92166666D01*
X153156761Y-92119047D01*
X153204380Y-92023809D01*
X153204380Y-91928571D01*
X153156761Y-91833333D01*
X153109142Y-91785714D01*
X153013904Y-91738095D01*
X152823428Y-91690476D01*
X152585333Y-91690476D01*
X152394857Y-91738095D01*
X152299619Y-91785714D01*
X152252000Y-91833333D01*
X152204380Y-91928571D01*
X187293466Y-99010742D02*
X187341085Y-99058361D01*
X187483942Y-99105980D01*
X187579180Y-99105980D01*
X187722038Y-99058361D01*
X187817276Y-98963123D01*
X187864895Y-98867885D01*
X187912514Y-98677409D01*
X187912514Y-98534552D01*
X187864895Y-98344076D01*
X187817276Y-98248838D01*
X187722038Y-98153600D01*
X187579180Y-98105980D01*
X187483942Y-98105980D01*
X187341085Y-98153600D01*
X187293466Y-98201219D01*
X186960133Y-98105980D02*
X186341085Y-98105980D01*
X186674419Y-98486933D01*
X186531561Y-98486933D01*
X186436323Y-98534552D01*
X186388704Y-98582171D01*
X186341085Y-98677409D01*
X186341085Y-98915504D01*
X186388704Y-99010742D01*
X186436323Y-99058361D01*
X186531561Y-99105980D01*
X186817276Y-99105980D01*
X186912514Y-99058361D01*
X186960133Y-99010742D01*
D11*
X140486000Y-56350800D02*
X143036000Y-56350800D01*
X140486000Y-58050800D02*
X143036000Y-58050800D01*
X140486000Y-58050800D02*
X140486000Y-56350800D01*
X184781564Y-111479000D02*
X184327436Y-111479000D01*
X184781564Y-110009000D02*
X184327436Y-110009000D01*
X141352600Y-53261252D02*
X141352600Y-52738748D01*
X142822600Y-53261252D02*
X142822600Y-52738748D01*
X140486000Y-75400800D02*
X143036000Y-75400800D01*
X140486000Y-77100800D02*
X143036000Y-77100800D01*
X140486000Y-77100800D02*
X140486000Y-75400800D01*
X161367800Y-49147464D02*
X161367800Y-48693336D01*
X162837800Y-49147464D02*
X162837800Y-48693336D01*
X121182000Y-58050800D02*
X121182000Y-56350800D01*
X121182000Y-56350800D02*
X123732000Y-56350800D01*
X121182000Y-58050800D02*
X123732000Y-58050800D01*
X121436000Y-115277000D02*
X121436000Y-113577000D01*
X121436000Y-115277000D02*
X123986000Y-115277000D01*
X121436000Y-113577000D02*
X123986000Y-113577000D01*
X178639800Y-140030564D02*
X178639800Y-139576436D01*
X180109800Y-140030564D02*
X180109800Y-139576436D01*
X182145000Y-118752252D02*
X182145000Y-118229748D01*
X183615000Y-118752252D02*
X183615000Y-118229748D01*
X121436000Y-96227000D02*
X121436000Y-94527000D01*
X121436000Y-94527000D02*
X123986000Y-94527000D01*
X121436000Y-96227000D02*
X123986000Y-96227000D01*
X178743000Y-103070000D02*
X178743000Y-103520000D01*
X178743000Y-110290000D02*
X178743000Y-109840000D01*
X171973000Y-110290000D02*
X171523000Y-110290000D01*
X178293000Y-110290000D02*
X178743000Y-110290000D01*
X178743000Y-103520000D02*
X180033000Y-103520000D01*
X171973000Y-103070000D02*
X171523000Y-103070000D01*
X171523000Y-110290000D02*
X171523000Y-109840000D01*
X171523000Y-103070000D02*
X171523000Y-103520000D01*
X178293000Y-103070000D02*
X178743000Y-103070000D01*
X181707200Y-49834852D02*
X181707200Y-48412348D01*
X179887200Y-49834852D02*
X179887200Y-48412348D01*
X164490348Y-44962400D02*
X165912852Y-44962400D01*
X164490348Y-46782400D02*
X165912852Y-46782400D01*
X174301200Y-59116400D02*
X174301200Y-53106400D01*
X167481200Y-53106400D02*
X168741200Y-53106400D01*
X167481200Y-56866400D02*
X167481200Y-53106400D01*
X174301200Y-53106400D02*
X173041200Y-53106400D01*
X172035800Y-96227064D02*
X172035800Y-95772936D01*
X173505800Y-96227064D02*
X173505800Y-95772936D01*
X181093000Y-103483000D02*
X181093000Y-104783000D01*
X188893000Y-107083000D02*
X189493000Y-107083000D01*
X181093000Y-103483000D02*
X181693000Y-103483000D01*
X181093000Y-105783000D02*
X181093000Y-107083000D01*
X181093000Y-107083000D02*
X181693000Y-107083000D01*
X187193000Y-103483000D02*
X183393000Y-103483000D01*
X189493000Y-103483000D02*
X188893000Y-103483000D01*
X183393000Y-107083000D02*
X187193000Y-107083000D01*
X189493000Y-107083000D02*
X189493000Y-103483000D01*
X181093000Y-105783000D02*
G75*
G03*
X181093000Y-104783000I0J500000D01*
G01*
X169010000Y-90738748D02*
X169010000Y-91261252D01*
X167540000Y-90738748D02*
X167540000Y-91261252D01*
X165772936Y-108265000D02*
X166227064Y-108265000D01*
X165772936Y-109735000D02*
X166227064Y-109735000D01*
X148102000Y-53848000D02*
X148102000Y-51898000D01*
X158222000Y-53848000D02*
X158222000Y-51898000D01*
X148102000Y-53848000D02*
X148102000Y-55798000D01*
X158222000Y-53848000D02*
X158222000Y-57348000D01*
X183776252Y-99595000D02*
X183253748Y-99595000D01*
X183776252Y-101065000D02*
X183253748Y-101065000D01*
X121436000Y-77100800D02*
X121436000Y-75400800D01*
X121436000Y-77100800D02*
X123986000Y-77100800D01*
X121436000Y-75400800D02*
X123986000Y-75400800D01*
X146073800Y-53227064D02*
X146073800Y-52772936D01*
X144603800Y-53227064D02*
X144603800Y-52772936D01*
X178586000Y-86651200D02*
X178586000Y-84951200D01*
X178586000Y-86651200D02*
X181136000Y-86651200D01*
X178586000Y-84951200D02*
X181136000Y-84951200D01*
X140486000Y-96227000D02*
X143036000Y-96227000D01*
X140486000Y-96227000D02*
X140486000Y-94527000D01*
X140486000Y-94527000D02*
X143036000Y-94527000D01*
X176065400Y-144406400D02*
X176065400Y-143806400D01*
X172815400Y-142906400D02*
X172515400Y-142606400D01*
X172615400Y-145106400D02*
X175415400Y-145106400D01*
X175415400Y-143106400D02*
X172615400Y-143106400D01*
X171965400Y-143806400D02*
X171965400Y-144406400D01*
X172515400Y-142606400D02*
X173115400Y-142606400D01*
X172815400Y-142906400D02*
X173115400Y-142606400D01*
X171965400Y-144406400D02*
G75*
G03*
X172665400Y-145106400I699999J-1D01*
G01*
X172665400Y-143106400D02*
G75*
G03*
X171965400Y-143806400I-1J-699999D01*
G01*
X175365400Y-145106400D02*
G75*
G03*
X176065400Y-144406400I0J700000D01*
G01*
X176065400Y-143806400D02*
G75*
G03*
X175365400Y-143106400I-700000J0D01*
G01*
X185320000Y-118752252D02*
X185320000Y-118229748D01*
X186790000Y-118752252D02*
X186790000Y-118229748D01*
X171550000Y-115620436D02*
X171550000Y-116074564D01*
X170080000Y-115620436D02*
X170080000Y-116074564D01*
X178713000Y-58050800D02*
X181263000Y-58050800D01*
X178713000Y-56350800D02*
X181263000Y-56350800D01*
X178713000Y-58050800D02*
X178713000Y-56350800D01*
X174725000Y-140130264D02*
X174725000Y-139676136D01*
X173255000Y-140130264D02*
X173255000Y-139676136D01*
X177214200Y-49145564D02*
X177214200Y-48691436D01*
X175744200Y-49145564D02*
X175744200Y-48691436D01*
X176588748Y-115924000D02*
X177111252Y-115924000D01*
X176588748Y-114454000D02*
X177111252Y-114454000D01*
X161898000Y-90738748D02*
X161898000Y-91261252D01*
X160428000Y-90738748D02*
X160428000Y-91261252D01*
X180600200Y-145311200D02*
X180900200Y-145611200D01*
X180600200Y-145311200D02*
X180300200Y-145611200D01*
X177350200Y-143811200D02*
X177350200Y-144411200D01*
X180900200Y-145611200D02*
X180300200Y-145611200D01*
X180800200Y-143111200D02*
X178000200Y-143111200D01*
X181450200Y-144411200D02*
X181450200Y-143811200D01*
X178000200Y-145111200D02*
X180800200Y-145111200D01*
X180750200Y-145111200D02*
G75*
G03*
X181450200Y-144411200I1J699999D01*
G01*
X178050200Y-143111200D02*
G75*
G03*
X177350200Y-143811200I0J-700000D01*
G01*
X181450200Y-143811200D02*
G75*
G03*
X180750200Y-143111200I-699999J1D01*
G01*
X177350200Y-144411200D02*
G75*
G03*
X178050200Y-145111200I700000J0D01*
G01*
X138046100Y-53261252D02*
X138046100Y-52738748D01*
X139516100Y-53261252D02*
X139516100Y-52738748D01*
X172620000Y-115620436D02*
X172620000Y-116074564D01*
X174090000Y-115620436D02*
X174090000Y-116074564D01*
X140486000Y-115277000D02*
X140486000Y-113577000D01*
X140486000Y-115277000D02*
X143036000Y-115277000D01*
X140486000Y-113577000D02*
X143036000Y-113577000D01*
X166227064Y-103735000D02*
X165772936Y-103735000D01*
X166227064Y-102265000D02*
X165772936Y-102265000D01*
X178400400Y-79136400D02*
X178400400Y-80466400D01*
X178400400Y-77866400D02*
X181060400Y-77866400D01*
X178400400Y-80466400D02*
X179730400Y-80466400D01*
X181060400Y-77866400D02*
X181060400Y-70186400D01*
X178400400Y-77866400D02*
X178400400Y-70186400D01*
X178400400Y-70186400D02*
X181060400Y-70186400D01*
X130961000Y-132627000D02*
X133511000Y-132627000D01*
X130961000Y-134327000D02*
X133511000Y-134327000D01*
X130961000Y-134327000D02*
X130961000Y-132627000D01*
X152273364Y-44934200D02*
X151819236Y-44934200D01*
X152273364Y-46404200D02*
X151819236Y-46404200D01*
X159536000Y-77100800D02*
X162086000Y-77100800D01*
X159536000Y-75400800D02*
X162086000Y-75400800D01*
X159536000Y-77100800D02*
X159536000Y-75400800D01*
X164111000Y-90738748D02*
X164111000Y-91261252D01*
X165581000Y-90738748D02*
X165581000Y-91261252D01*
X159536000Y-113577000D02*
X162086000Y-113577000D01*
X159536000Y-115277000D02*
X159536000Y-113577000D01*
X159536000Y-115277000D02*
X162086000Y-115277000D01*
X181704000Y-112119000D02*
X187604000Y-112119000D01*
X187604000Y-112119000D02*
X187604000Y-115719000D01*
X187604000Y-115719000D02*
X181704000Y-115719000D01*
X166227064Y-105265000D02*
X165772936Y-105265000D01*
X166227064Y-106735000D02*
X165772936Y-106735000D01*
X159663000Y-132627000D02*
X162213000Y-132627000D01*
X159663000Y-134327000D02*
X159663000Y-132627000D01*
X159663000Y-134327000D02*
X162213000Y-134327000D01*
X178586000Y-124802000D02*
X181136000Y-124802000D01*
X178586000Y-123102000D02*
X181136000Y-123102000D01*
X178586000Y-124802000D02*
X178586000Y-123102000D01*
X135863000Y-52738748D02*
X135863000Y-53261252D01*
X134393000Y-52738748D02*
X134393000Y-53261252D01*
X157126000Y-90738748D02*
X157126000Y-91261252D01*
X158596000Y-90738748D02*
X158596000Y-91261252D01*
X159536000Y-96227000D02*
X162086000Y-96227000D01*
X159536000Y-96227000D02*
X159536000Y-94527000D01*
X159536000Y-94527000D02*
X162086000Y-94527000D01*
X150014000Y-90738748D02*
X150014000Y-91261252D01*
X151484000Y-90738748D02*
X151484000Y-91261252D01*
X170915000Y-96227064D02*
X170915000Y-95772936D01*
X169445000Y-96227064D02*
X169445000Y-95772936D01*
X159663000Y-58050800D02*
X162213000Y-58050800D01*
X159663000Y-56350800D02*
X162213000Y-56350800D01*
X159663000Y-58050800D02*
X159663000Y-56350800D01*
X146127800Y-49096664D02*
X146127800Y-48642536D01*
X147597800Y-49096664D02*
X147597800Y-48642536D01*
X153697000Y-90738748D02*
X153697000Y-91261252D01*
X155167000Y-90738748D02*
X155167000Y-91261252D01*
X186850348Y-101065000D02*
X187372852Y-101065000D01*
X186850348Y-99595000D02*
X187372852Y-99595000D01*
%LPC*%
D12*
X123850400Y-100431600D03*
D13*
X128930400Y-100431600D03*
X118770400Y-100431600D03*
D14*
X120040400Y-97891600D03*
X126390400Y-95351600D03*
D15*
X141376400Y-48000000D03*
D16*
X143916400Y-48000000D03*
D13*
X118770400Y-62280800D03*
D12*
X123850400Y-62280800D03*
D13*
X128930400Y-62280800D03*
D14*
X120040400Y-59740800D03*
X126390400Y-57200800D03*
D13*
X156870400Y-138531600D03*
X167030400Y-138531600D03*
D12*
X161950400Y-138531600D03*
D14*
X158140400Y-135991600D03*
X164490400Y-133451600D03*
D17*
X186000000Y-51000000D03*
D15*
X171043600Y-48000000D03*
D16*
X173583600Y-48000000D03*
D13*
X156870400Y-81330800D03*
X167030400Y-81330800D03*
D12*
X161950400Y-81330800D03*
D14*
X158140400Y-78790800D03*
X164490400Y-76250800D03*
D17*
X119000000Y-51500000D03*
X186000000Y-143000000D03*
D13*
X118770400Y-81330800D03*
X128930400Y-81330800D03*
D12*
X123850400Y-81330800D03*
D14*
X120040400Y-78790800D03*
X126390400Y-76250800D03*
D17*
X119000000Y-143000000D03*
D12*
X133350000Y-138531600D03*
D13*
X138430000Y-138531600D03*
X128270000Y-138531600D03*
D14*
X129540000Y-135991600D03*
X135890000Y-133451600D03*
D13*
X167030400Y-100431600D03*
X156870400Y-100431600D03*
D12*
X161950400Y-100431600D03*
D14*
X158140400Y-97891600D03*
X164490400Y-95351600D03*
D18*
X174904400Y-42468800D03*
D19*
X177404400Y-42468800D03*
X179404400Y-42468800D03*
X181904400Y-42468800D03*
D20*
X171834400Y-40068800D03*
X184974400Y-40068800D03*
D13*
X156870400Y-119481600D03*
X167030400Y-119481600D03*
D12*
X161950400Y-119481600D03*
D14*
X158140400Y-116941600D03*
X164490400Y-114401600D03*
D12*
X142900400Y-81330800D03*
D13*
X147980400Y-81330800D03*
X137820400Y-81330800D03*
D14*
X139090400Y-78790800D03*
X145440400Y-76250800D03*
D13*
X186080400Y-62280800D03*
X175920400Y-62280800D03*
D12*
X181000400Y-62280800D03*
D14*
X177190400Y-59740800D03*
X183540400Y-57200800D03*
D13*
X175920400Y-128981200D03*
X186080400Y-128981200D03*
D12*
X181000400Y-128981200D03*
D14*
X177190400Y-126441200D03*
X183540400Y-123901200D03*
D21*
X133821600Y-39132400D03*
X129971600Y-39132400D03*
D22*
X129071600Y-36982400D03*
X134721600Y-36982400D03*
D13*
X137820400Y-100431600D03*
X147980400Y-100431600D03*
D12*
X142900400Y-100431600D03*
D14*
X139090400Y-97891600D03*
X145440400Y-95351600D03*
D12*
X161950400Y-62280800D03*
D13*
X167030400Y-62280800D03*
X156870400Y-62280800D03*
D14*
X158140400Y-59740800D03*
X164490400Y-57200800D03*
D18*
X141534000Y-42415400D03*
D19*
X144034000Y-42415400D03*
X146034000Y-42415400D03*
X148534000Y-42415400D03*
D20*
X138464000Y-40015400D03*
X151604000Y-40015400D03*
D19*
X121615200Y-36190800D03*
X121615200Y-43190800D03*
D18*
X158247200Y-42415400D03*
D19*
X160747200Y-42415400D03*
X162747200Y-42415400D03*
X165247200Y-42415400D03*
D20*
X155177200Y-40015400D03*
X168317200Y-40015400D03*
D12*
X123850400Y-119481600D03*
D13*
X128930400Y-119481600D03*
X118770400Y-119481600D03*
D14*
X120040400Y-116941600D03*
X126390400Y-114401600D03*
D13*
X137820400Y-119481600D03*
X147980400Y-119481600D03*
D12*
X142900400Y-119481600D03*
D14*
X139090400Y-116941600D03*
X145440400Y-114401600D03*
D13*
X186080400Y-90881200D03*
X175920400Y-90881200D03*
D12*
X181000400Y-90881200D03*
D14*
X177190400Y-88341200D03*
X183540400Y-85801200D03*
D13*
X137820400Y-62280800D03*
X147980400Y-62280800D03*
D12*
X142900400Y-62280800D03*
D14*
X139090400Y-59740800D03*
X145440400Y-57200800D03*
D15*
X156662200Y-48000000D03*
D16*
X159202200Y-48000000D03*
D23*
X140936000Y-57200800D03*
X143036000Y-57200800D03*
D24*
X185467000Y-110744000D03*
X183642000Y-110744000D03*
D25*
X142087600Y-53950000D03*
X142087600Y-52050000D03*
D23*
X140936000Y-76250800D03*
X143036000Y-76250800D03*
D26*
X162102800Y-49832900D03*
X162102800Y-48007900D03*
D23*
X121632000Y-57200800D03*
X123732000Y-57200800D03*
X121886000Y-114427000D03*
X123986000Y-114427000D03*
D26*
X179374800Y-140716000D03*
X179374800Y-138891000D03*
D25*
X182880000Y-119441000D03*
X182880000Y-117541000D03*
D23*
X121886000Y-95377000D03*
X123986000Y-95377000D03*
D27*
X179295500Y-103930000D03*
X179295500Y-104430000D03*
X179295500Y-104930000D03*
X179295500Y-105430000D03*
X179295500Y-105930000D03*
X179295500Y-106430000D03*
X179295500Y-106930000D03*
X179295500Y-107430000D03*
X179295500Y-107930000D03*
X179295500Y-108430000D03*
X179295500Y-108930000D03*
X179295500Y-109430000D03*
D28*
X177883000Y-110842500D03*
X177383000Y-110842500D03*
X176883000Y-110842500D03*
X176383000Y-110842500D03*
X175883000Y-110842500D03*
X175383000Y-110842500D03*
X174883000Y-110842500D03*
X174383000Y-110842500D03*
X173883000Y-110842500D03*
X173383000Y-110842500D03*
X172883000Y-110842500D03*
X172383000Y-110842500D03*
D27*
X170970500Y-109430000D03*
X170970500Y-108930000D03*
X170970500Y-108430000D03*
X170970500Y-107930000D03*
X170970500Y-107430000D03*
X170970500Y-106930000D03*
X170970500Y-106430000D03*
X170970500Y-105930000D03*
X170970500Y-105430000D03*
X170970500Y-104930000D03*
X170970500Y-104430000D03*
X170970500Y-103930000D03*
D28*
X172383000Y-102517500D03*
X172883000Y-102517500D03*
X173383000Y-102517500D03*
X173883000Y-102517500D03*
X174383000Y-102517500D03*
X174883000Y-102517500D03*
X175383000Y-102517500D03*
X175883000Y-102517500D03*
X176383000Y-102517500D03*
X176883000Y-102517500D03*
X177383000Y-102517500D03*
X177883000Y-102517500D03*
D29*
X180797200Y-50598600D03*
X180797200Y-47648600D03*
D30*
X163726600Y-45872400D03*
X166676600Y-45872400D03*
D31*
X173191200Y-58166400D03*
D32*
X170891200Y-51866400D03*
D31*
X170891200Y-58166400D03*
X168591200Y-58166400D03*
D26*
X172770800Y-96912500D03*
X172770800Y-95087500D03*
D33*
X182543000Y-103683000D03*
X188043000Y-103683000D03*
X188043000Y-106883000D03*
X182543000Y-106883000D03*
D34*
X168275000Y-90050000D03*
X168275000Y-91950000D03*
D35*
X165087500Y-109000000D03*
X166912500Y-109000000D03*
D36*
X157607000Y-56348000D03*
X156337000Y-56348000D03*
X155067000Y-56348000D03*
X153797000Y-56348000D03*
X152527000Y-56348000D03*
X151257000Y-56348000D03*
X149987000Y-56348000D03*
X148717000Y-56348000D03*
X148717000Y-51348000D03*
X149987000Y-51348000D03*
X151257000Y-51348000D03*
X152527000Y-51348000D03*
X153797000Y-51348000D03*
X155067000Y-51348000D03*
X156337000Y-51348000D03*
X157607000Y-51348000D03*
D37*
X184465000Y-100330000D03*
X182565000Y-100330000D03*
D23*
X121886000Y-76250800D03*
X123986000Y-76250800D03*
D26*
X145338800Y-53912500D03*
X145338800Y-52087500D03*
D23*
X179036000Y-85801200D03*
X181136000Y-85801200D03*
X140936000Y-95377000D03*
X143036000Y-95377000D03*
D38*
X172715400Y-144106400D03*
D39*
X174015400Y-144106400D03*
D40*
X175315400Y-144106400D03*
D25*
X186055000Y-119441000D03*
X186055000Y-117541000D03*
D41*
X170815000Y-114935000D03*
X170815000Y-116760000D03*
D23*
X179163000Y-57200800D03*
X181263000Y-57200800D03*
D26*
X173990000Y-140815700D03*
X173990000Y-138990700D03*
X176479200Y-49831000D03*
X176479200Y-48006000D03*
D42*
X175900000Y-115189000D03*
X177800000Y-115189000D03*
D34*
X161163000Y-90050000D03*
X161163000Y-91950000D03*
D43*
X180700200Y-144111200D03*
D39*
X179400200Y-144111200D03*
D44*
X178100200Y-144111200D03*
D25*
X138781100Y-53950000D03*
X138781100Y-52050000D03*
D41*
X173355000Y-114935000D03*
X173355000Y-116760000D03*
D23*
X140936000Y-114427000D03*
X143036000Y-114427000D03*
D24*
X166912500Y-103000000D03*
X165087500Y-103000000D03*
D45*
X179730400Y-79136400D03*
D46*
X179730400Y-76596400D03*
X179730400Y-74056400D03*
X179730400Y-71516400D03*
D23*
X131411000Y-133477000D03*
X133511000Y-133477000D03*
D24*
X152958800Y-45669200D03*
X151133800Y-45669200D03*
D23*
X159986000Y-76250800D03*
X162086000Y-76250800D03*
D34*
X164846000Y-90050000D03*
X164846000Y-91950000D03*
D23*
X159986000Y-114427000D03*
X162086000Y-114427000D03*
D47*
X186454000Y-113919000D03*
X182354000Y-113919000D03*
D24*
X166912500Y-106000000D03*
X165087500Y-106000000D03*
D23*
X160113000Y-133477000D03*
X162213000Y-133477000D03*
X179036000Y-123952000D03*
X181136000Y-123952000D03*
D34*
X135128000Y-52050000D03*
X135128000Y-53950000D03*
X157861000Y-90050000D03*
X157861000Y-91950000D03*
D23*
X159986000Y-95377000D03*
X162086000Y-95377000D03*
D34*
X150749000Y-90050000D03*
X150749000Y-91950000D03*
D26*
X170180000Y-96912500D03*
X170180000Y-95087500D03*
D23*
X160113000Y-57200800D03*
X162213000Y-57200800D03*
D26*
X146862800Y-49782100D03*
X146862800Y-47957100D03*
D34*
X154432000Y-90050000D03*
X154432000Y-91950000D03*
D42*
X186161600Y-100330000D03*
X188061600Y-100330000D03*
M02*
