M48
; DRILL file {KiCad (6.0.6)} date Mon Sep 12 00:26:01 2022
; FORMAT={-:-/ absolute / metric / decimal}
; #@! TF.CreationDate,2022-09-12T00:26:01+02:00
; #@! TF.GenerationSoftware,Kicad,Pcbnew,(6.0.6)
; #@! TF.FileFunction,Plated,1,2,PTH
FMAT,2
METRIC
; #@! TA.AperFunction,Plated,PTH,ViaDrill
T1C0.400
; #@! TA.AperFunction,Plated,PTH,ComponentDrill
T2C0.450
; #@! TA.AperFunction,Plated,PTH,ComponentDrill
T3C0.900
; #@! TA.AperFunction,Plated,PTH,ComponentDrill
T4C1.000
; #@! TA.AperFunction,Plated,PTH,ComponentDrill
T5C1.500
; #@! TA.AperFunction,Plated,PTH,ComponentDrill
T6C2.300
%
G90
G05
T1
X126.035Y-39.421
X129.54Y-127.864
X130.597Y-41.646
X137.363Y-49.886
X137.668Y-86.766
X140.868Y-110.947
X141.58Y-44.552
X142.443Y-36.271
X142.443Y-39.827
X144.374Y-107.442
X145.075Y-50.941
X145.517Y-80.65
X146.304Y-86.97
X147.816Y-56.225
X148.488Y-49.225
X149.149Y-115.164
X149.911Y-53.238
X151.602Y-54.526
X152.4Y-128.981
X152.451Y-71.78
X152.451Y-81.991
X152.654Y-93.116
X152.756Y-102.159
X153.314Y-110.998
X153.63Y-109.099
X154.737Y-115.824
X155.499Y-44.298
X155.956Y-77.165
X156.442Y-115.156
X156.515Y-105.816
X156.99Y-54.854
X157.074Y-86.817
X157.378Y-112.725
X159.375Y-55.56
X160.122Y-127.61
X160.274Y-123.8
X160.278Y-96.222
X160.833Y-52.172
X161.6Y-97.164
X161.787Y-127.179
X163.442Y-79.119
X164.428Y-86.423
X164.99Y-51.046
X165.683Y-87.349
X166.37Y-59.131
X166.55Y-107.377
X166.914Y-91.206
X166.914Y-97.158
X166.954Y-116.459
X166.98Y-114.3
X167.386Y-84.074
X167.972Y-97.161
X168.046Y-111.862
X168.055Y-112.961
X168.097Y-108.102
X168.3Y-103.734
X168.3Y-104.902
X168.808Y-109.626
X169.113Y-117.907
X169.194Y-99.951
X169.418Y-108.712
X169.452Y-107.645
X169.56Y-113.054
X170.666Y-91.944
X170.744Y-99.408
X170.908Y-117.877
X171.659Y-89.084
X171.663Y-86.82
X172.314Y-112.979
X172.415Y-78.74
X172.415Y-84.734
X172.669Y-131.013
X173.177Y-105.308
X173.533Y-119.228
X173.883Y-98.659
X174.749Y-80.484
X174.883Y-105.228
X175.158Y-109.118
X175.504Y-81.202
X175.565Y-92.812
X175.565Y-98.704
X175.768Y-53.594
X175.87Y-106.324
X175.87Y-108.356
X175.883Y-104.025
X176.225Y-105.207
X176.936Y-120.244
X177.19Y-99.72
X177.521Y-107.036
X177.902Y-113.182
X178.16Y-50.827
X178.359Y-99.314
X179.299Y-111.658
X179.883Y-95.555
X181.799Y-101.56
X182.575Y-96.977
X186.487Y-94.945
X186.995Y-82.601
X187.044Y-138.073
T3
X141.376Y-48.0
X141.534Y-42.415
X143.916Y-48.0
X144.034Y-42.415
X146.034Y-42.415
X148.534Y-42.415
X156.662Y-48.0
X158.247Y-42.415
X159.202Y-48.0
X160.747Y-42.415
X162.747Y-42.415
X165.247Y-42.415
X171.044Y-48.0
X173.584Y-48.0
X174.904Y-42.469
X177.404Y-42.469
X179.404Y-42.469
X181.904Y-42.469
T4
X179.73Y-71.516
X179.73Y-74.056
X179.73Y-76.596
X179.73Y-79.136
T5
X120.04Y-59.741
X120.04Y-78.791
X120.04Y-97.892
X120.04Y-116.942
X126.39Y-57.201
X126.39Y-76.251
X126.39Y-95.352
X126.39Y-114.402
X129.54Y-135.992
X135.89Y-133.452
X139.09Y-59.741
X139.09Y-78.791
X139.09Y-97.892
X139.09Y-116.942
X145.44Y-57.201
X145.44Y-76.251
X145.44Y-95.352
X145.44Y-114.402
X158.14Y-59.741
X158.14Y-78.791
X158.14Y-97.892
X158.14Y-116.942
X158.14Y-135.992
X164.49Y-57.201
X164.49Y-76.251
X164.49Y-95.352
X164.49Y-114.402
X164.49Y-133.452
X177.19Y-59.741
X177.19Y-88.341
X177.19Y-126.441
X183.54Y-57.201
X183.54Y-85.801
X183.54Y-123.901
T6
X138.464Y-40.015
X151.604Y-40.015
X155.177Y-40.015
X168.317Y-40.015
X171.834Y-40.069
X184.974Y-40.069
T2
X129.072Y-37.382G85X129.072Y-36.582
G05
X134.722Y-36.582G85X134.722Y-37.382
G05
T0
M30
