M48
; DRILL file {KiCad 7.0.5-7.0.5~ubuntu22.04.1} date So 02 Jul 2023 16:02:57 CEST
; FORMAT={-:-/ absolute / metric / decimal}
; #@! TF.CreationDate,2023-07-02T16:02:57+02:00
; #@! TF.GenerationSoftware,Kicad,Pcbnew,7.0.5-7.0.5~ubuntu22.04.1
; #@! TF.FileFunction,NonPlated,1,2,NPTH
FMAT,2
METRIC
; #@! TA.AperFunction,NonPlated,NPTH,ComponentDrill
T1C0.550
; #@! TA.AperFunction,NonPlated,NPTH,ComponentDrill
T2C1.300
; #@! TA.AperFunction,NonPlated,NPTH,ComponentDrill
T3C1.750
; #@! TA.AperFunction,NonPlated,NPTH,ComponentDrill
T4C4.000
%
G90
G05
T1
X129.972Y-39.132
X133.822Y-39.132
T2
X121.615Y-36.191
X121.615Y-43.191
T3
X118.77Y-62.281
X118.77Y-81.331
X118.77Y-100.432
X118.77Y-119.482
X128.27Y-138.532
X128.93Y-62.281
X128.93Y-81.331
X128.93Y-100.432
X128.93Y-119.482
X137.82Y-62.281
X137.82Y-81.331
X137.82Y-100.432
X137.82Y-119.482
X138.43Y-138.532
X147.98Y-62.281
X147.98Y-81.331
X147.98Y-100.432
X147.98Y-119.482
X156.87Y-62.281
X156.87Y-81.331
X156.87Y-100.432
X156.87Y-119.482
X156.87Y-138.532
X167.03Y-62.281
X167.03Y-81.331
X167.03Y-100.432
X167.03Y-119.482
X167.03Y-138.532
X175.92Y-62.281
X175.92Y-90.881
X175.92Y-128.981
X186.08Y-62.281
X186.08Y-90.881
X186.08Y-128.981
T4
X123.85Y-62.281
X123.85Y-81.331
X123.85Y-100.432
X123.85Y-119.482
X133.35Y-138.532
X142.9Y-62.281
X142.9Y-81.331
X142.9Y-100.432
X142.9Y-119.482
X161.95Y-62.281
X161.95Y-81.331
X161.95Y-100.432
X161.95Y-119.482
X161.95Y-138.532
X181.0Y-62.281
X181.0Y-90.881
X181.0Y-128.981
T0
M30
