G04 #@! TF.GenerationSoftware,KiCad,Pcbnew,7.0.5-7.0.5~ubuntu22.04.1*
G04 #@! TF.CreationDate,2023-07-02T16:03:02+02:00*
G04 #@! TF.ProjectId,keyboard,6b657962-6f61-4726-942e-6b696361645f,v1.0*
G04 #@! TF.SameCoordinates,Original*
G04 #@! TF.FileFunction,Legend,Bot*
G04 #@! TF.FilePolarity,Positive*
%FSLAX46Y46*%
G04 Gerber Fmt 4.6, Leading zero omitted, Abs format (unit mm)*
G04 Created by KiCad (PCBNEW 7.0.5-7.0.5~ubuntu22.04.1) date 2023-07-02 16:03:02*
%MOMM*%
%LPD*%
G01*
G04 APERTURE LIST*
G04 Aperture macros list*
%AMRoundRect*
0 Rectangle with rounded corners*
0 $1 Rounding radius*
0 $2 $3 $4 $5 $6 $7 $8 $9 X,Y pos of 4 corners*
0 Add a 4 corners polygon primitive as box body*
4,1,4,$2,$3,$4,$5,$6,$7,$8,$9,$2,$3,0*
0 Add four circle primitives for the rounded corners*
1,1,$1+$1,$2,$3*
1,1,$1+$1,$4,$5*
1,1,$1+$1,$6,$7*
1,1,$1+$1,$8,$9*
0 Add four rect primitives between the rounded corners*
20,1,$1+$1,$2,$3,$4,$5,0*
20,1,$1+$1,$4,$5,$6,$7,0*
20,1,$1+$1,$6,$7,$8,$9,0*
20,1,$1+$1,$8,$9,$2,$3,0*%
G04 Aperture macros list end*
%ADD10C,0.300000*%
%ADD11C,0.150000*%
%ADD12C,0.120000*%
%ADD13C,5.600000*%
%ADD14C,1.750000*%
%ADD15C,4.000000*%
%ADD16C,2.500000*%
%ADD17R,1.300000X1.300000*%
%ADD18C,1.300000*%
%ADD19C,3.000000*%
%ADD20C,0.550000*%
%ADD21O,1.050000X1.900000*%
%ADD22R,1.300000X1.900000*%
%ADD23RoundRect,0.112500X-0.187500X-0.112500X0.187500X-0.112500X0.187500X0.112500X-0.187500X0.112500X0*%
%ADD24RoundRect,0.250000X0.262500X0.450000X-0.262500X0.450000X-0.262500X-0.450000X0.262500X-0.450000X0*%
%ADD25RoundRect,0.250000X-0.475000X0.250000X-0.475000X-0.250000X0.475000X-0.250000X0.475000X0.250000X0*%
%ADD26RoundRect,0.250000X0.475000X-0.250000X0.475000X0.250000X-0.475000X0.250000X-0.475000X-0.250000X0*%
%ADD27RoundRect,0.075000X0.662500X0.075000X-0.662500X0.075000X-0.662500X-0.075000X0.662500X-0.075000X0*%
%ADD28RoundRect,0.075000X0.075000X0.662500X-0.075000X0.662500X-0.075000X-0.662500X0.075000X-0.662500X0*%
%ADD29RoundRect,0.250000X0.650000X-0.325000X0.650000X0.325000X-0.650000X0.325000X-0.650000X-0.325000X0*%
%ADD30R,1.500000X2.000000*%
%ADD31R,3.800000X2.000000*%
%ADD32RoundRect,0.250000X0.450000X-0.262500X0.450000X0.262500X-0.450000X0.262500X-0.450000X-0.262500X0*%
%ADD33RoundRect,0.250000X-0.262500X-0.450000X0.262500X-0.450000X0.262500X0.450000X-0.262500X0.450000X0*%
%ADD34RoundRect,0.150000X0.150000X-0.850000X0.150000X0.850000X-0.150000X0.850000X-0.150000X-0.850000X0*%
%ADD35RoundRect,0.250000X0.250000X0.475000X-0.250000X0.475000X-0.250000X-0.475000X0.250000X-0.475000X0*%
%ADD36RoundRect,0.250000X-0.450000X0.262500X-0.450000X-0.262500X0.450000X-0.262500X0.450000X0.262500X0*%
%ADD37RoundRect,0.243750X-0.243750X-0.456250X0.243750X-0.456250X0.243750X0.456250X-0.243750X0.456250X0*%
%ADD38RoundRect,0.250000X-0.250000X-0.475000X0.250000X-0.475000X0.250000X0.475000X-0.250000X0.475000X0*%
%ADD39R,1.700000X1.700000*%
%ADD40O,1.700000X1.700000*%
%ADD41R,1.900000X2.400000*%
G04 APERTURE END LIST*
D10*
X188761050Y-105278375D02*
G75*
G03*
X188761050Y-105278375I-152926J0D01*
G01*
D11*
X124000000Y-45000000D02*
X125650000Y-45000000D01*
X126250000Y-45000000D02*
X127900000Y-45000000D01*
X128500000Y-45000000D02*
X130150000Y-45000000D01*
X130750000Y-45000000D02*
X132400000Y-45000000D01*
X133000000Y-45000000D02*
X134650000Y-45000000D01*
X135000000Y-45000000D02*
X135000000Y-46650000D01*
X135000000Y-47250000D02*
X135000000Y-48900000D01*
X135000000Y-49500000D02*
X135000000Y-51150000D01*
X135000000Y-51750000D02*
X135000000Y-53289268D01*
X135000000Y-53289268D02*
X133350000Y-53289268D01*
X132750000Y-53289268D02*
X131100000Y-53289268D01*
X130500000Y-53289268D02*
X128850000Y-53289268D01*
X128250000Y-53289268D02*
X126600000Y-53289268D01*
X126000000Y-53289268D02*
X124350000Y-53289268D01*
X124000000Y-53289268D02*
X124000000Y-51639268D01*
X124000000Y-51039268D02*
X124000000Y-49389268D01*
X124000000Y-48789268D02*
X124000000Y-47139268D01*
X124000000Y-46539268D02*
X124000000Y-45000000D01*
X182777042Y-109800149D02*
X184427042Y-109800149D01*
X185027042Y-109800149D02*
X186344366Y-109800149D01*
X186344366Y-109800149D02*
X186344366Y-111450149D01*
X186344366Y-111762177D02*
X184694366Y-111762177D01*
X184094366Y-111762177D02*
X182777042Y-111762177D01*
X182777042Y-111762177D02*
X182777042Y-110112177D01*
X149000000Y-87468349D02*
X150650000Y-87468349D01*
X151250000Y-87468349D02*
X152900000Y-87468349D01*
X153500000Y-87468349D02*
X155150000Y-87468349D01*
X155750000Y-87468349D02*
X157400000Y-87468349D01*
X158000000Y-87468349D02*
X159273915Y-87468349D01*
X159273915Y-87468349D02*
X159273915Y-89118349D01*
X159273915Y-89718349D02*
X159273915Y-91368349D01*
X159273915Y-91968349D02*
X159273915Y-93000000D01*
X159273915Y-93000000D02*
X157623915Y-93000000D01*
X157023915Y-93000000D02*
X155373915Y-93000000D01*
X154773915Y-93000000D02*
X153123915Y-93000000D01*
X152523915Y-93000000D02*
X150873915Y-93000000D01*
X150273915Y-93000000D02*
X149000000Y-93000000D01*
X149000000Y-93000000D02*
X149000000Y-91350000D01*
X149000000Y-90750000D02*
X149000000Y-89100000D01*
X149000000Y-88500000D02*
X149000000Y-87468349D01*
X178596732Y-137822465D02*
X178596732Y-138441512D01*
X178596732Y-138441512D02*
X178977684Y-138108179D01*
X178977684Y-138108179D02*
X178977684Y-138251036D01*
X178977684Y-138251036D02*
X179025303Y-138346274D01*
X179025303Y-138346274D02*
X179072922Y-138393893D01*
X179072922Y-138393893D02*
X179168160Y-138441512D01*
X179168160Y-138441512D02*
X179406255Y-138441512D01*
X179406255Y-138441512D02*
X179501493Y-138393893D01*
X179501493Y-138393893D02*
X179549113Y-138346274D01*
X179549113Y-138346274D02*
X179596732Y-138251036D01*
X179596732Y-138251036D02*
X179596732Y-137965322D01*
X179596732Y-137965322D02*
X179549113Y-137870084D01*
X179549113Y-137870084D02*
X179501493Y-137822465D01*
X178596732Y-138727227D02*
X179596732Y-139060560D01*
X179596732Y-139060560D02*
X178596732Y-139393893D01*
X178596732Y-139631989D02*
X178596732Y-140251036D01*
X178596732Y-140251036D02*
X178977684Y-139917703D01*
X178977684Y-139917703D02*
X178977684Y-140060560D01*
X178977684Y-140060560D02*
X179025303Y-140155798D01*
X179025303Y-140155798D02*
X179072922Y-140203417D01*
X179072922Y-140203417D02*
X179168160Y-140251036D01*
X179168160Y-140251036D02*
X179406255Y-140251036D01*
X179406255Y-140251036D02*
X179501493Y-140203417D01*
X179501493Y-140203417D02*
X179549113Y-140155798D01*
X179549113Y-140155798D02*
X179596732Y-140060560D01*
X179596732Y-140060560D02*
X179596732Y-139774846D01*
X179596732Y-139774846D02*
X179549113Y-139679608D01*
X179549113Y-139679608D02*
X179501493Y-139631989D01*
X183609648Y-71089174D02*
X183704886Y-71041555D01*
X183704886Y-71041555D02*
X183847743Y-71041555D01*
X183847743Y-71041555D02*
X183990600Y-71089174D01*
X183990600Y-71089174D02*
X184085838Y-71184412D01*
X184085838Y-71184412D02*
X184133457Y-71279650D01*
X184133457Y-71279650D02*
X184181076Y-71470126D01*
X184181076Y-71470126D02*
X184181076Y-71612983D01*
X184181076Y-71612983D02*
X184133457Y-71803459D01*
X184133457Y-71803459D02*
X184085838Y-71898697D01*
X184085838Y-71898697D02*
X183990600Y-71993936D01*
X183990600Y-71993936D02*
X183847743Y-72041555D01*
X183847743Y-72041555D02*
X183752505Y-72041555D01*
X183752505Y-72041555D02*
X183609648Y-71993936D01*
X183609648Y-71993936D02*
X183562029Y-71946316D01*
X183562029Y-71946316D02*
X183562029Y-71612983D01*
X183562029Y-71612983D02*
X183752505Y-71612983D01*
X183133457Y-72041555D02*
X183133457Y-71041555D01*
X183133457Y-71041555D02*
X182562029Y-72041555D01*
X182562029Y-72041555D02*
X182562029Y-71041555D01*
X182085838Y-72041555D02*
X182085838Y-71041555D01*
X182085838Y-71041555D02*
X181847743Y-71041555D01*
X181847743Y-71041555D02*
X181704886Y-71089174D01*
X181704886Y-71089174D02*
X181609648Y-71184412D01*
X181609648Y-71184412D02*
X181562029Y-71279650D01*
X181562029Y-71279650D02*
X181514410Y-71470126D01*
X181514410Y-71470126D02*
X181514410Y-71612983D01*
X181514410Y-71612983D02*
X181562029Y-71803459D01*
X181562029Y-71803459D02*
X181609648Y-71898697D01*
X181609648Y-71898697D02*
X181704886Y-71993936D01*
X181704886Y-71993936D02*
X181847743Y-72041555D01*
X181847743Y-72041555D02*
X182085838Y-72041555D01*
X176462834Y-139090812D02*
X176510453Y-139233669D01*
X176510453Y-139233669D02*
X176558072Y-139281288D01*
X176558072Y-139281288D02*
X176653310Y-139328907D01*
X176653310Y-139328907D02*
X176796167Y-139328907D01*
X176796167Y-139328907D02*
X176891405Y-139281288D01*
X176891405Y-139281288D02*
X176939025Y-139233669D01*
X176939025Y-139233669D02*
X176986644Y-139138431D01*
X176986644Y-139138431D02*
X176986644Y-138757479D01*
X176986644Y-138757479D02*
X175986644Y-138757479D01*
X175986644Y-138757479D02*
X175986644Y-139090812D01*
X175986644Y-139090812D02*
X176034263Y-139186050D01*
X176034263Y-139186050D02*
X176081882Y-139233669D01*
X176081882Y-139233669D02*
X176177120Y-139281288D01*
X176177120Y-139281288D02*
X176272358Y-139281288D01*
X176272358Y-139281288D02*
X176367596Y-139233669D01*
X176367596Y-139233669D02*
X176415215Y-139186050D01*
X176415215Y-139186050D02*
X176462834Y-139090812D01*
X176462834Y-139090812D02*
X176462834Y-138757479D01*
X175986644Y-139947955D02*
X175986644Y-140043193D01*
X175986644Y-140043193D02*
X176034263Y-140138431D01*
X176034263Y-140138431D02*
X176081882Y-140186050D01*
X176081882Y-140186050D02*
X176177120Y-140233669D01*
X176177120Y-140233669D02*
X176367596Y-140281288D01*
X176367596Y-140281288D02*
X176605691Y-140281288D01*
X176605691Y-140281288D02*
X176796167Y-140233669D01*
X176796167Y-140233669D02*
X176891405Y-140186050D01*
X176891405Y-140186050D02*
X176939025Y-140138431D01*
X176939025Y-140138431D02*
X176986644Y-140043193D01*
X176986644Y-140043193D02*
X176986644Y-139947955D01*
X176986644Y-139947955D02*
X176939025Y-139852717D01*
X176939025Y-139852717D02*
X176891405Y-139805098D01*
X176891405Y-139805098D02*
X176796167Y-139757479D01*
X176796167Y-139757479D02*
X176605691Y-139709860D01*
X176605691Y-139709860D02*
X176367596Y-139709860D01*
X176367596Y-139709860D02*
X176177120Y-139757479D01*
X176177120Y-139757479D02*
X176081882Y-139805098D01*
X176081882Y-139805098D02*
X176034263Y-139852717D01*
X176034263Y-139852717D02*
X175986644Y-139947955D01*
X170995345Y-138171775D02*
X170947726Y-138076537D01*
X170947726Y-138076537D02*
X170947726Y-137933680D01*
X170947726Y-137933680D02*
X170995345Y-137790823D01*
X170995345Y-137790823D02*
X171090583Y-137695585D01*
X171090583Y-137695585D02*
X171185821Y-137647966D01*
X171185821Y-137647966D02*
X171376297Y-137600347D01*
X171376297Y-137600347D02*
X171519154Y-137600347D01*
X171519154Y-137600347D02*
X171709630Y-137647966D01*
X171709630Y-137647966D02*
X171804868Y-137695585D01*
X171804868Y-137695585D02*
X171900107Y-137790823D01*
X171900107Y-137790823D02*
X171947726Y-137933680D01*
X171947726Y-137933680D02*
X171947726Y-138028918D01*
X171947726Y-138028918D02*
X171900107Y-138171775D01*
X171900107Y-138171775D02*
X171852487Y-138219394D01*
X171852487Y-138219394D02*
X171519154Y-138219394D01*
X171519154Y-138219394D02*
X171519154Y-138028918D01*
X171947726Y-138647966D02*
X170947726Y-138647966D01*
X170947726Y-138647966D02*
X171947726Y-139219394D01*
X171947726Y-139219394D02*
X170947726Y-139219394D01*
X171947726Y-139695585D02*
X170947726Y-139695585D01*
X170947726Y-139695585D02*
X170947726Y-139933680D01*
X170947726Y-139933680D02*
X170995345Y-140076537D01*
X170995345Y-140076537D02*
X171090583Y-140171775D01*
X171090583Y-140171775D02*
X171185821Y-140219394D01*
X171185821Y-140219394D02*
X171376297Y-140267013D01*
X171376297Y-140267013D02*
X171519154Y-140267013D01*
X171519154Y-140267013D02*
X171709630Y-140219394D01*
X171709630Y-140219394D02*
X171804868Y-140171775D01*
X171804868Y-140171775D02*
X171900107Y-140076537D01*
X171900107Y-140076537D02*
X171947726Y-139933680D01*
X171947726Y-139933680D02*
X171947726Y-139695585D01*
X184640796Y-77018354D02*
X184497939Y-77065973D01*
X184497939Y-77065973D02*
X184259844Y-77065973D01*
X184259844Y-77065973D02*
X184164606Y-77018354D01*
X184164606Y-77018354D02*
X184116987Y-76970734D01*
X184116987Y-76970734D02*
X184069368Y-76875496D01*
X184069368Y-76875496D02*
X184069368Y-76780258D01*
X184069368Y-76780258D02*
X184116987Y-76685020D01*
X184116987Y-76685020D02*
X184164606Y-76637401D01*
X184164606Y-76637401D02*
X184259844Y-76589782D01*
X184259844Y-76589782D02*
X184450320Y-76542163D01*
X184450320Y-76542163D02*
X184545558Y-76494544D01*
X184545558Y-76494544D02*
X184593177Y-76446925D01*
X184593177Y-76446925D02*
X184640796Y-76351687D01*
X184640796Y-76351687D02*
X184640796Y-76256449D01*
X184640796Y-76256449D02*
X184593177Y-76161211D01*
X184593177Y-76161211D02*
X184545558Y-76113592D01*
X184545558Y-76113592D02*
X184450320Y-76065973D01*
X184450320Y-76065973D02*
X184212225Y-76065973D01*
X184212225Y-76065973D02*
X184069368Y-76113592D01*
X183736034Y-76065973D02*
X183497939Y-77065973D01*
X183497939Y-77065973D02*
X183307463Y-76351687D01*
X183307463Y-76351687D02*
X183116987Y-77065973D01*
X183116987Y-77065973D02*
X182878892Y-76065973D01*
X182497939Y-77065973D02*
X182497939Y-76065973D01*
X181831273Y-76065973D02*
X181640797Y-76065973D01*
X181640797Y-76065973D02*
X181545559Y-76113592D01*
X181545559Y-76113592D02*
X181450321Y-76208830D01*
X181450321Y-76208830D02*
X181402702Y-76399306D01*
X181402702Y-76399306D02*
X181402702Y-76732639D01*
X181402702Y-76732639D02*
X181450321Y-76923115D01*
X181450321Y-76923115D02*
X181545559Y-77018354D01*
X181545559Y-77018354D02*
X181640797Y-77065973D01*
X181640797Y-77065973D02*
X181831273Y-77065973D01*
X181831273Y-77065973D02*
X181926511Y-77018354D01*
X181926511Y-77018354D02*
X182021749Y-76923115D01*
X182021749Y-76923115D02*
X182069368Y-76732639D01*
X182069368Y-76732639D02*
X182069368Y-76399306D01*
X182069368Y-76399306D02*
X182021749Y-76208830D01*
X182021749Y-76208830D02*
X181926511Y-76113592D01*
X181926511Y-76113592D02*
X181831273Y-76065973D01*
X183890082Y-78676060D02*
X183271035Y-78676060D01*
X183271035Y-78676060D02*
X183604368Y-79057012D01*
X183604368Y-79057012D02*
X183461511Y-79057012D01*
X183461511Y-79057012D02*
X183366273Y-79104631D01*
X183366273Y-79104631D02*
X183318654Y-79152250D01*
X183318654Y-79152250D02*
X183271035Y-79247488D01*
X183271035Y-79247488D02*
X183271035Y-79485583D01*
X183271035Y-79485583D02*
X183318654Y-79580821D01*
X183318654Y-79580821D02*
X183366273Y-79628441D01*
X183366273Y-79628441D02*
X183461511Y-79676060D01*
X183461511Y-79676060D02*
X183747225Y-79676060D01*
X183747225Y-79676060D02*
X183842463Y-79628441D01*
X183842463Y-79628441D02*
X183890082Y-79580821D01*
X182985320Y-78676060D02*
X182651987Y-79676060D01*
X182651987Y-79676060D02*
X182318654Y-78676060D01*
X182080558Y-78676060D02*
X181461511Y-78676060D01*
X181461511Y-78676060D02*
X181794844Y-79057012D01*
X181794844Y-79057012D02*
X181651987Y-79057012D01*
X181651987Y-79057012D02*
X181556749Y-79104631D01*
X181556749Y-79104631D02*
X181509130Y-79152250D01*
X181509130Y-79152250D02*
X181461511Y-79247488D01*
X181461511Y-79247488D02*
X181461511Y-79485583D01*
X181461511Y-79485583D02*
X181509130Y-79580821D01*
X181509130Y-79580821D02*
X181556749Y-79628441D01*
X181556749Y-79628441D02*
X181651987Y-79676060D01*
X181651987Y-79676060D02*
X181937701Y-79676060D01*
X181937701Y-79676060D02*
X182032939Y-79628441D01*
X182032939Y-79628441D02*
X182080558Y-79580821D01*
X186044930Y-74538771D02*
X185902073Y-74586390D01*
X185902073Y-74586390D02*
X185663978Y-74586390D01*
X185663978Y-74586390D02*
X185568740Y-74538771D01*
X185568740Y-74538771D02*
X185521121Y-74491151D01*
X185521121Y-74491151D02*
X185473502Y-74395913D01*
X185473502Y-74395913D02*
X185473502Y-74300675D01*
X185473502Y-74300675D02*
X185521121Y-74205437D01*
X185521121Y-74205437D02*
X185568740Y-74157818D01*
X185568740Y-74157818D02*
X185663978Y-74110199D01*
X185663978Y-74110199D02*
X185854454Y-74062580D01*
X185854454Y-74062580D02*
X185949692Y-74014961D01*
X185949692Y-74014961D02*
X185997311Y-73967342D01*
X185997311Y-73967342D02*
X186044930Y-73872104D01*
X186044930Y-73872104D02*
X186044930Y-73776866D01*
X186044930Y-73776866D02*
X185997311Y-73681628D01*
X185997311Y-73681628D02*
X185949692Y-73634009D01*
X185949692Y-73634009D02*
X185854454Y-73586390D01*
X185854454Y-73586390D02*
X185616359Y-73586390D01*
X185616359Y-73586390D02*
X185473502Y-73634009D01*
X185140168Y-73586390D02*
X184902073Y-74586390D01*
X184902073Y-74586390D02*
X184711597Y-73872104D01*
X184711597Y-73872104D02*
X184521121Y-74586390D01*
X184521121Y-74586390D02*
X184283026Y-73586390D01*
X183330645Y-74491151D02*
X183378264Y-74538771D01*
X183378264Y-74538771D02*
X183521121Y-74586390D01*
X183521121Y-74586390D02*
X183616359Y-74586390D01*
X183616359Y-74586390D02*
X183759216Y-74538771D01*
X183759216Y-74538771D02*
X183854454Y-74443532D01*
X183854454Y-74443532D02*
X183902073Y-74348294D01*
X183902073Y-74348294D02*
X183949692Y-74157818D01*
X183949692Y-74157818D02*
X183949692Y-74014961D01*
X183949692Y-74014961D02*
X183902073Y-73824485D01*
X183902073Y-73824485D02*
X183854454Y-73729247D01*
X183854454Y-73729247D02*
X183759216Y-73634009D01*
X183759216Y-73634009D02*
X183616359Y-73586390D01*
X183616359Y-73586390D02*
X183521121Y-73586390D01*
X183521121Y-73586390D02*
X183378264Y-73634009D01*
X183378264Y-73634009D02*
X183330645Y-73681628D01*
X182425883Y-74586390D02*
X182902073Y-74586390D01*
X182902073Y-74586390D02*
X182902073Y-73586390D01*
X182092549Y-74586390D02*
X182092549Y-73586390D01*
X181521121Y-74586390D02*
X181949692Y-74014961D01*
X181521121Y-73586390D02*
X182092549Y-74157818D01*
X173925250Y-139090812D02*
X173972869Y-139233669D01*
X173972869Y-139233669D02*
X174020488Y-139281288D01*
X174020488Y-139281288D02*
X174115726Y-139328907D01*
X174115726Y-139328907D02*
X174258583Y-139328907D01*
X174258583Y-139328907D02*
X174353821Y-139281288D01*
X174353821Y-139281288D02*
X174401441Y-139233669D01*
X174401441Y-139233669D02*
X174449060Y-139138431D01*
X174449060Y-139138431D02*
X174449060Y-138757479D01*
X174449060Y-138757479D02*
X173449060Y-138757479D01*
X173449060Y-138757479D02*
X173449060Y-139090812D01*
X173449060Y-139090812D02*
X173496679Y-139186050D01*
X173496679Y-139186050D02*
X173544298Y-139233669D01*
X173544298Y-139233669D02*
X173639536Y-139281288D01*
X173639536Y-139281288D02*
X173734774Y-139281288D01*
X173734774Y-139281288D02*
X173830012Y-139233669D01*
X173830012Y-139233669D02*
X173877631Y-139186050D01*
X173877631Y-139186050D02*
X173925250Y-139090812D01*
X173925250Y-139090812D02*
X173925250Y-138757479D01*
X174449060Y-140281288D02*
X174449060Y-139709860D01*
X174449060Y-139995574D02*
X173449060Y-139995574D01*
X173449060Y-139995574D02*
X173591917Y-139900336D01*
X173591917Y-139900336D02*
X173687155Y-139805098D01*
X173687155Y-139805098D02*
X173734774Y-139709860D01*
X133306573Y-50839637D02*
X133306573Y-49839637D01*
X133306573Y-49839637D02*
X132925621Y-49839637D01*
X132925621Y-49839637D02*
X132830383Y-49887256D01*
X132830383Y-49887256D02*
X132782764Y-49934875D01*
X132782764Y-49934875D02*
X132735145Y-50030113D01*
X132735145Y-50030113D02*
X132735145Y-50172970D01*
X132735145Y-50172970D02*
X132782764Y-50268208D01*
X132782764Y-50268208D02*
X132830383Y-50315827D01*
X132830383Y-50315827D02*
X132925621Y-50363446D01*
X132925621Y-50363446D02*
X133306573Y-50363446D01*
X132163716Y-50839637D02*
X132258954Y-50792018D01*
X132258954Y-50792018D02*
X132306573Y-50744398D01*
X132306573Y-50744398D02*
X132354192Y-50649160D01*
X132354192Y-50649160D02*
X132354192Y-50363446D01*
X132354192Y-50363446D02*
X132306573Y-50268208D01*
X132306573Y-50268208D02*
X132258954Y-50220589D01*
X132258954Y-50220589D02*
X132163716Y-50172970D01*
X132163716Y-50172970D02*
X132020859Y-50172970D01*
X132020859Y-50172970D02*
X131925621Y-50220589D01*
X131925621Y-50220589D02*
X131878002Y-50268208D01*
X131878002Y-50268208D02*
X131830383Y-50363446D01*
X131830383Y-50363446D02*
X131830383Y-50649160D01*
X131830383Y-50649160D02*
X131878002Y-50744398D01*
X131878002Y-50744398D02*
X131925621Y-50792018D01*
X131925621Y-50792018D02*
X132020859Y-50839637D01*
X132020859Y-50839637D02*
X132163716Y-50839637D01*
X131497049Y-50172970D02*
X131306573Y-50839637D01*
X131306573Y-50839637D02*
X131116097Y-50363446D01*
X131116097Y-50363446D02*
X130925621Y-50839637D01*
X130925621Y-50839637D02*
X130735145Y-50172970D01*
X129973240Y-50792018D02*
X130068478Y-50839637D01*
X130068478Y-50839637D02*
X130258954Y-50839637D01*
X130258954Y-50839637D02*
X130354192Y-50792018D01*
X130354192Y-50792018D02*
X130401811Y-50696779D01*
X130401811Y-50696779D02*
X130401811Y-50315827D01*
X130401811Y-50315827D02*
X130354192Y-50220589D01*
X130354192Y-50220589D02*
X130258954Y-50172970D01*
X130258954Y-50172970D02*
X130068478Y-50172970D01*
X130068478Y-50172970D02*
X129973240Y-50220589D01*
X129973240Y-50220589D02*
X129925621Y-50315827D01*
X129925621Y-50315827D02*
X129925621Y-50411065D01*
X129925621Y-50411065D02*
X130401811Y-50506303D01*
X129497049Y-50839637D02*
X129497049Y-50172970D01*
X129497049Y-50363446D02*
X129449430Y-50268208D01*
X129449430Y-50268208D02*
X129401811Y-50220589D01*
X129401811Y-50220589D02*
X129306573Y-50172970D01*
X129306573Y-50172970D02*
X129211335Y-50172970D01*
X127639906Y-50839637D02*
X128116096Y-50839637D01*
X128116096Y-50839637D02*
X128116096Y-49839637D01*
X127306572Y-50315827D02*
X126973239Y-50315827D01*
X126830382Y-50839637D02*
X127306572Y-50839637D01*
X127306572Y-50839637D02*
X127306572Y-49839637D01*
X127306572Y-49839637D02*
X126830382Y-49839637D01*
X126401810Y-50839637D02*
X126401810Y-49839637D01*
X126401810Y-49839637D02*
X126163715Y-49839637D01*
X126163715Y-49839637D02*
X126020858Y-49887256D01*
X126020858Y-49887256D02*
X125925620Y-49982494D01*
X125925620Y-49982494D02*
X125878001Y-50077732D01*
X125878001Y-50077732D02*
X125830382Y-50268208D01*
X125830382Y-50268208D02*
X125830382Y-50411065D01*
X125830382Y-50411065D02*
X125878001Y-50601541D01*
X125878001Y-50601541D02*
X125925620Y-50696779D01*
X125925620Y-50696779D02*
X126020858Y-50792018D01*
X126020858Y-50792018D02*
X126163715Y-50839637D01*
X126163715Y-50839637D02*
X126401810Y-50839637D01*
X133449430Y-51782970D02*
X133068478Y-51782970D01*
X133306573Y-52449637D02*
X133306573Y-51592494D01*
X133306573Y-51592494D02*
X133258954Y-51497256D01*
X133258954Y-51497256D02*
X133163716Y-51449637D01*
X133163716Y-51449637D02*
X133068478Y-51449637D01*
X132592287Y-52449637D02*
X132687525Y-52402018D01*
X132687525Y-52402018D02*
X132735144Y-52354398D01*
X132735144Y-52354398D02*
X132782763Y-52259160D01*
X132782763Y-52259160D02*
X132782763Y-51973446D01*
X132782763Y-51973446D02*
X132735144Y-51878208D01*
X132735144Y-51878208D02*
X132687525Y-51830589D01*
X132687525Y-51830589D02*
X132592287Y-51782970D01*
X132592287Y-51782970D02*
X132449430Y-51782970D01*
X132449430Y-51782970D02*
X132354192Y-51830589D01*
X132354192Y-51830589D02*
X132306573Y-51878208D01*
X132306573Y-51878208D02*
X132258954Y-51973446D01*
X132258954Y-51973446D02*
X132258954Y-52259160D01*
X132258954Y-52259160D02*
X132306573Y-52354398D01*
X132306573Y-52354398D02*
X132354192Y-52402018D01*
X132354192Y-52402018D02*
X132449430Y-52449637D01*
X132449430Y-52449637D02*
X132592287Y-52449637D01*
X131830382Y-52449637D02*
X131830382Y-51782970D01*
X131830382Y-51973446D02*
X131782763Y-51878208D01*
X131782763Y-51878208D02*
X131735144Y-51830589D01*
X131735144Y-51830589D02*
X131639906Y-51782970D01*
X131639906Y-51782970D02*
X131544668Y-51782970D01*
X130592286Y-51782970D02*
X130211334Y-51782970D01*
X130449429Y-51449637D02*
X130449429Y-52306779D01*
X130449429Y-52306779D02*
X130401810Y-52402018D01*
X130401810Y-52402018D02*
X130306572Y-52449637D01*
X130306572Y-52449637D02*
X130211334Y-52449637D01*
X129497048Y-52402018D02*
X129592286Y-52449637D01*
X129592286Y-52449637D02*
X129782762Y-52449637D01*
X129782762Y-52449637D02*
X129878000Y-52402018D01*
X129878000Y-52402018D02*
X129925619Y-52306779D01*
X129925619Y-52306779D02*
X129925619Y-51925827D01*
X129925619Y-51925827D02*
X129878000Y-51830589D01*
X129878000Y-51830589D02*
X129782762Y-51782970D01*
X129782762Y-51782970D02*
X129592286Y-51782970D01*
X129592286Y-51782970D02*
X129497048Y-51830589D01*
X129497048Y-51830589D02*
X129449429Y-51925827D01*
X129449429Y-51925827D02*
X129449429Y-52021065D01*
X129449429Y-52021065D02*
X129925619Y-52116303D01*
X129068476Y-52402018D02*
X128973238Y-52449637D01*
X128973238Y-52449637D02*
X128782762Y-52449637D01*
X128782762Y-52449637D02*
X128687524Y-52402018D01*
X128687524Y-52402018D02*
X128639905Y-52306779D01*
X128639905Y-52306779D02*
X128639905Y-52259160D01*
X128639905Y-52259160D02*
X128687524Y-52163922D01*
X128687524Y-52163922D02*
X128782762Y-52116303D01*
X128782762Y-52116303D02*
X128925619Y-52116303D01*
X128925619Y-52116303D02*
X129020857Y-52068684D01*
X129020857Y-52068684D02*
X129068476Y-51973446D01*
X129068476Y-51973446D02*
X129068476Y-51925827D01*
X129068476Y-51925827D02*
X129020857Y-51830589D01*
X129020857Y-51830589D02*
X128925619Y-51782970D01*
X128925619Y-51782970D02*
X128782762Y-51782970D01*
X128782762Y-51782970D02*
X128687524Y-51830589D01*
X128354190Y-51782970D02*
X127973238Y-51782970D01*
X128211333Y-51449637D02*
X128211333Y-52306779D01*
X128211333Y-52306779D02*
X128163714Y-52402018D01*
X128163714Y-52402018D02*
X128068476Y-52449637D01*
X128068476Y-52449637D02*
X127973238Y-52449637D01*
X127639904Y-52449637D02*
X127639904Y-51782970D01*
X127639904Y-51449637D02*
X127687523Y-51497256D01*
X127687523Y-51497256D02*
X127639904Y-51544875D01*
X127639904Y-51544875D02*
X127592285Y-51497256D01*
X127592285Y-51497256D02*
X127639904Y-51449637D01*
X127639904Y-51449637D02*
X127639904Y-51544875D01*
X127163714Y-51782970D02*
X127163714Y-52449637D01*
X127163714Y-51878208D02*
X127116095Y-51830589D01*
X127116095Y-51830589D02*
X127020857Y-51782970D01*
X127020857Y-51782970D02*
X126878000Y-51782970D01*
X126878000Y-51782970D02*
X126782762Y-51830589D01*
X126782762Y-51830589D02*
X126735143Y-51925827D01*
X126735143Y-51925827D02*
X126735143Y-52449637D01*
X125830381Y-51782970D02*
X125830381Y-52592494D01*
X125830381Y-52592494D02*
X125878000Y-52687732D01*
X125878000Y-52687732D02*
X125925619Y-52735351D01*
X125925619Y-52735351D02*
X126020857Y-52782970D01*
X126020857Y-52782970D02*
X126163714Y-52782970D01*
X126163714Y-52782970D02*
X126258952Y-52735351D01*
X125830381Y-52402018D02*
X125925619Y-52449637D01*
X125925619Y-52449637D02*
X126116095Y-52449637D01*
X126116095Y-52449637D02*
X126211333Y-52402018D01*
X126211333Y-52402018D02*
X126258952Y-52354398D01*
X126258952Y-52354398D02*
X126306571Y-52259160D01*
X126306571Y-52259160D02*
X126306571Y-51973446D01*
X126306571Y-51973446D02*
X126258952Y-51878208D01*
X126258952Y-51878208D02*
X126211333Y-51830589D01*
X126211333Y-51830589D02*
X126116095Y-51782970D01*
X126116095Y-51782970D02*
X125925619Y-51782970D01*
X125925619Y-51782970D02*
X125830381Y-51830589D01*
X125761523Y-103785200D02*
X125618666Y-103832819D01*
X125618666Y-103832819D02*
X125380571Y-103832819D01*
X125380571Y-103832819D02*
X125285333Y-103785200D01*
X125285333Y-103785200D02*
X125237714Y-103737580D01*
X125237714Y-103737580D02*
X125190095Y-103642342D01*
X125190095Y-103642342D02*
X125190095Y-103547104D01*
X125190095Y-103547104D02*
X125237714Y-103451866D01*
X125237714Y-103451866D02*
X125285333Y-103404247D01*
X125285333Y-103404247D02*
X125380571Y-103356628D01*
X125380571Y-103356628D02*
X125571047Y-103309009D01*
X125571047Y-103309009D02*
X125666285Y-103261390D01*
X125666285Y-103261390D02*
X125713904Y-103213771D01*
X125713904Y-103213771D02*
X125761523Y-103118533D01*
X125761523Y-103118533D02*
X125761523Y-103023295D01*
X125761523Y-103023295D02*
X125713904Y-102928057D01*
X125713904Y-102928057D02*
X125666285Y-102880438D01*
X125666285Y-102880438D02*
X125571047Y-102832819D01*
X125571047Y-102832819D02*
X125332952Y-102832819D01*
X125332952Y-102832819D02*
X125190095Y-102880438D01*
X124856761Y-102832819D02*
X124618666Y-103832819D01*
X124618666Y-103832819D02*
X124428190Y-103118533D01*
X124428190Y-103118533D02*
X124237714Y-103832819D01*
X124237714Y-103832819D02*
X123999619Y-102832819D01*
X123094857Y-103832819D02*
X123666285Y-103832819D01*
X123380571Y-103832819D02*
X123380571Y-102832819D01*
X123380571Y-102832819D02*
X123475809Y-102975676D01*
X123475809Y-102975676D02*
X123571047Y-103070914D01*
X123571047Y-103070914D02*
X123666285Y-103118533D01*
X122761523Y-102832819D02*
X122142476Y-102832819D01*
X122142476Y-102832819D02*
X122475809Y-103213771D01*
X122475809Y-103213771D02*
X122332952Y-103213771D01*
X122332952Y-103213771D02*
X122237714Y-103261390D01*
X122237714Y-103261390D02*
X122190095Y-103309009D01*
X122190095Y-103309009D02*
X122142476Y-103404247D01*
X122142476Y-103404247D02*
X122142476Y-103642342D01*
X122142476Y-103642342D02*
X122190095Y-103737580D01*
X122190095Y-103737580D02*
X122237714Y-103785200D01*
X122237714Y-103785200D02*
X122332952Y-103832819D01*
X122332952Y-103832819D02*
X122618666Y-103832819D01*
X122618666Y-103832819D02*
X122713904Y-103785200D01*
X122713904Y-103785200D02*
X122761523Y-103737580D01*
X124980532Y-65888400D02*
X124837675Y-65936019D01*
X124837675Y-65936019D02*
X124599580Y-65936019D01*
X124599580Y-65936019D02*
X124504342Y-65888400D01*
X124504342Y-65888400D02*
X124456723Y-65840780D01*
X124456723Y-65840780D02*
X124409104Y-65745542D01*
X124409104Y-65745542D02*
X124409104Y-65650304D01*
X124409104Y-65650304D02*
X124456723Y-65555066D01*
X124456723Y-65555066D02*
X124504342Y-65507447D01*
X124504342Y-65507447D02*
X124599580Y-65459828D01*
X124599580Y-65459828D02*
X124790056Y-65412209D01*
X124790056Y-65412209D02*
X124885294Y-65364590D01*
X124885294Y-65364590D02*
X124932913Y-65316971D01*
X124932913Y-65316971D02*
X124980532Y-65221733D01*
X124980532Y-65221733D02*
X124980532Y-65126495D01*
X124980532Y-65126495D02*
X124932913Y-65031257D01*
X124932913Y-65031257D02*
X124885294Y-64983638D01*
X124885294Y-64983638D02*
X124790056Y-64936019D01*
X124790056Y-64936019D02*
X124551961Y-64936019D01*
X124551961Y-64936019D02*
X124409104Y-64983638D01*
X124075770Y-64936019D02*
X123837675Y-65936019D01*
X123837675Y-65936019D02*
X123647199Y-65221733D01*
X123647199Y-65221733D02*
X123456723Y-65936019D01*
X123456723Y-65936019D02*
X123218628Y-64936019D01*
X122313866Y-65936019D02*
X122885294Y-65936019D01*
X122599580Y-65936019D02*
X122599580Y-64936019D01*
X122599580Y-64936019D02*
X122694818Y-65078876D01*
X122694818Y-65078876D02*
X122790056Y-65174114D01*
X122790056Y-65174114D02*
X122885294Y-65221733D01*
X163232932Y-142088400D02*
X163090075Y-142136019D01*
X163090075Y-142136019D02*
X162851980Y-142136019D01*
X162851980Y-142136019D02*
X162756742Y-142088400D01*
X162756742Y-142088400D02*
X162709123Y-142040780D01*
X162709123Y-142040780D02*
X162661504Y-141945542D01*
X162661504Y-141945542D02*
X162661504Y-141850304D01*
X162661504Y-141850304D02*
X162709123Y-141755066D01*
X162709123Y-141755066D02*
X162756742Y-141707447D01*
X162756742Y-141707447D02*
X162851980Y-141659828D01*
X162851980Y-141659828D02*
X163042456Y-141612209D01*
X163042456Y-141612209D02*
X163137694Y-141564590D01*
X163137694Y-141564590D02*
X163185313Y-141516971D01*
X163185313Y-141516971D02*
X163232932Y-141421733D01*
X163232932Y-141421733D02*
X163232932Y-141326495D01*
X163232932Y-141326495D02*
X163185313Y-141231257D01*
X163185313Y-141231257D02*
X163137694Y-141183638D01*
X163137694Y-141183638D02*
X163042456Y-141136019D01*
X163042456Y-141136019D02*
X162804361Y-141136019D01*
X162804361Y-141136019D02*
X162661504Y-141183638D01*
X162328170Y-141136019D02*
X162090075Y-142136019D01*
X162090075Y-142136019D02*
X161899599Y-141421733D01*
X161899599Y-141421733D02*
X161709123Y-142136019D01*
X161709123Y-142136019D02*
X161471028Y-141136019D01*
X160947218Y-141564590D02*
X161042456Y-141516971D01*
X161042456Y-141516971D02*
X161090075Y-141469352D01*
X161090075Y-141469352D02*
X161137694Y-141374114D01*
X161137694Y-141374114D02*
X161137694Y-141326495D01*
X161137694Y-141326495D02*
X161090075Y-141231257D01*
X161090075Y-141231257D02*
X161042456Y-141183638D01*
X161042456Y-141183638D02*
X160947218Y-141136019D01*
X160947218Y-141136019D02*
X160756742Y-141136019D01*
X160756742Y-141136019D02*
X160661504Y-141183638D01*
X160661504Y-141183638D02*
X160613885Y-141231257D01*
X160613885Y-141231257D02*
X160566266Y-141326495D01*
X160566266Y-141326495D02*
X160566266Y-141374114D01*
X160566266Y-141374114D02*
X160613885Y-141469352D01*
X160613885Y-141469352D02*
X160661504Y-141516971D01*
X160661504Y-141516971D02*
X160756742Y-141564590D01*
X160756742Y-141564590D02*
X160947218Y-141564590D01*
X160947218Y-141564590D02*
X161042456Y-141612209D01*
X161042456Y-141612209D02*
X161090075Y-141659828D01*
X161090075Y-141659828D02*
X161137694Y-141755066D01*
X161137694Y-141755066D02*
X161137694Y-141945542D01*
X161137694Y-141945542D02*
X161090075Y-142040780D01*
X161090075Y-142040780D02*
X161042456Y-142088400D01*
X161042456Y-142088400D02*
X160947218Y-142136019D01*
X160947218Y-142136019D02*
X160756742Y-142136019D01*
X160756742Y-142136019D02*
X160661504Y-142088400D01*
X160661504Y-142088400D02*
X160613885Y-142040780D01*
X160613885Y-142040780D02*
X160566266Y-141945542D01*
X160566266Y-141945542D02*
X160566266Y-141755066D01*
X160566266Y-141755066D02*
X160613885Y-141659828D01*
X160613885Y-141659828D02*
X160661504Y-141612209D01*
X160661504Y-141612209D02*
X160756742Y-141564590D01*
X163283732Y-84633600D02*
X163140875Y-84681219D01*
X163140875Y-84681219D02*
X162902780Y-84681219D01*
X162902780Y-84681219D02*
X162807542Y-84633600D01*
X162807542Y-84633600D02*
X162759923Y-84585980D01*
X162759923Y-84585980D02*
X162712304Y-84490742D01*
X162712304Y-84490742D02*
X162712304Y-84395504D01*
X162712304Y-84395504D02*
X162759923Y-84300266D01*
X162759923Y-84300266D02*
X162807542Y-84252647D01*
X162807542Y-84252647D02*
X162902780Y-84205028D01*
X162902780Y-84205028D02*
X163093256Y-84157409D01*
X163093256Y-84157409D02*
X163188494Y-84109790D01*
X163188494Y-84109790D02*
X163236113Y-84062171D01*
X163236113Y-84062171D02*
X163283732Y-83966933D01*
X163283732Y-83966933D02*
X163283732Y-83871695D01*
X163283732Y-83871695D02*
X163236113Y-83776457D01*
X163236113Y-83776457D02*
X163188494Y-83728838D01*
X163188494Y-83728838D02*
X163093256Y-83681219D01*
X163093256Y-83681219D02*
X162855161Y-83681219D01*
X162855161Y-83681219D02*
X162712304Y-83728838D01*
X162378970Y-83681219D02*
X162140875Y-84681219D01*
X162140875Y-84681219D02*
X161950399Y-83966933D01*
X161950399Y-83966933D02*
X161759923Y-84681219D01*
X161759923Y-84681219D02*
X161521828Y-83681219D01*
X160712304Y-83681219D02*
X160902780Y-83681219D01*
X160902780Y-83681219D02*
X160998018Y-83728838D01*
X160998018Y-83728838D02*
X161045637Y-83776457D01*
X161045637Y-83776457D02*
X161140875Y-83919314D01*
X161140875Y-83919314D02*
X161188494Y-84109790D01*
X161188494Y-84109790D02*
X161188494Y-84490742D01*
X161188494Y-84490742D02*
X161140875Y-84585980D01*
X161140875Y-84585980D02*
X161093256Y-84633600D01*
X161093256Y-84633600D02*
X160998018Y-84681219D01*
X160998018Y-84681219D02*
X160807542Y-84681219D01*
X160807542Y-84681219D02*
X160712304Y-84633600D01*
X160712304Y-84633600D02*
X160664685Y-84585980D01*
X160664685Y-84585980D02*
X160617066Y-84490742D01*
X160617066Y-84490742D02*
X160617066Y-84252647D01*
X160617066Y-84252647D02*
X160664685Y-84157409D01*
X160664685Y-84157409D02*
X160712304Y-84109790D01*
X160712304Y-84109790D02*
X160807542Y-84062171D01*
X160807542Y-84062171D02*
X160998018Y-84062171D01*
X160998018Y-84062171D02*
X161093256Y-84109790D01*
X161093256Y-84109790D02*
X161140875Y-84157409D01*
X161140875Y-84157409D02*
X161188494Y-84252647D01*
X125710723Y-84735200D02*
X125567866Y-84782819D01*
X125567866Y-84782819D02*
X125329771Y-84782819D01*
X125329771Y-84782819D02*
X125234533Y-84735200D01*
X125234533Y-84735200D02*
X125186914Y-84687580D01*
X125186914Y-84687580D02*
X125139295Y-84592342D01*
X125139295Y-84592342D02*
X125139295Y-84497104D01*
X125139295Y-84497104D02*
X125186914Y-84401866D01*
X125186914Y-84401866D02*
X125234533Y-84354247D01*
X125234533Y-84354247D02*
X125329771Y-84306628D01*
X125329771Y-84306628D02*
X125520247Y-84259009D01*
X125520247Y-84259009D02*
X125615485Y-84211390D01*
X125615485Y-84211390D02*
X125663104Y-84163771D01*
X125663104Y-84163771D02*
X125710723Y-84068533D01*
X125710723Y-84068533D02*
X125710723Y-83973295D01*
X125710723Y-83973295D02*
X125663104Y-83878057D01*
X125663104Y-83878057D02*
X125615485Y-83830438D01*
X125615485Y-83830438D02*
X125520247Y-83782819D01*
X125520247Y-83782819D02*
X125282152Y-83782819D01*
X125282152Y-83782819D02*
X125139295Y-83830438D01*
X124805961Y-83782819D02*
X124567866Y-84782819D01*
X124567866Y-84782819D02*
X124377390Y-84068533D01*
X124377390Y-84068533D02*
X124186914Y-84782819D01*
X124186914Y-84782819D02*
X123948819Y-83782819D01*
X123044057Y-84782819D02*
X123615485Y-84782819D01*
X123329771Y-84782819D02*
X123329771Y-83782819D01*
X123329771Y-83782819D02*
X123425009Y-83925676D01*
X123425009Y-83925676D02*
X123520247Y-84020914D01*
X123520247Y-84020914D02*
X123615485Y-84068533D01*
X122139295Y-83782819D02*
X122615485Y-83782819D01*
X122615485Y-83782819D02*
X122663104Y-84259009D01*
X122663104Y-84259009D02*
X122615485Y-84211390D01*
X122615485Y-84211390D02*
X122520247Y-84163771D01*
X122520247Y-84163771D02*
X122282152Y-84163771D01*
X122282152Y-84163771D02*
X122186914Y-84211390D01*
X122186914Y-84211390D02*
X122139295Y-84259009D01*
X122139295Y-84259009D02*
X122091676Y-84354247D01*
X122091676Y-84354247D02*
X122091676Y-84592342D01*
X122091676Y-84592342D02*
X122139295Y-84687580D01*
X122139295Y-84687580D02*
X122186914Y-84735200D01*
X122186914Y-84735200D02*
X122282152Y-84782819D01*
X122282152Y-84782819D02*
X122520247Y-84782819D01*
X122520247Y-84782819D02*
X122615485Y-84735200D01*
X122615485Y-84735200D02*
X122663104Y-84687580D01*
X134683332Y-142088400D02*
X134540475Y-142136019D01*
X134540475Y-142136019D02*
X134302380Y-142136019D01*
X134302380Y-142136019D02*
X134207142Y-142088400D01*
X134207142Y-142088400D02*
X134159523Y-142040780D01*
X134159523Y-142040780D02*
X134111904Y-141945542D01*
X134111904Y-141945542D02*
X134111904Y-141850304D01*
X134111904Y-141850304D02*
X134159523Y-141755066D01*
X134159523Y-141755066D02*
X134207142Y-141707447D01*
X134207142Y-141707447D02*
X134302380Y-141659828D01*
X134302380Y-141659828D02*
X134492856Y-141612209D01*
X134492856Y-141612209D02*
X134588094Y-141564590D01*
X134588094Y-141564590D02*
X134635713Y-141516971D01*
X134635713Y-141516971D02*
X134683332Y-141421733D01*
X134683332Y-141421733D02*
X134683332Y-141326495D01*
X134683332Y-141326495D02*
X134635713Y-141231257D01*
X134635713Y-141231257D02*
X134588094Y-141183638D01*
X134588094Y-141183638D02*
X134492856Y-141136019D01*
X134492856Y-141136019D02*
X134254761Y-141136019D01*
X134254761Y-141136019D02*
X134111904Y-141183638D01*
X133778570Y-141136019D02*
X133540475Y-142136019D01*
X133540475Y-142136019D02*
X133349999Y-141421733D01*
X133349999Y-141421733D02*
X133159523Y-142136019D01*
X133159523Y-142136019D02*
X132921428Y-141136019D01*
X132111904Y-141469352D02*
X132111904Y-142136019D01*
X132349999Y-141088400D02*
X132588094Y-141802685D01*
X132588094Y-141802685D02*
X131969047Y-141802685D01*
X162572532Y-103836000D02*
X162429675Y-103883619D01*
X162429675Y-103883619D02*
X162191580Y-103883619D01*
X162191580Y-103883619D02*
X162096342Y-103836000D01*
X162096342Y-103836000D02*
X162048723Y-103788380D01*
X162048723Y-103788380D02*
X162001104Y-103693142D01*
X162001104Y-103693142D02*
X162001104Y-103597904D01*
X162001104Y-103597904D02*
X162048723Y-103502666D01*
X162048723Y-103502666D02*
X162096342Y-103455047D01*
X162096342Y-103455047D02*
X162191580Y-103407428D01*
X162191580Y-103407428D02*
X162382056Y-103359809D01*
X162382056Y-103359809D02*
X162477294Y-103312190D01*
X162477294Y-103312190D02*
X162524913Y-103264571D01*
X162524913Y-103264571D02*
X162572532Y-103169333D01*
X162572532Y-103169333D02*
X162572532Y-103074095D01*
X162572532Y-103074095D02*
X162524913Y-102978857D01*
X162524913Y-102978857D02*
X162477294Y-102931238D01*
X162477294Y-102931238D02*
X162382056Y-102883619D01*
X162382056Y-102883619D02*
X162143961Y-102883619D01*
X162143961Y-102883619D02*
X162001104Y-102931238D01*
X161667770Y-102883619D02*
X161429675Y-103883619D01*
X161429675Y-103883619D02*
X161239199Y-103169333D01*
X161239199Y-103169333D02*
X161048723Y-103883619D01*
X161048723Y-103883619D02*
X160810628Y-102883619D01*
X160524913Y-102883619D02*
X159905866Y-102883619D01*
X159905866Y-102883619D02*
X160239199Y-103264571D01*
X160239199Y-103264571D02*
X160096342Y-103264571D01*
X160096342Y-103264571D02*
X160001104Y-103312190D01*
X160001104Y-103312190D02*
X159953485Y-103359809D01*
X159953485Y-103359809D02*
X159905866Y-103455047D01*
X159905866Y-103455047D02*
X159905866Y-103693142D01*
X159905866Y-103693142D02*
X159953485Y-103788380D01*
X159953485Y-103788380D02*
X160001104Y-103836000D01*
X160001104Y-103836000D02*
X160096342Y-103883619D01*
X160096342Y-103883619D02*
X160382056Y-103883619D01*
X160382056Y-103883619D02*
X160477294Y-103836000D01*
X160477294Y-103836000D02*
X160524913Y-103788380D01*
X163861523Y-122987600D02*
X163718666Y-123035219D01*
X163718666Y-123035219D02*
X163480571Y-123035219D01*
X163480571Y-123035219D02*
X163385333Y-122987600D01*
X163385333Y-122987600D02*
X163337714Y-122939980D01*
X163337714Y-122939980D02*
X163290095Y-122844742D01*
X163290095Y-122844742D02*
X163290095Y-122749504D01*
X163290095Y-122749504D02*
X163337714Y-122654266D01*
X163337714Y-122654266D02*
X163385333Y-122606647D01*
X163385333Y-122606647D02*
X163480571Y-122559028D01*
X163480571Y-122559028D02*
X163671047Y-122511409D01*
X163671047Y-122511409D02*
X163766285Y-122463790D01*
X163766285Y-122463790D02*
X163813904Y-122416171D01*
X163813904Y-122416171D02*
X163861523Y-122320933D01*
X163861523Y-122320933D02*
X163861523Y-122225695D01*
X163861523Y-122225695D02*
X163813904Y-122130457D01*
X163813904Y-122130457D02*
X163766285Y-122082838D01*
X163766285Y-122082838D02*
X163671047Y-122035219D01*
X163671047Y-122035219D02*
X163432952Y-122035219D01*
X163432952Y-122035219D02*
X163290095Y-122082838D01*
X162956761Y-122035219D02*
X162718666Y-123035219D01*
X162718666Y-123035219D02*
X162528190Y-122320933D01*
X162528190Y-122320933D02*
X162337714Y-123035219D01*
X162337714Y-123035219D02*
X162099619Y-122035219D01*
X161194857Y-123035219D02*
X161766285Y-123035219D01*
X161480571Y-123035219D02*
X161480571Y-122035219D01*
X161480571Y-122035219D02*
X161575809Y-122178076D01*
X161575809Y-122178076D02*
X161671047Y-122273314D01*
X161671047Y-122273314D02*
X161766285Y-122320933D01*
X160337714Y-122368552D02*
X160337714Y-123035219D01*
X160575809Y-121987600D02*
X160813904Y-122701885D01*
X160813904Y-122701885D02*
X160194857Y-122701885D01*
X144335332Y-84633600D02*
X144192475Y-84681219D01*
X144192475Y-84681219D02*
X143954380Y-84681219D01*
X143954380Y-84681219D02*
X143859142Y-84633600D01*
X143859142Y-84633600D02*
X143811523Y-84585980D01*
X143811523Y-84585980D02*
X143763904Y-84490742D01*
X143763904Y-84490742D02*
X143763904Y-84395504D01*
X143763904Y-84395504D02*
X143811523Y-84300266D01*
X143811523Y-84300266D02*
X143859142Y-84252647D01*
X143859142Y-84252647D02*
X143954380Y-84205028D01*
X143954380Y-84205028D02*
X144144856Y-84157409D01*
X144144856Y-84157409D02*
X144240094Y-84109790D01*
X144240094Y-84109790D02*
X144287713Y-84062171D01*
X144287713Y-84062171D02*
X144335332Y-83966933D01*
X144335332Y-83966933D02*
X144335332Y-83871695D01*
X144335332Y-83871695D02*
X144287713Y-83776457D01*
X144287713Y-83776457D02*
X144240094Y-83728838D01*
X144240094Y-83728838D02*
X144144856Y-83681219D01*
X144144856Y-83681219D02*
X143906761Y-83681219D01*
X143906761Y-83681219D02*
X143763904Y-83728838D01*
X143430570Y-83681219D02*
X143192475Y-84681219D01*
X143192475Y-84681219D02*
X143001999Y-83966933D01*
X143001999Y-83966933D02*
X142811523Y-84681219D01*
X142811523Y-84681219D02*
X142573428Y-83681219D01*
X142240094Y-83776457D02*
X142192475Y-83728838D01*
X142192475Y-83728838D02*
X142097237Y-83681219D01*
X142097237Y-83681219D02*
X141859142Y-83681219D01*
X141859142Y-83681219D02*
X141763904Y-83728838D01*
X141763904Y-83728838D02*
X141716285Y-83776457D01*
X141716285Y-83776457D02*
X141668666Y-83871695D01*
X141668666Y-83871695D02*
X141668666Y-83966933D01*
X141668666Y-83966933D02*
X141716285Y-84109790D01*
X141716285Y-84109790D02*
X142287713Y-84681219D01*
X142287713Y-84681219D02*
X141668666Y-84681219D01*
X182809923Y-66040800D02*
X182667066Y-66088419D01*
X182667066Y-66088419D02*
X182428971Y-66088419D01*
X182428971Y-66088419D02*
X182333733Y-66040800D01*
X182333733Y-66040800D02*
X182286114Y-65993180D01*
X182286114Y-65993180D02*
X182238495Y-65897942D01*
X182238495Y-65897942D02*
X182238495Y-65802704D01*
X182238495Y-65802704D02*
X182286114Y-65707466D01*
X182286114Y-65707466D02*
X182333733Y-65659847D01*
X182333733Y-65659847D02*
X182428971Y-65612228D01*
X182428971Y-65612228D02*
X182619447Y-65564609D01*
X182619447Y-65564609D02*
X182714685Y-65516990D01*
X182714685Y-65516990D02*
X182762304Y-65469371D01*
X182762304Y-65469371D02*
X182809923Y-65374133D01*
X182809923Y-65374133D02*
X182809923Y-65278895D01*
X182809923Y-65278895D02*
X182762304Y-65183657D01*
X182762304Y-65183657D02*
X182714685Y-65136038D01*
X182714685Y-65136038D02*
X182619447Y-65088419D01*
X182619447Y-65088419D02*
X182381352Y-65088419D01*
X182381352Y-65088419D02*
X182238495Y-65136038D01*
X181905161Y-65088419D02*
X181667066Y-66088419D01*
X181667066Y-66088419D02*
X181476590Y-65374133D01*
X181476590Y-65374133D02*
X181286114Y-66088419D01*
X181286114Y-66088419D02*
X181048019Y-65088419D01*
X180143257Y-66088419D02*
X180714685Y-66088419D01*
X180428971Y-66088419D02*
X180428971Y-65088419D01*
X180428971Y-65088419D02*
X180524209Y-65231276D01*
X180524209Y-65231276D02*
X180619447Y-65326514D01*
X180619447Y-65326514D02*
X180714685Y-65374133D01*
X179762304Y-65183657D02*
X179714685Y-65136038D01*
X179714685Y-65136038D02*
X179619447Y-65088419D01*
X179619447Y-65088419D02*
X179381352Y-65088419D01*
X179381352Y-65088419D02*
X179286114Y-65136038D01*
X179286114Y-65136038D02*
X179238495Y-65183657D01*
X179238495Y-65183657D02*
X179190876Y-65278895D01*
X179190876Y-65278895D02*
X179190876Y-65374133D01*
X179190876Y-65374133D02*
X179238495Y-65516990D01*
X179238495Y-65516990D02*
X179809923Y-66088419D01*
X179809923Y-66088419D02*
X179190876Y-66088419D01*
X182860723Y-132487200D02*
X182717866Y-132534819D01*
X182717866Y-132534819D02*
X182479771Y-132534819D01*
X182479771Y-132534819D02*
X182384533Y-132487200D01*
X182384533Y-132487200D02*
X182336914Y-132439580D01*
X182336914Y-132439580D02*
X182289295Y-132344342D01*
X182289295Y-132344342D02*
X182289295Y-132249104D01*
X182289295Y-132249104D02*
X182336914Y-132153866D01*
X182336914Y-132153866D02*
X182384533Y-132106247D01*
X182384533Y-132106247D02*
X182479771Y-132058628D01*
X182479771Y-132058628D02*
X182670247Y-132011009D01*
X182670247Y-132011009D02*
X182765485Y-131963390D01*
X182765485Y-131963390D02*
X182813104Y-131915771D01*
X182813104Y-131915771D02*
X182860723Y-131820533D01*
X182860723Y-131820533D02*
X182860723Y-131725295D01*
X182860723Y-131725295D02*
X182813104Y-131630057D01*
X182813104Y-131630057D02*
X182765485Y-131582438D01*
X182765485Y-131582438D02*
X182670247Y-131534819D01*
X182670247Y-131534819D02*
X182432152Y-131534819D01*
X182432152Y-131534819D02*
X182289295Y-131582438D01*
X181955961Y-131534819D02*
X181717866Y-132534819D01*
X181717866Y-132534819D02*
X181527390Y-131820533D01*
X181527390Y-131820533D02*
X181336914Y-132534819D01*
X181336914Y-132534819D02*
X181098819Y-131534819D01*
X180194057Y-132534819D02*
X180765485Y-132534819D01*
X180479771Y-132534819D02*
X180479771Y-131534819D01*
X180479771Y-131534819D02*
X180575009Y-131677676D01*
X180575009Y-131677676D02*
X180670247Y-131772914D01*
X180670247Y-131772914D02*
X180765485Y-131820533D01*
X179860723Y-131534819D02*
X179194057Y-131534819D01*
X179194057Y-131534819D02*
X179622628Y-132534819D01*
X144760723Y-103785200D02*
X144617866Y-103832819D01*
X144617866Y-103832819D02*
X144379771Y-103832819D01*
X144379771Y-103832819D02*
X144284533Y-103785200D01*
X144284533Y-103785200D02*
X144236914Y-103737580D01*
X144236914Y-103737580D02*
X144189295Y-103642342D01*
X144189295Y-103642342D02*
X144189295Y-103547104D01*
X144189295Y-103547104D02*
X144236914Y-103451866D01*
X144236914Y-103451866D02*
X144284533Y-103404247D01*
X144284533Y-103404247D02*
X144379771Y-103356628D01*
X144379771Y-103356628D02*
X144570247Y-103309009D01*
X144570247Y-103309009D02*
X144665485Y-103261390D01*
X144665485Y-103261390D02*
X144713104Y-103213771D01*
X144713104Y-103213771D02*
X144760723Y-103118533D01*
X144760723Y-103118533D02*
X144760723Y-103023295D01*
X144760723Y-103023295D02*
X144713104Y-102928057D01*
X144713104Y-102928057D02*
X144665485Y-102880438D01*
X144665485Y-102880438D02*
X144570247Y-102832819D01*
X144570247Y-102832819D02*
X144332152Y-102832819D01*
X144332152Y-102832819D02*
X144189295Y-102880438D01*
X143855961Y-102832819D02*
X143617866Y-103832819D01*
X143617866Y-103832819D02*
X143427390Y-103118533D01*
X143427390Y-103118533D02*
X143236914Y-103832819D01*
X143236914Y-103832819D02*
X142998819Y-102832819D01*
X142094057Y-103832819D02*
X142665485Y-103832819D01*
X142379771Y-103832819D02*
X142379771Y-102832819D01*
X142379771Y-102832819D02*
X142475009Y-102975676D01*
X142475009Y-102975676D02*
X142570247Y-103070914D01*
X142570247Y-103070914D02*
X142665485Y-103118533D01*
X141236914Y-102832819D02*
X141427390Y-102832819D01*
X141427390Y-102832819D02*
X141522628Y-102880438D01*
X141522628Y-102880438D02*
X141570247Y-102928057D01*
X141570247Y-102928057D02*
X141665485Y-103070914D01*
X141665485Y-103070914D02*
X141713104Y-103261390D01*
X141713104Y-103261390D02*
X141713104Y-103642342D01*
X141713104Y-103642342D02*
X141665485Y-103737580D01*
X141665485Y-103737580D02*
X141617866Y-103785200D01*
X141617866Y-103785200D02*
X141522628Y-103832819D01*
X141522628Y-103832819D02*
X141332152Y-103832819D01*
X141332152Y-103832819D02*
X141236914Y-103785200D01*
X141236914Y-103785200D02*
X141189295Y-103737580D01*
X141189295Y-103737580D02*
X141141676Y-103642342D01*
X141141676Y-103642342D02*
X141141676Y-103404247D01*
X141141676Y-103404247D02*
X141189295Y-103309009D01*
X141189295Y-103309009D02*
X141236914Y-103261390D01*
X141236914Y-103261390D02*
X141332152Y-103213771D01*
X141332152Y-103213771D02*
X141522628Y-103213771D01*
X141522628Y-103213771D02*
X141617866Y-103261390D01*
X141617866Y-103261390D02*
X141665485Y-103309009D01*
X141665485Y-103309009D02*
X141713104Y-103404247D01*
X163232932Y-66040800D02*
X163090075Y-66088419D01*
X163090075Y-66088419D02*
X162851980Y-66088419D01*
X162851980Y-66088419D02*
X162756742Y-66040800D01*
X162756742Y-66040800D02*
X162709123Y-65993180D01*
X162709123Y-65993180D02*
X162661504Y-65897942D01*
X162661504Y-65897942D02*
X162661504Y-65802704D01*
X162661504Y-65802704D02*
X162709123Y-65707466D01*
X162709123Y-65707466D02*
X162756742Y-65659847D01*
X162756742Y-65659847D02*
X162851980Y-65612228D01*
X162851980Y-65612228D02*
X163042456Y-65564609D01*
X163042456Y-65564609D02*
X163137694Y-65516990D01*
X163137694Y-65516990D02*
X163185313Y-65469371D01*
X163185313Y-65469371D02*
X163232932Y-65374133D01*
X163232932Y-65374133D02*
X163232932Y-65278895D01*
X163232932Y-65278895D02*
X163185313Y-65183657D01*
X163185313Y-65183657D02*
X163137694Y-65136038D01*
X163137694Y-65136038D02*
X163042456Y-65088419D01*
X163042456Y-65088419D02*
X162804361Y-65088419D01*
X162804361Y-65088419D02*
X162661504Y-65136038D01*
X162328170Y-65088419D02*
X162090075Y-66088419D01*
X162090075Y-66088419D02*
X161899599Y-65374133D01*
X161899599Y-65374133D02*
X161709123Y-66088419D01*
X161709123Y-66088419D02*
X161471028Y-65088419D01*
X161042456Y-66088419D02*
X160851980Y-66088419D01*
X160851980Y-66088419D02*
X160756742Y-66040800D01*
X160756742Y-66040800D02*
X160709123Y-65993180D01*
X160709123Y-65993180D02*
X160613885Y-65850323D01*
X160613885Y-65850323D02*
X160566266Y-65659847D01*
X160566266Y-65659847D02*
X160566266Y-65278895D01*
X160566266Y-65278895D02*
X160613885Y-65183657D01*
X160613885Y-65183657D02*
X160661504Y-65136038D01*
X160661504Y-65136038D02*
X160756742Y-65088419D01*
X160756742Y-65088419D02*
X160947218Y-65088419D01*
X160947218Y-65088419D02*
X161042456Y-65136038D01*
X161042456Y-65136038D02*
X161090075Y-65183657D01*
X161090075Y-65183657D02*
X161137694Y-65278895D01*
X161137694Y-65278895D02*
X161137694Y-65516990D01*
X161137694Y-65516990D02*
X161090075Y-65612228D01*
X161090075Y-65612228D02*
X161042456Y-65659847D01*
X161042456Y-65659847D02*
X160947218Y-65707466D01*
X160947218Y-65707466D02*
X160756742Y-65707466D01*
X160756742Y-65707466D02*
X160661504Y-65659847D01*
X160661504Y-65659847D02*
X160613885Y-65612228D01*
X160613885Y-65612228D02*
X160566266Y-65516990D01*
X125183732Y-123038400D02*
X125040875Y-123086019D01*
X125040875Y-123086019D02*
X124802780Y-123086019D01*
X124802780Y-123086019D02*
X124707542Y-123038400D01*
X124707542Y-123038400D02*
X124659923Y-122990780D01*
X124659923Y-122990780D02*
X124612304Y-122895542D01*
X124612304Y-122895542D02*
X124612304Y-122800304D01*
X124612304Y-122800304D02*
X124659923Y-122705066D01*
X124659923Y-122705066D02*
X124707542Y-122657447D01*
X124707542Y-122657447D02*
X124802780Y-122609828D01*
X124802780Y-122609828D02*
X124993256Y-122562209D01*
X124993256Y-122562209D02*
X125088494Y-122514590D01*
X125088494Y-122514590D02*
X125136113Y-122466971D01*
X125136113Y-122466971D02*
X125183732Y-122371733D01*
X125183732Y-122371733D02*
X125183732Y-122276495D01*
X125183732Y-122276495D02*
X125136113Y-122181257D01*
X125136113Y-122181257D02*
X125088494Y-122133638D01*
X125088494Y-122133638D02*
X124993256Y-122086019D01*
X124993256Y-122086019D02*
X124755161Y-122086019D01*
X124755161Y-122086019D02*
X124612304Y-122133638D01*
X124278970Y-122086019D02*
X124040875Y-123086019D01*
X124040875Y-123086019D02*
X123850399Y-122371733D01*
X123850399Y-122371733D02*
X123659923Y-123086019D01*
X123659923Y-123086019D02*
X123421828Y-122086019D01*
X123136113Y-122086019D02*
X122469447Y-122086019D01*
X122469447Y-122086019D02*
X122898018Y-123086019D01*
X144760723Y-123038400D02*
X144617866Y-123086019D01*
X144617866Y-123086019D02*
X144379771Y-123086019D01*
X144379771Y-123086019D02*
X144284533Y-123038400D01*
X144284533Y-123038400D02*
X144236914Y-122990780D01*
X144236914Y-122990780D02*
X144189295Y-122895542D01*
X144189295Y-122895542D02*
X144189295Y-122800304D01*
X144189295Y-122800304D02*
X144236914Y-122705066D01*
X144236914Y-122705066D02*
X144284533Y-122657447D01*
X144284533Y-122657447D02*
X144379771Y-122609828D01*
X144379771Y-122609828D02*
X144570247Y-122562209D01*
X144570247Y-122562209D02*
X144665485Y-122514590D01*
X144665485Y-122514590D02*
X144713104Y-122466971D01*
X144713104Y-122466971D02*
X144760723Y-122371733D01*
X144760723Y-122371733D02*
X144760723Y-122276495D01*
X144760723Y-122276495D02*
X144713104Y-122181257D01*
X144713104Y-122181257D02*
X144665485Y-122133638D01*
X144665485Y-122133638D02*
X144570247Y-122086019D01*
X144570247Y-122086019D02*
X144332152Y-122086019D01*
X144332152Y-122086019D02*
X144189295Y-122133638D01*
X143855961Y-122086019D02*
X143617866Y-123086019D01*
X143617866Y-123086019D02*
X143427390Y-122371733D01*
X143427390Y-122371733D02*
X143236914Y-123086019D01*
X143236914Y-123086019D02*
X142998819Y-122086019D01*
X142094057Y-123086019D02*
X142665485Y-123086019D01*
X142379771Y-123086019D02*
X142379771Y-122086019D01*
X142379771Y-122086019D02*
X142475009Y-122228876D01*
X142475009Y-122228876D02*
X142570247Y-122324114D01*
X142570247Y-122324114D02*
X142665485Y-122371733D01*
X141141676Y-123086019D02*
X141713104Y-123086019D01*
X141427390Y-123086019D02*
X141427390Y-122086019D01*
X141427390Y-122086019D02*
X141522628Y-122228876D01*
X141522628Y-122228876D02*
X141617866Y-122324114D01*
X141617866Y-122324114D02*
X141713104Y-122371733D01*
X182759123Y-94438000D02*
X182616266Y-94485619D01*
X182616266Y-94485619D02*
X182378171Y-94485619D01*
X182378171Y-94485619D02*
X182282933Y-94438000D01*
X182282933Y-94438000D02*
X182235314Y-94390380D01*
X182235314Y-94390380D02*
X182187695Y-94295142D01*
X182187695Y-94295142D02*
X182187695Y-94199904D01*
X182187695Y-94199904D02*
X182235314Y-94104666D01*
X182235314Y-94104666D02*
X182282933Y-94057047D01*
X182282933Y-94057047D02*
X182378171Y-94009428D01*
X182378171Y-94009428D02*
X182568647Y-93961809D01*
X182568647Y-93961809D02*
X182663885Y-93914190D01*
X182663885Y-93914190D02*
X182711504Y-93866571D01*
X182711504Y-93866571D02*
X182759123Y-93771333D01*
X182759123Y-93771333D02*
X182759123Y-93676095D01*
X182759123Y-93676095D02*
X182711504Y-93580857D01*
X182711504Y-93580857D02*
X182663885Y-93533238D01*
X182663885Y-93533238D02*
X182568647Y-93485619D01*
X182568647Y-93485619D02*
X182330552Y-93485619D01*
X182330552Y-93485619D02*
X182187695Y-93533238D01*
X181854361Y-93485619D02*
X181616266Y-94485619D01*
X181616266Y-94485619D02*
X181425790Y-93771333D01*
X181425790Y-93771333D02*
X181235314Y-94485619D01*
X181235314Y-94485619D02*
X180997219Y-93485619D01*
X180092457Y-94485619D02*
X180663885Y-94485619D01*
X180378171Y-94485619D02*
X180378171Y-93485619D01*
X180378171Y-93485619D02*
X180473409Y-93628476D01*
X180473409Y-93628476D02*
X180568647Y-93723714D01*
X180568647Y-93723714D02*
X180663885Y-93771333D01*
X179473409Y-93485619D02*
X179378171Y-93485619D01*
X179378171Y-93485619D02*
X179282933Y-93533238D01*
X179282933Y-93533238D02*
X179235314Y-93580857D01*
X179235314Y-93580857D02*
X179187695Y-93676095D01*
X179187695Y-93676095D02*
X179140076Y-93866571D01*
X179140076Y-93866571D02*
X179140076Y-94104666D01*
X179140076Y-94104666D02*
X179187695Y-94295142D01*
X179187695Y-94295142D02*
X179235314Y-94390380D01*
X179235314Y-94390380D02*
X179282933Y-94438000D01*
X179282933Y-94438000D02*
X179378171Y-94485619D01*
X179378171Y-94485619D02*
X179473409Y-94485619D01*
X179473409Y-94485619D02*
X179568647Y-94438000D01*
X179568647Y-94438000D02*
X179616266Y-94390380D01*
X179616266Y-94390380D02*
X179663885Y-94295142D01*
X179663885Y-94295142D02*
X179711504Y-94104666D01*
X179711504Y-94104666D02*
X179711504Y-93866571D01*
X179711504Y-93866571D02*
X179663885Y-93676095D01*
X179663885Y-93676095D02*
X179616266Y-93580857D01*
X179616266Y-93580857D02*
X179568647Y-93533238D01*
X179568647Y-93533238D02*
X179473409Y-93485619D01*
X144233732Y-65736000D02*
X144090875Y-65783619D01*
X144090875Y-65783619D02*
X143852780Y-65783619D01*
X143852780Y-65783619D02*
X143757542Y-65736000D01*
X143757542Y-65736000D02*
X143709923Y-65688380D01*
X143709923Y-65688380D02*
X143662304Y-65593142D01*
X143662304Y-65593142D02*
X143662304Y-65497904D01*
X143662304Y-65497904D02*
X143709923Y-65402666D01*
X143709923Y-65402666D02*
X143757542Y-65355047D01*
X143757542Y-65355047D02*
X143852780Y-65307428D01*
X143852780Y-65307428D02*
X144043256Y-65259809D01*
X144043256Y-65259809D02*
X144138494Y-65212190D01*
X144138494Y-65212190D02*
X144186113Y-65164571D01*
X144186113Y-65164571D02*
X144233732Y-65069333D01*
X144233732Y-65069333D02*
X144233732Y-64974095D01*
X144233732Y-64974095D02*
X144186113Y-64878857D01*
X144186113Y-64878857D02*
X144138494Y-64831238D01*
X144138494Y-64831238D02*
X144043256Y-64783619D01*
X144043256Y-64783619D02*
X143805161Y-64783619D01*
X143805161Y-64783619D02*
X143662304Y-64831238D01*
X143328970Y-64783619D02*
X143090875Y-65783619D01*
X143090875Y-65783619D02*
X142900399Y-65069333D01*
X142900399Y-65069333D02*
X142709923Y-65783619D01*
X142709923Y-65783619D02*
X142471828Y-64783619D01*
X141614685Y-64783619D02*
X142090875Y-64783619D01*
X142090875Y-64783619D02*
X142138494Y-65259809D01*
X142138494Y-65259809D02*
X142090875Y-65212190D01*
X142090875Y-65212190D02*
X141995637Y-65164571D01*
X141995637Y-65164571D02*
X141757542Y-65164571D01*
X141757542Y-65164571D02*
X141662304Y-65212190D01*
X141662304Y-65212190D02*
X141614685Y-65259809D01*
X141614685Y-65259809D02*
X141567066Y-65355047D01*
X141567066Y-65355047D02*
X141567066Y-65593142D01*
X141567066Y-65593142D02*
X141614685Y-65688380D01*
X141614685Y-65688380D02*
X141662304Y-65736000D01*
X141662304Y-65736000D02*
X141757542Y-65783619D01*
X141757542Y-65783619D02*
X141995637Y-65783619D01*
X141995637Y-65783619D02*
X142090875Y-65736000D01*
X142090875Y-65736000D02*
X142138494Y-65688380D01*
X188476190Y-108978628D02*
X188476190Y-109454819D01*
X188809523Y-108454819D02*
X188476190Y-108978628D01*
X188476190Y-108978628D02*
X188142857Y-108454819D01*
X187904761Y-108454819D02*
X187285714Y-108454819D01*
X187285714Y-108454819D02*
X187619047Y-108835771D01*
X187619047Y-108835771D02*
X187476190Y-108835771D01*
X187476190Y-108835771D02*
X187380952Y-108883390D01*
X187380952Y-108883390D02*
X187333333Y-108931009D01*
X187333333Y-108931009D02*
X187285714Y-109026247D01*
X187285714Y-109026247D02*
X187285714Y-109264342D01*
X187285714Y-109264342D02*
X187333333Y-109359580D01*
X187333333Y-109359580D02*
X187380952Y-109407200D01*
X187380952Y-109407200D02*
X187476190Y-109454819D01*
X187476190Y-109454819D02*
X187761904Y-109454819D01*
X187761904Y-109454819D02*
X187857142Y-109407200D01*
X187857142Y-109407200D02*
X187904761Y-109359580D01*
X142724094Y-59505619D02*
X142724094Y-58505619D01*
X142724094Y-58505619D02*
X142485999Y-58505619D01*
X142485999Y-58505619D02*
X142343142Y-58553238D01*
X142343142Y-58553238D02*
X142247904Y-58648476D01*
X142247904Y-58648476D02*
X142200285Y-58743714D01*
X142200285Y-58743714D02*
X142152666Y-58934190D01*
X142152666Y-58934190D02*
X142152666Y-59077047D01*
X142152666Y-59077047D02*
X142200285Y-59267523D01*
X142200285Y-59267523D02*
X142247904Y-59362761D01*
X142247904Y-59362761D02*
X142343142Y-59458000D01*
X142343142Y-59458000D02*
X142485999Y-59505619D01*
X142485999Y-59505619D02*
X142724094Y-59505619D01*
X141247904Y-58505619D02*
X141724094Y-58505619D01*
X141724094Y-58505619D02*
X141771713Y-58981809D01*
X141771713Y-58981809D02*
X141724094Y-58934190D01*
X141724094Y-58934190D02*
X141628856Y-58886571D01*
X141628856Y-58886571D02*
X141390761Y-58886571D01*
X141390761Y-58886571D02*
X141295523Y-58934190D01*
X141295523Y-58934190D02*
X141247904Y-58981809D01*
X141247904Y-58981809D02*
X141200285Y-59077047D01*
X141200285Y-59077047D02*
X141200285Y-59315142D01*
X141200285Y-59315142D02*
X141247904Y-59410380D01*
X141247904Y-59410380D02*
X141295523Y-59458000D01*
X141295523Y-59458000D02*
X141390761Y-59505619D01*
X141390761Y-59505619D02*
X141628856Y-59505619D01*
X141628856Y-59505619D02*
X141724094Y-59458000D01*
X141724094Y-59458000D02*
X141771713Y-59410380D01*
X184721166Y-109548819D02*
X185054499Y-109072628D01*
X185292594Y-109548819D02*
X185292594Y-108548819D01*
X185292594Y-108548819D02*
X184911642Y-108548819D01*
X184911642Y-108548819D02*
X184816404Y-108596438D01*
X184816404Y-108596438D02*
X184768785Y-108644057D01*
X184768785Y-108644057D02*
X184721166Y-108739295D01*
X184721166Y-108739295D02*
X184721166Y-108882152D01*
X184721166Y-108882152D02*
X184768785Y-108977390D01*
X184768785Y-108977390D02*
X184816404Y-109025009D01*
X184816404Y-109025009D02*
X184911642Y-109072628D01*
X184911642Y-109072628D02*
X185292594Y-109072628D01*
X184387832Y-108548819D02*
X183768785Y-108548819D01*
X183768785Y-108548819D02*
X184102118Y-108929771D01*
X184102118Y-108929771D02*
X183959261Y-108929771D01*
X183959261Y-108929771D02*
X183864023Y-108977390D01*
X183864023Y-108977390D02*
X183816404Y-109025009D01*
X183816404Y-109025009D02*
X183768785Y-109120247D01*
X183768785Y-109120247D02*
X183768785Y-109358342D01*
X183768785Y-109358342D02*
X183816404Y-109453580D01*
X183816404Y-109453580D02*
X183864023Y-109501200D01*
X183864023Y-109501200D02*
X183959261Y-109548819D01*
X183959261Y-109548819D02*
X184244975Y-109548819D01*
X184244975Y-109548819D02*
X184340213Y-109501200D01*
X184340213Y-109501200D02*
X184387832Y-109453580D01*
X140767180Y-52357142D02*
X140814800Y-52309523D01*
X140814800Y-52309523D02*
X140862419Y-52166666D01*
X140862419Y-52166666D02*
X140862419Y-52071428D01*
X140862419Y-52071428D02*
X140814800Y-51928571D01*
X140814800Y-51928571D02*
X140719561Y-51833333D01*
X140719561Y-51833333D02*
X140624323Y-51785714D01*
X140624323Y-51785714D02*
X140433847Y-51738095D01*
X140433847Y-51738095D02*
X140290990Y-51738095D01*
X140290990Y-51738095D02*
X140100514Y-51785714D01*
X140100514Y-51785714D02*
X140005276Y-51833333D01*
X140005276Y-51833333D02*
X139910038Y-51928571D01*
X139910038Y-51928571D02*
X139862419Y-52071428D01*
X139862419Y-52071428D02*
X139862419Y-52166666D01*
X139862419Y-52166666D02*
X139910038Y-52309523D01*
X139910038Y-52309523D02*
X139957657Y-52357142D01*
X140862419Y-53309523D02*
X140862419Y-52738095D01*
X140862419Y-53023809D02*
X139862419Y-53023809D01*
X139862419Y-53023809D02*
X140005276Y-52928571D01*
X140005276Y-52928571D02*
X140100514Y-52833333D01*
X140100514Y-52833333D02*
X140148133Y-52738095D01*
X140195752Y-54166666D02*
X140862419Y-54166666D01*
X139814800Y-53928571D02*
X140529085Y-53690476D01*
X140529085Y-53690476D02*
X140529085Y-54309523D01*
X142724094Y-78555619D02*
X142724094Y-77555619D01*
X142724094Y-77555619D02*
X142485999Y-77555619D01*
X142485999Y-77555619D02*
X142343142Y-77603238D01*
X142343142Y-77603238D02*
X142247904Y-77698476D01*
X142247904Y-77698476D02*
X142200285Y-77793714D01*
X142200285Y-77793714D02*
X142152666Y-77984190D01*
X142152666Y-77984190D02*
X142152666Y-78127047D01*
X142152666Y-78127047D02*
X142200285Y-78317523D01*
X142200285Y-78317523D02*
X142247904Y-78412761D01*
X142247904Y-78412761D02*
X142343142Y-78508000D01*
X142343142Y-78508000D02*
X142485999Y-78555619D01*
X142485999Y-78555619D02*
X142724094Y-78555619D01*
X141771713Y-77650857D02*
X141724094Y-77603238D01*
X141724094Y-77603238D02*
X141628856Y-77555619D01*
X141628856Y-77555619D02*
X141390761Y-77555619D01*
X141390761Y-77555619D02*
X141295523Y-77603238D01*
X141295523Y-77603238D02*
X141247904Y-77650857D01*
X141247904Y-77650857D02*
X141200285Y-77746095D01*
X141200285Y-77746095D02*
X141200285Y-77841333D01*
X141200285Y-77841333D02*
X141247904Y-77984190D01*
X141247904Y-77984190D02*
X141819332Y-78555619D01*
X141819332Y-78555619D02*
X141200285Y-78555619D01*
X123420094Y-59505619D02*
X123420094Y-58505619D01*
X123420094Y-58505619D02*
X123181999Y-58505619D01*
X123181999Y-58505619D02*
X123039142Y-58553238D01*
X123039142Y-58553238D02*
X122943904Y-58648476D01*
X122943904Y-58648476D02*
X122896285Y-58743714D01*
X122896285Y-58743714D02*
X122848666Y-58934190D01*
X122848666Y-58934190D02*
X122848666Y-59077047D01*
X122848666Y-59077047D02*
X122896285Y-59267523D01*
X122896285Y-59267523D02*
X122943904Y-59362761D01*
X122943904Y-59362761D02*
X123039142Y-59458000D01*
X123039142Y-59458000D02*
X123181999Y-59505619D01*
X123181999Y-59505619D02*
X123420094Y-59505619D01*
X121896285Y-59505619D02*
X122467713Y-59505619D01*
X122181999Y-59505619D02*
X122181999Y-58505619D01*
X122181999Y-58505619D02*
X122277237Y-58648476D01*
X122277237Y-58648476D02*
X122372475Y-58743714D01*
X122372475Y-58743714D02*
X122467713Y-58791333D01*
X123674094Y-116731819D02*
X123674094Y-115731819D01*
X123674094Y-115731819D02*
X123435999Y-115731819D01*
X123435999Y-115731819D02*
X123293142Y-115779438D01*
X123293142Y-115779438D02*
X123197904Y-115874676D01*
X123197904Y-115874676D02*
X123150285Y-115969914D01*
X123150285Y-115969914D02*
X123102666Y-116160390D01*
X123102666Y-116160390D02*
X123102666Y-116303247D01*
X123102666Y-116303247D02*
X123150285Y-116493723D01*
X123150285Y-116493723D02*
X123197904Y-116588961D01*
X123197904Y-116588961D02*
X123293142Y-116684200D01*
X123293142Y-116684200D02*
X123435999Y-116731819D01*
X123435999Y-116731819D02*
X123674094Y-116731819D01*
X122769332Y-115731819D02*
X122102666Y-115731819D01*
X122102666Y-115731819D02*
X122531237Y-116731819D01*
X184919580Y-118324333D02*
X184967200Y-118276714D01*
X184967200Y-118276714D02*
X185014819Y-118133857D01*
X185014819Y-118133857D02*
X185014819Y-118038619D01*
X185014819Y-118038619D02*
X184967200Y-117895762D01*
X184967200Y-117895762D02*
X184871961Y-117800524D01*
X184871961Y-117800524D02*
X184776723Y-117752905D01*
X184776723Y-117752905D02*
X184586247Y-117705286D01*
X184586247Y-117705286D02*
X184443390Y-117705286D01*
X184443390Y-117705286D02*
X184252914Y-117752905D01*
X184252914Y-117752905D02*
X184157676Y-117800524D01*
X184157676Y-117800524D02*
X184062438Y-117895762D01*
X184062438Y-117895762D02*
X184014819Y-118038619D01*
X184014819Y-118038619D02*
X184014819Y-118133857D01*
X184014819Y-118133857D02*
X184062438Y-118276714D01*
X184062438Y-118276714D02*
X184110057Y-118324333D01*
X185014819Y-119276714D02*
X185014819Y-118705286D01*
X185014819Y-118991000D02*
X184014819Y-118991000D01*
X184014819Y-118991000D02*
X184157676Y-118895762D01*
X184157676Y-118895762D02*
X184252914Y-118800524D01*
X184252914Y-118800524D02*
X184300533Y-118705286D01*
X124150285Y-97681819D02*
X124150285Y-96681819D01*
X124150285Y-96681819D02*
X123912190Y-96681819D01*
X123912190Y-96681819D02*
X123769333Y-96729438D01*
X123769333Y-96729438D02*
X123674095Y-96824676D01*
X123674095Y-96824676D02*
X123626476Y-96919914D01*
X123626476Y-96919914D02*
X123578857Y-97110390D01*
X123578857Y-97110390D02*
X123578857Y-97253247D01*
X123578857Y-97253247D02*
X123626476Y-97443723D01*
X123626476Y-97443723D02*
X123674095Y-97538961D01*
X123674095Y-97538961D02*
X123769333Y-97634200D01*
X123769333Y-97634200D02*
X123912190Y-97681819D01*
X123912190Y-97681819D02*
X124150285Y-97681819D01*
X122626476Y-97681819D02*
X123197904Y-97681819D01*
X122912190Y-97681819D02*
X122912190Y-96681819D01*
X122912190Y-96681819D02*
X123007428Y-96824676D01*
X123007428Y-96824676D02*
X123102666Y-96919914D01*
X123102666Y-96919914D02*
X123197904Y-96967533D01*
X122293142Y-96681819D02*
X121674095Y-96681819D01*
X121674095Y-96681819D02*
X122007428Y-97062771D01*
X122007428Y-97062771D02*
X121864571Y-97062771D01*
X121864571Y-97062771D02*
X121769333Y-97110390D01*
X121769333Y-97110390D02*
X121721714Y-97158009D01*
X121721714Y-97158009D02*
X121674095Y-97253247D01*
X121674095Y-97253247D02*
X121674095Y-97491342D01*
X121674095Y-97491342D02*
X121721714Y-97586580D01*
X121721714Y-97586580D02*
X121769333Y-97634200D01*
X121769333Y-97634200D02*
X121864571Y-97681819D01*
X121864571Y-97681819D02*
X122150285Y-97681819D01*
X122150285Y-97681819D02*
X122245523Y-97634200D01*
X122245523Y-97634200D02*
X122293142Y-97586580D01*
X175894904Y-100284819D02*
X175894904Y-101094342D01*
X175894904Y-101094342D02*
X175847285Y-101189580D01*
X175847285Y-101189580D02*
X175799666Y-101237200D01*
X175799666Y-101237200D02*
X175704428Y-101284819D01*
X175704428Y-101284819D02*
X175513952Y-101284819D01*
X175513952Y-101284819D02*
X175418714Y-101237200D01*
X175418714Y-101237200D02*
X175371095Y-101189580D01*
X175371095Y-101189580D02*
X175323476Y-101094342D01*
X175323476Y-101094342D02*
X175323476Y-100284819D01*
X174323476Y-101284819D02*
X174894904Y-101284819D01*
X174609190Y-101284819D02*
X174609190Y-100284819D01*
X174609190Y-100284819D02*
X174704428Y-100427676D01*
X174704428Y-100427676D02*
X174799666Y-100522914D01*
X174799666Y-100522914D02*
X174894904Y-100570533D01*
X178544457Y-49024180D02*
X178592076Y-49071800D01*
X178592076Y-49071800D02*
X178734933Y-49119419D01*
X178734933Y-49119419D02*
X178830171Y-49119419D01*
X178830171Y-49119419D02*
X178973028Y-49071800D01*
X178973028Y-49071800D02*
X179068266Y-48976561D01*
X179068266Y-48976561D02*
X179115885Y-48881323D01*
X179115885Y-48881323D02*
X179163504Y-48690847D01*
X179163504Y-48690847D02*
X179163504Y-48547990D01*
X179163504Y-48547990D02*
X179115885Y-48357514D01*
X179115885Y-48357514D02*
X179068266Y-48262276D01*
X179068266Y-48262276D02*
X178973028Y-48167038D01*
X178973028Y-48167038D02*
X178830171Y-48119419D01*
X178830171Y-48119419D02*
X178734933Y-48119419D01*
X178734933Y-48119419D02*
X178592076Y-48167038D01*
X178592076Y-48167038D02*
X178544457Y-48214657D01*
X177592076Y-49119419D02*
X178163504Y-49119419D01*
X177877790Y-49119419D02*
X177877790Y-48119419D01*
X177877790Y-48119419D02*
X177973028Y-48262276D01*
X177973028Y-48262276D02*
X178068266Y-48357514D01*
X178068266Y-48357514D02*
X178163504Y-48405133D01*
X177211123Y-48214657D02*
X177163504Y-48167038D01*
X177163504Y-48167038D02*
X177068266Y-48119419D01*
X177068266Y-48119419D02*
X176830171Y-48119419D01*
X176830171Y-48119419D02*
X176734933Y-48167038D01*
X176734933Y-48167038D02*
X176687314Y-48214657D01*
X176687314Y-48214657D02*
X176639695Y-48309895D01*
X176639695Y-48309895D02*
X176639695Y-48405133D01*
X176639695Y-48405133D02*
X176687314Y-48547990D01*
X176687314Y-48547990D02*
X177258742Y-49119419D01*
X177258742Y-49119419D02*
X176639695Y-49119419D01*
X166653258Y-49989617D02*
X166700878Y-49941998D01*
X166700878Y-49941998D02*
X166748497Y-49799141D01*
X166748497Y-49799141D02*
X166748497Y-49703903D01*
X166748497Y-49703903D02*
X166700878Y-49561046D01*
X166700878Y-49561046D02*
X166605639Y-49465808D01*
X166605639Y-49465808D02*
X166510401Y-49418189D01*
X166510401Y-49418189D02*
X166319925Y-49370570D01*
X166319925Y-49370570D02*
X166177068Y-49370570D01*
X166177068Y-49370570D02*
X165986592Y-49418189D01*
X165986592Y-49418189D02*
X165891354Y-49465808D01*
X165891354Y-49465808D02*
X165796116Y-49561046D01*
X165796116Y-49561046D02*
X165748497Y-49703903D01*
X165748497Y-49703903D02*
X165748497Y-49799141D01*
X165748497Y-49799141D02*
X165796116Y-49941998D01*
X165796116Y-49941998D02*
X165843735Y-49989617D01*
X166748497Y-50941998D02*
X166748497Y-50370570D01*
X166748497Y-50656284D02*
X165748497Y-50656284D01*
X165748497Y-50656284D02*
X165891354Y-50561046D01*
X165891354Y-50561046D02*
X165986592Y-50465808D01*
X165986592Y-50465808D02*
X166034211Y-50370570D01*
X165748497Y-51275332D02*
X165748497Y-51894379D01*
X165748497Y-51894379D02*
X166129449Y-51561046D01*
X166129449Y-51561046D02*
X166129449Y-51703903D01*
X166129449Y-51703903D02*
X166177068Y-51799141D01*
X166177068Y-51799141D02*
X166224687Y-51846760D01*
X166224687Y-51846760D02*
X166319925Y-51894379D01*
X166319925Y-51894379D02*
X166558020Y-51894379D01*
X166558020Y-51894379D02*
X166653258Y-51846760D01*
X166653258Y-51846760D02*
X166700878Y-51799141D01*
X166700878Y-51799141D02*
X166748497Y-51703903D01*
X166748497Y-51703903D02*
X166748497Y-51418189D01*
X166748497Y-51418189D02*
X166700878Y-51322951D01*
X166700878Y-51322951D02*
X166653258Y-51275332D01*
X180099619Y-52476095D02*
X180909142Y-52476095D01*
X180909142Y-52476095D02*
X181004380Y-52523714D01*
X181004380Y-52523714D02*
X181052000Y-52571333D01*
X181052000Y-52571333D02*
X181099619Y-52666571D01*
X181099619Y-52666571D02*
X181099619Y-52857047D01*
X181099619Y-52857047D02*
X181052000Y-52952285D01*
X181052000Y-52952285D02*
X181004380Y-52999904D01*
X181004380Y-52999904D02*
X180909142Y-53047523D01*
X180909142Y-53047523D02*
X180099619Y-53047523D01*
X180194857Y-53476095D02*
X180147238Y-53523714D01*
X180147238Y-53523714D02*
X180099619Y-53618952D01*
X180099619Y-53618952D02*
X180099619Y-53857047D01*
X180099619Y-53857047D02*
X180147238Y-53952285D01*
X180147238Y-53952285D02*
X180194857Y-53999904D01*
X180194857Y-53999904D02*
X180290095Y-54047523D01*
X180290095Y-54047523D02*
X180385333Y-54047523D01*
X180385333Y-54047523D02*
X180528190Y-53999904D01*
X180528190Y-53999904D02*
X181099619Y-53428476D01*
X181099619Y-53428476D02*
X181099619Y-54047523D01*
X172912066Y-98895119D02*
X173245399Y-98418928D01*
X173483494Y-98895119D02*
X173483494Y-97895119D01*
X173483494Y-97895119D02*
X173102542Y-97895119D01*
X173102542Y-97895119D02*
X173007304Y-97942738D01*
X173007304Y-97942738D02*
X172959685Y-97990357D01*
X172959685Y-97990357D02*
X172912066Y-98085595D01*
X172912066Y-98085595D02*
X172912066Y-98228452D01*
X172912066Y-98228452D02*
X172959685Y-98323690D01*
X172959685Y-98323690D02*
X173007304Y-98371309D01*
X173007304Y-98371309D02*
X173102542Y-98418928D01*
X173102542Y-98418928D02*
X173483494Y-98418928D01*
X172578732Y-97895119D02*
X171912066Y-97895119D01*
X171912066Y-97895119D02*
X172340637Y-98895119D01*
X168390854Y-88859580D02*
X168438473Y-88907200D01*
X168438473Y-88907200D02*
X168581330Y-88954819D01*
X168581330Y-88954819D02*
X168676568Y-88954819D01*
X168676568Y-88954819D02*
X168819425Y-88907200D01*
X168819425Y-88907200D02*
X168914663Y-88811961D01*
X168914663Y-88811961D02*
X168962282Y-88716723D01*
X168962282Y-88716723D02*
X169009901Y-88526247D01*
X169009901Y-88526247D02*
X169009901Y-88383390D01*
X169009901Y-88383390D02*
X168962282Y-88192914D01*
X168962282Y-88192914D02*
X168914663Y-88097676D01*
X168914663Y-88097676D02*
X168819425Y-88002438D01*
X168819425Y-88002438D02*
X168676568Y-87954819D01*
X168676568Y-87954819D02*
X168581330Y-87954819D01*
X168581330Y-87954819D02*
X168438473Y-88002438D01*
X168438473Y-88002438D02*
X168390854Y-88050057D01*
X167533711Y-87954819D02*
X167724187Y-87954819D01*
X167724187Y-87954819D02*
X167819425Y-88002438D01*
X167819425Y-88002438D02*
X167867044Y-88050057D01*
X167867044Y-88050057D02*
X167962282Y-88192914D01*
X167962282Y-88192914D02*
X168009901Y-88383390D01*
X168009901Y-88383390D02*
X168009901Y-88764342D01*
X168009901Y-88764342D02*
X167962282Y-88859580D01*
X167962282Y-88859580D02*
X167914663Y-88907200D01*
X167914663Y-88907200D02*
X167819425Y-88954819D01*
X167819425Y-88954819D02*
X167628949Y-88954819D01*
X167628949Y-88954819D02*
X167533711Y-88907200D01*
X167533711Y-88907200D02*
X167486092Y-88859580D01*
X167486092Y-88859580D02*
X167438473Y-88764342D01*
X167438473Y-88764342D02*
X167438473Y-88526247D01*
X167438473Y-88526247D02*
X167486092Y-88431009D01*
X167486092Y-88431009D02*
X167533711Y-88383390D01*
X167533711Y-88383390D02*
X167628949Y-88335771D01*
X167628949Y-88335771D02*
X167819425Y-88335771D01*
X167819425Y-88335771D02*
X167914663Y-88383390D01*
X167914663Y-88383390D02*
X167962282Y-88431009D01*
X167962282Y-88431009D02*
X168009901Y-88526247D01*
X163991019Y-108782533D02*
X163514828Y-108449200D01*
X163991019Y-108211105D02*
X162991019Y-108211105D01*
X162991019Y-108211105D02*
X162991019Y-108592057D01*
X162991019Y-108592057D02*
X163038638Y-108687295D01*
X163038638Y-108687295D02*
X163086257Y-108734914D01*
X163086257Y-108734914D02*
X163181495Y-108782533D01*
X163181495Y-108782533D02*
X163324352Y-108782533D01*
X163324352Y-108782533D02*
X163419590Y-108734914D01*
X163419590Y-108734914D02*
X163467209Y-108687295D01*
X163467209Y-108687295D02*
X163514828Y-108592057D01*
X163514828Y-108592057D02*
X163514828Y-108211105D01*
X162991019Y-109639676D02*
X162991019Y-109449200D01*
X162991019Y-109449200D02*
X163038638Y-109353962D01*
X163038638Y-109353962D02*
X163086257Y-109306343D01*
X163086257Y-109306343D02*
X163229114Y-109211105D01*
X163229114Y-109211105D02*
X163419590Y-109163486D01*
X163419590Y-109163486D02*
X163800542Y-109163486D01*
X163800542Y-109163486D02*
X163895780Y-109211105D01*
X163895780Y-109211105D02*
X163943400Y-109258724D01*
X163943400Y-109258724D02*
X163991019Y-109353962D01*
X163991019Y-109353962D02*
X163991019Y-109544438D01*
X163991019Y-109544438D02*
X163943400Y-109639676D01*
X163943400Y-109639676D02*
X163895780Y-109687295D01*
X163895780Y-109687295D02*
X163800542Y-109734914D01*
X163800542Y-109734914D02*
X163562447Y-109734914D01*
X163562447Y-109734914D02*
X163467209Y-109687295D01*
X163467209Y-109687295D02*
X163419590Y-109639676D01*
X163419590Y-109639676D02*
X163371971Y-109544438D01*
X163371971Y-109544438D02*
X163371971Y-109353962D01*
X163371971Y-109353962D02*
X163419590Y-109258724D01*
X163419590Y-109258724D02*
X163467209Y-109211105D01*
X163467209Y-109211105D02*
X163562447Y-109163486D01*
X158516819Y-53086095D02*
X159326342Y-53086095D01*
X159326342Y-53086095D02*
X159421580Y-53133714D01*
X159421580Y-53133714D02*
X159469200Y-53181333D01*
X159469200Y-53181333D02*
X159516819Y-53276571D01*
X159516819Y-53276571D02*
X159516819Y-53467047D01*
X159516819Y-53467047D02*
X159469200Y-53562285D01*
X159469200Y-53562285D02*
X159421580Y-53609904D01*
X159421580Y-53609904D02*
X159326342Y-53657523D01*
X159326342Y-53657523D02*
X158516819Y-53657523D01*
X158516819Y-54038476D02*
X158516819Y-54657523D01*
X158516819Y-54657523D02*
X158897771Y-54324190D01*
X158897771Y-54324190D02*
X158897771Y-54467047D01*
X158897771Y-54467047D02*
X158945390Y-54562285D01*
X158945390Y-54562285D02*
X158993009Y-54609904D01*
X158993009Y-54609904D02*
X159088247Y-54657523D01*
X159088247Y-54657523D02*
X159326342Y-54657523D01*
X159326342Y-54657523D02*
X159421580Y-54609904D01*
X159421580Y-54609904D02*
X159469200Y-54562285D01*
X159469200Y-54562285D02*
X159516819Y-54467047D01*
X159516819Y-54467047D02*
X159516819Y-54181333D01*
X159516819Y-54181333D02*
X159469200Y-54086095D01*
X159469200Y-54086095D02*
X159421580Y-54038476D01*
X183681666Y-99009580D02*
X183729285Y-99057200D01*
X183729285Y-99057200D02*
X183872142Y-99104819D01*
X183872142Y-99104819D02*
X183967380Y-99104819D01*
X183967380Y-99104819D02*
X184110237Y-99057200D01*
X184110237Y-99057200D02*
X184205475Y-98961961D01*
X184205475Y-98961961D02*
X184253094Y-98866723D01*
X184253094Y-98866723D02*
X184300713Y-98676247D01*
X184300713Y-98676247D02*
X184300713Y-98533390D01*
X184300713Y-98533390D02*
X184253094Y-98342914D01*
X184253094Y-98342914D02*
X184205475Y-98247676D01*
X184205475Y-98247676D02*
X184110237Y-98152438D01*
X184110237Y-98152438D02*
X183967380Y-98104819D01*
X183967380Y-98104819D02*
X183872142Y-98104819D01*
X183872142Y-98104819D02*
X183729285Y-98152438D01*
X183729285Y-98152438D02*
X183681666Y-98200057D01*
X182824523Y-98438152D02*
X182824523Y-99104819D01*
X183062618Y-98057200D02*
X183300713Y-98771485D01*
X183300713Y-98771485D02*
X182681666Y-98771485D01*
X124150285Y-78555619D02*
X124150285Y-77555619D01*
X124150285Y-77555619D02*
X123912190Y-77555619D01*
X123912190Y-77555619D02*
X123769333Y-77603238D01*
X123769333Y-77603238D02*
X123674095Y-77698476D01*
X123674095Y-77698476D02*
X123626476Y-77793714D01*
X123626476Y-77793714D02*
X123578857Y-77984190D01*
X123578857Y-77984190D02*
X123578857Y-78127047D01*
X123578857Y-78127047D02*
X123626476Y-78317523D01*
X123626476Y-78317523D02*
X123674095Y-78412761D01*
X123674095Y-78412761D02*
X123769333Y-78508000D01*
X123769333Y-78508000D02*
X123912190Y-78555619D01*
X123912190Y-78555619D02*
X124150285Y-78555619D01*
X122626476Y-78555619D02*
X123197904Y-78555619D01*
X122912190Y-78555619D02*
X122912190Y-77555619D01*
X122912190Y-77555619D02*
X123007428Y-77698476D01*
X123007428Y-77698476D02*
X123102666Y-77793714D01*
X123102666Y-77793714D02*
X123197904Y-77841333D01*
X121769333Y-77555619D02*
X121959809Y-77555619D01*
X121959809Y-77555619D02*
X122055047Y-77603238D01*
X122055047Y-77603238D02*
X122102666Y-77650857D01*
X122102666Y-77650857D02*
X122197904Y-77793714D01*
X122197904Y-77793714D02*
X122245523Y-77984190D01*
X122245523Y-77984190D02*
X122245523Y-78365142D01*
X122245523Y-78365142D02*
X122197904Y-78460380D01*
X122197904Y-78460380D02*
X122150285Y-78508000D01*
X122150285Y-78508000D02*
X122055047Y-78555619D01*
X122055047Y-78555619D02*
X121864571Y-78555619D01*
X121864571Y-78555619D02*
X121769333Y-78508000D01*
X121769333Y-78508000D02*
X121721714Y-78460380D01*
X121721714Y-78460380D02*
X121674095Y-78365142D01*
X121674095Y-78365142D02*
X121674095Y-78127047D01*
X121674095Y-78127047D02*
X121721714Y-78031809D01*
X121721714Y-78031809D02*
X121769333Y-77984190D01*
X121769333Y-77984190D02*
X121864571Y-77936571D01*
X121864571Y-77936571D02*
X122055047Y-77936571D01*
X122055047Y-77936571D02*
X122150285Y-77984190D01*
X122150285Y-77984190D02*
X122197904Y-78031809D01*
X122197904Y-78031809D02*
X122245523Y-78127047D01*
X144143619Y-52357142D02*
X143667428Y-52023809D01*
X144143619Y-51785714D02*
X143143619Y-51785714D01*
X143143619Y-51785714D02*
X143143619Y-52166666D01*
X143143619Y-52166666D02*
X143191238Y-52261904D01*
X143191238Y-52261904D02*
X143238857Y-52309523D01*
X143238857Y-52309523D02*
X143334095Y-52357142D01*
X143334095Y-52357142D02*
X143476952Y-52357142D01*
X143476952Y-52357142D02*
X143572190Y-52309523D01*
X143572190Y-52309523D02*
X143619809Y-52261904D01*
X143619809Y-52261904D02*
X143667428Y-52166666D01*
X143667428Y-52166666D02*
X143667428Y-51785714D01*
X144143619Y-53309523D02*
X144143619Y-52738095D01*
X144143619Y-53023809D02*
X143143619Y-53023809D01*
X143143619Y-53023809D02*
X143286476Y-52928571D01*
X143286476Y-52928571D02*
X143381714Y-52833333D01*
X143381714Y-52833333D02*
X143429333Y-52738095D01*
X144143619Y-54261904D02*
X144143619Y-53690476D01*
X144143619Y-53976190D02*
X143143619Y-53976190D01*
X143143619Y-53976190D02*
X143286476Y-53880952D01*
X143286476Y-53880952D02*
X143381714Y-53785714D01*
X143381714Y-53785714D02*
X143429333Y-53690476D01*
X181351085Y-88084819D02*
X181351085Y-87084819D01*
X181351085Y-87084819D02*
X181112990Y-87084819D01*
X181112990Y-87084819D02*
X180970133Y-87132438D01*
X180970133Y-87132438D02*
X180874895Y-87227676D01*
X180874895Y-87227676D02*
X180827276Y-87322914D01*
X180827276Y-87322914D02*
X180779657Y-87513390D01*
X180779657Y-87513390D02*
X180779657Y-87656247D01*
X180779657Y-87656247D02*
X180827276Y-87846723D01*
X180827276Y-87846723D02*
X180874895Y-87941961D01*
X180874895Y-87941961D02*
X180970133Y-88037200D01*
X180970133Y-88037200D02*
X181112990Y-88084819D01*
X181112990Y-88084819D02*
X181351085Y-88084819D01*
X179827276Y-88084819D02*
X180398704Y-88084819D01*
X180112990Y-88084819D02*
X180112990Y-87084819D01*
X180112990Y-87084819D02*
X180208228Y-87227676D01*
X180208228Y-87227676D02*
X180303466Y-87322914D01*
X180303466Y-87322914D02*
X180398704Y-87370533D01*
X179208228Y-87084819D02*
X179112990Y-87084819D01*
X179112990Y-87084819D02*
X179017752Y-87132438D01*
X179017752Y-87132438D02*
X178970133Y-87180057D01*
X178970133Y-87180057D02*
X178922514Y-87275295D01*
X178922514Y-87275295D02*
X178874895Y-87465771D01*
X178874895Y-87465771D02*
X178874895Y-87703866D01*
X178874895Y-87703866D02*
X178922514Y-87894342D01*
X178922514Y-87894342D02*
X178970133Y-87989580D01*
X178970133Y-87989580D02*
X179017752Y-88037200D01*
X179017752Y-88037200D02*
X179112990Y-88084819D01*
X179112990Y-88084819D02*
X179208228Y-88084819D01*
X179208228Y-88084819D02*
X179303466Y-88037200D01*
X179303466Y-88037200D02*
X179351085Y-87989580D01*
X179351085Y-87989580D02*
X179398704Y-87894342D01*
X179398704Y-87894342D02*
X179446323Y-87703866D01*
X179446323Y-87703866D02*
X179446323Y-87465771D01*
X179446323Y-87465771D02*
X179398704Y-87275295D01*
X179398704Y-87275295D02*
X179351085Y-87180057D01*
X179351085Y-87180057D02*
X179303466Y-87132438D01*
X179303466Y-87132438D02*
X179208228Y-87084819D01*
X143200285Y-97681819D02*
X143200285Y-96681819D01*
X143200285Y-96681819D02*
X142962190Y-96681819D01*
X142962190Y-96681819D02*
X142819333Y-96729438D01*
X142819333Y-96729438D02*
X142724095Y-96824676D01*
X142724095Y-96824676D02*
X142676476Y-96919914D01*
X142676476Y-96919914D02*
X142628857Y-97110390D01*
X142628857Y-97110390D02*
X142628857Y-97253247D01*
X142628857Y-97253247D02*
X142676476Y-97443723D01*
X142676476Y-97443723D02*
X142724095Y-97538961D01*
X142724095Y-97538961D02*
X142819333Y-97634200D01*
X142819333Y-97634200D02*
X142962190Y-97681819D01*
X142962190Y-97681819D02*
X143200285Y-97681819D01*
X141676476Y-97681819D02*
X142247904Y-97681819D01*
X141962190Y-97681819D02*
X141962190Y-96681819D01*
X141962190Y-96681819D02*
X142057428Y-96824676D01*
X142057428Y-96824676D02*
X142152666Y-96919914D01*
X142152666Y-96919914D02*
X142247904Y-96967533D01*
X141343142Y-96681819D02*
X140676476Y-96681819D01*
X140676476Y-96681819D02*
X141105047Y-97681819D01*
X188094580Y-118324333D02*
X188142200Y-118276714D01*
X188142200Y-118276714D02*
X188189819Y-118133857D01*
X188189819Y-118133857D02*
X188189819Y-118038619D01*
X188189819Y-118038619D02*
X188142200Y-117895762D01*
X188142200Y-117895762D02*
X188046961Y-117800524D01*
X188046961Y-117800524D02*
X187951723Y-117752905D01*
X187951723Y-117752905D02*
X187761247Y-117705286D01*
X187761247Y-117705286D02*
X187618390Y-117705286D01*
X187618390Y-117705286D02*
X187427914Y-117752905D01*
X187427914Y-117752905D02*
X187332676Y-117800524D01*
X187332676Y-117800524D02*
X187237438Y-117895762D01*
X187237438Y-117895762D02*
X187189819Y-118038619D01*
X187189819Y-118038619D02*
X187189819Y-118133857D01*
X187189819Y-118133857D02*
X187237438Y-118276714D01*
X187237438Y-118276714D02*
X187285057Y-118324333D01*
X187285057Y-118705286D02*
X187237438Y-118752905D01*
X187237438Y-118752905D02*
X187189819Y-118848143D01*
X187189819Y-118848143D02*
X187189819Y-119086238D01*
X187189819Y-119086238D02*
X187237438Y-119181476D01*
X187237438Y-119181476D02*
X187285057Y-119229095D01*
X187285057Y-119229095D02*
X187380295Y-119276714D01*
X187380295Y-119276714D02*
X187475533Y-119276714D01*
X187475533Y-119276714D02*
X187618390Y-119229095D01*
X187618390Y-119229095D02*
X188189819Y-118657667D01*
X188189819Y-118657667D02*
X188189819Y-119276714D01*
X171007066Y-118717219D02*
X171340399Y-118241028D01*
X171578494Y-118717219D02*
X171578494Y-117717219D01*
X171578494Y-117717219D02*
X171197542Y-117717219D01*
X171197542Y-117717219D02*
X171102304Y-117764838D01*
X171102304Y-117764838D02*
X171054685Y-117812457D01*
X171054685Y-117812457D02*
X171007066Y-117907695D01*
X171007066Y-117907695D02*
X171007066Y-118050552D01*
X171007066Y-118050552D02*
X171054685Y-118145790D01*
X171054685Y-118145790D02*
X171102304Y-118193409D01*
X171102304Y-118193409D02*
X171197542Y-118241028D01*
X171197542Y-118241028D02*
X171578494Y-118241028D01*
X170435637Y-118145790D02*
X170530875Y-118098171D01*
X170530875Y-118098171D02*
X170578494Y-118050552D01*
X170578494Y-118050552D02*
X170626113Y-117955314D01*
X170626113Y-117955314D02*
X170626113Y-117907695D01*
X170626113Y-117907695D02*
X170578494Y-117812457D01*
X170578494Y-117812457D02*
X170530875Y-117764838D01*
X170530875Y-117764838D02*
X170435637Y-117717219D01*
X170435637Y-117717219D02*
X170245161Y-117717219D01*
X170245161Y-117717219D02*
X170149923Y-117764838D01*
X170149923Y-117764838D02*
X170102304Y-117812457D01*
X170102304Y-117812457D02*
X170054685Y-117907695D01*
X170054685Y-117907695D02*
X170054685Y-117955314D01*
X170054685Y-117955314D02*
X170102304Y-118050552D01*
X170102304Y-118050552D02*
X170149923Y-118098171D01*
X170149923Y-118098171D02*
X170245161Y-118145790D01*
X170245161Y-118145790D02*
X170435637Y-118145790D01*
X170435637Y-118145790D02*
X170530875Y-118193409D01*
X170530875Y-118193409D02*
X170578494Y-118241028D01*
X170578494Y-118241028D02*
X170626113Y-118336266D01*
X170626113Y-118336266D02*
X170626113Y-118526742D01*
X170626113Y-118526742D02*
X170578494Y-118621980D01*
X170578494Y-118621980D02*
X170530875Y-118669600D01*
X170530875Y-118669600D02*
X170435637Y-118717219D01*
X170435637Y-118717219D02*
X170245161Y-118717219D01*
X170245161Y-118717219D02*
X170149923Y-118669600D01*
X170149923Y-118669600D02*
X170102304Y-118621980D01*
X170102304Y-118621980D02*
X170054685Y-118526742D01*
X170054685Y-118526742D02*
X170054685Y-118336266D01*
X170054685Y-118336266D02*
X170102304Y-118241028D01*
X170102304Y-118241028D02*
X170149923Y-118193409D01*
X170149923Y-118193409D02*
X170245161Y-118145790D01*
X128276785Y-49104819D02*
X128276785Y-48104819D01*
X128276785Y-48104819D02*
X128038690Y-48104819D01*
X128038690Y-48104819D02*
X127895833Y-48152438D01*
X127895833Y-48152438D02*
X127800595Y-48247676D01*
X127800595Y-48247676D02*
X127752976Y-48342914D01*
X127752976Y-48342914D02*
X127705357Y-48533390D01*
X127705357Y-48533390D02*
X127705357Y-48676247D01*
X127705357Y-48676247D02*
X127752976Y-48866723D01*
X127752976Y-48866723D02*
X127800595Y-48961961D01*
X127800595Y-48961961D02*
X127895833Y-49057200D01*
X127895833Y-49057200D02*
X128038690Y-49104819D01*
X128038690Y-49104819D02*
X128276785Y-49104819D01*
X126752976Y-49104819D02*
X127324404Y-49104819D01*
X127038690Y-49104819D02*
X127038690Y-48104819D01*
X127038690Y-48104819D02*
X127133928Y-48247676D01*
X127133928Y-48247676D02*
X127229166Y-48342914D01*
X127229166Y-48342914D02*
X127324404Y-48390533D01*
X125848214Y-48104819D02*
X126324404Y-48104819D01*
X126324404Y-48104819D02*
X126372023Y-48581009D01*
X126372023Y-48581009D02*
X126324404Y-48533390D01*
X126324404Y-48533390D02*
X126229166Y-48485771D01*
X126229166Y-48485771D02*
X125991071Y-48485771D01*
X125991071Y-48485771D02*
X125895833Y-48533390D01*
X125895833Y-48533390D02*
X125848214Y-48581009D01*
X125848214Y-48581009D02*
X125800595Y-48676247D01*
X125800595Y-48676247D02*
X125800595Y-48914342D01*
X125800595Y-48914342D02*
X125848214Y-49009580D01*
X125848214Y-49009580D02*
X125895833Y-49057200D01*
X125895833Y-49057200D02*
X125991071Y-49104819D01*
X125991071Y-49104819D02*
X126229166Y-49104819D01*
X126229166Y-49104819D02*
X126324404Y-49057200D01*
X126324404Y-49057200D02*
X126372023Y-49009580D01*
X181427285Y-59505619D02*
X181427285Y-58505619D01*
X181427285Y-58505619D02*
X181189190Y-58505619D01*
X181189190Y-58505619D02*
X181046333Y-58553238D01*
X181046333Y-58553238D02*
X180951095Y-58648476D01*
X180951095Y-58648476D02*
X180903476Y-58743714D01*
X180903476Y-58743714D02*
X180855857Y-58934190D01*
X180855857Y-58934190D02*
X180855857Y-59077047D01*
X180855857Y-59077047D02*
X180903476Y-59267523D01*
X180903476Y-59267523D02*
X180951095Y-59362761D01*
X180951095Y-59362761D02*
X181046333Y-59458000D01*
X181046333Y-59458000D02*
X181189190Y-59505619D01*
X181189190Y-59505619D02*
X181427285Y-59505619D01*
X179903476Y-59505619D02*
X180474904Y-59505619D01*
X180189190Y-59505619D02*
X180189190Y-58505619D01*
X180189190Y-58505619D02*
X180284428Y-58648476D01*
X180284428Y-58648476D02*
X180379666Y-58743714D01*
X180379666Y-58743714D02*
X180474904Y-58791333D01*
X179522523Y-58600857D02*
X179474904Y-58553238D01*
X179474904Y-58553238D02*
X179379666Y-58505619D01*
X179379666Y-58505619D02*
X179141571Y-58505619D01*
X179141571Y-58505619D02*
X179046333Y-58553238D01*
X179046333Y-58553238D02*
X178998714Y-58600857D01*
X178998714Y-58600857D02*
X178951095Y-58696095D01*
X178951095Y-58696095D02*
X178951095Y-58791333D01*
X178951095Y-58791333D02*
X178998714Y-58934190D01*
X178998714Y-58934190D02*
X179570142Y-59505619D01*
X179570142Y-59505619D02*
X178951095Y-59505619D01*
X177016666Y-117228580D02*
X177064285Y-117276200D01*
X177064285Y-117276200D02*
X177207142Y-117323819D01*
X177207142Y-117323819D02*
X177302380Y-117323819D01*
X177302380Y-117323819D02*
X177445237Y-117276200D01*
X177445237Y-117276200D02*
X177540475Y-117180961D01*
X177540475Y-117180961D02*
X177588094Y-117085723D01*
X177588094Y-117085723D02*
X177635713Y-116895247D01*
X177635713Y-116895247D02*
X177635713Y-116752390D01*
X177635713Y-116752390D02*
X177588094Y-116561914D01*
X177588094Y-116561914D02*
X177540475Y-116466676D01*
X177540475Y-116466676D02*
X177445237Y-116371438D01*
X177445237Y-116371438D02*
X177302380Y-116323819D01*
X177302380Y-116323819D02*
X177207142Y-116323819D01*
X177207142Y-116323819D02*
X177064285Y-116371438D01*
X177064285Y-116371438D02*
X177016666Y-116419057D01*
X176111904Y-116323819D02*
X176588094Y-116323819D01*
X176588094Y-116323819D02*
X176635713Y-116800009D01*
X176635713Y-116800009D02*
X176588094Y-116752390D01*
X176588094Y-116752390D02*
X176492856Y-116704771D01*
X176492856Y-116704771D02*
X176254761Y-116704771D01*
X176254761Y-116704771D02*
X176159523Y-116752390D01*
X176159523Y-116752390D02*
X176111904Y-116800009D01*
X176111904Y-116800009D02*
X176064285Y-116895247D01*
X176064285Y-116895247D02*
X176064285Y-117133342D01*
X176064285Y-117133342D02*
X176111904Y-117228580D01*
X176111904Y-117228580D02*
X176159523Y-117276200D01*
X176159523Y-117276200D02*
X176254761Y-117323819D01*
X176254761Y-117323819D02*
X176492856Y-117323819D01*
X176492856Y-117323819D02*
X176588094Y-117276200D01*
X176588094Y-117276200D02*
X176635713Y-117228580D01*
X161284745Y-88859580D02*
X161332364Y-88907200D01*
X161332364Y-88907200D02*
X161475221Y-88954819D01*
X161475221Y-88954819D02*
X161570459Y-88954819D01*
X161570459Y-88954819D02*
X161713316Y-88907200D01*
X161713316Y-88907200D02*
X161808554Y-88811961D01*
X161808554Y-88811961D02*
X161856173Y-88716723D01*
X161856173Y-88716723D02*
X161903792Y-88526247D01*
X161903792Y-88526247D02*
X161903792Y-88383390D01*
X161903792Y-88383390D02*
X161856173Y-88192914D01*
X161856173Y-88192914D02*
X161808554Y-88097676D01*
X161808554Y-88097676D02*
X161713316Y-88002438D01*
X161713316Y-88002438D02*
X161570459Y-87954819D01*
X161570459Y-87954819D02*
X161475221Y-87954819D01*
X161475221Y-87954819D02*
X161332364Y-88002438D01*
X161332364Y-88002438D02*
X161284745Y-88050057D01*
X160713316Y-88383390D02*
X160808554Y-88335771D01*
X160808554Y-88335771D02*
X160856173Y-88288152D01*
X160856173Y-88288152D02*
X160903792Y-88192914D01*
X160903792Y-88192914D02*
X160903792Y-88145295D01*
X160903792Y-88145295D02*
X160856173Y-88050057D01*
X160856173Y-88050057D02*
X160808554Y-88002438D01*
X160808554Y-88002438D02*
X160713316Y-87954819D01*
X160713316Y-87954819D02*
X160522840Y-87954819D01*
X160522840Y-87954819D02*
X160427602Y-88002438D01*
X160427602Y-88002438D02*
X160379983Y-88050057D01*
X160379983Y-88050057D02*
X160332364Y-88145295D01*
X160332364Y-88145295D02*
X160332364Y-88192914D01*
X160332364Y-88192914D02*
X160379983Y-88288152D01*
X160379983Y-88288152D02*
X160427602Y-88335771D01*
X160427602Y-88335771D02*
X160522840Y-88383390D01*
X160522840Y-88383390D02*
X160713316Y-88383390D01*
X160713316Y-88383390D02*
X160808554Y-88431009D01*
X160808554Y-88431009D02*
X160856173Y-88478628D01*
X160856173Y-88478628D02*
X160903792Y-88573866D01*
X160903792Y-88573866D02*
X160903792Y-88764342D01*
X160903792Y-88764342D02*
X160856173Y-88859580D01*
X160856173Y-88859580D02*
X160808554Y-88907200D01*
X160808554Y-88907200D02*
X160713316Y-88954819D01*
X160713316Y-88954819D02*
X160522840Y-88954819D01*
X160522840Y-88954819D02*
X160427602Y-88907200D01*
X160427602Y-88907200D02*
X160379983Y-88859580D01*
X160379983Y-88859580D02*
X160332364Y-88764342D01*
X160332364Y-88764342D02*
X160332364Y-88573866D01*
X160332364Y-88573866D02*
X160379983Y-88478628D01*
X160379983Y-88478628D02*
X160427602Y-88431009D01*
X160427602Y-88431009D02*
X160522840Y-88383390D01*
X137460680Y-52357142D02*
X137508300Y-52309523D01*
X137508300Y-52309523D02*
X137555919Y-52166666D01*
X137555919Y-52166666D02*
X137555919Y-52071428D01*
X137555919Y-52071428D02*
X137508300Y-51928571D01*
X137508300Y-51928571D02*
X137413061Y-51833333D01*
X137413061Y-51833333D02*
X137317823Y-51785714D01*
X137317823Y-51785714D02*
X137127347Y-51738095D01*
X137127347Y-51738095D02*
X136984490Y-51738095D01*
X136984490Y-51738095D02*
X136794014Y-51785714D01*
X136794014Y-51785714D02*
X136698776Y-51833333D01*
X136698776Y-51833333D02*
X136603538Y-51928571D01*
X136603538Y-51928571D02*
X136555919Y-52071428D01*
X136555919Y-52071428D02*
X136555919Y-52166666D01*
X136555919Y-52166666D02*
X136603538Y-52309523D01*
X136603538Y-52309523D02*
X136651157Y-52357142D01*
X137555919Y-53309523D02*
X137555919Y-52738095D01*
X137555919Y-53023809D02*
X136555919Y-53023809D01*
X136555919Y-53023809D02*
X136698776Y-52928571D01*
X136698776Y-52928571D02*
X136794014Y-52833333D01*
X136794014Y-52833333D02*
X136841633Y-52738095D01*
X136555919Y-54214285D02*
X136555919Y-53738095D01*
X136555919Y-53738095D02*
X137032109Y-53690476D01*
X137032109Y-53690476D02*
X136984490Y-53738095D01*
X136984490Y-53738095D02*
X136936871Y-53833333D01*
X136936871Y-53833333D02*
X136936871Y-54071428D01*
X136936871Y-54071428D02*
X136984490Y-54166666D01*
X136984490Y-54166666D02*
X137032109Y-54214285D01*
X137032109Y-54214285D02*
X137127347Y-54261904D01*
X137127347Y-54261904D02*
X137365442Y-54261904D01*
X137365442Y-54261904D02*
X137460680Y-54214285D01*
X137460680Y-54214285D02*
X137508300Y-54166666D01*
X137508300Y-54166666D02*
X137555919Y-54071428D01*
X137555919Y-54071428D02*
X137555919Y-53833333D01*
X137555919Y-53833333D02*
X137508300Y-53738095D01*
X137508300Y-53738095D02*
X137460680Y-53690476D01*
X173521666Y-118691819D02*
X173854999Y-118215628D01*
X174093094Y-118691819D02*
X174093094Y-117691819D01*
X174093094Y-117691819D02*
X173712142Y-117691819D01*
X173712142Y-117691819D02*
X173616904Y-117739438D01*
X173616904Y-117739438D02*
X173569285Y-117787057D01*
X173569285Y-117787057D02*
X173521666Y-117882295D01*
X173521666Y-117882295D02*
X173521666Y-118025152D01*
X173521666Y-118025152D02*
X173569285Y-118120390D01*
X173569285Y-118120390D02*
X173616904Y-118168009D01*
X173616904Y-118168009D02*
X173712142Y-118215628D01*
X173712142Y-118215628D02*
X174093094Y-118215628D01*
X173045475Y-118691819D02*
X172854999Y-118691819D01*
X172854999Y-118691819D02*
X172759761Y-118644200D01*
X172759761Y-118644200D02*
X172712142Y-118596580D01*
X172712142Y-118596580D02*
X172616904Y-118453723D01*
X172616904Y-118453723D02*
X172569285Y-118263247D01*
X172569285Y-118263247D02*
X172569285Y-117882295D01*
X172569285Y-117882295D02*
X172616904Y-117787057D01*
X172616904Y-117787057D02*
X172664523Y-117739438D01*
X172664523Y-117739438D02*
X172759761Y-117691819D01*
X172759761Y-117691819D02*
X172950237Y-117691819D01*
X172950237Y-117691819D02*
X173045475Y-117739438D01*
X173045475Y-117739438D02*
X173093094Y-117787057D01*
X173093094Y-117787057D02*
X173140713Y-117882295D01*
X173140713Y-117882295D02*
X173140713Y-118120390D01*
X173140713Y-118120390D02*
X173093094Y-118215628D01*
X173093094Y-118215628D02*
X173045475Y-118263247D01*
X173045475Y-118263247D02*
X172950237Y-118310866D01*
X172950237Y-118310866D02*
X172759761Y-118310866D01*
X172759761Y-118310866D02*
X172664523Y-118263247D01*
X172664523Y-118263247D02*
X172616904Y-118215628D01*
X172616904Y-118215628D02*
X172569285Y-118120390D01*
X143200285Y-116731819D02*
X143200285Y-115731819D01*
X143200285Y-115731819D02*
X142962190Y-115731819D01*
X142962190Y-115731819D02*
X142819333Y-115779438D01*
X142819333Y-115779438D02*
X142724095Y-115874676D01*
X142724095Y-115874676D02*
X142676476Y-115969914D01*
X142676476Y-115969914D02*
X142628857Y-116160390D01*
X142628857Y-116160390D02*
X142628857Y-116303247D01*
X142628857Y-116303247D02*
X142676476Y-116493723D01*
X142676476Y-116493723D02*
X142724095Y-116588961D01*
X142724095Y-116588961D02*
X142819333Y-116684200D01*
X142819333Y-116684200D02*
X142962190Y-116731819D01*
X142962190Y-116731819D02*
X143200285Y-116731819D01*
X141676476Y-116731819D02*
X142247904Y-116731819D01*
X141962190Y-116731819D02*
X141962190Y-115731819D01*
X141962190Y-115731819D02*
X142057428Y-115874676D01*
X142057428Y-115874676D02*
X142152666Y-115969914D01*
X142152666Y-115969914D02*
X142247904Y-116017533D01*
X140724095Y-116731819D02*
X141295523Y-116731819D01*
X141009809Y-116731819D02*
X141009809Y-115731819D01*
X141009809Y-115731819D02*
X141105047Y-115874676D01*
X141105047Y-115874676D02*
X141200285Y-115969914D01*
X141200285Y-115969914D02*
X141295523Y-116017533D01*
X164041819Y-102833333D02*
X163565628Y-102500000D01*
X164041819Y-102261905D02*
X163041819Y-102261905D01*
X163041819Y-102261905D02*
X163041819Y-102642857D01*
X163041819Y-102642857D02*
X163089438Y-102738095D01*
X163089438Y-102738095D02*
X163137057Y-102785714D01*
X163137057Y-102785714D02*
X163232295Y-102833333D01*
X163232295Y-102833333D02*
X163375152Y-102833333D01*
X163375152Y-102833333D02*
X163470390Y-102785714D01*
X163470390Y-102785714D02*
X163518009Y-102738095D01*
X163518009Y-102738095D02*
X163565628Y-102642857D01*
X163565628Y-102642857D02*
X163565628Y-102261905D01*
X163041819Y-103738095D02*
X163041819Y-103261905D01*
X163041819Y-103261905D02*
X163518009Y-103214286D01*
X163518009Y-103214286D02*
X163470390Y-103261905D01*
X163470390Y-103261905D02*
X163422771Y-103357143D01*
X163422771Y-103357143D02*
X163422771Y-103595238D01*
X163422771Y-103595238D02*
X163470390Y-103690476D01*
X163470390Y-103690476D02*
X163518009Y-103738095D01*
X163518009Y-103738095D02*
X163613247Y-103785714D01*
X163613247Y-103785714D02*
X163851342Y-103785714D01*
X163851342Y-103785714D02*
X163946580Y-103738095D01*
X163946580Y-103738095D02*
X163994200Y-103690476D01*
X163994200Y-103690476D02*
X164041819Y-103595238D01*
X164041819Y-103595238D02*
X164041819Y-103357143D01*
X164041819Y-103357143D02*
X163994200Y-103261905D01*
X163994200Y-103261905D02*
X163946580Y-103214286D01*
X177026219Y-75130066D02*
X177740504Y-75130066D01*
X177740504Y-75130066D02*
X177883361Y-75082447D01*
X177883361Y-75082447D02*
X177978600Y-74987209D01*
X177978600Y-74987209D02*
X178026219Y-74844352D01*
X178026219Y-74844352D02*
X178026219Y-74749114D01*
X177026219Y-75511019D02*
X177026219Y-76130066D01*
X177026219Y-76130066D02*
X177407171Y-75796733D01*
X177407171Y-75796733D02*
X177407171Y-75939590D01*
X177407171Y-75939590D02*
X177454790Y-76034828D01*
X177454790Y-76034828D02*
X177502409Y-76082447D01*
X177502409Y-76082447D02*
X177597647Y-76130066D01*
X177597647Y-76130066D02*
X177835742Y-76130066D01*
X177835742Y-76130066D02*
X177930980Y-76082447D01*
X177930980Y-76082447D02*
X177978600Y-76034828D01*
X177978600Y-76034828D02*
X178026219Y-75939590D01*
X178026219Y-75939590D02*
X178026219Y-75653876D01*
X178026219Y-75653876D02*
X177978600Y-75558638D01*
X177978600Y-75558638D02*
X177930980Y-75511019D01*
X133199094Y-135781819D02*
X133199094Y-134781819D01*
X133199094Y-134781819D02*
X132960999Y-134781819D01*
X132960999Y-134781819D02*
X132818142Y-134829438D01*
X132818142Y-134829438D02*
X132722904Y-134924676D01*
X132722904Y-134924676D02*
X132675285Y-135019914D01*
X132675285Y-135019914D02*
X132627666Y-135210390D01*
X132627666Y-135210390D02*
X132627666Y-135353247D01*
X132627666Y-135353247D02*
X132675285Y-135543723D01*
X132675285Y-135543723D02*
X132722904Y-135638961D01*
X132722904Y-135638961D02*
X132818142Y-135734200D01*
X132818142Y-135734200D02*
X132960999Y-135781819D01*
X132960999Y-135781819D02*
X133199094Y-135781819D01*
X131770523Y-135115152D02*
X131770523Y-135781819D01*
X132008618Y-134734200D02*
X132246713Y-135448485D01*
X132246713Y-135448485D02*
X131627666Y-135448485D01*
X152609262Y-47794803D02*
X152942595Y-47318612D01*
X153180690Y-47794803D02*
X153180690Y-46794803D01*
X153180690Y-46794803D02*
X152799738Y-46794803D01*
X152799738Y-46794803D02*
X152704500Y-46842422D01*
X152704500Y-46842422D02*
X152656881Y-46890041D01*
X152656881Y-46890041D02*
X152609262Y-46985279D01*
X152609262Y-46985279D02*
X152609262Y-47128136D01*
X152609262Y-47128136D02*
X152656881Y-47223374D01*
X152656881Y-47223374D02*
X152704500Y-47270993D01*
X152704500Y-47270993D02*
X152799738Y-47318612D01*
X152799738Y-47318612D02*
X153180690Y-47318612D01*
X151656881Y-47794803D02*
X152228309Y-47794803D01*
X151942595Y-47794803D02*
X151942595Y-46794803D01*
X151942595Y-46794803D02*
X152037833Y-46937660D01*
X152037833Y-46937660D02*
X152133071Y-47032898D01*
X152133071Y-47032898D02*
X152228309Y-47080517D01*
X151275928Y-46890041D02*
X151228309Y-46842422D01*
X151228309Y-46842422D02*
X151133071Y-46794803D01*
X151133071Y-46794803D02*
X150894976Y-46794803D01*
X150894976Y-46794803D02*
X150799738Y-46842422D01*
X150799738Y-46842422D02*
X150752119Y-46890041D01*
X150752119Y-46890041D02*
X150704500Y-46985279D01*
X150704500Y-46985279D02*
X150704500Y-47080517D01*
X150704500Y-47080517D02*
X150752119Y-47223374D01*
X150752119Y-47223374D02*
X151323547Y-47794803D01*
X151323547Y-47794803D02*
X150704500Y-47794803D01*
X161774094Y-78555619D02*
X161774094Y-77555619D01*
X161774094Y-77555619D02*
X161535999Y-77555619D01*
X161535999Y-77555619D02*
X161393142Y-77603238D01*
X161393142Y-77603238D02*
X161297904Y-77698476D01*
X161297904Y-77698476D02*
X161250285Y-77793714D01*
X161250285Y-77793714D02*
X161202666Y-77984190D01*
X161202666Y-77984190D02*
X161202666Y-78127047D01*
X161202666Y-78127047D02*
X161250285Y-78317523D01*
X161250285Y-78317523D02*
X161297904Y-78412761D01*
X161297904Y-78412761D02*
X161393142Y-78508000D01*
X161393142Y-78508000D02*
X161535999Y-78555619D01*
X161535999Y-78555619D02*
X161774094Y-78555619D01*
X160345523Y-77555619D02*
X160535999Y-77555619D01*
X160535999Y-77555619D02*
X160631237Y-77603238D01*
X160631237Y-77603238D02*
X160678856Y-77650857D01*
X160678856Y-77650857D02*
X160774094Y-77793714D01*
X160774094Y-77793714D02*
X160821713Y-77984190D01*
X160821713Y-77984190D02*
X160821713Y-78365142D01*
X160821713Y-78365142D02*
X160774094Y-78460380D01*
X160774094Y-78460380D02*
X160726475Y-78508000D01*
X160726475Y-78508000D02*
X160631237Y-78555619D01*
X160631237Y-78555619D02*
X160440761Y-78555619D01*
X160440761Y-78555619D02*
X160345523Y-78508000D01*
X160345523Y-78508000D02*
X160297904Y-78460380D01*
X160297904Y-78460380D02*
X160250285Y-78365142D01*
X160250285Y-78365142D02*
X160250285Y-78127047D01*
X160250285Y-78127047D02*
X160297904Y-78031809D01*
X160297904Y-78031809D02*
X160345523Y-77984190D01*
X160345523Y-77984190D02*
X160440761Y-77936571D01*
X160440761Y-77936571D02*
X160631237Y-77936571D01*
X160631237Y-77936571D02*
X160726475Y-77984190D01*
X160726475Y-77984190D02*
X160774094Y-78031809D01*
X160774094Y-78031809D02*
X160821713Y-78127047D01*
X179357217Y-144191785D02*
X179357217Y-144906070D01*
X179357217Y-144906070D02*
X179404836Y-145048927D01*
X179404836Y-145048927D02*
X179500074Y-145144166D01*
X179500074Y-145144166D02*
X179642931Y-145191785D01*
X179642931Y-145191785D02*
X179738169Y-145191785D01*
X178357217Y-145191785D02*
X178928645Y-145191785D01*
X178642931Y-145191785D02*
X178642931Y-144191785D01*
X178642931Y-144191785D02*
X178738169Y-144334642D01*
X178738169Y-144334642D02*
X178833407Y-144429880D01*
X178833407Y-144429880D02*
X178928645Y-144477499D01*
X164944820Y-88859580D02*
X164992439Y-88907200D01*
X164992439Y-88907200D02*
X165135296Y-88954819D01*
X165135296Y-88954819D02*
X165230534Y-88954819D01*
X165230534Y-88954819D02*
X165373391Y-88907200D01*
X165373391Y-88907200D02*
X165468629Y-88811961D01*
X165468629Y-88811961D02*
X165516248Y-88716723D01*
X165516248Y-88716723D02*
X165563867Y-88526247D01*
X165563867Y-88526247D02*
X165563867Y-88383390D01*
X165563867Y-88383390D02*
X165516248Y-88192914D01*
X165516248Y-88192914D02*
X165468629Y-88097676D01*
X165468629Y-88097676D02*
X165373391Y-88002438D01*
X165373391Y-88002438D02*
X165230534Y-87954819D01*
X165230534Y-87954819D02*
X165135296Y-87954819D01*
X165135296Y-87954819D02*
X164992439Y-88002438D01*
X164992439Y-88002438D02*
X164944820Y-88050057D01*
X164611486Y-87954819D02*
X163944820Y-87954819D01*
X163944820Y-87954819D02*
X164373391Y-88954819D01*
X162250285Y-116731819D02*
X162250285Y-115731819D01*
X162250285Y-115731819D02*
X162012190Y-115731819D01*
X162012190Y-115731819D02*
X161869333Y-115779438D01*
X161869333Y-115779438D02*
X161774095Y-115874676D01*
X161774095Y-115874676D02*
X161726476Y-115969914D01*
X161726476Y-115969914D02*
X161678857Y-116160390D01*
X161678857Y-116160390D02*
X161678857Y-116303247D01*
X161678857Y-116303247D02*
X161726476Y-116493723D01*
X161726476Y-116493723D02*
X161774095Y-116588961D01*
X161774095Y-116588961D02*
X161869333Y-116684200D01*
X161869333Y-116684200D02*
X162012190Y-116731819D01*
X162012190Y-116731819D02*
X162250285Y-116731819D01*
X160726476Y-116731819D02*
X161297904Y-116731819D01*
X161012190Y-116731819D02*
X161012190Y-115731819D01*
X161012190Y-115731819D02*
X161107428Y-115874676D01*
X161107428Y-115874676D02*
X161202666Y-115969914D01*
X161202666Y-115969914D02*
X161297904Y-116017533D01*
X159869333Y-116065152D02*
X159869333Y-116731819D01*
X160107428Y-115684200D02*
X160345523Y-116398485D01*
X160345523Y-116398485D02*
X159726476Y-116398485D01*
X188596535Y-113638272D02*
X189072726Y-113638272D01*
X188072726Y-113304939D02*
X188596535Y-113638272D01*
X188596535Y-113638272D02*
X188072726Y-113971605D01*
X189072726Y-114828748D02*
X189072726Y-114257320D01*
X189072726Y-114543034D02*
X188072726Y-114543034D01*
X188072726Y-114543034D02*
X188215583Y-114447796D01*
X188215583Y-114447796D02*
X188310821Y-114352558D01*
X188310821Y-114352558D02*
X188358440Y-114257320D01*
X164041819Y-105833333D02*
X163565628Y-105500000D01*
X164041819Y-105261905D02*
X163041819Y-105261905D01*
X163041819Y-105261905D02*
X163041819Y-105642857D01*
X163041819Y-105642857D02*
X163089438Y-105738095D01*
X163089438Y-105738095D02*
X163137057Y-105785714D01*
X163137057Y-105785714D02*
X163232295Y-105833333D01*
X163232295Y-105833333D02*
X163375152Y-105833333D01*
X163375152Y-105833333D02*
X163470390Y-105785714D01*
X163470390Y-105785714D02*
X163518009Y-105738095D01*
X163518009Y-105738095D02*
X163565628Y-105642857D01*
X163565628Y-105642857D02*
X163565628Y-105261905D01*
X163375152Y-106690476D02*
X164041819Y-106690476D01*
X162994200Y-106452381D02*
X163708485Y-106214286D01*
X163708485Y-106214286D02*
X163708485Y-106833333D01*
X132254166Y-49104819D02*
X132587499Y-48628628D01*
X132825594Y-49104819D02*
X132825594Y-48104819D01*
X132825594Y-48104819D02*
X132444642Y-48104819D01*
X132444642Y-48104819D02*
X132349404Y-48152438D01*
X132349404Y-48152438D02*
X132301785Y-48200057D01*
X132301785Y-48200057D02*
X132254166Y-48295295D01*
X132254166Y-48295295D02*
X132254166Y-48438152D01*
X132254166Y-48438152D02*
X132301785Y-48533390D01*
X132301785Y-48533390D02*
X132349404Y-48581009D01*
X132349404Y-48581009D02*
X132444642Y-48628628D01*
X132444642Y-48628628D02*
X132825594Y-48628628D01*
X131301785Y-49104819D02*
X131873213Y-49104819D01*
X131587499Y-49104819D02*
X131587499Y-48104819D01*
X131587499Y-48104819D02*
X131682737Y-48247676D01*
X131682737Y-48247676D02*
X131777975Y-48342914D01*
X131777975Y-48342914D02*
X131873213Y-48390533D01*
X161901094Y-135781819D02*
X161901094Y-134781819D01*
X161901094Y-134781819D02*
X161662999Y-134781819D01*
X161662999Y-134781819D02*
X161520142Y-134829438D01*
X161520142Y-134829438D02*
X161424904Y-134924676D01*
X161424904Y-134924676D02*
X161377285Y-135019914D01*
X161377285Y-135019914D02*
X161329666Y-135210390D01*
X161329666Y-135210390D02*
X161329666Y-135353247D01*
X161329666Y-135353247D02*
X161377285Y-135543723D01*
X161377285Y-135543723D02*
X161424904Y-135638961D01*
X161424904Y-135638961D02*
X161520142Y-135734200D01*
X161520142Y-135734200D02*
X161662999Y-135781819D01*
X161662999Y-135781819D02*
X161901094Y-135781819D01*
X160758237Y-135210390D02*
X160853475Y-135162771D01*
X160853475Y-135162771D02*
X160901094Y-135115152D01*
X160901094Y-135115152D02*
X160948713Y-135019914D01*
X160948713Y-135019914D02*
X160948713Y-134972295D01*
X160948713Y-134972295D02*
X160901094Y-134877057D01*
X160901094Y-134877057D02*
X160853475Y-134829438D01*
X160853475Y-134829438D02*
X160758237Y-134781819D01*
X160758237Y-134781819D02*
X160567761Y-134781819D01*
X160567761Y-134781819D02*
X160472523Y-134829438D01*
X160472523Y-134829438D02*
X160424904Y-134877057D01*
X160424904Y-134877057D02*
X160377285Y-134972295D01*
X160377285Y-134972295D02*
X160377285Y-135019914D01*
X160377285Y-135019914D02*
X160424904Y-135115152D01*
X160424904Y-135115152D02*
X160472523Y-135162771D01*
X160472523Y-135162771D02*
X160567761Y-135210390D01*
X160567761Y-135210390D02*
X160758237Y-135210390D01*
X160758237Y-135210390D02*
X160853475Y-135258009D01*
X160853475Y-135258009D02*
X160901094Y-135305628D01*
X160901094Y-135305628D02*
X160948713Y-135400866D01*
X160948713Y-135400866D02*
X160948713Y-135591342D01*
X160948713Y-135591342D02*
X160901094Y-135686580D01*
X160901094Y-135686580D02*
X160853475Y-135734200D01*
X160853475Y-135734200D02*
X160758237Y-135781819D01*
X160758237Y-135781819D02*
X160567761Y-135781819D01*
X160567761Y-135781819D02*
X160472523Y-135734200D01*
X160472523Y-135734200D02*
X160424904Y-135686580D01*
X160424904Y-135686580D02*
X160377285Y-135591342D01*
X160377285Y-135591342D02*
X160377285Y-135400866D01*
X160377285Y-135400866D02*
X160424904Y-135305628D01*
X160424904Y-135305628D02*
X160472523Y-135258009D01*
X160472523Y-135258009D02*
X160567761Y-135210390D01*
X181300285Y-126256819D02*
X181300285Y-125256819D01*
X181300285Y-125256819D02*
X181062190Y-125256819D01*
X181062190Y-125256819D02*
X180919333Y-125304438D01*
X180919333Y-125304438D02*
X180824095Y-125399676D01*
X180824095Y-125399676D02*
X180776476Y-125494914D01*
X180776476Y-125494914D02*
X180728857Y-125685390D01*
X180728857Y-125685390D02*
X180728857Y-125828247D01*
X180728857Y-125828247D02*
X180776476Y-126018723D01*
X180776476Y-126018723D02*
X180824095Y-126113961D01*
X180824095Y-126113961D02*
X180919333Y-126209200D01*
X180919333Y-126209200D02*
X181062190Y-126256819D01*
X181062190Y-126256819D02*
X181300285Y-126256819D01*
X179776476Y-126256819D02*
X180347904Y-126256819D01*
X180062190Y-126256819D02*
X180062190Y-125256819D01*
X180062190Y-125256819D02*
X180157428Y-125399676D01*
X180157428Y-125399676D02*
X180252666Y-125494914D01*
X180252666Y-125494914D02*
X180347904Y-125542533D01*
X179205047Y-125685390D02*
X179300285Y-125637771D01*
X179300285Y-125637771D02*
X179347904Y-125590152D01*
X179347904Y-125590152D02*
X179395523Y-125494914D01*
X179395523Y-125494914D02*
X179395523Y-125447295D01*
X179395523Y-125447295D02*
X179347904Y-125352057D01*
X179347904Y-125352057D02*
X179300285Y-125304438D01*
X179300285Y-125304438D02*
X179205047Y-125256819D01*
X179205047Y-125256819D02*
X179014571Y-125256819D01*
X179014571Y-125256819D02*
X178919333Y-125304438D01*
X178919333Y-125304438D02*
X178871714Y-125352057D01*
X178871714Y-125352057D02*
X178824095Y-125447295D01*
X178824095Y-125447295D02*
X178824095Y-125494914D01*
X178824095Y-125494914D02*
X178871714Y-125590152D01*
X178871714Y-125590152D02*
X178919333Y-125637771D01*
X178919333Y-125637771D02*
X179014571Y-125685390D01*
X179014571Y-125685390D02*
X179205047Y-125685390D01*
X179205047Y-125685390D02*
X179300285Y-125733009D01*
X179300285Y-125733009D02*
X179347904Y-125780628D01*
X179347904Y-125780628D02*
X179395523Y-125875866D01*
X179395523Y-125875866D02*
X179395523Y-126066342D01*
X179395523Y-126066342D02*
X179347904Y-126161580D01*
X179347904Y-126161580D02*
X179300285Y-126209200D01*
X179300285Y-126209200D02*
X179205047Y-126256819D01*
X179205047Y-126256819D02*
X179014571Y-126256819D01*
X179014571Y-126256819D02*
X178919333Y-126209200D01*
X178919333Y-126209200D02*
X178871714Y-126161580D01*
X178871714Y-126161580D02*
X178824095Y-126066342D01*
X178824095Y-126066342D02*
X178824095Y-125875866D01*
X178824095Y-125875866D02*
X178871714Y-125780628D01*
X178871714Y-125780628D02*
X178919333Y-125733009D01*
X178919333Y-125733009D02*
X179014571Y-125685390D01*
X156810412Y-47808118D02*
X156858031Y-47855738D01*
X156858031Y-47855738D02*
X157000888Y-47903357D01*
X157000888Y-47903357D02*
X157096126Y-47903357D01*
X157096126Y-47903357D02*
X157238983Y-47855738D01*
X157238983Y-47855738D02*
X157334221Y-47760499D01*
X157334221Y-47760499D02*
X157381840Y-47665261D01*
X157381840Y-47665261D02*
X157429459Y-47474785D01*
X157429459Y-47474785D02*
X157429459Y-47331928D01*
X157429459Y-47331928D02*
X157381840Y-47141452D01*
X157381840Y-47141452D02*
X157334221Y-47046214D01*
X157334221Y-47046214D02*
X157238983Y-46950976D01*
X157238983Y-46950976D02*
X157096126Y-46903357D01*
X157096126Y-46903357D02*
X157000888Y-46903357D01*
X157000888Y-46903357D02*
X156858031Y-46950976D01*
X156858031Y-46950976D02*
X156810412Y-46998595D01*
X155858031Y-47903357D02*
X156429459Y-47903357D01*
X156143745Y-47903357D02*
X156143745Y-46903357D01*
X156143745Y-46903357D02*
X156238983Y-47046214D01*
X156238983Y-47046214D02*
X156334221Y-47141452D01*
X156334221Y-47141452D02*
X156429459Y-47189071D01*
X155000888Y-46903357D02*
X155191364Y-46903357D01*
X155191364Y-46903357D02*
X155286602Y-46950976D01*
X155286602Y-46950976D02*
X155334221Y-46998595D01*
X155334221Y-46998595D02*
X155429459Y-47141452D01*
X155429459Y-47141452D02*
X155477078Y-47331928D01*
X155477078Y-47331928D02*
X155477078Y-47712880D01*
X155477078Y-47712880D02*
X155429459Y-47808118D01*
X155429459Y-47808118D02*
X155381840Y-47855738D01*
X155381840Y-47855738D02*
X155286602Y-47903357D01*
X155286602Y-47903357D02*
X155096126Y-47903357D01*
X155096126Y-47903357D02*
X155000888Y-47855738D01*
X155000888Y-47855738D02*
X154953269Y-47808118D01*
X154953269Y-47808118D02*
X154905650Y-47712880D01*
X154905650Y-47712880D02*
X154905650Y-47474785D01*
X154905650Y-47474785D02*
X154953269Y-47379547D01*
X154953269Y-47379547D02*
X155000888Y-47331928D01*
X155000888Y-47331928D02*
X155096126Y-47284309D01*
X155096126Y-47284309D02*
X155286602Y-47284309D01*
X155286602Y-47284309D02*
X155381840Y-47331928D01*
X155381840Y-47331928D02*
X155429459Y-47379547D01*
X155429459Y-47379547D02*
X155477078Y-47474785D01*
X158009942Y-88859580D02*
X158057561Y-88907200D01*
X158057561Y-88907200D02*
X158200418Y-88954819D01*
X158200418Y-88954819D02*
X158295656Y-88954819D01*
X158295656Y-88954819D02*
X158438513Y-88907200D01*
X158438513Y-88907200D02*
X158533751Y-88811961D01*
X158533751Y-88811961D02*
X158581370Y-88716723D01*
X158581370Y-88716723D02*
X158628989Y-88526247D01*
X158628989Y-88526247D02*
X158628989Y-88383390D01*
X158628989Y-88383390D02*
X158581370Y-88192914D01*
X158581370Y-88192914D02*
X158533751Y-88097676D01*
X158533751Y-88097676D02*
X158438513Y-88002438D01*
X158438513Y-88002438D02*
X158295656Y-87954819D01*
X158295656Y-87954819D02*
X158200418Y-87954819D01*
X158200418Y-87954819D02*
X158057561Y-88002438D01*
X158057561Y-88002438D02*
X158009942Y-88050057D01*
X157533751Y-88954819D02*
X157343275Y-88954819D01*
X157343275Y-88954819D02*
X157248037Y-88907200D01*
X157248037Y-88907200D02*
X157200418Y-88859580D01*
X157200418Y-88859580D02*
X157105180Y-88716723D01*
X157105180Y-88716723D02*
X157057561Y-88526247D01*
X157057561Y-88526247D02*
X157057561Y-88145295D01*
X157057561Y-88145295D02*
X157105180Y-88050057D01*
X157105180Y-88050057D02*
X157152799Y-88002438D01*
X157152799Y-88002438D02*
X157248037Y-87954819D01*
X157248037Y-87954819D02*
X157438513Y-87954819D01*
X157438513Y-87954819D02*
X157533751Y-88002438D01*
X157533751Y-88002438D02*
X157581370Y-88050057D01*
X157581370Y-88050057D02*
X157628989Y-88145295D01*
X157628989Y-88145295D02*
X157628989Y-88383390D01*
X157628989Y-88383390D02*
X157581370Y-88478628D01*
X157581370Y-88478628D02*
X157533751Y-88526247D01*
X157533751Y-88526247D02*
X157438513Y-88573866D01*
X157438513Y-88573866D02*
X157248037Y-88573866D01*
X157248037Y-88573866D02*
X157152799Y-88526247D01*
X157152799Y-88526247D02*
X157105180Y-88478628D01*
X157105180Y-88478628D02*
X157057561Y-88383390D01*
X161774094Y-97681819D02*
X161774094Y-96681819D01*
X161774094Y-96681819D02*
X161535999Y-96681819D01*
X161535999Y-96681819D02*
X161393142Y-96729438D01*
X161393142Y-96729438D02*
X161297904Y-96824676D01*
X161297904Y-96824676D02*
X161250285Y-96919914D01*
X161250285Y-96919914D02*
X161202666Y-97110390D01*
X161202666Y-97110390D02*
X161202666Y-97253247D01*
X161202666Y-97253247D02*
X161250285Y-97443723D01*
X161250285Y-97443723D02*
X161297904Y-97538961D01*
X161297904Y-97538961D02*
X161393142Y-97634200D01*
X161393142Y-97634200D02*
X161535999Y-97681819D01*
X161535999Y-97681819D02*
X161774094Y-97681819D01*
X160869332Y-96681819D02*
X160250285Y-96681819D01*
X160250285Y-96681819D02*
X160583618Y-97062771D01*
X160583618Y-97062771D02*
X160440761Y-97062771D01*
X160440761Y-97062771D02*
X160345523Y-97110390D01*
X160345523Y-97110390D02*
X160297904Y-97158009D01*
X160297904Y-97158009D02*
X160250285Y-97253247D01*
X160250285Y-97253247D02*
X160250285Y-97491342D01*
X160250285Y-97491342D02*
X160297904Y-97586580D01*
X160297904Y-97586580D02*
X160345523Y-97634200D01*
X160345523Y-97634200D02*
X160440761Y-97681819D01*
X160440761Y-97681819D02*
X160726475Y-97681819D01*
X160726475Y-97681819D02*
X160821713Y-97634200D01*
X160821713Y-97634200D02*
X160869332Y-97586580D01*
X151529851Y-88859580D02*
X151577470Y-88907200D01*
X151577470Y-88907200D02*
X151720327Y-88954819D01*
X151720327Y-88954819D02*
X151815565Y-88954819D01*
X151815565Y-88954819D02*
X151958422Y-88907200D01*
X151958422Y-88907200D02*
X152053660Y-88811961D01*
X152053660Y-88811961D02*
X152101279Y-88716723D01*
X152101279Y-88716723D02*
X152148898Y-88526247D01*
X152148898Y-88526247D02*
X152148898Y-88383390D01*
X152148898Y-88383390D02*
X152101279Y-88192914D01*
X152101279Y-88192914D02*
X152053660Y-88097676D01*
X152053660Y-88097676D02*
X151958422Y-88002438D01*
X151958422Y-88002438D02*
X151815565Y-87954819D01*
X151815565Y-87954819D02*
X151720327Y-87954819D01*
X151720327Y-87954819D02*
X151577470Y-88002438D01*
X151577470Y-88002438D02*
X151529851Y-88050057D01*
X150577470Y-88954819D02*
X151148898Y-88954819D01*
X150863184Y-88954819D02*
X150863184Y-87954819D01*
X150863184Y-87954819D02*
X150958422Y-88097676D01*
X150958422Y-88097676D02*
X151053660Y-88192914D01*
X151053660Y-88192914D02*
X151148898Y-88240533D01*
X149625089Y-88954819D02*
X150196517Y-88954819D01*
X149910803Y-88954819D02*
X149910803Y-87954819D01*
X149910803Y-87954819D02*
X150006041Y-88097676D01*
X150006041Y-88097676D02*
X150101279Y-88192914D01*
X150101279Y-88192914D02*
X150196517Y-88240533D01*
X170949857Y-98895119D02*
X171283190Y-98418928D01*
X171521285Y-98895119D02*
X171521285Y-97895119D01*
X171521285Y-97895119D02*
X171140333Y-97895119D01*
X171140333Y-97895119D02*
X171045095Y-97942738D01*
X171045095Y-97942738D02*
X170997476Y-97990357D01*
X170997476Y-97990357D02*
X170949857Y-98085595D01*
X170949857Y-98085595D02*
X170949857Y-98228452D01*
X170949857Y-98228452D02*
X170997476Y-98323690D01*
X170997476Y-98323690D02*
X171045095Y-98371309D01*
X171045095Y-98371309D02*
X171140333Y-98418928D01*
X171140333Y-98418928D02*
X171521285Y-98418928D01*
X169997476Y-98895119D02*
X170568904Y-98895119D01*
X170283190Y-98895119D02*
X170283190Y-97895119D01*
X170283190Y-97895119D02*
X170378428Y-98037976D01*
X170378428Y-98037976D02*
X170473666Y-98133214D01*
X170473666Y-98133214D02*
X170568904Y-98180833D01*
X169378428Y-97895119D02*
X169283190Y-97895119D01*
X169283190Y-97895119D02*
X169187952Y-97942738D01*
X169187952Y-97942738D02*
X169140333Y-97990357D01*
X169140333Y-97990357D02*
X169092714Y-98085595D01*
X169092714Y-98085595D02*
X169045095Y-98276071D01*
X169045095Y-98276071D02*
X169045095Y-98514166D01*
X169045095Y-98514166D02*
X169092714Y-98704642D01*
X169092714Y-98704642D02*
X169140333Y-98799880D01*
X169140333Y-98799880D02*
X169187952Y-98847500D01*
X169187952Y-98847500D02*
X169283190Y-98895119D01*
X169283190Y-98895119D02*
X169378428Y-98895119D01*
X169378428Y-98895119D02*
X169473666Y-98847500D01*
X169473666Y-98847500D02*
X169521285Y-98799880D01*
X169521285Y-98799880D02*
X169568904Y-98704642D01*
X169568904Y-98704642D02*
X169616523Y-98514166D01*
X169616523Y-98514166D02*
X169616523Y-98276071D01*
X169616523Y-98276071D02*
X169568904Y-98085595D01*
X169568904Y-98085595D02*
X169521285Y-97990357D01*
X169521285Y-97990357D02*
X169473666Y-97942738D01*
X169473666Y-97942738D02*
X169378428Y-97895119D01*
X161901094Y-59505619D02*
X161901094Y-58505619D01*
X161901094Y-58505619D02*
X161662999Y-58505619D01*
X161662999Y-58505619D02*
X161520142Y-58553238D01*
X161520142Y-58553238D02*
X161424904Y-58648476D01*
X161424904Y-58648476D02*
X161377285Y-58743714D01*
X161377285Y-58743714D02*
X161329666Y-58934190D01*
X161329666Y-58934190D02*
X161329666Y-59077047D01*
X161329666Y-59077047D02*
X161377285Y-59267523D01*
X161377285Y-59267523D02*
X161424904Y-59362761D01*
X161424904Y-59362761D02*
X161520142Y-59458000D01*
X161520142Y-59458000D02*
X161662999Y-59505619D01*
X161662999Y-59505619D02*
X161901094Y-59505619D01*
X160853475Y-59505619D02*
X160662999Y-59505619D01*
X160662999Y-59505619D02*
X160567761Y-59458000D01*
X160567761Y-59458000D02*
X160520142Y-59410380D01*
X160520142Y-59410380D02*
X160424904Y-59267523D01*
X160424904Y-59267523D02*
X160377285Y-59077047D01*
X160377285Y-59077047D02*
X160377285Y-58696095D01*
X160377285Y-58696095D02*
X160424904Y-58600857D01*
X160424904Y-58600857D02*
X160472523Y-58553238D01*
X160472523Y-58553238D02*
X160567761Y-58505619D01*
X160567761Y-58505619D02*
X160758237Y-58505619D01*
X160758237Y-58505619D02*
X160853475Y-58553238D01*
X160853475Y-58553238D02*
X160901094Y-58600857D01*
X160901094Y-58600857D02*
X160948713Y-58696095D01*
X160948713Y-58696095D02*
X160948713Y-58934190D01*
X160948713Y-58934190D02*
X160901094Y-59029428D01*
X160901094Y-59029428D02*
X160853475Y-59077047D01*
X160853475Y-59077047D02*
X160758237Y-59124666D01*
X160758237Y-59124666D02*
X160567761Y-59124666D01*
X160567761Y-59124666D02*
X160472523Y-59077047D01*
X160472523Y-59077047D02*
X160424904Y-59029428D01*
X160424904Y-59029428D02*
X160377285Y-58934190D01*
X155189926Y-88859580D02*
X155237545Y-88907200D01*
X155237545Y-88907200D02*
X155380402Y-88954819D01*
X155380402Y-88954819D02*
X155475640Y-88954819D01*
X155475640Y-88954819D02*
X155618497Y-88907200D01*
X155618497Y-88907200D02*
X155713735Y-88811961D01*
X155713735Y-88811961D02*
X155761354Y-88716723D01*
X155761354Y-88716723D02*
X155808973Y-88526247D01*
X155808973Y-88526247D02*
X155808973Y-88383390D01*
X155808973Y-88383390D02*
X155761354Y-88192914D01*
X155761354Y-88192914D02*
X155713735Y-88097676D01*
X155713735Y-88097676D02*
X155618497Y-88002438D01*
X155618497Y-88002438D02*
X155475640Y-87954819D01*
X155475640Y-87954819D02*
X155380402Y-87954819D01*
X155380402Y-87954819D02*
X155237545Y-88002438D01*
X155237545Y-88002438D02*
X155189926Y-88050057D01*
X154237545Y-88954819D02*
X154808973Y-88954819D01*
X154523259Y-88954819D02*
X154523259Y-87954819D01*
X154523259Y-87954819D02*
X154618497Y-88097676D01*
X154618497Y-88097676D02*
X154713735Y-88192914D01*
X154713735Y-88192914D02*
X154808973Y-88240533D01*
X153618497Y-87954819D02*
X153523259Y-87954819D01*
X153523259Y-87954819D02*
X153428021Y-88002438D01*
X153428021Y-88002438D02*
X153380402Y-88050057D01*
X153380402Y-88050057D02*
X153332783Y-88145295D01*
X153332783Y-88145295D02*
X153285164Y-88335771D01*
X153285164Y-88335771D02*
X153285164Y-88573866D01*
X153285164Y-88573866D02*
X153332783Y-88764342D01*
X153332783Y-88764342D02*
X153380402Y-88859580D01*
X153380402Y-88859580D02*
X153428021Y-88907200D01*
X153428021Y-88907200D02*
X153523259Y-88954819D01*
X153523259Y-88954819D02*
X153618497Y-88954819D01*
X153618497Y-88954819D02*
X153713735Y-88907200D01*
X153713735Y-88907200D02*
X153761354Y-88859580D01*
X153761354Y-88859580D02*
X153808973Y-88764342D01*
X153808973Y-88764342D02*
X153856592Y-88573866D01*
X153856592Y-88573866D02*
X153856592Y-88335771D01*
X153856592Y-88335771D02*
X153808973Y-88145295D01*
X153808973Y-88145295D02*
X153761354Y-88050057D01*
X153761354Y-88050057D02*
X153713735Y-88002438D01*
X153713735Y-88002438D02*
X153618497Y-87954819D01*
X187293466Y-99013180D02*
X187341085Y-99060800D01*
X187341085Y-99060800D02*
X187483942Y-99108419D01*
X187483942Y-99108419D02*
X187579180Y-99108419D01*
X187579180Y-99108419D02*
X187722037Y-99060800D01*
X187722037Y-99060800D02*
X187817275Y-98965561D01*
X187817275Y-98965561D02*
X187864894Y-98870323D01*
X187864894Y-98870323D02*
X187912513Y-98679847D01*
X187912513Y-98679847D02*
X187912513Y-98536990D01*
X187912513Y-98536990D02*
X187864894Y-98346514D01*
X187864894Y-98346514D02*
X187817275Y-98251276D01*
X187817275Y-98251276D02*
X187722037Y-98156038D01*
X187722037Y-98156038D02*
X187579180Y-98108419D01*
X187579180Y-98108419D02*
X187483942Y-98108419D01*
X187483942Y-98108419D02*
X187341085Y-98156038D01*
X187341085Y-98156038D02*
X187293466Y-98203657D01*
X186960132Y-98108419D02*
X186341085Y-98108419D01*
X186341085Y-98108419D02*
X186674418Y-98489371D01*
X186674418Y-98489371D02*
X186531561Y-98489371D01*
X186531561Y-98489371D02*
X186436323Y-98536990D01*
X186436323Y-98536990D02*
X186388704Y-98584609D01*
X186388704Y-98584609D02*
X186341085Y-98679847D01*
X186341085Y-98679847D02*
X186341085Y-98917942D01*
X186341085Y-98917942D02*
X186388704Y-99013180D01*
X186388704Y-99013180D02*
X186436323Y-99060800D01*
X186436323Y-99060800D02*
X186531561Y-99108419D01*
X186531561Y-99108419D02*
X186817275Y-99108419D01*
X186817275Y-99108419D02*
X186912513Y-99060800D01*
X186912513Y-99060800D02*
X186960132Y-99013180D01*
D12*
X181093000Y-103483000D02*
X181093000Y-104783000D01*
X181093000Y-103483000D02*
X181693000Y-103483000D01*
X181093000Y-105783000D02*
X181093000Y-107083000D01*
X181093000Y-107083000D02*
X181693000Y-107083000D01*
X183393000Y-107083000D02*
X187193000Y-107083000D01*
X187193000Y-103483000D02*
X183393000Y-103483000D01*
X188893000Y-107083000D02*
X189493000Y-107083000D01*
X189493000Y-103483000D02*
X188893000Y-103483000D01*
X189493000Y-107083000D02*
X189493000Y-103483000D01*
X181093000Y-105783000D02*
G75*
G03*
X181093000Y-104783000I0J500000D01*
G01*
X140376000Y-56350800D02*
X143036000Y-56350800D01*
X140376000Y-58050800D02*
X140376000Y-56350800D01*
X140376000Y-58050800D02*
X143036000Y-58050800D01*
X184781564Y-111479000D02*
X184327436Y-111479000D01*
X184781564Y-110009000D02*
X184327436Y-110009000D01*
X142822600Y-52738748D02*
X142822600Y-53261252D01*
X141352600Y-52738748D02*
X141352600Y-53261252D01*
X140376000Y-75400800D02*
X143036000Y-75400800D01*
X140376000Y-77100800D02*
X140376000Y-75400800D01*
X140376000Y-77100800D02*
X143036000Y-77100800D01*
X121072000Y-56350800D02*
X123732000Y-56350800D01*
X121072000Y-58050800D02*
X121072000Y-56350800D01*
X121072000Y-58050800D02*
X123732000Y-58050800D01*
X121326000Y-113577000D02*
X123986000Y-113577000D01*
X121326000Y-115277000D02*
X121326000Y-113577000D01*
X121326000Y-115277000D02*
X123986000Y-115277000D01*
X182145000Y-118752252D02*
X182145000Y-118229748D01*
X183615000Y-118752252D02*
X183615000Y-118229748D01*
X121326000Y-94527000D02*
X123986000Y-94527000D01*
X121326000Y-96227000D02*
X121326000Y-94527000D01*
X121326000Y-96227000D02*
X123986000Y-96227000D01*
X178743000Y-110290000D02*
X178743000Y-109840000D01*
X178743000Y-103520000D02*
X180033000Y-103520000D01*
X178743000Y-103070000D02*
X178743000Y-103520000D01*
X178293000Y-110290000D02*
X178743000Y-110290000D01*
X178293000Y-103070000D02*
X178743000Y-103070000D01*
X171973000Y-110290000D02*
X171523000Y-110290000D01*
X171973000Y-103070000D02*
X171523000Y-103070000D01*
X171523000Y-110290000D02*
X171523000Y-109840000D01*
X171523000Y-103070000D02*
X171523000Y-103520000D01*
X176890000Y-52576252D02*
X176890000Y-51153748D01*
X178710000Y-52576252D02*
X178710000Y-51153748D01*
X163453278Y-52410527D02*
X163453278Y-50988023D01*
X165273278Y-52410527D02*
X165273278Y-50988023D01*
X174301200Y-59116400D02*
X174301200Y-53106400D01*
X167481200Y-56866400D02*
X167481200Y-53106400D01*
X167481200Y-53106400D02*
X168741200Y-53106400D01*
X174301200Y-53106400D02*
X173041200Y-53106400D01*
X172035800Y-96227064D02*
X172035800Y-95772936D01*
X173505800Y-96227064D02*
X173505800Y-95772936D01*
X169010000Y-90738748D02*
X169010000Y-91261252D01*
X167540000Y-90738748D02*
X167540000Y-91261252D01*
X165772936Y-108265000D02*
X166227064Y-108265000D01*
X165772936Y-109735000D02*
X166227064Y-109735000D01*
X148102000Y-53848000D02*
X148102000Y-55798000D01*
X148102000Y-53848000D02*
X148102000Y-51898000D01*
X158222000Y-53848000D02*
X158222000Y-57348000D01*
X158222000Y-53848000D02*
X158222000Y-51898000D01*
X183776252Y-101065000D02*
X183253748Y-101065000D01*
X183776252Y-99595000D02*
X183253748Y-99595000D01*
X121326000Y-75400800D02*
X123986000Y-75400800D01*
X121326000Y-77100800D02*
X121326000Y-75400800D01*
X121326000Y-77100800D02*
X123986000Y-77100800D01*
X146073800Y-52772936D02*
X146073800Y-53227064D01*
X144603800Y-52772936D02*
X144603800Y-53227064D01*
X178476000Y-84951200D02*
X181136000Y-84951200D01*
X178476000Y-86651200D02*
X178476000Y-84951200D01*
X178476000Y-86651200D02*
X181136000Y-86651200D01*
X140376000Y-94527000D02*
X143036000Y-94527000D01*
X140376000Y-96227000D02*
X140376000Y-94527000D01*
X140376000Y-96227000D02*
X143036000Y-96227000D01*
X185320000Y-118752252D02*
X185320000Y-118229748D01*
X186790000Y-118752252D02*
X186790000Y-118229748D01*
X171550000Y-115620436D02*
X171550000Y-116074564D01*
X170080000Y-115620436D02*
X170080000Y-116074564D01*
X125377500Y-46040000D02*
X128062500Y-46040000D01*
X125377500Y-47960000D02*
X125377500Y-46040000D01*
X128062500Y-47960000D02*
X125377500Y-47960000D01*
X178603000Y-56350800D02*
X181263000Y-56350800D01*
X178603000Y-58050800D02*
X178603000Y-56350800D01*
X178603000Y-58050800D02*
X181263000Y-58050800D01*
X176588748Y-114454000D02*
X177111252Y-114454000D01*
X176588748Y-115924000D02*
X177111252Y-115924000D01*
X161898000Y-90738748D02*
X161898000Y-91261252D01*
X160428000Y-90738748D02*
X160428000Y-91261252D01*
X139516100Y-52738748D02*
X139516100Y-53261252D01*
X138046100Y-52738748D02*
X138046100Y-53261252D01*
X174090000Y-115620436D02*
X174090000Y-116074564D01*
X172620000Y-115620436D02*
X172620000Y-116074564D01*
X140376000Y-113577000D02*
X143036000Y-113577000D01*
X140376000Y-115277000D02*
X140376000Y-113577000D01*
X140376000Y-115277000D02*
X143036000Y-115277000D01*
X166227064Y-103735000D02*
X165772936Y-103735000D01*
X166227064Y-102265000D02*
X165772936Y-102265000D01*
X178400400Y-70186400D02*
X181060400Y-70186400D01*
X178400400Y-77866400D02*
X178400400Y-70186400D01*
X178400400Y-77866400D02*
X181060400Y-77866400D01*
X178400400Y-79136400D02*
X178400400Y-80466400D01*
X178400400Y-80466400D02*
X179730400Y-80466400D01*
X181060400Y-77866400D02*
X181060400Y-70186400D01*
X130851000Y-132627000D02*
X133511000Y-132627000D01*
X130851000Y-134327000D02*
X130851000Y-132627000D01*
X130851000Y-134327000D02*
X133511000Y-134327000D01*
X152273364Y-46404200D02*
X151819236Y-46404200D01*
X152273364Y-44934200D02*
X151819236Y-44934200D01*
X159426000Y-75400800D02*
X162086000Y-75400800D01*
X159426000Y-77100800D02*
X159426000Y-75400800D01*
X159426000Y-77100800D02*
X162086000Y-77100800D01*
X170109130Y-143523079D02*
X170109130Y-140863079D01*
X177789130Y-143523079D02*
X170109130Y-143523079D01*
X177789130Y-143523079D02*
X177789130Y-140863079D01*
X179059130Y-143523079D02*
X180389130Y-143523079D01*
X180389130Y-143523079D02*
X180389130Y-142193079D01*
X177789130Y-140863079D02*
X170109130Y-140863079D01*
X165581000Y-90738748D02*
X165581000Y-91261252D01*
X164111000Y-90738748D02*
X164111000Y-91261252D01*
X159426000Y-113577000D02*
X162086000Y-113577000D01*
X159426000Y-115277000D02*
X159426000Y-113577000D01*
X159426000Y-115277000D02*
X162086000Y-115277000D01*
X187604000Y-115719000D02*
X181704000Y-115719000D01*
X187604000Y-112119000D02*
X187604000Y-115719000D01*
X181704000Y-112119000D02*
X187604000Y-112119000D01*
X166227064Y-106735000D02*
X165772936Y-106735000D01*
X166227064Y-105265000D02*
X165772936Y-105265000D01*
X131860436Y-46265000D02*
X132314564Y-46265000D01*
X131860436Y-47735000D02*
X132314564Y-47735000D01*
X159553000Y-132627000D02*
X162213000Y-132627000D01*
X159553000Y-134327000D02*
X159553000Y-132627000D01*
X159553000Y-134327000D02*
X162213000Y-134327000D01*
X178476000Y-123102000D02*
X181136000Y-123102000D01*
X178476000Y-124802000D02*
X178476000Y-123102000D01*
X178476000Y-124802000D02*
X181136000Y-124802000D01*
X156378007Y-46405538D02*
X155855503Y-46405538D01*
X156378007Y-44935538D02*
X155855503Y-44935538D01*
X158596000Y-90738748D02*
X158596000Y-91261252D01*
X157126000Y-90738748D02*
X157126000Y-91261252D01*
X159426000Y-94527000D02*
X162086000Y-94527000D01*
X159426000Y-96227000D02*
X159426000Y-94527000D01*
X159426000Y-96227000D02*
X162086000Y-96227000D01*
X151484000Y-90738748D02*
X151484000Y-91261252D01*
X150014000Y-90738748D02*
X150014000Y-91261252D01*
X169445000Y-96227064D02*
X169445000Y-95772936D01*
X170915000Y-96227064D02*
X170915000Y-95772936D01*
X159553000Y-56350800D02*
X162213000Y-56350800D01*
X159553000Y-58050800D02*
X159553000Y-56350800D01*
X159553000Y-58050800D02*
X162213000Y-58050800D01*
X155167000Y-90738748D02*
X155167000Y-91261252D01*
X153697000Y-90738748D02*
X153697000Y-91261252D01*
X186850348Y-99595000D02*
X187372852Y-99595000D01*
X186850348Y-101065000D02*
X187372852Y-101065000D01*
%LPC*%
D13*
X185420000Y-51000000D03*
D14*
X118770400Y-100431600D03*
D15*
X123850400Y-100431600D03*
D14*
X128930400Y-100431600D03*
D16*
X120040400Y-97891600D03*
X126390400Y-95351600D03*
D14*
X118770400Y-62280800D03*
D15*
X123850400Y-62280800D03*
D14*
X128930400Y-62280800D03*
D16*
X120040400Y-59740800D03*
X126390400Y-57200800D03*
D14*
X156870400Y-138531600D03*
D15*
X161950400Y-138531600D03*
D14*
X167030400Y-138531600D03*
D16*
X158140400Y-135991600D03*
X164490400Y-133451600D03*
D14*
X156870400Y-81330800D03*
D15*
X161950400Y-81330800D03*
D14*
X167030400Y-81330800D03*
D16*
X158140400Y-78790800D03*
X164490400Y-76250800D03*
D14*
X118770400Y-81330800D03*
D15*
X123850400Y-81330800D03*
D14*
X128930400Y-81330800D03*
D16*
X120040400Y-78790800D03*
X126390400Y-76250800D03*
D14*
X128270000Y-138531600D03*
D15*
X133350000Y-138531600D03*
D14*
X138430000Y-138531600D03*
D16*
X129540000Y-135991600D03*
X135890000Y-133451600D03*
D14*
X156870400Y-100431600D03*
D15*
X161950400Y-100431600D03*
D14*
X167030400Y-100431600D03*
D16*
X158140400Y-97891600D03*
X164490400Y-95351600D03*
D17*
X166000000Y-43025000D03*
D18*
X163500000Y-43025000D03*
X161500000Y-43025000D03*
X159000000Y-43025000D03*
D19*
X155930000Y-40625000D03*
X169070000Y-40625000D03*
D13*
X185420000Y-143000000D03*
D14*
X156870400Y-119481600D03*
D15*
X161950400Y-119481600D03*
D14*
X167030400Y-119481600D03*
D16*
X158140400Y-116941600D03*
X164490400Y-114401600D03*
D14*
X137820400Y-81330800D03*
D15*
X142900400Y-81330800D03*
D14*
X147980400Y-81330800D03*
D16*
X139090400Y-78790800D03*
X145440400Y-76250800D03*
D14*
X175920400Y-62280800D03*
D15*
X181000400Y-62280800D03*
D14*
X186080400Y-62280800D03*
D16*
X177190400Y-59740800D03*
X183540400Y-57200800D03*
D14*
X175920400Y-128981200D03*
D15*
X181000400Y-128981200D03*
D14*
X186080400Y-128981200D03*
D16*
X177190400Y-126441200D03*
X183540400Y-123901200D03*
D20*
X133821600Y-39132400D03*
X129971600Y-39132400D03*
D21*
X134721600Y-36982400D03*
X129071600Y-36982400D03*
D14*
X137820400Y-100431600D03*
D15*
X142900400Y-100431600D03*
D14*
X147980400Y-100431600D03*
D16*
X139090400Y-97891600D03*
X145440400Y-95351600D03*
D14*
X156870400Y-62280800D03*
D15*
X161950400Y-62280800D03*
D14*
X167030400Y-62280800D03*
D16*
X158140400Y-59740800D03*
X164490400Y-57200800D03*
D13*
X119380000Y-51000000D03*
D17*
X183500000Y-43025000D03*
D18*
X181000000Y-43025000D03*
X179000000Y-43025000D03*
X176500000Y-43025000D03*
D19*
X173430000Y-40625000D03*
X186570000Y-40625000D03*
D18*
X121615200Y-36190800D03*
X121615200Y-43190800D03*
D17*
X148500000Y-43000000D03*
D18*
X146000000Y-43000000D03*
X144000000Y-43000000D03*
X141500000Y-43000000D03*
D19*
X138430000Y-40600000D03*
X151570000Y-40600000D03*
D14*
X118770400Y-119481600D03*
D15*
X123850400Y-119481600D03*
D14*
X128930400Y-119481600D03*
D16*
X120040400Y-116941600D03*
X126390400Y-114401600D03*
D14*
X137820400Y-119481600D03*
D15*
X142900400Y-119481600D03*
D14*
X147980400Y-119481600D03*
D16*
X139090400Y-116941600D03*
X145440400Y-114401600D03*
D14*
X175920400Y-90881200D03*
D15*
X181000400Y-90881200D03*
D14*
X186080400Y-90881200D03*
D16*
X177190400Y-88341200D03*
X183540400Y-85801200D03*
D14*
X137820400Y-62280800D03*
D15*
X142900400Y-62280800D03*
D14*
X147980400Y-62280800D03*
D16*
X139090400Y-59740800D03*
X145440400Y-57200800D03*
D13*
X119380000Y-142240000D03*
D22*
X182543000Y-103683000D03*
X188043000Y-103683000D03*
X188043000Y-106883000D03*
X182543000Y-106883000D03*
D23*
X140936000Y-57200800D03*
X143036000Y-57200800D03*
D24*
X185467000Y-110744000D03*
X183642000Y-110744000D03*
D25*
X142087600Y-52050000D03*
X142087600Y-53950000D03*
D23*
X140936000Y-76250800D03*
X143036000Y-76250800D03*
X121632000Y-57200800D03*
X123732000Y-57200800D03*
X121886000Y-114427000D03*
X123986000Y-114427000D03*
D26*
X182880000Y-119441000D03*
X182880000Y-117541000D03*
D23*
X121886000Y-95377000D03*
X123986000Y-95377000D03*
D27*
X179295500Y-103930000D03*
X179295500Y-104430000D03*
X179295500Y-104930000D03*
X179295500Y-105430000D03*
X179295500Y-105930000D03*
X179295500Y-106430000D03*
X179295500Y-106930000D03*
X179295500Y-107430000D03*
X179295500Y-107930000D03*
X179295500Y-108430000D03*
X179295500Y-108930000D03*
X179295500Y-109430000D03*
D28*
X177883000Y-110842500D03*
X177383000Y-110842500D03*
X176883000Y-110842500D03*
X176383000Y-110842500D03*
X175883000Y-110842500D03*
X175383000Y-110842500D03*
X174883000Y-110842500D03*
X174383000Y-110842500D03*
X173883000Y-110842500D03*
X173383000Y-110842500D03*
X172883000Y-110842500D03*
X172383000Y-110842500D03*
D27*
X170970500Y-109430000D03*
X170970500Y-108930000D03*
X170970500Y-108430000D03*
X170970500Y-107930000D03*
X170970500Y-107430000D03*
X170970500Y-106930000D03*
X170970500Y-106430000D03*
X170970500Y-105930000D03*
X170970500Y-105430000D03*
X170970500Y-104930000D03*
X170970500Y-104430000D03*
X170970500Y-103930000D03*
D28*
X172383000Y-102517500D03*
X172883000Y-102517500D03*
X173383000Y-102517500D03*
X173883000Y-102517500D03*
X174383000Y-102517500D03*
X174883000Y-102517500D03*
X175383000Y-102517500D03*
X175883000Y-102517500D03*
X176383000Y-102517500D03*
X176883000Y-102517500D03*
X177383000Y-102517500D03*
X177883000Y-102517500D03*
D29*
X177800000Y-53340000D03*
X177800000Y-50390000D03*
X164363278Y-53174275D03*
X164363278Y-50224275D03*
D30*
X173191200Y-58166400D03*
X170891200Y-58166400D03*
D31*
X170891200Y-51866400D03*
D30*
X168591200Y-58166400D03*
D32*
X172770800Y-96912500D03*
X172770800Y-95087500D03*
D25*
X168275000Y-90050000D03*
X168275000Y-91950000D03*
D33*
X165087500Y-109000000D03*
X166912500Y-109000000D03*
D34*
X157607000Y-56348000D03*
X156337000Y-56348000D03*
X155067000Y-56348000D03*
X153797000Y-56348000D03*
X152527000Y-56348000D03*
X151257000Y-56348000D03*
X149987000Y-56348000D03*
X148717000Y-56348000D03*
X148717000Y-51348000D03*
X149987000Y-51348000D03*
X151257000Y-51348000D03*
X152527000Y-51348000D03*
X153797000Y-51348000D03*
X155067000Y-51348000D03*
X156337000Y-51348000D03*
X157607000Y-51348000D03*
D35*
X184465000Y-100330000D03*
X182565000Y-100330000D03*
D23*
X121886000Y-76250800D03*
X123986000Y-76250800D03*
D36*
X145338800Y-52087500D03*
X145338800Y-53912500D03*
D23*
X179036000Y-85801200D03*
X181136000Y-85801200D03*
X140936000Y-95377000D03*
X143036000Y-95377000D03*
D26*
X186055000Y-119441000D03*
X186055000Y-117541000D03*
D36*
X170815000Y-114935000D03*
X170815000Y-116760000D03*
D37*
X126125000Y-47000000D03*
X128000000Y-47000000D03*
D23*
X179163000Y-57200800D03*
X181263000Y-57200800D03*
D38*
X175900000Y-115189000D03*
X177800000Y-115189000D03*
D25*
X161163000Y-90050000D03*
X161163000Y-91950000D03*
X138781100Y-52050000D03*
X138781100Y-53950000D03*
D36*
X173355000Y-114935000D03*
X173355000Y-116760000D03*
D23*
X140936000Y-114427000D03*
X143036000Y-114427000D03*
D24*
X166912500Y-103000000D03*
X165087500Y-103000000D03*
D39*
X179730400Y-79136400D03*
D40*
X179730400Y-76596400D03*
X179730400Y-74056400D03*
X179730400Y-71516400D03*
D23*
X131411000Y-133477000D03*
X133511000Y-133477000D03*
D24*
X152958800Y-45669200D03*
X151133800Y-45669200D03*
D23*
X159986000Y-76250800D03*
X162086000Y-76250800D03*
D39*
X179059130Y-142193079D03*
D40*
X176519130Y-142193079D03*
X173979130Y-142193079D03*
X171439130Y-142193079D03*
D25*
X164846000Y-90050000D03*
X164846000Y-91950000D03*
D23*
X159986000Y-114427000D03*
X162086000Y-114427000D03*
D41*
X186454000Y-113919000D03*
X182354000Y-113919000D03*
D24*
X166912500Y-106000000D03*
X165087500Y-106000000D03*
D33*
X131175000Y-47000000D03*
X133000000Y-47000000D03*
D23*
X160113000Y-133477000D03*
X162213000Y-133477000D03*
X179036000Y-123952000D03*
X181136000Y-123952000D03*
D35*
X157066755Y-45670538D03*
X155166755Y-45670538D03*
D25*
X157861000Y-90050000D03*
X157861000Y-91950000D03*
D23*
X159986000Y-95377000D03*
X162086000Y-95377000D03*
D25*
X150749000Y-90050000D03*
X150749000Y-91950000D03*
D32*
X170180000Y-96912500D03*
X170180000Y-95087500D03*
D23*
X160113000Y-57200800D03*
X162213000Y-57200800D03*
D25*
X154432000Y-90050000D03*
X154432000Y-91950000D03*
D38*
X186161600Y-100330000D03*
X188061600Y-100330000D03*
%LPD*%
M02*
