%TF.GenerationSoftware,KiCad,Pcbnew,7.0.8-7.0.8~ubuntu22.04.1*%
%TF.CreationDate,2023-11-08T21:52:34+01:00*%
%TF.ProjectId,keyboard,6b657962-6f61-4726-942e-6b696361645f,rev?*%
%TF.SameCoordinates,Original*%
%TF.FileFunction,Soldermask,Top*%
%TF.FilePolarity,Negative*%
%FSLAX46Y46*%
G04 Gerber Fmt 4.6, Leading zero omitted, Abs format (unit mm)*
G04 Created by KiCad (PCBNEW 7.0.8-7.0.8~ubuntu22.04.1) date 2023-11-08 21:52:34*
%MOMM*%
%LPD*%
G01*
G04 APERTURE LIST*
G04 Aperture macros list*
%AMRoundRect*
0 Rectangle with rounded corners*
0 $1 Rounding radius*
0 $2 $3 $4 $5 $6 $7 $8 $9 X,Y pos of 4 corners*
0 Add a 4 corners polygon primitive as box body*
4,1,4,$2,$3,$4,$5,$6,$7,$8,$9,$2,$3,0*
0 Add four circle primitives for the rounded corners*
1,1,$1+$1,$2,$3*
1,1,$1+$1,$4,$5*
1,1,$1+$1,$6,$7*
1,1,$1+$1,$8,$9*
0 Add four rect primitives between the rounded corners*
20,1,$1+$1,$2,$3,$4,$5,0*
20,1,$1+$1,$4,$5,$6,$7,0*
20,1,$1+$1,$6,$7,$8,$9,0*
20,1,$1+$1,$8,$9,$2,$3,0*%
G04 Aperture macros list end*
%ADD10C,1.750000*%
%ADD11C,4.000000*%
%ADD12C,2.500000*%
%ADD13C,1.550000*%
%ADD14RoundRect,0.250000X-0.450000X0.262500X-0.450000X-0.262500X0.450000X-0.262500X0.450000X0.262500X0*%
%ADD15C,5.600000*%
%ADD16C,3.048000*%
%ADD17C,3.987800*%
%ADD18C,0.550000*%
%ADD19R,0.400000X1.400000*%
%ADD20R,1.150000X1.450000*%
%ADD21O,1.050000X1.900000*%
%ADD22R,1.750000X1.900000*%
%ADD23RoundRect,0.243750X-0.456250X0.243750X-0.456250X-0.243750X0.456250X-0.243750X0.456250X0.243750X0*%
%ADD24RoundRect,0.250000X0.262500X0.450000X-0.262500X0.450000X-0.262500X-0.450000X0.262500X-0.450000X0*%
%ADD25C,1.300000*%
%ADD26R,2.500000X1.200000*%
%ADD27R,1.000000X1.000000*%
%ADD28O,1.000000X1.000000*%
%ADD29R,1.700000X1.700000*%
%ADD30O,1.700000X1.700000*%
G04 APERTURE END LIST*
D10*
%TO.C,S4*%
X245380000Y-116680000D03*
D11*
X250460000Y-116680000D03*
D10*
X255540000Y-116680000D03*
D12*
X246650000Y-114140000D03*
X253000000Y-111600000D03*
%TD*%
D10*
%TO.C,S10*%
X293030000Y-97630000D03*
D11*
X298110000Y-97630000D03*
D10*
X303190000Y-97630000D03*
D12*
X294300000Y-95090000D03*
X300650000Y-92550000D03*
%TD*%
D10*
%TO.C,S33*%
X288280000Y-135750000D03*
D11*
X293360000Y-135750000D03*
D10*
X298440000Y-135750000D03*
D12*
X289550000Y-133210000D03*
X295900000Y-130670000D03*
%TD*%
D10*
%TO.C,S24*%
X69160000Y-116680000D03*
D13*
X70430000Y-114140000D03*
D11*
X74240000Y-116680000D03*
D13*
X76780000Y-111600000D03*
D10*
X79320000Y-116680000D03*
%TD*%
D14*
%TO.C,R5*%
X95450000Y-76850000D03*
X95450000Y-78675000D03*
%TD*%
D10*
%TO.C,S56*%
X135880000Y-135750000D03*
D11*
X140960000Y-135750000D03*
D10*
X146040000Y-135750000D03*
D12*
X137150000Y-133210000D03*
X143500000Y-130670000D03*
%TD*%
D10*
%TO.C,S51*%
X107230000Y-154800000D03*
D11*
X112310000Y-154800000D03*
D10*
X117390000Y-154800000D03*
D12*
X108500000Y-152260000D03*
X114850000Y-149720000D03*
%TD*%
D15*
%TO.C,H1*%
X80350000Y-84800000D03*
%TD*%
D10*
%TO.C,S65*%
X293020000Y-78550000D03*
D11*
X298100000Y-78550000D03*
D10*
X303180000Y-78550000D03*
D12*
X294290000Y-76010000D03*
X300640000Y-73470000D03*
%TD*%
D10*
%TO.C,S16*%
X83460000Y-97630000D03*
D11*
X88540000Y-97630000D03*
D10*
X93620000Y-97630000D03*
D12*
X84730000Y-95090000D03*
X91080000Y-92550000D03*
%TD*%
D10*
%TO.C,S66*%
X235880000Y-97630000D03*
D11*
X240960000Y-97630000D03*
D10*
X246040000Y-97630000D03*
D12*
X237150000Y-95090000D03*
X243500000Y-92550000D03*
%TD*%
D10*
%TO.C,S58*%
X90580000Y-173850000D03*
D13*
X91850000Y-171310000D03*
D11*
X95660000Y-173850000D03*
D13*
X98200000Y-168770000D03*
D10*
X100740000Y-173850000D03*
%TD*%
%TO.C,S21*%
X331090000Y-173850000D03*
D11*
X336170000Y-173850000D03*
D10*
X341250000Y-173850000D03*
D12*
X332360000Y-171310000D03*
X338710000Y-168770000D03*
%TD*%
D10*
%TO.C,S75*%
X183430000Y-154800000D03*
D11*
X188510000Y-154800000D03*
D10*
X193590000Y-154800000D03*
D12*
X184700000Y-152260000D03*
X191050000Y-149720000D03*
%TD*%
D10*
%TO.C,S76*%
X257290000Y-173850000D03*
D13*
X258560000Y-171310000D03*
D11*
X262370000Y-173850000D03*
D13*
X264910000Y-168770000D03*
D10*
X267450000Y-173850000D03*
%TD*%
D15*
%TO.C,H3*%
X300550000Y-175950000D03*
%TD*%
D10*
%TO.C,S59*%
X273970000Y-78550000D03*
D11*
X279050000Y-78550000D03*
D10*
X284130000Y-78550000D03*
D12*
X275240000Y-76010000D03*
X281590000Y-73470000D03*
%TD*%
D10*
%TO.C,S23*%
X102510000Y-97630000D03*
D11*
X107590000Y-97630000D03*
D10*
X112670000Y-97630000D03*
D12*
X103780000Y-95090000D03*
X110130000Y-92550000D03*
%TD*%
D10*
%TO.C,S55*%
X169180000Y-116680000D03*
D11*
X174260000Y-116680000D03*
D10*
X179340000Y-116680000D03*
D12*
X170450000Y-114140000D03*
X176800000Y-111600000D03*
%TD*%
D10*
%TO.C,S49*%
X150130000Y-116680000D03*
D11*
X155210000Y-116680000D03*
D10*
X160290000Y-116680000D03*
D12*
X151400000Y-114140000D03*
X157750000Y-111600000D03*
%TD*%
D10*
%TO.C,S2*%
X331120000Y-78550000D03*
D11*
X336200000Y-78550000D03*
D10*
X341280000Y-78550000D03*
D12*
X332390000Y-76010000D03*
X338740000Y-73470000D03*
%TD*%
D14*
%TO.C,R2*%
X93430000Y-81675000D03*
X93430000Y-83500000D03*
%TD*%
D10*
%TO.C,S35*%
X187900000Y-78550000D03*
D11*
X192980000Y-78550000D03*
D10*
X198060000Y-78550000D03*
D12*
X189170000Y-76010000D03*
X195520000Y-73470000D03*
%TD*%
D10*
%TO.C,S70*%
X185850000Y-173850000D03*
D13*
X187120000Y-171310000D03*
D11*
X190930000Y-173850000D03*
D13*
X193470000Y-168770000D03*
D10*
X196010000Y-173850000D03*
%TD*%
D16*
%TO.C,bs stabilizer*%
X314742000Y-90645000D03*
D17*
X314742000Y-105855000D03*
D16*
X338618000Y-90645000D03*
D17*
X338618000Y-105855000D03*
%TD*%
D10*
%TO.C,S15*%
X121580000Y-78600000D03*
D11*
X126660000Y-78600000D03*
D10*
X131740000Y-78600000D03*
D12*
X122850000Y-76060000D03*
X129200000Y-73520000D03*
%TD*%
D10*
%TO.C,S28*%
X350150000Y-173850000D03*
D11*
X355230000Y-173850000D03*
D10*
X360310000Y-173850000D03*
D12*
X351420000Y-171310000D03*
X357770000Y-168770000D03*
%TD*%
D10*
%TO.C,S48*%
X178730000Y-97630000D03*
D11*
X183810000Y-97630000D03*
D10*
X188890000Y-97630000D03*
D12*
X180000000Y-95090000D03*
X186350000Y-92550000D03*
%TD*%
D10*
%TO.C,S78*%
X350130000Y-97590000D03*
D11*
X355210000Y-97590000D03*
D10*
X360290000Y-97590000D03*
D12*
X351400000Y-95050000D03*
X357750000Y-92510000D03*
%TD*%
D10*
%TO.C,S79*%
X350165000Y-116700000D03*
D11*
X355245000Y-116700000D03*
D10*
X360325000Y-116700000D03*
D12*
X351435000Y-114160000D03*
X357785000Y-111620000D03*
%TD*%
D10*
%TO.C,S6*%
X202480000Y-154800000D03*
D11*
X207560000Y-154800000D03*
D10*
X212640000Y-154800000D03*
D12*
X203750000Y-152260000D03*
X210100000Y-149720000D03*
%TD*%
D10*
%TO.C,S17*%
X321600000Y-97630000D03*
D11*
X326680000Y-97630000D03*
D10*
X331760000Y-97630000D03*
D12*
X322870000Y-95090000D03*
X329220000Y-92550000D03*
%TD*%
D10*
%TO.C,S60*%
X216830000Y-97630000D03*
D11*
X221910000Y-97630000D03*
D10*
X226990000Y-97630000D03*
D12*
X218100000Y-95090000D03*
X224450000Y-92550000D03*
%TD*%
D10*
%TO.C,S5*%
X212080000Y-135750000D03*
D11*
X217160000Y-135750000D03*
D10*
X222240000Y-135750000D03*
D12*
X213350000Y-133210000D03*
X219700000Y-130670000D03*
%TD*%
D10*
%TO.C,S53*%
X245070000Y-78550000D03*
D11*
X250150000Y-78550000D03*
D10*
X255230000Y-78550000D03*
D12*
X246340000Y-76010000D03*
X252690000Y-73470000D03*
%TD*%
D10*
%TO.C,S50*%
X116830000Y-135750000D03*
D11*
X121910000Y-135750000D03*
D10*
X126990000Y-135750000D03*
D12*
X118100000Y-133210000D03*
X124450000Y-130670000D03*
%TD*%
D10*
%TO.C,S62*%
X154930000Y-135750000D03*
D11*
X160010000Y-135750000D03*
D10*
X165090000Y-135750000D03*
D12*
X156200000Y-133210000D03*
X162550000Y-130670000D03*
%TD*%
D10*
%TO.C,S31*%
X92960000Y-116680000D03*
D11*
X98040000Y-116680000D03*
D10*
X103120000Y-116680000D03*
D12*
X94230000Y-114140000D03*
X100580000Y-111600000D03*
%TD*%
D14*
%TO.C,R1*%
X89430000Y-81675000D03*
X89430000Y-83500000D03*
%TD*%
D10*
%TO.C,S63*%
X145330000Y-154800000D03*
D11*
X150410000Y-154800000D03*
D10*
X155490000Y-154800000D03*
D12*
X146600000Y-152260000D03*
X152950000Y-149720000D03*
%TD*%
D10*
%TO.C,S26*%
X269230000Y-135750000D03*
D11*
X274310000Y-135750000D03*
D10*
X279390000Y-135750000D03*
D12*
X270500000Y-133210000D03*
X276850000Y-130670000D03*
%TD*%
D10*
%TO.C,S25*%
X302530000Y-116680000D03*
D11*
X307610000Y-116680000D03*
D10*
X312690000Y-116680000D03*
D12*
X303800000Y-114140000D03*
X310150000Y-111600000D03*
%TD*%
D10*
%TO.C,S11*%
X264430000Y-116680000D03*
D11*
X269510000Y-116680000D03*
D10*
X274590000Y-116680000D03*
D12*
X265700000Y-114140000D03*
X272050000Y-111600000D03*
%TD*%
D10*
%TO.C,S54*%
X197780000Y-97630000D03*
D11*
X202860000Y-97630000D03*
D10*
X207940000Y-97630000D03*
D12*
X199050000Y-95090000D03*
X205400000Y-92550000D03*
%TD*%
D10*
%TO.C,S1*%
X64410000Y-78600000D03*
D11*
X69490000Y-78600000D03*
D10*
X74570000Y-78600000D03*
D12*
X65680000Y-76060000D03*
X72030000Y-73520000D03*
%TD*%
D16*
%TO.C,lshift stabilizer*%
X69452000Y-147815000D03*
D17*
X69452000Y-163025000D03*
D16*
X93328000Y-147815000D03*
D17*
X93328000Y-163025000D03*
%TD*%
D10*
%TO.C,S9*%
X64410000Y-97630000D03*
D11*
X69490000Y-97630000D03*
D10*
X74570000Y-97630000D03*
D12*
X65680000Y-95090000D03*
X72030000Y-92550000D03*
%TD*%
D10*
%TO.C,S67*%
X207280000Y-116680000D03*
D11*
X212360000Y-116680000D03*
D10*
X217440000Y-116680000D03*
D12*
X208550000Y-114140000D03*
X214900000Y-111600000D03*
%TD*%
D10*
%TO.C,S40*%
X304870000Y-154800000D03*
D13*
X306140000Y-152260000D03*
D11*
X309950000Y-154800000D03*
D13*
X312490000Y-149720000D03*
D10*
X315030000Y-154800000D03*
%TD*%
D15*
%TO.C,H2*%
X178100000Y-84800000D03*
%TD*%
D10*
%TO.C,S68*%
X173980000Y-135750000D03*
D11*
X179060000Y-135750000D03*
D10*
X184140000Y-135750000D03*
D12*
X175250000Y-133210000D03*
X181600000Y-130670000D03*
%TD*%
D10*
%TO.C,S36*%
X140600000Y-97630000D03*
D11*
X145680000Y-97630000D03*
D10*
X150760000Y-97630000D03*
D12*
X141870000Y-95090000D03*
X148220000Y-92550000D03*
%TD*%
D10*
%TO.C,S7*%
X281170000Y-173850000D03*
D13*
X282440000Y-171310000D03*
D11*
X286250000Y-173850000D03*
D13*
X288790000Y-168770000D03*
D10*
X291330000Y-173850000D03*
%TD*%
D15*
%TO.C,H4*%
X132400000Y-175950000D03*
%TD*%
D18*
%TO.C,J1*%
X90525000Y-73000000D03*
X86675000Y-73000000D03*
D19*
X89900000Y-73500000D03*
X89250000Y-73500000D03*
X88600000Y-73500000D03*
X87950000Y-73500000D03*
X87300000Y-73500000D03*
D20*
X91800000Y-73080000D03*
D21*
X91425000Y-70850000D03*
D22*
X89725000Y-70850000D03*
X87475000Y-70850000D03*
D21*
X85775000Y-70850000D03*
D20*
X85400000Y-73080000D03*
%TD*%
D10*
%TO.C,S38*%
X71570000Y-135750000D03*
D13*
X72840000Y-133210000D03*
D11*
X76650000Y-135750000D03*
D13*
X79190000Y-130670000D03*
D10*
X81730000Y-135750000D03*
%TD*%
D16*
%TO.C,enter stabilizer*%
X312372000Y-127910000D03*
D17*
X312372000Y-143120000D03*
D16*
X336248000Y-127910000D03*
D17*
X336248000Y-143120000D03*
%TD*%
D10*
%TO.C,S80*%
X350150000Y-135750000D03*
D11*
X355230000Y-135750000D03*
D10*
X360310000Y-135750000D03*
D12*
X351420000Y-133210000D03*
X357770000Y-130670000D03*
%TD*%
D10*
%TO.C,S13*%
X221530000Y-154800000D03*
D11*
X226610000Y-154800000D03*
D10*
X231690000Y-154800000D03*
D12*
X222800000Y-152260000D03*
X229150000Y-149720000D03*
%TD*%
D10*
%TO.C,S14*%
X312040000Y-173850000D03*
D11*
X317120000Y-173850000D03*
D10*
X322200000Y-173850000D03*
D12*
X313310000Y-171310000D03*
X319660000Y-168770000D03*
%TD*%
D10*
%TO.C,S61*%
X188230000Y-116680000D03*
D11*
X193310000Y-116680000D03*
D10*
X198390000Y-116680000D03*
D12*
X189500000Y-114140000D03*
X195850000Y-111600000D03*
%TD*%
D10*
%TO.C,S44*%
X97780000Y-135750000D03*
D11*
X102860000Y-135750000D03*
D10*
X107940000Y-135750000D03*
D12*
X99050000Y-133210000D03*
X105400000Y-130670000D03*
%TD*%
D10*
%TO.C,S30*%
X121560000Y-97630000D03*
D11*
X126640000Y-97630000D03*
D10*
X131720000Y-97630000D03*
D12*
X122830000Y-95090000D03*
X129180000Y-92550000D03*
%TD*%
D10*
%TO.C,S47*%
X226020000Y-78550000D03*
D11*
X231100000Y-78550000D03*
D10*
X236180000Y-78550000D03*
D12*
X227290000Y-76010000D03*
X233640000Y-73470000D03*
%TD*%
D10*
%TO.C,S81*%
X350150000Y-154800000D03*
D11*
X355230000Y-154800000D03*
D10*
X360310000Y-154800000D03*
D12*
X351420000Y-152260000D03*
X357770000Y-149720000D03*
%TD*%
D10*
%TO.C,S12*%
X231130000Y-135750000D03*
D11*
X236210000Y-135750000D03*
D10*
X241290000Y-135750000D03*
D12*
X232400000Y-133210000D03*
X238750000Y-130670000D03*
%TD*%
D16*
%TO.C,space stabilizer*%
X140930000Y-166865000D03*
D17*
X140930000Y-182075000D03*
D16*
X240930000Y-166865000D03*
D17*
X240930000Y-182075000D03*
%TD*%
D23*
%TO.C,D71*%
X95450000Y-71675000D03*
X95450000Y-73550000D03*
%TD*%
D10*
%TO.C,S46*%
X331120000Y-154800000D03*
D11*
X336200000Y-154800000D03*
D10*
X341280000Y-154800000D03*
D12*
X332390000Y-152260000D03*
X338740000Y-149720000D03*
%TD*%
D10*
%TO.C,S34*%
X278680000Y-154800000D03*
D11*
X283760000Y-154800000D03*
D10*
X288840000Y-154800000D03*
D12*
X279950000Y-152260000D03*
X286300000Y-149720000D03*
%TD*%
D10*
%TO.C,S74*%
X193030000Y-135750000D03*
D11*
X198110000Y-135750000D03*
D10*
X203190000Y-135750000D03*
D12*
X194300000Y-133210000D03*
X200650000Y-130670000D03*
%TD*%
D10*
%TO.C,S37*%
X112030000Y-116680000D03*
D11*
X117110000Y-116680000D03*
D10*
X122190000Y-116680000D03*
D12*
X113300000Y-114140000D03*
X119650000Y-111600000D03*
%TD*%
D10*
%TO.C,S41*%
X206970000Y-78550000D03*
D11*
X212050000Y-78550000D03*
D10*
X217130000Y-78550000D03*
D12*
X208240000Y-76010000D03*
X214590000Y-73470000D03*
%TD*%
D10*
%TO.C,S8*%
X102504700Y-78600000D03*
D11*
X107584700Y-78600000D03*
D10*
X112664700Y-78600000D03*
D12*
X103774700Y-76060000D03*
X110124700Y-73520000D03*
%TD*%
D24*
%TO.C,R3*%
X86562500Y-83500000D03*
X84737500Y-83500000D03*
%TD*%
D10*
%TO.C,S77*%
X350100000Y-78550000D03*
D11*
X355180000Y-78550000D03*
D10*
X360260000Y-78550000D03*
D12*
X351370000Y-76010000D03*
X357720000Y-73470000D03*
%TD*%
D10*
%TO.C,S64*%
X114380000Y-173850000D03*
D13*
X115650000Y-171310000D03*
D11*
X119460000Y-173850000D03*
D13*
X122000000Y-168770000D03*
D10*
X124540000Y-173850000D03*
%TD*%
%TO.C,S71*%
X312070000Y-78550000D03*
D11*
X317150000Y-78550000D03*
D10*
X322230000Y-78550000D03*
D12*
X313340000Y-76010000D03*
X319690000Y-73470000D03*
%TD*%
D10*
%TO.C,S45*%
X76310000Y-154800000D03*
D13*
X77580000Y-152260000D03*
D11*
X81390000Y-154800000D03*
D13*
X83930000Y-149720000D03*
D10*
X86470000Y-154800000D03*
%TD*%
%TO.C,S19*%
X250180000Y-135750000D03*
D11*
X255260000Y-135750000D03*
D10*
X260340000Y-135750000D03*
D12*
X251450000Y-133210000D03*
X257800000Y-130670000D03*
%TD*%
D10*
%TO.C,S52*%
X66780000Y-173850000D03*
D13*
X68050000Y-171310000D03*
D11*
X71860000Y-173850000D03*
D13*
X74400000Y-168770000D03*
D10*
X76940000Y-173850000D03*
%TD*%
%TO.C,S42*%
X159680000Y-97630000D03*
D11*
X164760000Y-97630000D03*
D10*
X169840000Y-97630000D03*
D12*
X160950000Y-95090000D03*
X167300000Y-92550000D03*
%TD*%
D10*
%TO.C,S57*%
X126280000Y-154800000D03*
D11*
X131360000Y-154800000D03*
D10*
X136440000Y-154800000D03*
D12*
X127550000Y-152260000D03*
X133900000Y-149720000D03*
%TD*%
D10*
%TO.C,S3*%
X273980000Y-97630000D03*
D11*
X279060000Y-97630000D03*
D10*
X284140000Y-97630000D03*
D12*
X275250000Y-95090000D03*
X281600000Y-92550000D03*
%TD*%
D15*
%TO.C,H5*%
X264400000Y-84800000D03*
%TD*%
D10*
%TO.C,S73*%
X226330000Y-116680000D03*
D11*
X231410000Y-116680000D03*
D10*
X236490000Y-116680000D03*
D12*
X227600000Y-114140000D03*
X233950000Y-111600000D03*
%TD*%
D10*
%TO.C,S32*%
X326330000Y-116680000D03*
D13*
X327600000Y-114140000D03*
D11*
X331410000Y-116680000D03*
D13*
X333950000Y-111600000D03*
D10*
X336490000Y-116680000D03*
%TD*%
%TO.C,S27*%
X259630000Y-154800000D03*
D11*
X264710000Y-154800000D03*
D10*
X269790000Y-154800000D03*
D12*
X260900000Y-152260000D03*
X267250000Y-149720000D03*
%TD*%
D10*
%TO.C,S39*%
X319230000Y-135750000D03*
D13*
X320500000Y-133210000D03*
D11*
X324310000Y-135750000D03*
D13*
X326850000Y-130670000D03*
D10*
X329390000Y-135750000D03*
%TD*%
%TO.C,S22*%
X140630000Y-78600000D03*
D11*
X145710000Y-78600000D03*
D10*
X150790000Y-78600000D03*
D12*
X141900000Y-76060000D03*
X148250000Y-73520000D03*
%TD*%
D10*
%TO.C,S72*%
X254930000Y-97630000D03*
D11*
X260010000Y-97630000D03*
D10*
X265090000Y-97630000D03*
D12*
X256200000Y-95090000D03*
X262550000Y-92550000D03*
%TD*%
D10*
%TO.C,S20*%
X240580000Y-154800000D03*
D11*
X245660000Y-154800000D03*
D10*
X250740000Y-154800000D03*
D12*
X241850000Y-152260000D03*
X248200000Y-149720000D03*
%TD*%
D10*
%TO.C,S18*%
X283480000Y-116680000D03*
D11*
X288560000Y-116680000D03*
D10*
X293640000Y-116680000D03*
D12*
X284750000Y-114140000D03*
X291100000Y-111600000D03*
%TD*%
D10*
%TO.C,S29*%
X159680000Y-78600000D03*
D11*
X164760000Y-78600000D03*
D10*
X169840000Y-78600000D03*
D12*
X160950000Y-76060000D03*
X167300000Y-73520000D03*
%TD*%
D25*
%TO.C,J2*%
X264580000Y-70700000D03*
X264580000Y-77700000D03*
D26*
X267830000Y-79400000D03*
X267830000Y-75400000D03*
X267830000Y-72400000D03*
X261330000Y-80400000D03*
%TD*%
D27*
%TO.C,J5*%
X82100000Y-71000000D03*
D28*
X80830000Y-71000000D03*
X79560000Y-71000000D03*
X78290000Y-71000000D03*
%TD*%
D10*
%TO.C,S43*%
X131080000Y-116680000D03*
D11*
X136160000Y-116680000D03*
D10*
X141240000Y-116680000D03*
D12*
X132350000Y-114140000D03*
X138700000Y-111600000D03*
%TD*%
D10*
%TO.C,S69*%
X164380000Y-154800000D03*
D11*
X169460000Y-154800000D03*
D10*
X174540000Y-154800000D03*
D12*
X165650000Y-152260000D03*
X172000000Y-149720000D03*
%TD*%
D29*
%TO.C,J4*%
X158180000Y-179400000D03*
D30*
X155640000Y-179400000D03*
X153100000Y-179400000D03*
X150560000Y-179400000D03*
%TD*%
D29*
%TO.C,J3*%
X176470000Y-179400000D03*
D30*
X173930000Y-179400000D03*
X171390000Y-179400000D03*
X168850000Y-179400000D03*
%TD*%
M02*
