M48
; DRILL file {KiCad 7.0.8-7.0.8~ubuntu22.04.1} date Mi 08 Nov 2023 21:52:31 CET
; FORMAT={-:-/ absolute / metric / decimal}
; #@! TF.CreationDate,2023-11-08T21:52:31+01:00
; #@! TF.GenerationSoftware,Kicad,Pcbnew,7.0.8-7.0.8~ubuntu22.04.1
; #@! TF.FileFunction,Plated,1,2,PTH
FMAT,2
METRIC
; #@! TA.AperFunction,Plated,PTH,ViaDrill
T1C0.400
; #@! TA.AperFunction,Plated,PTH,ComponentDrill
T2C0.450
; #@! TA.AperFunction,Plated,PTH,ComponentDrill
T3C0.700
; #@! TA.AperFunction,Plated,PTH,ComponentDrill
T4C1.000
; #@! TA.AperFunction,Plated,PTH,ComponentDrill
T5C1.500
; #@! TA.AperFunction,Plated,PTH,ComponentDrill
T6C3.200
%
G90
G05
T1
X64.55Y-152.4
X64.9Y-135.65
X69.2Y-102.4
X78.7Y-86.05
X83.15Y-79.95
X87.7Y-159.05
X88.45Y-102.3
X90.8Y-157.4
X91.25Y-87.05
X92.55Y-76.4
X92.9Y-87.05
X93.7Y-89.45
X95.35Y-89.45
X96.65Y-91.6
X98.05Y-94.05
X98.55Y-86.0
X99.4Y-74.8
X117.1Y-93.1
X126.7Y-101.65
X143.2Y-108.25
X144.75Y-110.85
X145.15Y-177.0
X145.15Y-178.15
X145.15Y-179.25
X145.15Y-180.35
X145.7Y-102.4
X145.85Y-108.2
X146.5Y-110.8
X163.5Y-179.4
X164.75Y-102.3
X166.65Y-127.35
X168.8Y-130.05
X169.3Y-127.35
X170.65Y-130.0
X172.6Y-171.7
X173.05Y-106.1
X173.7Y-146.35
X174.2Y-121.3
X177.7Y-159.0
X177.85Y-162.95
X178.6Y-102.05
X180.5Y-108.4
X181.4Y-176.85
X182.55Y-108.4
X182.7Y-138.5
X182.7Y-165.3
X182.95Y-112.2
X183.15Y-144.2
X183.65Y-102.1
X184.1Y-127.4
X184.95Y-112.15
X185.3Y-176.8
X185.45Y-163.3
X185.65Y-127.4
X187.35Y-127.45
X188.35Y-160.8
X188.6Y-144.0
X188.65Y-165.25
X189.35Y-132.85
X189.85Y-159.35
X191.5Y-143.8
X192.35Y-152.65
X192.6Y-127.5
X192.8Y-178.1
X193.2Y-120.6
X193.3Y-165.05
X193.4Y-102.1
X193.7Y-156.8
X194.55Y-164.0
X196.0Y-162.55
X196.082Y-177.2
X196.45Y-143.75
X196.5Y-158.6
X196.732Y-170.75
X196.732Y-175.2
X197.2Y-168.55
X197.5Y-108.4
X197.8Y-127.1
X198.1Y-140.2
X198.9Y-125.35
X199.4Y-146.65
X199.7Y-154.45
X201.4Y-164.35
X202.5Y-162.6
X203.35Y-161.0
X203.5Y-164.35
X204.275Y-160.575
X204.5Y-164.35
X205.332Y-178.1
X205.482Y-173.8
X206.7Y-143.75
X207.683Y-178.3
X207.9Y-161.4
X208.65Y-137.35
X208.8Y-129.65
X209.25Y-135.75
X209.6Y-159.75
X210.35Y-161.3
X210.732Y-173.9
X211.183Y-173.0
X211.75Y-146.35
X211.9Y-83.0
X212.35Y-121.55
X212.632Y-175.65
X213.0Y-149.25
X213.45Y-161.3
X213.582Y-173.25
X213.65Y-159.65
X213.732Y-171.75
X214.95Y-164.35
X214.982Y-171.8
X215.432Y-175.95
X215.75Y-157.6
X216.032Y-174.3
X216.05Y-150.1
X217.05Y-140.1
X217.25Y-143.8
X217.25Y-148.8
X219.8Y-146.7
X220.2Y-150.15
X221.85Y-102.05
X231.0Y-83.15
X231.4Y-121.2
X232.0Y-129.0
X237.65Y-174.5
X238.875Y-145.438
X240.95Y-102.3
X242.25Y-118.1
X244.25Y-124.95
X245.65Y-159.35
X250.1Y-83.1
X253.2Y-179.25
X255.15Y-178.8
X259.95Y-102.4
X264.75Y-159.45
X266.0Y-182.15
X266.95Y-177.8
X267.8Y-77.3
X267.8Y-81.55
X269.55Y-121.3
X270.9Y-181.5
X271.0Y-90.05
X271.0Y-95.65
X271.0Y-100.55
X272.3Y-90.05
X272.3Y-94.6
X272.3Y-100.55
X274.35Y-140.45
X278.95Y-82.95
X282.35Y-179.2
X285.9Y-164.3
X287.0Y-143.75
X289.45Y-173.35
X289.7Y-177.85
X293.25Y-158.8
X307.6Y-94.4
X326.65Y-155.1
X338.4Y-98.1
X341.05Y-116.7
T3
X78.29Y-71.0
X79.56Y-71.0
X80.83Y-71.0
X82.1Y-71.0
T4
X150.56Y-179.4
X153.1Y-179.4
X155.64Y-179.4
X158.18Y-179.4
X168.85Y-179.4
X171.39Y-179.4
X173.93Y-179.4
X176.47Y-179.4
T5
X65.68Y-76.06
X65.68Y-95.09
X68.05Y-171.31
X70.43Y-114.14
X72.03Y-73.52
X72.03Y-92.55
X72.84Y-133.21
X74.4Y-168.77
X76.78Y-111.6
X77.58Y-152.26
X79.19Y-130.67
X83.93Y-149.72
X84.73Y-95.09
X91.08Y-92.55
X91.85Y-171.31
X94.23Y-114.14
X98.2Y-168.77
X99.05Y-133.21
X100.58Y-111.6
X103.775Y-76.06
X103.78Y-95.09
X105.4Y-130.67
X108.5Y-152.26
X110.125Y-73.52
X110.13Y-92.55
X113.3Y-114.14
X114.85Y-149.72
X115.65Y-171.31
X118.1Y-133.21
X119.65Y-111.6
X122.0Y-168.77
X122.83Y-95.09
X122.85Y-76.06
X124.45Y-130.67
X127.55Y-152.26
X129.18Y-92.55
X129.2Y-73.52
X132.35Y-114.14
X133.9Y-149.72
X137.15Y-133.21
X138.7Y-111.6
X141.87Y-95.09
X141.9Y-76.06
X143.5Y-130.67
X146.6Y-152.26
X148.22Y-92.55
X148.25Y-73.52
X151.4Y-114.14
X152.95Y-149.72
X156.2Y-133.21
X157.75Y-111.6
X160.95Y-76.06
X160.95Y-95.09
X162.55Y-130.67
X165.65Y-152.26
X167.3Y-73.52
X167.3Y-92.55
X170.45Y-114.14
X172.0Y-149.72
X175.25Y-133.21
X176.8Y-111.6
X180.0Y-95.09
X181.6Y-130.67
X184.7Y-152.26
X186.35Y-92.55
X187.12Y-171.31
X189.17Y-76.01
X189.5Y-114.14
X191.05Y-149.72
X193.47Y-168.77
X194.3Y-133.21
X195.52Y-73.47
X195.85Y-111.6
X199.05Y-95.09
X200.65Y-130.67
X203.75Y-152.26
X205.4Y-92.55
X208.24Y-76.01
X208.55Y-114.14
X210.1Y-149.72
X213.35Y-133.21
X214.59Y-73.47
X214.9Y-111.6
X218.1Y-95.09
X219.7Y-130.67
X222.8Y-152.26
X224.45Y-92.55
X227.29Y-76.01
X227.6Y-114.14
X229.15Y-149.72
X232.4Y-133.21
X233.64Y-73.47
X233.95Y-111.6
X237.15Y-95.09
X238.75Y-130.67
X241.85Y-152.26
X243.5Y-92.55
X246.34Y-76.01
X246.65Y-114.14
X248.2Y-149.72
X251.45Y-133.21
X252.69Y-73.47
X253.0Y-111.6
X256.2Y-95.09
X257.8Y-130.67
X258.56Y-171.31
X260.9Y-152.26
X262.55Y-92.55
X264.91Y-168.77
X265.7Y-114.14
X267.25Y-149.72
X270.5Y-133.21
X272.05Y-111.6
X275.24Y-76.01
X275.25Y-95.09
X276.85Y-130.67
X279.95Y-152.26
X281.59Y-73.47
X281.6Y-92.55
X282.44Y-171.31
X284.75Y-114.14
X286.3Y-149.72
X288.79Y-168.77
X289.55Y-133.21
X291.1Y-111.6
X294.29Y-76.01
X294.3Y-95.09
X295.9Y-130.67
X300.64Y-73.47
X300.65Y-92.55
X303.8Y-114.14
X306.14Y-152.26
X310.15Y-111.6
X312.49Y-149.72
X313.31Y-171.31
X313.34Y-76.01
X319.66Y-168.77
X319.69Y-73.47
X320.5Y-133.21
X322.87Y-95.09
X326.85Y-130.67
X327.6Y-114.14
X329.22Y-92.55
X332.36Y-171.31
X332.39Y-76.01
X332.39Y-152.26
X333.95Y-111.6
X338.71Y-168.77
X338.74Y-73.47
X338.74Y-149.72
X351.37Y-76.01
X351.4Y-95.05
X351.42Y-133.21
X351.42Y-152.26
X351.42Y-171.31
X351.435Y-114.16
X357.72Y-73.47
X357.75Y-92.51
X357.77Y-130.67
X357.77Y-149.72
X357.77Y-168.77
X357.785Y-111.62
T6
X80.35Y-84.8
X132.4Y-175.95
X178.1Y-84.8
X264.4Y-84.8
X300.55Y-175.95
T2
G00X85.775Y-71.25
M15
G01X85.775Y-70.45
M16
G05
G00X91.425Y-70.45
M15
G01X91.425Y-71.25
M16
G05
T0
M30
