%TF.GenerationSoftware,KiCad,Pcbnew,7.0.8-7.0.8~ubuntu22.04.1*%
%TF.CreationDate,2023-11-08T21:52:34+01:00*%
%TF.ProjectId,keyboard,6b657962-6f61-4726-942e-6b696361645f,rev?*%
%TF.SameCoordinates,Original*%
%TF.FileFunction,Paste,Bot*%
%TF.FilePolarity,Positive*%
%FSLAX46Y46*%
G04 Gerber Fmt 4.6, Leading zero omitted, Abs format (unit mm)*
G04 Created by KiCad (PCBNEW 7.0.8-7.0.8~ubuntu22.04.1) date 2023-11-08 21:52:34*
%MOMM*%
%LPD*%
G01*
G04 APERTURE LIST*
G04 Aperture macros list*
%AMRoundRect*
0 Rectangle with rounded corners*
0 $1 Rounding radius*
0 $2 $3 $4 $5 $6 $7 $8 $9 X,Y pos of 4 corners*
0 Add a 4 corners polygon primitive as box body*
4,1,4,$2,$3,$4,$5,$6,$7,$8,$9,$2,$3,0*
0 Add four circle primitives for the rounded corners*
1,1,$1+$1,$2,$3*
1,1,$1+$1,$4,$5*
1,1,$1+$1,$6,$7*
1,1,$1+$1,$8,$9*
0 Add four rect primitives between the rounded corners*
20,1,$1+$1,$2,$3,$4,$5,0*
20,1,$1+$1,$4,$5,$6,$7,0*
20,1,$1+$1,$6,$7,$8,$9,0*
20,1,$1+$1,$8,$9,$2,$3,0*%
G04 Aperture macros list end*
%ADD10RoundRect,0.218750X-0.218750X-0.256250X0.218750X-0.256250X0.218750X0.256250X-0.218750X0.256250X0*%
%ADD11R,2.400000X1.900000*%
%ADD12RoundRect,0.250000X0.650000X-0.325000X0.650000X0.325000X-0.650000X0.325000X-0.650000X-0.325000X0*%
%ADD13RoundRect,0.250000X0.262500X0.450000X-0.262500X0.450000X-0.262500X-0.450000X0.262500X-0.450000X0*%
%ADD14RoundRect,0.250000X0.250000X0.475000X-0.250000X0.475000X-0.250000X-0.475000X0.250000X-0.475000X0*%
%ADD15RoundRect,0.075000X0.662500X0.075000X-0.662500X0.075000X-0.662500X-0.075000X0.662500X-0.075000X0*%
%ADD16RoundRect,0.075000X0.075000X0.662500X-0.075000X0.662500X-0.075000X-0.662500X0.075000X-0.662500X0*%
%ADD17RoundRect,0.250000X0.475000X-0.250000X0.475000X0.250000X-0.475000X0.250000X-0.475000X-0.250000X0*%
%ADD18RoundRect,0.250000X0.450000X-0.262500X0.450000X0.262500X-0.450000X0.262500X-0.450000X-0.262500X0*%
%ADD19R,1.500000X2.000000*%
%ADD20R,3.800000X2.000000*%
%ADD21RoundRect,0.250000X-0.250000X-0.475000X0.250000X-0.475000X0.250000X0.475000X-0.250000X0.475000X0*%
%ADD22R,1.300000X1.900000*%
%ADD23RoundRect,0.250000X-0.450000X0.262500X-0.450000X-0.262500X0.450000X-0.262500X0.450000X0.262500X0*%
%ADD24RoundRect,0.250000X-0.650000X0.325000X-0.650000X-0.325000X0.650000X-0.325000X0.650000X0.325000X0*%
G04 APERTURE END LIST*
D10*
%TO.C,D42*%
X163062500Y-92550000D03*
X164637500Y-92550000D03*
%TD*%
%TO.C,D74*%
X229612500Y-111600000D03*
X231187500Y-111600000D03*
%TD*%
%TO.C,D64*%
X117725000Y-168750000D03*
X119300000Y-168750000D03*
%TD*%
%TO.C,D44*%
X101125000Y-130650000D03*
X102700000Y-130650000D03*
%TD*%
%TO.C,D62*%
X158312500Y-130650000D03*
X159887500Y-130650000D03*
%TD*%
%TO.C,D45*%
X79662500Y-149700000D03*
X81237500Y-149700000D03*
%TD*%
D11*
%TO.C,Y2*%
X225482500Y-175850000D03*
X225482500Y-179950000D03*
%TD*%
D10*
%TO.C,D72*%
X315362500Y-73450000D03*
X316937500Y-73450000D03*
%TD*%
D12*
%TO.C,C7*%
X80250000Y-79125000D03*
X80250000Y-76175000D03*
%TD*%
D10*
%TO.C,D65*%
X296282500Y-73450000D03*
X297857500Y-73450000D03*
%TD*%
%TO.C,D4*%
X248612500Y-111600000D03*
X250187500Y-111600000D03*
%TD*%
D13*
%TO.C,R10*%
X200695000Y-168550000D03*
X198870000Y-168550000D03*
%TD*%
D10*
%TO.C,D10*%
X296362500Y-92550000D03*
X297937500Y-92550000D03*
%TD*%
%TO.C,D30*%
X124912500Y-92550000D03*
X126487500Y-92550000D03*
%TD*%
%TO.C,D37*%
X115362500Y-111600000D03*
X116937500Y-111600000D03*
%TD*%
D14*
%TO.C,C10*%
X231365000Y-175862500D03*
X229465000Y-175862500D03*
%TD*%
D13*
%TO.C,R12*%
X200625000Y-180750000D03*
X198800000Y-180750000D03*
%TD*%
D10*
%TO.C,D8*%
X105655000Y-73500000D03*
X107230000Y-73500000D03*
%TD*%
%TO.C,D21*%
X334462500Y-168750000D03*
X336037500Y-168750000D03*
%TD*%
D15*
%TO.C,U1*%
X217512500Y-170800000D03*
X217512500Y-171300000D03*
X217512500Y-171800000D03*
X217512500Y-172300000D03*
X217512500Y-172800000D03*
X217512500Y-173300000D03*
X217512500Y-173800000D03*
X217512500Y-174300000D03*
X217512500Y-174800000D03*
X217512500Y-175300000D03*
X217512500Y-175800000D03*
X217512500Y-176300000D03*
D16*
X216100000Y-177712500D03*
X215600000Y-177712500D03*
X215100000Y-177712500D03*
X214600000Y-177712500D03*
X214100000Y-177712500D03*
X213600000Y-177712500D03*
X213100000Y-177712500D03*
X212600000Y-177712500D03*
X212100000Y-177712500D03*
X211600000Y-177712500D03*
X211100000Y-177712500D03*
X210600000Y-177712500D03*
D15*
X209187500Y-176300000D03*
X209187500Y-175800000D03*
X209187500Y-175300000D03*
X209187500Y-174800000D03*
X209187500Y-174300000D03*
X209187500Y-173800000D03*
X209187500Y-173300000D03*
X209187500Y-172800000D03*
X209187500Y-172300000D03*
X209187500Y-171800000D03*
X209187500Y-171300000D03*
X209187500Y-170800000D03*
D16*
X210600000Y-169387500D03*
X211100000Y-169387500D03*
X211600000Y-169387500D03*
X212100000Y-169387500D03*
X212600000Y-169387500D03*
X213100000Y-169387500D03*
X213600000Y-169387500D03*
X214100000Y-169387500D03*
X214600000Y-169387500D03*
X215100000Y-169387500D03*
X215600000Y-169387500D03*
X216100000Y-169387500D03*
%TD*%
D10*
%TO.C,D75*%
X196312500Y-130650000D03*
X197887500Y-130650000D03*
%TD*%
%TO.C,D9*%
X67755000Y-92550000D03*
X69330000Y-92550000D03*
%TD*%
D17*
%TO.C,C5*%
X158950000Y-169600000D03*
X158950000Y-167700000D03*
%TD*%
D18*
%TO.C,R6*%
X213400000Y-164762500D03*
X213400000Y-162937500D03*
%TD*%
D10*
%TO.C,D54*%
X201112500Y-92550000D03*
X202687500Y-92550000D03*
%TD*%
%TO.C,D36*%
X143962500Y-92550000D03*
X145537500Y-92550000D03*
%TD*%
%TO.C,D76*%
X186775000Y-149700000D03*
X188350000Y-149700000D03*
%TD*%
%TO.C,D35*%
X191162500Y-73500000D03*
X192737500Y-73500000D03*
%TD*%
%TO.C,D12*%
X234462500Y-130650000D03*
X236037500Y-130650000D03*
%TD*%
%TO.C,D52*%
X70162500Y-168750000D03*
X71737500Y-168750000D03*
%TD*%
%TO.C,D27*%
X262962500Y-149700000D03*
X264537500Y-149700000D03*
%TD*%
%TO.C,D55*%
X172512500Y-111600000D03*
X174087500Y-111600000D03*
%TD*%
%TO.C,D59*%
X277232500Y-73500000D03*
X278807500Y-73500000D03*
%TD*%
D19*
%TO.C,U2*%
X90780000Y-85200000D03*
X88480000Y-85200000D03*
D20*
X88480000Y-78900000D03*
D19*
X86180000Y-85200000D03*
%TD*%
D13*
%TO.C,R11*%
X200625000Y-177800000D03*
X198800000Y-177800000D03*
%TD*%
D17*
%TO.C,C1*%
X173950000Y-169650000D03*
X173950000Y-167750000D03*
%TD*%
D10*
%TO.C,D3*%
X277262500Y-92550000D03*
X278837500Y-92550000D03*
%TD*%
%TO.C,D50*%
X120230000Y-130650000D03*
X121805000Y-130650000D03*
%TD*%
%TO.C,D39*%
X322562500Y-130650000D03*
X324137500Y-130650000D03*
%TD*%
%TO.C,D70*%
X189125000Y-168750000D03*
X190700000Y-168750000D03*
%TD*%
%TO.C,D82*%
X353362500Y-149700000D03*
X354937500Y-149700000D03*
%TD*%
%TO.C,D22*%
X143942500Y-73500000D03*
X145517500Y-73500000D03*
%TD*%
D21*
%TO.C,C13*%
X218332500Y-180550000D03*
X220232500Y-180550000D03*
%TD*%
D22*
%TO.C,Y1*%
X224850000Y-168787500D03*
X230350000Y-168787500D03*
X230350000Y-171987500D03*
X224850000Y-171987500D03*
%TD*%
D10*
%TO.C,D56*%
X139212500Y-130650000D03*
X140787500Y-130650000D03*
%TD*%
%TO.C,D29*%
X162930000Y-73500000D03*
X164505000Y-73500000D03*
%TD*%
%TO.C,D58*%
X93912500Y-168750000D03*
X95487500Y-168750000D03*
%TD*%
%TO.C,D80*%
X353400000Y-111650000D03*
X354975000Y-111650000D03*
%TD*%
%TO.C,D20*%
X243925000Y-149700000D03*
X245500000Y-149700000D03*
%TD*%
%TO.C,D33*%
X291605000Y-130700000D03*
X293180000Y-130700000D03*
%TD*%
%TO.C,D34*%
X282062500Y-149700000D03*
X283637500Y-149700000D03*
%TD*%
D17*
%TO.C,C2*%
X168950000Y-169650000D03*
X168950000Y-167750000D03*
%TD*%
D10*
%TO.C,D51*%
X110562500Y-149700000D03*
X112137500Y-149700000D03*
%TD*%
%TO.C,D15*%
X124805000Y-73500000D03*
X126380000Y-73500000D03*
%TD*%
%TO.C,D32*%
X329662500Y-111600000D03*
X331237500Y-111600000D03*
%TD*%
%TO.C,D23*%
X105812500Y-92550000D03*
X107387500Y-92550000D03*
%TD*%
%TO.C,D26*%
X272580000Y-130700000D03*
X274155000Y-130700000D03*
%TD*%
%TO.C,D28*%
X353425000Y-168750000D03*
X355000000Y-168750000D03*
%TD*%
%TO.C,D40*%
X308252500Y-149700000D03*
X309827500Y-149700000D03*
%TD*%
D17*
%TO.C,C8*%
X148950000Y-169650000D03*
X148950000Y-167750000D03*
%TD*%
D10*
%TO.C,D14*%
X315275000Y-168800000D03*
X316850000Y-168800000D03*
%TD*%
%TO.C,D78*%
X353400000Y-73450000D03*
X354975000Y-73450000D03*
%TD*%
%TO.C,D46*%
X334325000Y-149700000D03*
X335900000Y-149700000D03*
%TD*%
%TO.C,D38*%
X74912500Y-130700000D03*
X76487500Y-130700000D03*
%TD*%
%TO.C,D49*%
X153412500Y-111600000D03*
X154987500Y-111600000D03*
%TD*%
D23*
%TO.C,R4*%
X221032500Y-176865000D03*
X221032500Y-178690000D03*
%TD*%
D10*
%TO.C,D41*%
X210300000Y-73450000D03*
X211875000Y-73450000D03*
%TD*%
%TO.C,D7*%
X284525000Y-168750000D03*
X286100000Y-168750000D03*
%TD*%
%TO.C,D77*%
X260462500Y-168750000D03*
X262037500Y-168750000D03*
%TD*%
D13*
%TO.C,R7*%
X200625000Y-171800000D03*
X198800000Y-171800000D03*
%TD*%
D10*
%TO.C,D19*%
X253512500Y-130650000D03*
X255087500Y-130650000D03*
%TD*%
%TO.C,D5*%
X215362500Y-130650000D03*
X216937500Y-130650000D03*
%TD*%
%TO.C,D67*%
X210512500Y-111600000D03*
X212087500Y-111600000D03*
%TD*%
%TO.C,D18*%
X286775000Y-111600000D03*
X288350000Y-111600000D03*
%TD*%
D14*
%TO.C,C9*%
X231365000Y-179950000D03*
X229465000Y-179950000D03*
%TD*%
D10*
%TO.C,D11*%
X267712500Y-111600000D03*
X269287500Y-111600000D03*
%TD*%
%TO.C,D73*%
X258262500Y-92550000D03*
X259837500Y-92550000D03*
%TD*%
%TO.C,D25*%
X305862500Y-111600000D03*
X307437500Y-111600000D03*
%TD*%
D14*
%TO.C,C11*%
X234832500Y-171950000D03*
X232932500Y-171950000D03*
%TD*%
D10*
%TO.C,D17*%
X324912500Y-92550000D03*
X326487500Y-92550000D03*
%TD*%
%TO.C,D24*%
X72355000Y-111600000D03*
X73930000Y-111600000D03*
%TD*%
%TO.C,D48*%
X182062500Y-92550000D03*
X183637500Y-92550000D03*
%TD*%
%TO.C,D57*%
X129612500Y-149700000D03*
X131187500Y-149700000D03*
%TD*%
%TO.C,D66*%
X239212500Y-92550000D03*
X240787500Y-92550000D03*
%TD*%
%TO.C,D53*%
X248412500Y-73500000D03*
X249987500Y-73500000D03*
%TD*%
%TO.C,D63*%
X148662500Y-149700000D03*
X150237500Y-149700000D03*
%TD*%
%TO.C,D81*%
X353400000Y-130650000D03*
X354975000Y-130650000D03*
%TD*%
D17*
%TO.C,C3*%
X163950000Y-169600000D03*
X163950000Y-167700000D03*
%TD*%
D10*
%TO.C,D13*%
X224912500Y-149700000D03*
X226487500Y-149700000D03*
%TD*%
%TO.C,D47*%
X229312500Y-73450000D03*
X230887500Y-73450000D03*
%TD*%
D24*
%TO.C,C4*%
X95480000Y-83100000D03*
X95480000Y-86050000D03*
%TD*%
D17*
%TO.C,C6*%
X153950000Y-169650000D03*
X153950000Y-167750000D03*
%TD*%
D10*
%TO.C,D6*%
X205712500Y-149700000D03*
X207287500Y-149700000D03*
%TD*%
%TO.C,D79*%
X353300000Y-92540000D03*
X354875000Y-92540000D03*
%TD*%
%TO.C,D2*%
X334462500Y-73450000D03*
X336037500Y-73450000D03*
%TD*%
%TO.C,D31*%
X96162500Y-111600000D03*
X97737500Y-111600000D03*
%TD*%
%TO.C,D1*%
X67242500Y-73520000D03*
X68817500Y-73520000D03*
%TD*%
%TO.C,D61*%
X191562500Y-111600000D03*
X193137500Y-111600000D03*
%TD*%
%TO.C,D69*%
X167762500Y-149700000D03*
X169337500Y-149700000D03*
%TD*%
D18*
%TO.C,R9*%
X210400000Y-164762500D03*
X210400000Y-162937500D03*
%TD*%
D13*
%TO.C,R8*%
X200625000Y-174800000D03*
X198800000Y-174800000D03*
%TD*%
D10*
%TO.C,D16*%
X86780000Y-92550000D03*
X88355000Y-92550000D03*
%TD*%
D14*
%TO.C,C12*%
X234832500Y-168800000D03*
X232932500Y-168800000D03*
%TD*%
D10*
%TO.C,D43*%
X134362500Y-111600000D03*
X135937500Y-111600000D03*
%TD*%
%TO.C,D68*%
X177312500Y-130650000D03*
X178887500Y-130650000D03*
%TD*%
%TO.C,D60*%
X220180000Y-92550000D03*
X221755000Y-92550000D03*
%TD*%
M02*
