M48
; DRILL file {KiCad 7.0.8-7.0.8~ubuntu22.04.1} date Mi 08 Nov 2023 21:52:31 CET
; FORMAT={-:-/ absolute / metric / decimal}
; #@! TF.CreationDate,2023-11-08T21:52:31+01:00
; #@! TF.GenerationSoftware,Kicad,Pcbnew,7.0.8-7.0.8~ubuntu22.04.1
; #@! TF.FileFunction,NonPlated,1,2,NPTH
FMAT,2
METRIC
; #@! TA.AperFunction,NonPlated,NPTH,ComponentDrill
T1C0.550
; #@! TA.AperFunction,NonPlated,NPTH,ComponentDrill
T2C1.300
; #@! TA.AperFunction,NonPlated,NPTH,ComponentDrill
T3C1.750
; #@! TA.AperFunction,NonPlated,NPTH,ComponentDrill
T4C3.048
; #@! TA.AperFunction,NonPlated,NPTH,ComponentDrill
T5C3.988
; #@! TA.AperFunction,NonPlated,NPTH,ComponentDrill
T6C4.000
%
G90
G05
T1
X86.675Y-73.0
X90.525Y-73.0
T2
X264.58Y-70.7
X264.58Y-77.7
T3
X64.41Y-78.6
X64.41Y-97.63
X66.78Y-173.85
X69.16Y-116.68
X71.57Y-135.75
X74.57Y-78.6
X74.57Y-97.63
X76.31Y-154.8
X76.94Y-173.85
X79.32Y-116.68
X81.73Y-135.75
X83.46Y-97.63
X86.47Y-154.8
X90.58Y-173.85
X92.96Y-116.68
X93.62Y-97.63
X97.78Y-135.75
X100.74Y-173.85
X102.505Y-78.6
X102.51Y-97.63
X103.12Y-116.68
X107.23Y-154.8
X107.94Y-135.75
X112.03Y-116.68
X112.665Y-78.6
X112.67Y-97.63
X114.38Y-173.85
X116.83Y-135.75
X117.39Y-154.8
X121.56Y-97.63
X121.58Y-78.6
X122.19Y-116.68
X124.54Y-173.85
X126.28Y-154.8
X126.99Y-135.75
X131.08Y-116.68
X131.72Y-97.63
X131.74Y-78.6
X135.88Y-135.75
X136.44Y-154.8
X140.6Y-97.63
X140.63Y-78.6
X141.24Y-116.68
X145.33Y-154.8
X146.04Y-135.75
X150.13Y-116.68
X150.76Y-97.63
X150.79Y-78.6
X154.93Y-135.75
X155.49Y-154.8
X159.68Y-78.6
X159.68Y-97.63
X160.29Y-116.68
X164.38Y-154.8
X165.09Y-135.75
X169.18Y-116.68
X169.84Y-78.6
X169.84Y-97.63
X173.98Y-135.75
X174.54Y-154.8
X178.73Y-97.63
X179.34Y-116.68
X183.43Y-154.8
X184.14Y-135.75
X185.85Y-173.85
X187.9Y-78.55
X188.23Y-116.68
X188.89Y-97.63
X193.03Y-135.75
X193.59Y-154.8
X196.01Y-173.85
X197.78Y-97.63
X198.06Y-78.55
X198.39Y-116.68
X202.48Y-154.8
X203.19Y-135.75
X206.97Y-78.55
X207.28Y-116.68
X207.94Y-97.63
X212.08Y-135.75
X212.64Y-154.8
X216.83Y-97.63
X217.13Y-78.55
X217.44Y-116.68
X221.53Y-154.8
X222.24Y-135.75
X226.02Y-78.55
X226.33Y-116.68
X226.99Y-97.63
X231.13Y-135.75
X231.69Y-154.8
X235.88Y-97.63
X236.18Y-78.55
X236.49Y-116.68
X240.58Y-154.8
X241.29Y-135.75
X245.07Y-78.55
X245.38Y-116.68
X246.04Y-97.63
X250.18Y-135.75
X250.74Y-154.8
X254.93Y-97.63
X255.23Y-78.55
X255.54Y-116.68
X257.29Y-173.85
X259.63Y-154.8
X260.34Y-135.75
X264.43Y-116.68
X265.09Y-97.63
X267.45Y-173.85
X269.23Y-135.75
X269.79Y-154.8
X273.97Y-78.55
X273.98Y-97.63
X274.59Y-116.68
X278.68Y-154.8
X279.39Y-135.75
X281.17Y-173.85
X283.48Y-116.68
X284.13Y-78.55
X284.14Y-97.63
X288.28Y-135.75
X288.84Y-154.8
X291.33Y-173.85
X293.02Y-78.55
X293.03Y-97.63
X293.64Y-116.68
X298.44Y-135.75
X302.53Y-116.68
X303.18Y-78.55
X303.19Y-97.63
X304.87Y-154.8
X312.04Y-173.85
X312.07Y-78.55
X312.69Y-116.68
X315.03Y-154.8
X319.23Y-135.75
X321.6Y-97.63
X322.2Y-173.85
X322.23Y-78.55
X326.33Y-116.68
X329.39Y-135.75
X331.09Y-173.85
X331.12Y-78.55
X331.12Y-154.8
X331.76Y-97.63
X336.49Y-116.68
X341.25Y-173.85
X341.28Y-78.55
X341.28Y-154.8
X350.1Y-78.55
X350.13Y-97.59
X350.15Y-135.75
X350.15Y-154.8
X350.15Y-173.85
X350.165Y-116.7
X360.26Y-78.55
X360.29Y-97.59
X360.31Y-135.75
X360.31Y-154.8
X360.31Y-173.85
X360.325Y-116.7
T4
X69.452Y-147.815
X93.328Y-147.815
X140.93Y-166.865
X240.93Y-166.865
X312.372Y-127.91
X314.742Y-90.645
X336.248Y-127.91
X338.618Y-90.645
T5
X69.452Y-163.025
X93.328Y-163.025
X140.93Y-182.075
X240.93Y-182.075
X312.372Y-143.12
X314.742Y-105.855
X336.248Y-143.12
X338.618Y-105.855
T6
X69.49Y-78.6
X69.49Y-97.63
X71.86Y-173.85
X74.24Y-116.68
X76.65Y-135.75
X81.39Y-154.8
X88.54Y-97.63
X95.66Y-173.85
X98.04Y-116.68
X102.86Y-135.75
X107.585Y-78.6
X107.59Y-97.63
X112.31Y-154.8
X117.11Y-116.68
X119.46Y-173.85
X121.91Y-135.75
X126.64Y-97.63
X126.66Y-78.6
X131.36Y-154.8
X136.16Y-116.68
X140.96Y-135.75
X145.68Y-97.63
X145.71Y-78.6
X150.41Y-154.8
X155.21Y-116.68
X160.01Y-135.75
X164.76Y-78.6
X164.76Y-97.63
X169.46Y-154.8
X174.26Y-116.68
X179.06Y-135.75
X183.81Y-97.63
X188.51Y-154.8
X190.93Y-173.85
X192.98Y-78.55
X193.31Y-116.68
X198.11Y-135.75
X202.86Y-97.63
X207.56Y-154.8
X212.05Y-78.55
X212.36Y-116.68
X217.16Y-135.75
X221.91Y-97.63
X226.61Y-154.8
X231.1Y-78.55
X231.41Y-116.68
X236.21Y-135.75
X240.96Y-97.63
X245.66Y-154.8
X250.15Y-78.55
X250.46Y-116.68
X255.26Y-135.75
X260.01Y-97.63
X262.37Y-173.85
X264.71Y-154.8
X269.51Y-116.68
X274.31Y-135.75
X279.05Y-78.55
X279.06Y-97.63
X283.76Y-154.8
X286.25Y-173.85
X288.56Y-116.68
X293.36Y-135.75
X298.1Y-78.55
X298.11Y-97.63
X307.61Y-116.68
X309.95Y-154.8
X317.12Y-173.85
X317.15Y-78.55
X324.31Y-135.75
X326.68Y-97.63
X331.41Y-116.68
X336.17Y-173.85
X336.2Y-78.55
X336.2Y-154.8
X355.18Y-78.55
X355.21Y-97.59
X355.23Y-135.75
X355.23Y-154.8
X355.23Y-173.85
X355.245Y-116.7
T0
M30
